<?xml version="1.0" encoding="utf-8" ?>
<svg xmlns="http://www.w3.org/2000/svg" xmlns:xlink="http://www.w3.org/1999/xlink" width="810" height="148">
	<defs>
		<linearGradient id="gradient_0" gradientUnits="userSpaceOnUse" x1="23.532" y1="0" x2="23.532" y2="47.138">
			<stop offset="0" stop-color="#FBE6BE"/>
			<stop offset="1" stop-color="#F5C889"/>
		</linearGradient>
	</defs>
	<path fill="url(#gradient_0)" transform="translate(2.51597 1.258)" d="M1.258 47.138C0.86333334 47.138 0.55500001 46.977665 0.333 46.657001C0.111 46.336334 0 45.953999 0 45.509998C0.049333334 44.77 0.19733334 44.326 0.44400001 44.178001C0.69066668 44.029999 1.1593333 43.956001 1.85 43.956001C3.2806666 43.956001 4.3413334 43.696999 5.0320001 43.179001C5.7226667 42.660999 6.1543331 42.019665 6.3270001 41.255001C6.4996667 40.490334 6.6106668 39.491333 6.6599998 38.257999L6.6599998 8.8800001C6.6106668 7.6466665 6.4996667 6.6476665 6.3270001 5.8829999C6.1543331 5.1183333 5.7226667 4.4770002 5.0320001 3.9590001C4.3413334 3.441 3.2806666 3.1819999 1.85 3.1819999L1.406 3.1819999C0.91266668 3.1819999 0.56733334 3.0956666 0.37 2.9230001C0.17266667 2.7503333 0.049333334 2.3186667 0 1.628C0 1.184 0.111 0.80166668 0.333 0.48100001C0.55500001 0.16033334 0.86333334 0 1.258 0C4.5139999 0.148 7.4493332 0.222 10.064 0.222L21.608 0.222C26.344 0.222 30.648333 1.1716666 34.521 3.0710001C38.393665 4.9703331 41.452332 7.6960001 43.696999 11.248C45.941666 14.8 47.063999 18.993334 47.063999 23.827999C47.063999 28.860001 45.793667 33.115002 43.252998 36.592999C40.712334 40.070999 37.407001 42.660999 33.337002 44.362999C29.267 46.064999 24.913334 46.916 20.275999 46.916L10.064 46.916C7.4493332 46.916 4.5139999 46.990002 1.258 47.138ZM21.386 44.178001C27.158001 44.178001 31.388334 42.389668 34.077 38.813C36.765667 35.236332 38.110001 30.241333 38.110001 23.827999C38.110001 19.782667 37.382332 16.169001 35.926998 12.987C34.471668 9.8050003 32.362667 7.3260002 29.6 5.5500002C26.837334 3.7739999 23.556667 2.8859999 19.757999 2.8859999L13.986 2.96L13.986 39.146C13.986 41.07 14.565666 42.389668 15.725 43.105C16.884333 43.820332 18.771334 44.178001 21.386 44.178001Z"/>
	<defs>
		<linearGradient id="gradient_1" gradientUnits="userSpaceOnUse" x1="19.096354" y1="0" x2="19.096354" y2="47.138">
			<stop offset="0" stop-color="#FBE6BE"/>
			<stop offset="1" stop-color="#F5C889"/>
		</linearGradient>
	</defs>
	<path fill="url(#gradient_1)" transform="translate(56.388 1.258)" d="M1.258 47.138C0.86333334 47.138 0.55500001 46.977665 0.333 46.657001C0.111 46.336334 0 45.953999 0 45.509998C0.049333334 44.77 0.19733334 44.326 0.44400001 44.178001C0.69066668 44.029999 1.1593333 43.956001 1.85 43.956001C3.2806666 43.956001 4.3413334 43.696999 5.0320001 43.179001C5.7226667 42.660999 6.1543331 42.019665 6.3270001 41.255001C6.4996667 40.490334 6.6106668 39.491333 6.6599998 38.257999L6.6599998 8.8800001C6.6106668 7.6466665 6.4996667 6.6476665 6.3270001 5.8829999C6.1543331 5.1183333 5.7226667 4.4770002 5.0320001 3.9590001C4.3413334 3.441 3.2806666 3.1819999 1.85 3.1819999L1.406 3.1819999C0.91266668 3.1819999 0.56733334 3.0956666 0.37 2.9230001C0.17266667 2.7503333 0.049333334 2.3186667 0 1.628C0 1.184 0.111 0.80166668 0.333 0.48100001C0.55500001 0.16033334 0.86333334 0 1.258 0C4.5139999 0.148 7.4493332 0.222 10.064 0.222L33.299999 0.222C34.582668 0.222 35.223999 0.81400001 35.223999 1.998L35.445999 12.358C35.445999 12.802 35.223999 13.159667 34.779999 13.431C34.335999 13.702333 33.891998 13.838 33.448002 13.838C32.855999 13.838 32.338001 13.727 31.893999 13.505C31.450001 13.283 31.203333 12.95 31.153999 12.506C30.759333 10.088667 30.327667 8.2510004 29.858999 6.993C29.390333 5.7350001 28.699667 4.7976665 27.787001 4.1810002C26.874332 3.5643334 25.579334 3.2313333 23.902 3.1819999L13.986 3.1819999L13.986 21.978001L27.379999 21.978001C27.725334 22.027334 27.996666 22.212334 28.194 22.533001C28.391333 22.853666 28.49 23.236 28.49 23.68C28.49 24.074667 28.391333 24.42 28.194 24.716C27.996666 25.011999 27.725334 25.16 27.379999 25.16L13.986 25.16L13.986 39.146C14.084666 40.181999 14.208 41.008335 14.356 41.625C14.504 42.241665 14.948 42.796665 15.688 43.290001C16.427999 43.783333 17.587334 44.005333 19.166 43.956001L25.974001 43.956001C27.700666 43.906666 29.007999 43.623001 29.896 43.105C30.784 42.587002 31.487 41.785332 32.005001 40.700001C32.522999 39.614666 33.152 37.838665 33.891998 35.372002C34.237335 34.484001 35.076 34.138668 36.408001 34.335999C36.901333 34.434666 37.333 34.632 37.702999 34.928001C38.073002 35.223999 38.233334 35.594002 38.183998 36.037998L36.703999 45.362C36.556 46.003334 36.334 46.422668 36.037998 46.619999C35.742001 46.817333 35.248665 46.916 34.557999 46.916L10.138 46.916C7.474 46.916 4.5139999 46.990002 1.258 47.138Z"/>
	<defs>
		<linearGradient id="gradient_2" gradientUnits="userSpaceOnUse" x1="16.65" y1="0" x2="16.65" y2="49.653999">
			<stop offset="0" stop-color="#FBE6BE"/>
			<stop offset="1" stop-color="#F5C889"/>
		</linearGradient>
	</defs>
	<path fill="url(#gradient_2)" transform="translate(100.788 0)" d="M15.984 49.653999C10.804 49.653999 6.8449998 48.753666 4.1069999 46.952999C1.369 45.152332 0 42.500668 0 38.998001C0 37.222 0.60433334 35.754333 1.813 34.595001C3.0216668 33.435665 4.5879998 32.855999 6.5120001 32.855999C7.6466665 32.905334 8.5100002 33.188999 9.1020002 33.707001C9.6940002 34.224998 9.9899998 34.706001 9.9899998 35.150002C9.9899998 35.199333 9.7433329 35.372002 9.25 35.667999C8.7566671 35.964001 8.3126669 36.408001 7.9180002 37C7.5233335 37.591999 7.3260002 38.405998 7.3260002 39.442001C7.3260002 41.760666 8.0290003 43.549 9.4350004 44.806999C10.841 46.064999 13.024 46.694 15.984 46.694C18.006666 46.694 19.782667 46.299332 21.312 45.509998C22.841333 44.720665 24.013 43.672333 24.827 42.365002C25.641001 41.057667 26.048 39.688667 26.048 38.257999C26.048 36.481998 25.542334 34.952667 24.531 33.669998C23.519667 32.387333 22.274 31.314333 20.794001 30.451C19.313999 29.587667 17.291334 28.588667 14.726 27.454C11.766 26.122 9.373333 24.913334 7.5479999 23.827999C5.7226667 22.742666 4.1686668 21.299667 2.8859999 19.499001C1.6033334 17.698334 0.96200001 15.466 0.96200001 12.802C0.96200001 8.5100002 2.4296668 5.3033333 5.3649998 3.1819999C8.300333 1.0606667 12.160666 0 16.945999 0C20.695333 0 23.963667 0.78933334 26.750999 2.368C29.538334 3.9466667 30.931999 6.2653332 30.931999 9.3240004C30.931999 11.1 30.327667 12.567667 29.118999 13.727C27.910334 14.886333 26.344 15.466 24.42 15.466C23.285334 15.416667 22.422001 15.133 21.83 14.615C21.238001 14.097 20.941999 13.616 20.941999 13.172C20.941999 13.122666 21.275 12.95 21.941 12.654C22.607 12.358 23.198999 11.914 23.716999 11.322C24.235001 10.73 24.493999 9.9160004 24.493999 8.8800001C24.493999 7.0546665 23.791 5.6240001 22.385 4.5879998C20.979 3.552 19.190666 3.0339999 17.02 3.0339999C14.010667 3.0339999 11.729 3.737 10.175 5.1430001C8.6210003 6.5489998 7.8439999 8.2880001 7.8439999 10.36C7.8439999 12.086667 8.3126669 13.529667 9.25 14.689C10.187333 15.848333 11.692 16.995333 13.764 18.129999C15.441334 19.018 17.266666 19.906 19.24 20.794001C22.397333 22.224667 24.900999 23.532 26.750999 24.716C28.601 25.9 30.155001 27.454 31.413 29.378C32.671001 31.302 33.299999 33.694668 33.299999 36.556C33.299999 39.022667 32.522999 41.255001 30.969 43.252998C29.415001 45.250999 27.318333 46.817333 24.679001 47.952C22.039667 49.086666 19.141333 49.653999 15.984 49.653999Z"/>
	<defs>
		<linearGradient id="gradient_3" gradientUnits="userSpaceOnUse" x1="20.535" y1="0" x2="20.535" y2="49.653999">
			<stop offset="0" stop-color="#FBE6BE"/>
			<stop offset="1" stop-color="#F5C889"/>
		</linearGradient>
	</defs>
	<path fill="url(#gradient_3)" transform="translate(141.118 0)" d="M22.865999 49.653999C18.672667 49.653999 14.837 48.654999 11.359 46.657001C7.881 44.659 5.1183333 41.810001 3.0710001 38.110001C1.0236666 34.41 0 30.093334 0 25.16C0 20.177334 0.98666668 15.786667 2.96 11.988C4.9333334 8.189333 7.7453332 5.2416668 11.396 3.145C15.046667 1.0483333 19.313999 0 24.198 0C28.440666 0 32.214668 0.85100001 35.52 2.553C38.825333 4.2550001 40.478001 6.882 40.478001 10.434C40.527332 12.654 39.861332 14.541 38.48 16.094999C37.098667 17.649 35.248665 18.426001 32.93 18.426001C32.042 18.426001 31.289667 18.265667 30.673 17.945C30.056334 17.624332 29.6 17.242001 29.304001 16.798C29.007999 16.354 28.884666 16.008667 28.934 15.762C28.934 15.663333 29.279333 15.392 29.969999 14.948C30.660667 14.504 31.277334 13.887333 31.82 13.098C32.362667 12.308666 32.633999 11.346666 32.633999 10.212C32.633999 7.9920001 31.881666 6.2283335 30.377001 4.921C28.872334 3.6136668 26.788 2.96 24.124001 2.96C21.114666 2.96 18.438334 3.8110001 16.094999 5.513C13.751667 7.2150002 11.926333 9.7063332 10.619 12.987C9.3116665 16.267666 8.658 20.177334 8.658 24.716C8.658 28.662666 9.3610001 32.251667 10.767 35.483002C12.173 38.714333 14.158667 41.279667 16.724001 43.179001C19.289333 45.078335 22.224667 46.028 25.530001 46.028C28.194 46.028 30.475666 45.473 32.375 44.362999C34.274334 43.252998 35.988667 41.464668 37.518002 38.998001C37.764668 38.554001 38.110001 38.332001 38.554001 38.332001C38.948666 38.332001 39.392666 38.48 39.886002 38.776001C40.675335 39.318668 41.07 39.861332 41.07 40.403999C41.07 40.700001 40.971333 40.946667 40.773998 41.144001C38.899334 43.512001 37.135666 45.300335 35.483002 46.508999C33.830334 47.717667 32.042 48.543999 30.118 48.987999C28.194 49.431999 25.776667 49.653999 22.865999 49.653999Z"/>
	<defs>
		<linearGradient id="gradient_4" gradientUnits="userSpaceOnUse" x1="23.716999" y1="0" x2="23.716999" y2="49.653999">
			<stop offset="0" stop-color="#FBE6BE"/>
			<stop offset="1" stop-color="#F5C889"/>
		</linearGradient>
	</defs>
	<path fill="url(#gradient_4)" transform="translate(188.256 0)" d="M23.606001 49.653999C18.919333 49.653999 14.787666 48.531666 11.211 46.286999C7.6343331 44.042332 4.8716664 41.07 2.9230001 37.369999C0.97433335 33.669998 0 29.698668 0 25.455999C0 20.275999 1.1716666 15.762 3.5150001 11.914C5.8583331 8.066 8.8553333 5.1183333 12.506 3.0710001C16.156666 1.0236666 19.856667 0 23.606001 0C28.341999 0 32.522999 1.1223333 36.148998 3.3670001C39.775002 5.6116667 42.562332 8.5716667 44.511002 12.247C46.459667 15.922334 47.433998 19.881332 47.433998 24.124001C47.433998 29.304001 46.25 33.830334 43.882 37.702999C41.514 41.575668 38.48 44.535667 34.779999 46.583C31.08 48.630333 27.355333 49.653999 23.606001 49.653999ZM23.532 46.397999C26.886667 46.397999 29.686333 45.398998 31.931 43.401001C34.175667 41.403 35.853001 38.714333 36.963001 35.334999C38.073002 31.955667 38.627998 28.218666 38.627998 24.124001C38.627998 20.325333 38.060665 16.834999 36.925999 13.653C35.791332 10.471 34.089333 7.9303331 31.82 6.0310001C29.550667 4.1316667 26.788 3.1819999 23.532 3.1819999C18.598667 3.1819999 14.886333 5.2663331 12.395 9.4350004C9.9036665 13.603666 8.658 18.870001 8.658 25.233999C8.658 29.082001 9.2130003 32.609333 10.323 35.816002C11.433 39.022667 13.098 41.588001 15.318 43.512001C17.538 45.436001 20.275999 46.397999 23.532 46.397999Z"/>
	<defs>
		<linearGradient id="gradient_5" gradientUnits="userSpaceOnUse" x1="19.684" y1="0" x2="19.684" y2="47.138">
			<stop offset="0" stop-color="#FBE6BE"/>
			<stop offset="1" stop-color="#F5C889"/>
		</linearGradient>
	</defs>
	<path fill="url(#gradient_5)" transform="translate(242.276 1.258)" d="M1.332 47.138C0.88800001 47.138 0.55500001 46.977665 0.333 46.657001C0.111 46.336334 0 45.953999 0 45.509998C0.049333334 44.77 0.19733334 44.326 0.44400001 44.178001C0.69066668 44.029999 1.1593333 43.956001 1.85 43.956001C3.2806666 43.956001 4.3413334 43.696999 5.0320001 43.179001C5.7226667 42.660999 6.1543331 42.019665 6.3270001 41.255001C6.4996667 40.490334 6.6106668 39.491333 6.6599998 38.257999L6.6599998 8.8800001C6.6106668 7.6466665 6.4996667 6.6476665 6.3270001 5.8829999C6.1543331 5.1183333 5.7226667 4.4770002 5.0320001 3.9590001C4.3413334 3.441 3.2806666 3.1819999 1.85 3.1819999L1.406 3.1819999C0.91266668 3.1819999 0.56733334 3.0956666 0.37 2.9230001C0.17266667 2.7503333 0.049333334 2.3186667 0 1.628C0 1.184 0.111 0.80166668 0.333 0.48100001C0.55500001 0.16033334 0.88800001 0 1.332 0C4.5386667 0.148 7.4493332 0.222 10.064 0.222L20.497999 0.222C23.211334 0.222 25.406666 0.41933334 27.084 0.81400001C28.761333 1.2086667 30.266001 1.8253334 31.598 2.664C32.880665 3.5026667 33.891998 4.6496668 34.632 6.105C35.372002 7.5603333 35.742001 9.1513338 35.742001 10.878C35.742001 13.936666 34.743 16.366333 32.744999 18.167C30.747 19.967667 28.416 21.188667 25.752001 21.83L25.752001 22.052C28.317333 22.052 30.648333 22.557667 32.744999 23.569C34.841667 24.580334 36.469666 25.937 37.629002 27.639C38.788334 29.341 39.368 31.178667 39.368 33.152C39.368 36.506668 38.344334 39.220001 36.297001 41.292C34.249668 43.363998 31.684334 44.831665 28.601 45.695C25.517666 46.558334 22.323334 46.990002 19.018 46.990002L10.138 46.916C7.474 46.916 4.5386667 46.990002 1.332 47.138ZM17.094 20.572001C19.067333 20.572001 20.781666 20.424 22.237 20.128C23.692333 19.832001 24.987333 19.042667 26.122 17.76C27.256666 16.477333 27.823999 14.479333 27.823999 11.766C27.823999 5.8953333 24.938 2.96 19.166 2.96L13.986 2.96L13.986 20.572001L17.094 20.572001ZM19.313999 44.029999C22.964666 43.980667 25.887667 43.080334 28.083 41.328999C30.278334 39.577667 31.375999 36.703999 31.375999 32.708C31.129333 30.044001 29.883667 27.848667 27.639 26.122C25.394333 24.395334 21.854666 23.532 17.02 23.532L13.986 23.532L13.986 38.257999C13.986 39.935333 14.146334 41.181 14.467 41.994999C14.787666 42.808998 15.305667 43.351665 16.021 43.623001C16.736334 43.894333 17.834 44.029999 19.313999 44.029999Z"/>
	<defs>
		<linearGradient id="gradient_6" gradientUnits="userSpaceOnUse" x1="23.198999" y1="0" x2="23.198999" y2="47.138">
			<stop offset="0" stop-color="#FBE6BE"/>
			<stop offset="1" stop-color="#F5C889"/>
		</linearGradient>
	</defs>
	<path fill="url(#gradient_6)" transform="translate(288.304 1.258)" d="M1.332 47.138C0.88800001 47.138 0.55500001 46.977665 0.333 46.657001C0.111 46.336334 0 45.953999 0 45.509998C0.049333334 44.77 0.19733334 44.326 0.44400001 44.178001C0.69066668 44.029999 1.1593333 43.956001 1.85 43.956001C3.2806666 43.956001 4.3413334 43.696999 5.0320001 43.179001C5.7226667 42.660999 6.1543331 42.019665 6.3270001 41.255001C6.4996667 40.490334 6.6106668 39.491333 6.6599998 38.257999L6.6599998 8.9540005C6.6106668 7.6713333 6.4996667 6.6599998 6.3270001 5.9200001C6.1543331 5.1799998 5.7226667 4.5386667 5.0320001 3.9960001C4.3413334 3.4533334 3.2806666 3.1819999 1.85 3.1819999L1.406 3.1819999C0.91266668 3.1819999 0.56733334 3.0956666 0.37 2.9230001C0.17266667 2.7503333 0.049333334 2.3186667 0 1.628C0 1.184 0.111 0.80166668 0.333 0.48100001C0.55500001 0.16033334 0.88800001 0 1.332 0C4.5386667 0.148 7.474 0.222 10.138 0.222L22.865999 0.222C26.664667 0.27133334 29.834333 0.87566668 32.375 2.0350001C34.915668 3.1943333 36.778 4.6743331 37.962002 6.4749999C39.146 8.2756662 39.737999 10.212 39.737999 12.284C39.737999 14.997334 38.665001 17.488667 36.519001 19.757999C34.373001 22.027334 31.450001 23.655333 27.75 24.642L29.007999 26.639999C31.08 29.994667 32.954666 32.868332 34.632 35.261002C36.309334 37.653667 38.134666 39.886002 40.108002 41.958C41.489334 43.092667 42.969334 43.758667 44.548 43.956001C44.646667 43.956001 44.868668 43.968334 45.214001 43.993C45.559334 44.017666 45.842999 44.153332 46.064999 44.400002C46.286999 44.646667 46.397999 45.016666 46.397999 45.509998C46.397999 45.953999 46.286999 46.336334 46.064999 46.657001C45.842999 46.977665 45.509998 47.138 45.066002 47.138L43.141998 47.063999C40.971333 46.965332 39.392666 46.916 38.405998 46.916C36.432667 46.521332 34.743 45.818333 33.337002 44.806999C31.931 43.795666 30.537333 42.352665 29.156 40.478001C27.725334 38.603333 25.727333 35.544666 23.162001 31.302L21.83 29.156C21.09 28.021334 20.374666 27.244333 19.684 26.825001C18.993334 26.405666 17.809334 26.195999 16.132 26.195999L13.986 26.195999L13.986 38.257999C14.035334 39.491333 14.146334 40.490334 14.319 41.255001C14.491667 42.019665 14.923333 42.660999 15.614 43.179001C16.304667 43.696999 17.365334 43.956001 18.796 43.956001L19.24 43.956001C19.684 43.956001 20.017 44.042332 20.239 44.215C20.461 44.387665 20.596666 44.819332 20.646 45.509998C20.646 45.953999 20.535 46.336334 20.313 46.657001C20.091 46.977665 19.757999 47.138 19.313999 47.138C16.156666 46.990002 13.073334 46.916 10.064 46.916C7.4493332 46.916 4.5386667 46.990002 1.332 47.138ZM20.497999 23.309999C27.848667 23.309999 31.524 19.856667 31.524 12.95C31.524 10.138 30.562 7.77 28.638 5.8460002C26.714001 3.9219999 23.556667 2.96 19.166 2.96C17.735332 2.96 16.65 3.1326666 15.91 3.4779999C15.17 3.8233333 14.664333 4.4153333 14.393 5.2540002C14.121667 6.0926666 13.986 7.3753333 13.986 9.1020002L13.986 23.309999L20.497999 23.309999Z"/>
	<defs>
		<linearGradient id="gradient_7" gradientUnits="userSpaceOnUse" x1="19.096354" y1="0" x2="19.096354" y2="47.138">
			<stop offset="0" stop-color="#FBE6BE"/>
			<stop offset="1" stop-color="#F5C889"/>
		</linearGradient>
	</defs>
	<path fill="url(#gradient_7)" transform="translate(337.958 1.258)" d="M1.258 47.138C0.86333334 47.138 0.55500001 46.977665 0.333 46.657001C0.111 46.336334 0 45.953999 0 45.509998C0.049333334 44.77 0.19733334 44.326 0.44400001 44.178001C0.69066668 44.029999 1.1593333 43.956001 1.85 43.956001C3.2806666 43.956001 4.3413334 43.696999 5.0320001 43.179001C5.7226667 42.660999 6.1543331 42.019665 6.3270001 41.255001C6.4996667 40.490334 6.6106668 39.491333 6.6599998 38.257999L6.6599998 8.8800001C6.6106668 7.6466665 6.4996667 6.6476665 6.3270001 5.8829999C6.1543331 5.1183333 5.7226667 4.4770002 5.0320001 3.9590001C4.3413334 3.441 3.2806666 3.1819999 1.85 3.1819999L1.406 3.1819999C0.91266668 3.1819999 0.56733334 3.0956666 0.37 2.9230001C0.17266667 2.7503333 0.049333334 2.3186667 0 1.628C0 1.184 0.111 0.80166668 0.333 0.48100001C0.55500001 0.16033334 0.86333334 0 1.258 0C4.5139999 0.148 7.4493332 0.222 10.064 0.222L33.299999 0.222C34.582668 0.222 35.223999 0.81400001 35.223999 1.998L35.445999 12.358C35.445999 12.802 35.223999 13.159667 34.779999 13.431C34.335999 13.702333 33.891998 13.838 33.448002 13.838C32.855999 13.838 32.338001 13.727 31.893999 13.505C31.450001 13.283 31.203333 12.95 31.153999 12.506C30.759333 10.088667 30.327667 8.2510004 29.858999 6.993C29.390333 5.7350001 28.699667 4.7976665 27.787001 4.1810002C26.874332 3.5643334 25.579334 3.2313333 23.902 3.1819999L13.986 3.1819999L13.986 21.978001L27.379999 21.978001C27.725334 22.027334 27.996666 22.212334 28.194 22.533001C28.391333 22.853666 28.49 23.236 28.49 23.68C28.49 24.074667 28.391333 24.42 28.194 24.716C27.996666 25.011999 27.725334 25.16 27.379999 25.16L13.986 25.16L13.986 39.146C14.084666 40.181999 14.208 41.008335 14.356 41.625C14.504 42.241665 14.948 42.796665 15.688 43.290001C16.427999 43.783333 17.587334 44.005333 19.166 43.956001L25.974001 43.956001C27.700666 43.906666 29.007999 43.623001 29.896 43.105C30.784 42.587002 31.487 41.785332 32.005001 40.700001C32.522999 39.614666 33.152 37.838665 33.891998 35.372002C34.237335 34.484001 35.076 34.138668 36.408001 34.335999C36.901333 34.434666 37.333 34.632 37.702999 34.928001C38.073002 35.223999 38.233334 35.594002 38.183998 36.037998L36.703999 45.362C36.556 46.003334 36.334 46.422668 36.037998 46.619999C35.742001 46.817333 35.248665 46.916 34.557999 46.916L10.138 46.916C7.474 46.916 4.5139999 46.990002 1.258 47.138Z"/>
	<defs>
		<linearGradient id="gradient_8" gradientUnits="userSpaceOnUse" x1="24.827" y1="0" x2="24.827" y2="47.360001">
			<stop offset="0" stop-color="#FBE6BE"/>
			<stop offset="1" stop-color="#F5C889"/>
		</linearGradient>
	</defs>
	<path fill="url(#gradient_8)" transform="translate(394.346 1.036)" d="M1.332 47.360001C0.88800001 47.360001 0.55500001 47.199665 0.333 46.879002C0.111 46.558334 0 46.175999 0 45.731998C0.049333334 44.992001 0.19733334 44.548 0.44400001 44.400002C0.69066668 44.251999 0.98666668 44.178001 1.332 44.178001C1.6773334 44.178001 1.8993334 44.178001 1.998 44.178001C3.4779999 44.178001 4.5633335 43.795666 5.2540002 43.030998C5.9446669 42.266335 6.4996667 41.403 6.9190001 40.441002C7.3383331 39.479 7.6220002 38.825333 7.77 38.48L20.719999 7.8439999C21.016001 7.1040001 21.164 6.5120001 21.164 6.0679998C21.164 5.1799998 20.818666 4.5386667 20.128 4.1440001C19.437334 3.7493334 18.475334 3.4286666 17.242001 3.1819999C16.403334 3.0339999 15.885333 2.8859999 15.688 2.7379999C15.490666 2.5899999 15.392 2.1706667 15.392 1.48C15.392 0.88800001 15.552333 0.49333334 15.873 0.296C16.193666 0.098666668 16.699333 0 17.389999 0C19.856667 0 21.817667 0.185 23.273001 0.55500001C24.728333 0.92500001 25.998667 1.665 27.084 2.7750001C28.169333 3.885 29.180666 5.5746665 30.118 7.8439999L42.549999 38.48C43.290001 40.354668 44.005333 41.760666 44.695999 42.698002C45.386665 43.635334 46.422668 44.128666 47.804001 44.178001L48.248001 44.178001C48.741333 44.178001 49.086666 44.264332 49.284 44.437C49.481335 44.609665 49.604668 45.041332 49.653999 45.731998C49.653999 46.175999 49.542999 46.558334 49.320999 46.879002C49.098999 47.199665 48.765999 47.360001 48.321999 47.360001C45.164665 47.212002 42.451332 47.138 40.181999 47.138C37.222 47.138 34.163334 47.212002 31.006001 47.360001C30.562 47.360001 30.229 47.199665 30.007 46.879002C29.785 46.558334 29.674 46.175999 29.674 45.731998C29.723333 45.041332 29.846666 44.609665 30.044001 44.437C30.241333 44.264332 30.586666 44.178001 31.08 44.178001C32.757332 44.178001 33.941334 44.017666 34.632 43.696999C35.322666 43.376335 35.667999 42.796665 35.667999 41.958C35.667999 41.316666 35.372002 40.157333 34.779999 38.48L32.264 32.338001L13.986 32.338001C12.752666 35.396667 12.049666 37.172668 11.877 37.666C11.704333 38.159332 11.618 38.430668 11.618 38.48C11.026 40.354668 10.73 41.563332 10.73 42.105999C10.73 42.944668 11.1 43.499668 11.84 43.771C12.58 44.042332 13.986 44.178001 16.058001 44.178001L16.502001 44.178001C16.995333 44.178001 17.340666 44.264332 17.538 44.437C17.735332 44.609665 17.858667 45.041332 17.908001 45.731998C17.908001 46.175999 17.797001 46.558334 17.575001 46.879002C17.353001 47.199665 17.02 47.360001 16.576 47.360001C13.418667 47.212002 10.73 47.138 8.5100002 47.138C6.9313335 47.138 4.5386667 47.212002 1.332 47.360001ZM15.392 29.156L30.931999 29.156L23.458 10.138L23.236 10.138L15.392 29.156Z"/>
	<defs>
		<linearGradient id="gradient_9" gradientUnits="userSpaceOnUse" x1="25.604" y1="0" x2="25.604" y2="47.138">
			<stop offset="0" stop-color="#FBE6BE"/>
			<stop offset="1" stop-color="#F5C889"/>
		</linearGradient>
	</defs>
	<path fill="url(#gradient_9)" transform="translate(463.24 1.258)" d="M1.332 47.138C0.88800001 47.138 0.55500001 46.977665 0.333 46.657001C0.111 46.336334 0 45.953999 0 45.509998C0.049333334 44.77 0.19733334 44.326 0.44400001 44.178001C0.69066668 44.029999 1.1593333 43.956001 1.85 43.956001C3.2806666 43.956001 4.3413334 43.696999 5.0320001 43.179001C5.7226667 42.660999 6.1543331 42.019665 6.3270001 41.255001C6.4996667 40.490334 6.6106668 39.491333 6.6599998 38.257999L6.6599998 8.8800001C6.6106668 7.6466665 6.4996667 6.6476665 6.3270001 5.8829999C6.1543331 5.1183333 5.7226667 4.4770002 5.0320001 3.9590001C4.3413334 3.441 3.2806666 3.1819999 1.85 3.1819999L1.406 3.1819999C0.91266668 3.1819999 0.56733334 3.0956666 0.37 2.9230001C0.17266667 2.7503333 0.049333334 2.3186667 0 1.628C0 1.184 0.111 0.80166668 0.333 0.48100001C0.55500001 0.16033334 0.88800001 0 1.332 0C4.5386667 0.148 7.4493332 0.222 10.064 0.222C13.024 0.222 16.107334 0.148 19.313999 0C19.757999 0 20.091 0.16033334 20.313 0.48100001C20.535 0.80166668 20.646 1.184 20.646 1.628C20.596666 2.368 20.448668 2.812 20.202 2.96C19.955334 3.108 19.486666 3.1819999 18.796 3.1819999C17.365334 3.1819999 16.304667 3.441 15.614 3.9590001C14.923333 4.4770002 14.491667 5.1183333 14.319 5.8829999C14.146334 6.6476665 14.035334 7.6466665 13.986 8.8800001L13.986 21.978001L37.222 21.978001L37.222 8.8800001C37.172668 7.6466665 37.061668 6.6476665 36.889 5.8829999C36.716331 5.1183333 36.284668 4.4770002 35.594002 3.9590001C34.903332 3.441 33.842667 3.1819999 32.411999 3.1819999L31.968 3.1819999C31.474667 3.1819999 31.117001 3.0956666 30.895 2.9230001C30.673 2.7503333 30.537333 2.3186667 30.488001 1.628C30.488001 1.184 30.611334 0.80166668 30.858 0.48100001C31.104666 0.16033334 31.425333 0 31.82 0C35.026669 0.148 38.110001 0.222 41.07 0.222C43.783333 0.222 46.718666 0.148 49.875999 0C50.32 0 50.653 0.16033334 50.875 0.48100001C51.097 0.80166668 51.208 1.184 51.208 1.628C51.158669 2.368 50.998333 2.812 50.727001 2.96C50.455666 3.108 49.999332 3.1819999 49.358002 3.1819999C47.927334 3.1819999 46.854332 3.441 46.139 3.9590001C45.423668 4.4770002 44.979668 5.1183333 44.806999 5.8829999C44.634335 6.6476665 44.523335 7.6466665 44.473999 8.8800001L44.473999 38.257999C44.523335 39.491333 44.634335 40.490334 44.806999 41.255001C44.979668 42.019665 45.423668 42.660999 46.139 43.179001C46.854332 43.696999 47.927334 43.956001 49.358002 43.956001L49.801998 43.956001C50.245998 43.956001 50.578999 44.042332 50.800999 44.215C51.022999 44.387665 51.158669 44.819332 51.208 45.509998C51.208 45.953999 51.097 46.336334 50.875 46.657001C50.653 46.977665 50.32 47.138 49.875999 47.138C46.718666 46.990002 43.758667 46.916 40.995998 46.916C38.085335 46.916 35.026669 46.990002 31.82 47.138C31.425333 47.138 31.104666 46.977665 30.858 46.657001C30.611334 46.336334 30.488001 45.953999 30.488001 45.509998C30.537333 44.77 30.697666 44.326 30.969 44.178001C31.240334 44.029999 31.721333 43.956001 32.411999 43.956001C33.842667 43.956001 34.903332 43.696999 35.594002 43.179001C36.284668 42.660999 36.716331 42.019665 36.889 41.255001C37.061668 40.490334 37.172668 39.491333 37.222 38.257999L37.222 25.16L13.986 25.16L13.986 38.257999C14.035334 39.491333 14.146334 40.490334 14.319 41.255001C14.491667 42.019665 14.923333 42.660999 15.614 43.179001C16.304667 43.696999 17.365334 43.956001 18.796 43.956001L19.24 43.956001C19.733334 43.956001 20.078667 44.042332 20.275999 44.215C20.473333 44.387665 20.596666 44.819332 20.646 45.509998C20.646 45.953999 20.535 46.336334 20.313 46.657001C20.091 46.977665 19.757999 47.138 19.313999 47.138C16.156666 46.990002 13.098 46.916 10.138 46.916C7.474 46.916 4.5386667 46.990002 1.332 47.138Z"/>
	<defs>
		<linearGradient id="gradient_10" gradientUnits="userSpaceOnUse" x1="10.36" y1="0" x2="10.36" y2="47.138">
			<stop offset="0" stop-color="#FBE6BE"/>
			<stop offset="1" stop-color="#F5C889"/>
		</linearGradient>
	</defs>
	<path fill="url(#gradient_10)" transform="translate(520.664 1.258)" d="M1.332 47.138C0.88800001 47.138 0.55500001 46.977665 0.333 46.657001C0.111 46.336334 0 45.953999 0 45.509998C0.049333334 44.77 0.20966667 44.326 0.48100001 44.178001C0.75233334 44.029999 1.2086667 43.956001 1.85 43.956001C3.2806666 43.956001 4.3413334 43.696999 5.0320001 43.179001C5.7226667 42.660999 6.1666665 42.032001 6.3639998 41.292C6.5613332 40.551998 6.6846666 39.540668 6.7340002 38.257999L6.7340002 8.8800001C6.6846666 7.5973334 6.5613332 6.586 6.3639998 5.8460002C6.1666665 5.1059999 5.7226667 4.4770002 5.0320001 3.9590001C4.3413334 3.441 3.2806666 3.1819999 1.85 3.1819999L1.406 3.1819999C0.96200001 3.1819999 0.62900001 3.0956666 0.40700001 2.9230001C0.185 2.7503333 0.049333334 2.3186667 0 1.628C0 1.184 0.111 0.80166668 0.333 0.48100001C0.55500001 0.16033334 0.88800001 0 1.332 0C4.5386667 0.148 7.474 0.222 10.138 0.222C13.098 0.222 16.181334 0.148 19.388 0C19.832001 0 20.165001 0.16033334 20.386999 0.48100001C20.608999 0.80166668 20.719999 1.184 20.719999 1.628C20.670666 2.368 20.510334 2.812 20.239 2.96C19.967667 3.108 19.486666 3.1819999 18.796 3.1819999C17.365334 3.1819999 16.304667 3.441 15.614 3.9590001C14.923333 4.4770002 14.491667 5.1183333 14.319 5.8829999C14.146334 6.6476665 14.035334 7.6466665 13.986 8.8800001L13.986 38.257999C14.035334 39.491333 14.146334 40.490334 14.319 41.255001C14.491667 42.019665 14.923333 42.660999 15.614 43.179001C16.304667 43.696999 17.365334 43.956001 18.796 43.956001L19.24 43.956001C19.733334 43.956001 20.091 44.042332 20.313 44.215C20.535 44.387665 20.670666 44.819332 20.719999 45.509998C20.719999 45.953999 20.608999 46.336334 20.386999 46.657001C20.165001 46.977665 19.832001 47.138 19.388 47.138C16.230667 46.990002 13.172 46.916 10.212 46.916C7.4986668 46.916 4.5386667 46.990002 1.332 47.138Z"/>
	<defs>
		<linearGradient id="gradient_11" gradientUnits="userSpaceOnUse" x1="16.65" y1="0" x2="16.65" y2="49.653999">
			<stop offset="0" stop-color="#FBE6BE"/>
			<stop offset="1" stop-color="#F5C889"/>
		</linearGradient>
	</defs>
	<path fill="url(#gradient_11)" transform="translate(548.118 0)" d="M15.984 49.653999C10.804 49.653999 6.8449998 48.753666 4.1069999 46.952999C1.369 45.152332 0 42.500668 0 38.998001C0 37.222 0.60433334 35.754333 1.813 34.595001C3.0216668 33.435665 4.5879998 32.855999 6.5120001 32.855999C7.6466665 32.905334 8.5100002 33.188999 9.1020002 33.707001C9.6940002 34.224998 9.9899998 34.706001 9.9899998 35.150002C9.9899998 35.199333 9.7433329 35.372002 9.25 35.667999C8.7566671 35.964001 8.3126669 36.408001 7.9180002 37C7.5233335 37.591999 7.3260002 38.405998 7.3260002 39.442001C7.3260002 41.760666 8.0290003 43.549 9.4350004 44.806999C10.841 46.064999 13.024 46.694 15.984 46.694C18.006666 46.694 19.782667 46.299332 21.312 45.509998C22.841333 44.720665 24.013 43.672333 24.827 42.365002C25.641001 41.057667 26.048 39.688667 26.048 38.257999C26.048 36.481998 25.542334 34.952667 24.531 33.669998C23.519667 32.387333 22.274 31.314333 20.794001 30.451C19.313999 29.587667 17.291334 28.588667 14.726 27.454C11.766 26.122 9.373333 24.913334 7.5479999 23.827999C5.7226667 22.742666 4.1686668 21.299667 2.8859999 19.499001C1.6033334 17.698334 0.96200001 15.466 0.96200001 12.802C0.96200001 8.5100002 2.4296668 5.3033333 5.3649998 3.1819999C8.300333 1.0606667 12.160666 0 16.945999 0C20.695333 0 23.963667 0.78933334 26.750999 2.368C29.538334 3.9466667 30.931999 6.2653332 30.931999 9.3240004C30.931999 11.1 30.327667 12.567667 29.118999 13.727C27.910334 14.886333 26.344 15.466 24.42 15.466C23.285334 15.416667 22.422001 15.133 21.83 14.615C21.238001 14.097 20.941999 13.616 20.941999 13.172C20.941999 13.122666 21.275 12.95 21.941 12.654C22.607 12.358 23.198999 11.914 23.716999 11.322C24.235001 10.73 24.493999 9.9160004 24.493999 8.8800001C24.493999 7.0546665 23.791 5.6240001 22.385 4.5879998C20.979 3.552 19.190666 3.0339999 17.02 3.0339999C14.010667 3.0339999 11.729 3.737 10.175 5.1430001C8.6210003 6.5489998 7.8439999 8.2880001 7.8439999 10.36C7.8439999 12.086667 8.3126669 13.529667 9.25 14.689C10.187333 15.848333 11.692 16.995333 13.764 18.129999C15.441334 19.018 17.266666 19.906 19.24 20.794001C22.397333 22.224667 24.900999 23.532 26.750999 24.716C28.601 25.9 30.155001 27.454 31.413 29.378C32.671001 31.302 33.299999 33.694668 33.299999 36.556C33.299999 39.022667 32.522999 41.255001 30.969 43.252998C29.415001 45.250999 27.318333 46.817333 24.679001 47.952C22.039667 49.086666 19.141333 49.653999 15.984 49.653999Z"/>
	<defs>
		<linearGradient id="gradient_12" gradientUnits="userSpaceOnUse" x1="20.313" y1="0" x2="20.313" y2="46.916">
			<stop offset="0" stop-color="#FBE6BE"/>
			<stop offset="1" stop-color="#F5C889"/>
		</linearGradient>
	</defs>
	<path fill="url(#gradient_12)" transform="translate(586.746 1.48)" d="M11.322 46.916C10.878 46.916 10.545 46.755665 10.323 46.435001C10.101 46.114334 9.9899998 45.731998 9.9899998 45.287998C10.039333 44.548 10.187333 44.104 10.434 43.956001C10.680667 43.807999 11.149333 43.734001 11.84 43.734001C13.270667 43.734001 14.331333 43.474998 15.022 42.957001C15.712667 42.438999 16.144333 41.797668 16.316999 41.033001C16.489666 40.268333 16.600666 39.269333 16.65 38.035999L16.65 2.7379999L11.544 2.7379999C9.8666668 2.7873333 8.5716667 3.145 7.6589999 3.8110001C6.7463331 4.4770002 6.0556664 5.4636664 5.5869999 6.7709999C5.1183333 8.0783329 4.7113333 9.9406662 4.3660002 12.358C4.3166666 12.752666 4.0206666 13.073334 3.4779999 13.32C2.9353333 13.566667 2.368 13.69 1.776 13.69C1.332 13.69 0.92500001 13.554334 0.55500001 13.283C0.185 13.011666 0 12.654 0 12.21L0.222 1.776C0.222 0.59200001 0.88800001 0 2.22 0L38.405998 0C39.688667 0 40.330002 0.59200001 40.330002 1.776L40.625999 12.21C40.625999 12.654 40.428665 13.011666 40.034 13.283C39.639332 13.554334 39.220001 13.69 38.776001 13.69C38.183998 13.69 37.629002 13.566667 37.111 13.32C36.592999 13.073334 36.309334 12.752666 36.259998 12.358C35.865334 9.8913336 35.445999 8.0166664 35.001999 6.7340002C34.557999 5.4513335 33.867332 4.4770002 32.93 3.8110001C31.992666 3.145 30.685333 2.7873333 29.007999 2.7379999L23.976 2.7379999L23.976 38.035999C24.025333 39.269333 24.136333 40.268333 24.309 41.033001C24.481667 41.797668 24.913334 42.438999 25.604 42.957001C26.294666 43.474998 27.355333 43.734001 28.785999 43.734001L29.23 43.734001C29.674 43.734001 30.007 43.820332 30.229 43.993C30.451 44.165668 30.586666 44.597332 30.636 45.287998C30.636 45.731998 30.525 46.114334 30.302999 46.435001C30.080999 46.755665 29.747999 46.916 29.304001 46.916C26.146667 46.768002 23.236 46.694 20.572001 46.694C17.612 46.694 14.528666 46.768002 11.322 46.916Z"/>
	<defs>
		<linearGradient id="gradient_13" gradientUnits="userSpaceOnUse" x1="23.716999" y1="0" x2="23.716999" y2="49.653999">
			<stop offset="0" stop-color="#FBE6BE"/>
			<stop offset="1" stop-color="#F5C889"/>
		</linearGradient>
	</defs>
	<path fill="url(#gradient_13)" transform="translate(632.7 0)" d="M23.606001 49.653999C18.919333 49.653999 14.787666 48.531666 11.211 46.286999C7.6343331 44.042332 4.8716664 41.07 2.9230001 37.369999C0.97433335 33.669998 0 29.698668 0 25.455999C0 20.275999 1.1716666 15.762 3.5150001 11.914C5.8583331 8.066 8.8553333 5.1183333 12.506 3.0710001C16.156666 1.0236666 19.856667 0 23.606001 0C28.341999 0 32.522999 1.1223333 36.148998 3.3670001C39.775002 5.6116667 42.562332 8.5716667 44.511002 12.247C46.459667 15.922334 47.433998 19.881332 47.433998 24.124001C47.433998 29.304001 46.25 33.830334 43.882 37.702999C41.514 41.575668 38.48 44.535667 34.779999 46.583C31.08 48.630333 27.355333 49.653999 23.606001 49.653999ZM23.532 46.397999C26.886667 46.397999 29.686333 45.398998 31.931 43.401001C34.175667 41.403 35.853001 38.714333 36.963001 35.334999C38.073002 31.955667 38.627998 28.218666 38.627998 24.124001C38.627998 20.325333 38.060665 16.834999 36.925999 13.653C35.791332 10.471 34.089333 7.9303331 31.82 6.0310001C29.550667 4.1316667 26.788 3.1819999 23.532 3.1819999C18.598667 3.1819999 14.886333 5.2663331 12.395 9.4350004C9.9036665 13.603666 8.658 18.870001 8.658 25.233999C8.658 29.082001 9.2130003 32.609333 10.323 35.816002C11.433 39.022667 13.098 41.588001 15.318 43.512001C17.538 45.436001 20.275999 46.397999 23.532 46.397999Z"/>
	<defs>
		<linearGradient id="gradient_14" gradientUnits="userSpaceOnUse" x1="23.198999" y1="0" x2="23.198999" y2="47.138">
			<stop offset="0" stop-color="#FBE6BE"/>
			<stop offset="1" stop-color="#F5C889"/>
		</linearGradient>
	</defs>
	<path fill="url(#gradient_14)" transform="translate(686.794 1.258)" d="M1.332 47.138C0.88800001 47.138 0.55500001 46.977665 0.333 46.657001C0.111 46.336334 0 45.953999 0 45.509998C0.049333334 44.77 0.19733334 44.326 0.44400001 44.178001C0.69066668 44.029999 1.1593333 43.956001 1.85 43.956001C3.2806666 43.956001 4.3413334 43.696999 5.0320001 43.179001C5.7226667 42.660999 6.1543331 42.019665 6.3270001 41.255001C6.4996667 40.490334 6.6106668 39.491333 6.6599998 38.257999L6.6599998 8.9540005C6.6106668 7.6713333 6.4996667 6.6599998 6.3270001 5.9200001C6.1543331 5.1799998 5.7226667 4.5386667 5.0320001 3.9960001C4.3413334 3.4533334 3.2806666 3.1819999 1.85 3.1819999L1.406 3.1819999C0.91266668 3.1819999 0.56733334 3.0956666 0.37 2.9230001C0.17266667 2.7503333 0.049333334 2.3186667 0 1.628C0 1.184 0.111 0.80166668 0.333 0.48100001C0.55500001 0.16033334 0.88800001 0 1.332 0C4.5386667 0.148 7.474 0.222 10.138 0.222L22.865999 0.222C26.664667 0.27133334 29.834333 0.87566668 32.375 2.0350001C34.915668 3.1943333 36.778 4.6743331 37.962002 6.4749999C39.146 8.2756662 39.737999 10.212 39.737999 12.284C39.737999 14.997334 38.665001 17.488667 36.519001 19.757999C34.373001 22.027334 31.450001 23.655333 27.75 24.642L29.007999 26.639999C31.08 29.994667 32.954666 32.868332 34.632 35.261002C36.309334 37.653667 38.134666 39.886002 40.108002 41.958C41.489334 43.092667 42.969334 43.758667 44.548 43.956001C44.646667 43.956001 44.868668 43.968334 45.214001 43.993C45.559334 44.017666 45.842999 44.153332 46.064999 44.400002C46.286999 44.646667 46.397999 45.016666 46.397999 45.509998C46.397999 45.953999 46.286999 46.336334 46.064999 46.657001C45.842999 46.977665 45.509998 47.138 45.066002 47.138L43.141998 47.063999C40.971333 46.965332 39.392666 46.916 38.405998 46.916C36.432667 46.521332 34.743 45.818333 33.337002 44.806999C31.931 43.795666 30.537333 42.352665 29.156 40.478001C27.725334 38.603333 25.727333 35.544666 23.162001 31.302L21.83 29.156C21.09 28.021334 20.374666 27.244333 19.684 26.825001C18.993334 26.405666 17.809334 26.195999 16.132 26.195999L13.986 26.195999L13.986 38.257999C14.035334 39.491333 14.146334 40.490334 14.319 41.255001C14.491667 42.019665 14.923333 42.660999 15.614 43.179001C16.304667 43.696999 17.365334 43.956001 18.796 43.956001L19.24 43.956001C19.684 43.956001 20.017 44.042332 20.239 44.215C20.461 44.387665 20.596666 44.819332 20.646 45.509998C20.646 45.953999 20.535 46.336334 20.313 46.657001C20.091 46.977665 19.757999 47.138 19.313999 47.138C16.156666 46.990002 13.073334 46.916 10.064 46.916C7.4493332 46.916 4.5386667 46.990002 1.332 47.138ZM20.497999 23.309999C27.848667 23.309999 31.524 19.856667 31.524 12.95C31.524 10.138 30.562 7.77 28.638 5.8460002C26.714001 3.9219999 23.556667 2.96 19.166 2.96C17.735332 2.96 16.65 3.1326666 15.91 3.4779999C15.17 3.8233333 14.664333 4.4153333 14.393 5.2540002C14.121667 6.0926666 13.986 7.3753333 13.986 9.1020002L13.986 23.309999L20.497999 23.309999Z"/>
	<defs>
		<linearGradient id="gradient_15" gradientUnits="userSpaceOnUse" x1="10.36" y1="0" x2="10.36" y2="47.138">
			<stop offset="0" stop-color="#FBE6BE"/>
			<stop offset="1" stop-color="#F5C889"/>
		</linearGradient>
	</defs>
	<path fill="url(#gradient_15)" transform="translate(736.374 1.258)" d="M1.332 47.138C0.88800001 47.138 0.55500001 46.977665 0.333 46.657001C0.111 46.336334 0 45.953999 0 45.509998C0.049333334 44.77 0.20966667 44.326 0.48100001 44.178001C0.75233334 44.029999 1.2086667 43.956001 1.85 43.956001C3.2806666 43.956001 4.3413334 43.696999 5.0320001 43.179001C5.7226667 42.660999 6.1666665 42.032001 6.3639998 41.292C6.5613332 40.551998 6.6846666 39.540668 6.7340002 38.257999L6.7340002 8.8800001C6.6846666 7.5973334 6.5613332 6.586 6.3639998 5.8460002C6.1666665 5.1059999 5.7226667 4.4770002 5.0320001 3.9590001C4.3413334 3.441 3.2806666 3.1819999 1.85 3.1819999L1.406 3.1819999C0.96200001 3.1819999 0.62900001 3.0956666 0.40700001 2.9230001C0.185 2.7503333 0.049333334 2.3186667 0 1.628C0 1.184 0.111 0.80166668 0.333 0.48100001C0.55500001 0.16033334 0.88800001 0 1.332 0C4.5386667 0.148 7.474 0.222 10.138 0.222C13.098 0.222 16.181334 0.148 19.388 0C19.832001 0 20.165001 0.16033334 20.386999 0.48100001C20.608999 0.80166668 20.719999 1.184 20.719999 1.628C20.670666 2.368 20.510334 2.812 20.239 2.96C19.967667 3.108 19.486666 3.1819999 18.796 3.1819999C17.365334 3.1819999 16.304667 3.441 15.614 3.9590001C14.923333 4.4770002 14.491667 5.1183333 14.319 5.8829999C14.146334 6.6476665 14.035334 7.6466665 13.986 8.8800001L13.986 38.257999C14.035334 39.491333 14.146334 40.490334 14.319 41.255001C14.491667 42.019665 14.923333 42.660999 15.614 43.179001C16.304667 43.696999 17.365334 43.956001 18.796 43.956001L19.24 43.956001C19.733334 43.956001 20.091 44.042332 20.313 44.215C20.535 44.387665 20.670666 44.819332 20.719999 45.509998C20.719999 45.953999 20.608999 46.336334 20.386999 46.657001C20.165001 46.977665 19.832001 47.138 19.388 47.138C16.230667 46.990002 13.172 46.916 10.212 46.916C7.4986668 46.916 4.5386667 46.990002 1.332 47.138Z"/>
	<defs>
		<linearGradient id="gradient_16" gradientUnits="userSpaceOnUse" x1="24.827" y1="0" x2="24.827" y2="47.360001">
			<stop offset="0" stop-color="#FBE6BE"/>
			<stop offset="1" stop-color="#F5C889"/>
		</linearGradient>
	</defs>
	<path fill="url(#gradient_16)" transform="translate(759.314 1.036)" d="M1.332 47.360001C0.88800001 47.360001 0.55500001 47.199665 0.333 46.879002C0.111 46.558334 0 46.175999 0 45.731998C0.049333334 44.992001 0.19733334 44.548 0.44400001 44.400002C0.69066668 44.251999 0.98666668 44.178001 1.332 44.178001C1.6773334 44.178001 1.8993334 44.178001 1.998 44.178001C3.4779999 44.178001 4.5633335 43.795666 5.2540002 43.030998C5.9446669 42.266335 6.4996667 41.403 6.9190001 40.441002C7.3383331 39.479 7.6220002 38.825333 7.77 38.48L20.719999 7.8439999C21.016001 7.1040001 21.164 6.5120001 21.164 6.0679998C21.164 5.1799998 20.818666 4.5386667 20.128 4.1440001C19.437334 3.7493334 18.475334 3.4286666 17.242001 3.1819999C16.403334 3.0339999 15.885333 2.8859999 15.688 2.7379999C15.490666 2.5899999 15.392 2.1706667 15.392 1.48C15.392 0.88800001 15.552333 0.49333334 15.873 0.296C16.193666 0.098666668 16.699333 0 17.389999 0C19.856667 0 21.817667 0.185 23.273001 0.55500001C24.728333 0.92500001 25.998667 1.665 27.084 2.7750001C28.169333 3.885 29.180666 5.5746665 30.118 7.8439999L42.549999 38.48C43.290001 40.354668 44.005333 41.760666 44.695999 42.698002C45.386665 43.635334 46.422668 44.128666 47.804001 44.178001L48.248001 44.178001C48.741333 44.178001 49.086666 44.264332 49.284 44.437C49.481335 44.609665 49.604668 45.041332 49.653999 45.731998C49.653999 46.175999 49.542999 46.558334 49.320999 46.879002C49.098999 47.199665 48.765999 47.360001 48.321999 47.360001C45.164665 47.212002 42.451332 47.138 40.181999 47.138C37.222 47.138 34.163334 47.212002 31.006001 47.360001C30.562 47.360001 30.229 47.199665 30.007 46.879002C29.785 46.558334 29.674 46.175999 29.674 45.731998C29.723333 45.041332 29.846666 44.609665 30.044001 44.437C30.241333 44.264332 30.586666 44.178001 31.08 44.178001C32.757332 44.178001 33.941334 44.017666 34.632 43.696999C35.322666 43.376335 35.667999 42.796665 35.667999 41.958C35.667999 41.316666 35.372002 40.157333 34.779999 38.48L32.264 32.338001L13.986 32.338001C12.752666 35.396667 12.049666 37.172668 11.877 37.666C11.704333 38.159332 11.618 38.430668 11.618 38.48C11.026 40.354668 10.73 41.563332 10.73 42.105999C10.73 42.944668 11.1 43.499668 11.84 43.771C12.58 44.042332 13.986 44.178001 16.058001 44.178001L16.502001 44.178001C16.995333 44.178001 17.340666 44.264332 17.538 44.437C17.735332 44.609665 17.858667 45.041332 17.908001 45.731998C17.908001 46.175999 17.797001 46.558334 17.575001 46.879002C17.353001 47.199665 17.02 47.360001 16.576 47.360001C13.418667 47.212002 10.73 47.138 8.5100002 47.138C6.9313335 47.138 4.5386667 47.212002 1.332 47.360001ZM15.392 29.156L30.931999 29.156L23.458 10.138L23.236 10.138L15.392 29.156Z"/>
	<defs>
		<linearGradient id="gradient_17" gradientUnits="userSpaceOnUse" x1="24.346001" y1="0" x2="24.346001" y2="47.804001">
			<stop offset="0" stop-color="#FBE6BE"/>
			<stop offset="1" stop-color="#F5C889"/>
		</linearGradient>
	</defs>
	<path fill="url(#gradient_17)" transform="translate(-3.05176e-05 85.11)" d="M21.83 47.804001C20.35 43.758667 18.006666 37.320667 14.8 28.49C11.593333 19.659334 9.25 13.270667 7.77 9.3240004C6.9313335 7.2026668 6.1173334 5.7226667 5.3280001 4.8839998C4.5386667 4.0453334 3.3793333 3.4779999 1.85 3.1819999C1.6526667 3.1326666 1.3566667 3.0710001 0.96200001 2.997C0.56733334 2.9230001 0.30833334 2.7750001 0.185 2.553C0.061666667 2.3310001 0 1.9733334 0 1.48C0 0.88800001 0.16033334 0.49333334 0.48100001 0.296C0.80166668 0.098666668 1.3073334 0 1.998 0C5.698 0 8.5100002 0.56733334 10.434 1.702C12.358 2.8366666 13.887333 4.8593335 15.022 7.77L25.752001 36.630001L25.974001 36.630001L36.186001 6.9559999C36.481998 6.1173334 36.630001 5.4759998 36.630001 5.0320001C36.630001 4.3413334 36.346333 3.885 35.778999 3.6630001C35.211666 3.441 34.262001 3.3299999 32.93 3.3299999L32.486 3.3299999C31.992666 3.3299999 31.647333 3.2436666 31.450001 3.0710001C31.252666 2.8983333 31.129333 2.4666667 31.08 1.776C31.08 1.332 31.191 0.94966668 31.413 0.62900001C31.635 0.30833334 31.943333 0.148 32.338001 0.148C35.544666 0.296 38.233334 0.37 40.403999 0.37C41.341331 0.37 43.141998 0.32066667 45.806 0.222L47.360001 0.148C47.804001 0.148 48.137001 0.30833334 48.359001 0.62900001C48.581001 0.94966668 48.692001 1.332 48.692001 1.776C48.642666 2.4666667 48.519333 2.8983333 48.321999 3.0710001C48.124668 3.2436666 47.779335 3.3299999 47.285999 3.3299999C45.164665 3.3299999 43.549 3.6753333 42.438999 4.3660002C41.328999 5.0566669 40.379333 6.3886666 39.59 8.3620005C38.110001 12.407333 35.729668 18.956333 32.449001 28.009001C29.168333 37.061668 26.788 43.66 25.308001 47.804001L21.83 47.804001Z"/>
	<defs>
		<linearGradient id="gradient_18" gradientUnits="userSpaceOnUse" x1="10.36" y1="0" x2="10.36" y2="47.138">
			<stop offset="0" stop-color="#FBE6BE"/>
			<stop offset="1" stop-color="#F5C889"/>
		</linearGradient>
	</defs>
	<path fill="url(#gradient_18)" transform="translate(50.394 85.258)" d="M1.332 47.138C0.88800001 47.138 0.55500001 46.977665 0.333 46.657001C0.111 46.336334 0 45.953999 0 45.509998C0.049333334 44.77 0.20966667 44.326 0.48100001 44.178001C0.75233334 44.029999 1.2086667 43.956001 1.85 43.956001C3.2806666 43.956001 4.3413334 43.696999 5.0320001 43.179001C5.7226667 42.660999 6.1666665 42.032001 6.3639998 41.292C6.5613332 40.551998 6.6846666 39.540668 6.7340002 38.257999L6.7340002 8.8800001C6.6846666 7.5973334 6.5613332 6.586 6.3639998 5.8460002C6.1666665 5.1059999 5.7226667 4.4770002 5.0320001 3.9590001C4.3413334 3.441 3.2806666 3.1819999 1.85 3.1819999L1.406 3.1819999C0.96200001 3.1819999 0.62900001 3.0956666 0.40700001 2.9230001C0.185 2.7503333 0.049333334 2.3186667 0 1.628C0 1.184 0.111 0.80166668 0.333 0.48100001C0.55500001 0.16033334 0.88800001 0 1.332 0C4.5386667 0.148 7.474 0.222 10.138 0.222C13.098 0.222 16.181334 0.148 19.388 0C19.832001 0 20.165001 0.16033334 20.386999 0.48100001C20.608999 0.80166668 20.719999 1.184 20.719999 1.628C20.670666 2.368 20.510334 2.812 20.239 2.96C19.967667 3.108 19.486666 3.1819999 18.796 3.1819999C17.365334 3.1819999 16.304667 3.441 15.614 3.9590001C14.923333 4.4770002 14.491667 5.1183333 14.319 5.8829999C14.146334 6.6476665 14.035334 7.6466665 13.986 8.8800001L13.986 38.257999C14.035334 39.491333 14.146334 40.490334 14.319 41.255001C14.491667 42.019665 14.923333 42.660999 15.614 43.179001C16.304667 43.696999 17.365334 43.956001 18.796 43.956001L19.24 43.956001C19.733334 43.956001 20.091 44.042332 20.313 44.215C20.535 44.387665 20.670666 44.819332 20.719999 45.509998C20.719999 45.953999 20.608999 46.336334 20.386999 46.657001C20.165001 46.977665 19.832001 47.138 19.388 47.138C16.230667 46.990002 13.172 46.916 10.212 46.916C7.4986668 46.916 4.5386667 46.990002 1.332 47.138Z"/>
	<defs>
		<linearGradient id="gradient_19" gradientUnits="userSpaceOnUse" x1="29.007999" y1="0" x2="29.007999" y2="62.973999">
			<stop offset="0" stop-color="#FBE6BE"/>
			<stop offset="1" stop-color="#F5C889"/>
		</linearGradient>
	</defs>
	<path fill="url(#gradient_19)" transform="translate(77.774 84)" d="M47.952 62.973999C45.929333 62.973999 44.128666 62.702667 42.549999 62.16C40.971333 61.617332 39.59 60.938999 38.405998 60.125C37.222 59.311001 35.692665 58.164001 33.818001 56.683998C32.338001 55.450668 31.018333 54.414665 29.858999 53.576C28.699667 52.737335 27.454 51.972668 26.122 51.282001C24.543333 50.492668 22.668667 49.851334 20.497999 49.358002C15.318 48.174 11.544 46.669334 9.1759996 44.844002C6.2653332 42.574665 4.0083332 39.737999 2.405 36.334C0.80166668 32.93 0 29.304001 0 25.455999C0 20.275999 1.1716666 15.762 3.5150001 11.914C5.8583331 8.066 8.8553333 5.1183333 12.506 3.0710001C16.156666 1.0236666 19.856667 0 23.606001 0C28.341999 0 32.535332 1.1223333 36.186001 3.3670001C39.836666 5.6116667 42.636333 8.5716667 44.584999 12.247C46.533669 15.922334 47.507999 19.881332 47.507999 24.124001C47.507999 29.649334 46.114334 34.471668 43.327 38.591C40.539665 42.710335 36.852001 45.682667 32.264 47.507999C31.474667 47.853333 30.463333 48.050667 29.23 48.099998L29.23 48.248001C30.562 48.396 31.770666 48.741333 32.855999 49.284C34.779999 50.221333 37.369999 51.874001 40.625999 54.242001C43.043335 55.968666 44.992001 57.238998 46.472 58.053001C47.952 58.867001 49.407333 59.273998 50.838001 59.273998C51.726002 59.175335 52.379665 58.891666 52.799 58.423C53.218334 57.954334 53.428001 57.374668 53.428001 56.683998C53.428001 55.5 52.971668 54.402332 52.058998 53.390999C51.146332 52.379665 49.974667 51.849335 48.543999 51.799999C48.396 51.010666 48.692001 50.245998 49.431999 49.506001C50.172001 48.765999 51.282001 48.396 52.762001 48.396C53.403332 48.396 54.131001 48.618 54.945 49.062C55.758999 49.506001 56.474335 50.172001 57.091 51.060001C57.707668 51.948002 58.015999 53.033333 58.015999 54.316002C58.015999 55.796001 57.510334 57.189667 56.499001 58.497002C55.487667 59.804333 54.205002 60.865002 52.651001 61.679001C51.097 62.493 49.530666 62.924667 47.952 62.973999ZM23.532 46.619999C26.886667 46.619999 29.698668 45.596333 31.968 43.549C34.237335 41.501667 35.926998 38.776001 37.036999 35.372002C38.146999 31.968 38.702 28.218666 38.702 24.124001C38.702 20.325333 38.134666 16.834999 37 13.653C35.865334 10.471 34.151001 7.9303331 31.857 6.0310001C29.563 4.1316667 26.788 3.1819999 23.532 3.1819999C18.598667 3.1819999 14.898666 5.2663331 12.432 9.4350004C9.965333 13.603666 8.7320004 18.870001 8.7320004 25.233999C8.7320004 29.082001 9.2869997 32.633999 10.397 35.889999C11.507 39.146 13.172 41.748333 15.392 43.696999C17.612 45.645668 20.325333 46.619999 23.532 46.619999Z"/>
	<defs>
		<linearGradient id="gradient_20" gradientUnits="userSpaceOnUse" x1="24.975" y1="0" x2="24.975" y2="48.396">
			<stop offset="0" stop-color="#FBE6BE"/>
			<stop offset="1" stop-color="#F5C889"/>
		</linearGradient>
	</defs>
	<path fill="url(#gradient_20)" transform="translate(130.758 85.258)" d="M24.568001 48.396C20.769333 48.396 17.525667 47.73 14.837 46.397999C12.148334 45.066002 10.113334 43.314667 8.7320004 41.144001C7.3506665 38.973331 6.6599998 36.630001 6.6599998 34.113998L6.6599998 8.8800001C6.6106668 7.6466665 6.4996667 6.6476665 6.3270001 5.8829999C6.1543331 5.1183333 5.7226667 4.4770002 5.0320001 3.9590001C4.3413334 3.441 3.2806666 3.1819999 1.85 3.1819999L1.406 3.1819999C0.91266668 3.1819999 0.56733334 3.0956666 0.37 2.9230001C0.17266667 2.7503333 0.049333334 2.3186667 0 1.628C0 1.184 0.111 0.80166668 0.333 0.48100001C0.55500001 0.16033334 0.88800001 0 1.332 0C4.4893332 0.148 7.4000001 0.222 10.064 0.222C13.073334 0.222 16.156666 0.148 19.313999 0C19.757999 0 20.091 0.16033334 20.313 0.48100001C20.535 0.80166668 20.646 1.184 20.646 1.628C20.596666 2.3186667 20.461 2.7503333 20.239 2.9230001C20.017 3.0956666 19.659334 3.1819999 19.166 3.1819999C17.587334 3.1819999 16.427999 3.4286666 15.688 3.9219999C14.948 4.4153333 14.491667 5.0320001 14.319 5.7719998C14.146334 6.5120001 14.035334 7.5479999 13.986 8.8800001L13.986 31.968C13.986 35.372002 14.787666 38.233334 16.391001 40.551998C17.994333 42.870667 21.114666 44.029999 25.752001 44.029999C30.290667 44.029999 33.509666 42.981667 35.409 40.884998C37.308334 38.788334 38.257999 36.161335 38.257999 33.004002L38.257999 13.542C38.257999 10.187333 38.134666 7.8193336 37.888 6.4380002C37.641335 5.0566669 37.147999 4.1686668 36.408001 3.7739999C35.667999 3.3793333 34.385334 3.1819999 32.560001 3.1819999L32.116001 3.1819999C31.672001 3.1819999 31.339001 3.0956666 31.117001 2.9230001C30.895 2.7503333 30.759333 2.3186667 30.709999 1.628C30.709999 1.184 30.820999 0.80166668 31.042999 0.48100001C31.264999 0.16033334 31.598 0 32.042 0C35.248665 0.148 38.011333 0.222 40.330002 0.222C42.698002 0.222 45.460667 0.148 48.618 0C49.062 0 49.395 0.16033334 49.617001 0.48100001C49.839001 0.80166668 49.950001 1.184 49.950001 1.628C49.900665 2.3186667 49.764999 2.7503333 49.542999 2.9230001C49.320999 3.0956666 48.963333 3.1819999 48.470001 3.1819999C46.496666 3.1819999 45.127666 3.3546667 44.362999 3.7C43.598331 4.0453334 43.080334 4.8716664 42.808998 6.1789999C42.537666 7.4863334 42.402 9.7926664 42.402 13.098L42.402 33.743999C42.402 37.049332 41.489334 39.799667 39.664001 41.994999C37.838665 44.190334 35.556999 45.806 32.819 46.841999C30.080999 47.877998 27.330667 48.396 24.568001 48.396Z"/>
	<defs>
		<linearGradient id="gradient_21" gradientUnits="userSpaceOnUse" x1="10.36" y1="0" x2="10.36" y2="47.138">
			<stop offset="0" stop-color="#FBE6BE"/>
			<stop offset="1" stop-color="#F5C889"/>
		</linearGradient>
	</defs>
	<path fill="url(#gradient_21)" transform="translate(185.148 85.258)" d="M1.332 47.138C0.88800001 47.138 0.55500001 46.977665 0.333 46.657001C0.111 46.336334 0 45.953999 0 45.509998C0.049333334 44.77 0.20966667 44.326 0.48100001 44.178001C0.75233334 44.029999 1.2086667 43.956001 1.85 43.956001C3.2806666 43.956001 4.3413334 43.696999 5.0320001 43.179001C5.7226667 42.660999 6.1666665 42.032001 6.3639998 41.292C6.5613332 40.551998 6.6846666 39.540668 6.7340002 38.257999L6.7340002 8.8800001C6.6846666 7.5973334 6.5613332 6.586 6.3639998 5.8460002C6.1666665 5.1059999 5.7226667 4.4770002 5.0320001 3.9590001C4.3413334 3.441 3.2806666 3.1819999 1.85 3.1819999L1.406 3.1819999C0.96200001 3.1819999 0.62900001 3.0956666 0.40700001 2.9230001C0.185 2.7503333 0.049333334 2.3186667 0 1.628C0 1.184 0.111 0.80166668 0.333 0.48100001C0.55500001 0.16033334 0.88800001 0 1.332 0C4.5386667 0.148 7.474 0.222 10.138 0.222C13.098 0.222 16.181334 0.148 19.388 0C19.832001 0 20.165001 0.16033334 20.386999 0.48100001C20.608999 0.80166668 20.719999 1.184 20.719999 1.628C20.670666 2.368 20.510334 2.812 20.239 2.96C19.967667 3.108 19.486666 3.1819999 18.796 3.1819999C17.365334 3.1819999 16.304667 3.441 15.614 3.9590001C14.923333 4.4770002 14.491667 5.1183333 14.319 5.8829999C14.146334 6.6476665 14.035334 7.6466665 13.986 8.8800001L13.986 38.257999C14.035334 39.491333 14.146334 40.490334 14.319 41.255001C14.491667 42.019665 14.923333 42.660999 15.614 43.179001C16.304667 43.696999 17.365334 43.956001 18.796 43.956001L19.24 43.956001C19.733334 43.956001 20.091 44.042332 20.313 44.215C20.535 44.387665 20.670666 44.819332 20.719999 45.509998C20.719999 45.953999 20.608999 46.336334 20.386999 46.657001C20.165001 46.977665 19.832001 47.138 19.388 47.138C16.230667 46.990002 13.172 46.916 10.212 46.916C7.4986668 46.916 4.5386667 46.990002 1.332 47.138Z"/>
	<defs>
		<linearGradient id="gradient_22" gradientUnits="userSpaceOnUse" x1="24.457001" y1="0" x2="24.457001" y2="47.360001">
			<stop offset="0" stop-color="#FBE6BE"/>
			<stop offset="1" stop-color="#F5C889"/>
		</linearGradient>
	</defs>
	<path fill="url(#gradient_22)" transform="translate(212.084 85.036)" d="M1.48 47.360001C1.036 47.360001 0.70300001 47.199665 0.48100001 46.879002C0.259 46.558334 0.148 46.175999 0.148 45.731998C0.19733334 44.992001 0.34533334 44.548 0.59200001 44.400002C0.83866668 44.251999 1.3073334 44.178001 1.998 44.178001C3.4286666 44.178001 4.4770002 43.918999 5.1430001 43.401001C5.809 42.882999 6.2160001 42.266335 6.3639998 41.550999C6.5120001 40.835667 6.6106668 39.812 6.6599998 38.48L6.8080001 9.1020002C6.8080001 7.6220002 6.6476665 6.4996667 6.3270001 5.7350001C6.0063334 4.9703331 5.5006666 4.4153333 4.8099999 4.0700002C4.1193333 3.7246666 3.1326666 3.4286666 1.85 3.1819999C1.0113333 3.0339999 0.49333334 2.8859999 0.296 2.7379999C0.098666668 2.5899999 0 2.1706667 0 1.48C0 0.88800001 0.16033334 0.49333334 0.48100001 0.296C0.80166668 0.098666668 1.3073334 0 1.998 0C5.0566669 0 7.474 0.20966667 9.25 0.62900001C11.026 1.0483333 12.592334 1.8006667 13.949 2.8859999C15.305667 3.9713333 16.798 5.6240001 18.426001 7.8439999L38.702 34.484001L38.924 34.484001L38.776001 9.1020002C38.726665 7.77 38.627998 6.7463331 38.48 6.0310001C38.332001 5.3156667 37.924999 4.6989999 37.258999 4.1810002C36.592999 3.6630001 35.544666 3.404 34.113998 3.404L33.669998 3.404C33.176666 3.404 32.819 3.3176668 32.597 3.145C32.375 2.9723334 32.239334 2.5406666 32.189999 1.85C32.189999 1.406 32.313332 1.0236666 32.560001 0.70300001C32.806667 0.38233334 33.127335 0.222 33.521999 0.222C36.679333 0.37 39.047333 0.44400001 40.625999 0.44400001C41.563332 0.44400001 43.363998 0.39466667 46.028 0.296L47.582001 0.222C48.026001 0.222 48.359001 0.38233334 48.581001 0.70300001C48.803001 1.0236666 48.914001 1.406 48.914001 1.85C48.864666 2.5899999 48.716667 3.0339999 48.470001 3.1819999C48.223331 3.3299999 47.754665 3.404 47.063999 3.404C45.633335 3.404 44.584999 3.6630001 43.918999 4.1810002C43.252998 4.6989999 42.846001 5.3156667 42.698002 6.0310001C42.549999 6.7463331 42.451332 7.77 42.402 9.1020002L42.254002 46.397999C42.204666 47.039333 41.588001 47.360001 40.403999 47.360001C39.466667 47.360001 38.751335 47.039333 38.257999 46.397999L10.36 9.1020002L10.138 9.1020002L10.286 38.48C10.335333 39.812 10.434 40.835667 10.582 41.550999C10.73 42.266335 11.137 42.882999 11.803 43.401001C12.469 43.918999 13.517333 44.178001 14.948 44.178001L15.392 44.178001C15.885333 44.178001 16.243 44.264332 16.465 44.437C16.687 44.609665 16.822666 45.041332 16.872 45.731998C16.872 46.175999 16.761 46.558334 16.539 46.879002C16.316999 47.199665 15.984 47.360001 15.54 47.360001C12.382667 47.212002 9.9899998 47.138 8.3620005 47.138C7.3753333 47.138 5.6486669 47.187332 3.1819999 47.285999L1.48 47.360001Z"/>
	<defs>
		<linearGradient id="gradient_23" gradientUnits="userSpaceOnUse" x1="23.125" y1="0" x2="23.125" y2="49.653999">
			<stop offset="0" stop-color="#FBE6BE"/>
			<stop offset="1" stop-color="#F5C889"/>
		</linearGradient>
	</defs>
	<path fill="url(#gradient_23)" transform="translate(267.14 84)" d="M22.940001 49.653999C18.648001 49.653999 14.763 48.753666 11.285 46.952999C7.8070002 45.152332 5.0566669 42.414333 3.0339999 38.738998C1.0113333 35.063667 0 30.537333 0 25.16C0 20.177334 1.0976666 15.786667 3.293 11.988C5.4883332 8.189333 8.534667 5.2416668 12.432 3.145C16.329334 1.0483333 20.794001 0 25.826 0C28.292667 0 30.734667 0.37 33.152 1.11C35.569332 1.85 37.567333 3.0093334 39.146 4.5879998C40.724667 6.1666665 41.514 8.1153336 41.514 10.434C41.514 12.604667 40.872665 14.479333 39.59 16.058001C38.307335 17.636667 36.605335 18.426001 34.484001 18.426001C33.448002 18.426001 32.449001 18.179333 31.487 17.686001C30.525 17.192667 30.019333 16.551332 29.969999 15.762C29.969999 15.712667 30.302999 15.441334 30.969 14.948C31.635 14.454667 32.251667 13.788667 32.819 12.95C33.386333 12.111333 33.669998 11.1 33.669998 9.9160004C33.669998 7.8439999 32.855999 6.1666665 31.228001 4.8839998C29.6 3.6013334 27.503334 2.96 24.938 2.96C21.879333 2.96 19.116667 3.8110001 16.65 5.513C14.183333 7.2150002 12.234667 9.7063332 10.804 12.987C9.373333 16.267666 8.658 20.177334 8.658 24.716C8.658 29.106667 9.3610001 32.905334 10.767 36.112C12.173 39.318668 14.146334 41.772999 16.687 43.474998C19.227667 45.176998 22.175333 46.028 25.530001 46.028C27.108667 46.028 28.49 45.941666 29.674 45.769001C30.858 45.596333 32.140667 45.287998 33.521999 44.844002L33.521999 37.296001C33.521999 35.569332 33.460335 34.360668 33.337002 33.669998C33.213665 32.979332 32.819 32.461334 32.153 32.116001C31.487 31.770666 30.364666 31.598 28.785999 31.598C28.243334 31.598 27.848667 31.511667 27.601999 31.339001C27.355333 31.166334 27.207333 30.734667 27.158001 30.044001C27.158001 29.6 27.293667 29.217667 27.565001 28.896999C27.836334 28.576334 28.218666 28.416 28.712 28.416C31.82 28.563999 34.533333 28.638 36.852001 28.638C39.071999 28.638 41.736 28.563999 44.844002 28.416C45.287998 28.416 45.633335 28.576334 45.880001 28.896999C46.126667 29.217667 46.25 29.6 46.25 30.044001C46.200668 30.734667 46.052666 31.166334 45.806 31.339001C45.559334 31.511667 45.164665 31.598 44.622002 31.598C43.141998 31.598 42.081333 31.795334 41.439999 32.189999C40.798668 32.584667 40.403999 33.139668 40.256001 33.855C40.108002 34.570332 40.034 35.717335 40.034 37.296001L40.034 46.028C37.123333 47.409332 34.459332 48.359001 32.042 48.876999C29.624666 49.395 26.590666 49.653999 22.940001 49.653999Z"/>
	<defs>
		<linearGradient id="gradient_24" gradientUnits="userSpaceOnUse" x1="24.827" y1="0" x2="24.827" y2="47.360001">
			<stop offset="0" stop-color="#FBE6BE"/>
			<stop offset="1" stop-color="#F5C889"/>
		</linearGradient>
	</defs>
	<path fill="url(#gradient_24)" transform="translate(313.834 85.036)" d="M1.332 47.360001C0.88800001 47.360001 0.55500001 47.199665 0.333 46.879002C0.111 46.558334 0 46.175999 0 45.731998C0.049333334 44.992001 0.19733334 44.548 0.44400001 44.400002C0.69066668 44.251999 0.98666668 44.178001 1.332 44.178001C1.6773334 44.178001 1.8993334 44.178001 1.998 44.178001C3.4779999 44.178001 4.5633335 43.795666 5.2540002 43.030998C5.9446669 42.266335 6.4996667 41.403 6.9190001 40.441002C7.3383331 39.479 7.6220002 38.825333 7.77 38.48L20.719999 7.8439999C21.016001 7.1040001 21.164 6.5120001 21.164 6.0679998C21.164 5.1799998 20.818666 4.5386667 20.128 4.1440001C19.437334 3.7493334 18.475334 3.4286666 17.242001 3.1819999C16.403334 3.0339999 15.885333 2.8859999 15.688 2.7379999C15.490666 2.5899999 15.392 2.1706667 15.392 1.48C15.392 0.88800001 15.552333 0.49333334 15.873 0.296C16.193666 0.098666668 16.699333 0 17.389999 0C19.856667 0 21.817667 0.185 23.273001 0.55500001C24.728333 0.92500001 25.998667 1.665 27.084 2.7750001C28.169333 3.885 29.180666 5.5746665 30.118 7.8439999L42.549999 38.48C43.290001 40.354668 44.005333 41.760666 44.695999 42.698002C45.386665 43.635334 46.422668 44.128666 47.804001 44.178001L48.248001 44.178001C48.741333 44.178001 49.086666 44.264332 49.284 44.437C49.481335 44.609665 49.604668 45.041332 49.653999 45.731998C49.653999 46.175999 49.542999 46.558334 49.320999 46.879002C49.098999 47.199665 48.765999 47.360001 48.321999 47.360001C45.164665 47.212002 42.451332 47.138 40.181999 47.138C37.222 47.138 34.163334 47.212002 31.006001 47.360001C30.562 47.360001 30.229 47.199665 30.007 46.879002C29.785 46.558334 29.674 46.175999 29.674 45.731998C29.723333 45.041332 29.846666 44.609665 30.044001 44.437C30.241333 44.264332 30.586666 44.178001 31.08 44.178001C32.757332 44.178001 33.941334 44.017666 34.632 43.696999C35.322666 43.376335 35.667999 42.796665 35.667999 41.958C35.667999 41.316666 35.372002 40.157333 34.779999 38.48L32.264 32.338001L13.986 32.338001C12.752666 35.396667 12.049666 37.172668 11.877 37.666C11.704333 38.159332 11.618 38.430668 11.618 38.48C11.026 40.354668 10.73 41.563332 10.73 42.105999C10.73 42.944668 11.1 43.499668 11.84 43.771C12.58 44.042332 13.986 44.178001 16.058001 44.178001L16.502001 44.178001C16.995333 44.178001 17.340666 44.264332 17.538 44.437C17.735332 44.609665 17.858667 45.041332 17.908001 45.731998C17.908001 46.175999 17.797001 46.558334 17.575001 46.879002C17.353001 47.199665 17.02 47.360001 16.576 47.360001C13.418667 47.212002 10.73 47.138 8.5100002 47.138C6.9313335 47.138 4.5386667 47.212002 1.332 47.360001ZM15.392 29.156L30.931999 29.156L23.458 10.138L23.236 10.138L15.392 29.156Z"/>
	<defs>
		<linearGradient id="gradient_25" gradientUnits="userSpaceOnUse" x1="23.532" y1="0" x2="23.532" y2="47.138">
			<stop offset="0" stop-color="#FBE6BE"/>
			<stop offset="1" stop-color="#F5C889"/>
		</linearGradient>
	</defs>
	<path fill="url(#gradient_25)" transform="translate(382.728 85.258)" d="M1.258 47.138C0.86333334 47.138 0.55500001 46.977665 0.333 46.657001C0.111 46.336334 0 45.953999 0 45.509998C0.049333334 44.77 0.19733334 44.326 0.44400001 44.178001C0.69066668 44.029999 1.1593333 43.956001 1.85 43.956001C3.2806666 43.956001 4.3413334 43.696999 5.0320001 43.179001C5.7226667 42.660999 6.1543331 42.019665 6.3270001 41.255001C6.4996667 40.490334 6.6106668 39.491333 6.6599998 38.257999L6.6599998 8.8800001C6.6106668 7.6466665 6.4996667 6.6476665 6.3270001 5.8829999C6.1543331 5.1183333 5.7226667 4.4770002 5.0320001 3.9590001C4.3413334 3.441 3.2806666 3.1819999 1.85 3.1819999L1.406 3.1819999C0.91266668 3.1819999 0.56733334 3.0956666 0.37 2.9230001C0.17266667 2.7503333 0.049333334 2.3186667 0 1.628C0 1.184 0.111 0.80166668 0.333 0.48100001C0.55500001 0.16033334 0.86333334 0 1.258 0C4.5139999 0.148 7.4493332 0.222 10.064 0.222L21.608 0.222C26.344 0.222 30.648333 1.1716666 34.521 3.0710001C38.393665 4.9703331 41.452332 7.6960001 43.696999 11.248C45.941666 14.8 47.063999 18.993334 47.063999 23.827999C47.063999 28.860001 45.793667 33.115002 43.252998 36.592999C40.712334 40.070999 37.407001 42.660999 33.337002 44.362999C29.267 46.064999 24.913334 46.916 20.275999 46.916L10.064 46.916C7.4493332 46.916 4.5139999 46.990002 1.258 47.138ZM21.386 44.178001C27.158001 44.178001 31.388334 42.389668 34.077 38.813C36.765667 35.236332 38.110001 30.241333 38.110001 23.827999C38.110001 19.782667 37.382332 16.169001 35.926998 12.987C34.471668 9.8050003 32.362667 7.3260002 29.6 5.5500002C26.837334 3.7739999 23.556667 2.8859999 19.757999 2.8859999L13.986 2.96L13.986 39.146C13.986 41.07 14.565666 42.389668 15.725 43.105C16.884333 43.820332 18.771334 44.178001 21.386 44.178001Z"/>
	<defs>
		<linearGradient id="gradient_26" gradientUnits="userSpaceOnUse" x1="19.096354" y1="0" x2="19.096354" y2="47.138">
			<stop offset="0" stop-color="#FBE6BE"/>
			<stop offset="1" stop-color="#F5C889"/>
		</linearGradient>
	</defs>
	<path fill="url(#gradient_26)" transform="translate(436.6 85.258)" d="M1.258 47.138C0.86333334 47.138 0.55500001 46.977665 0.333 46.657001C0.111 46.336334 0 45.953999 0 45.509998C0.049333334 44.77 0.19733334 44.326 0.44400001 44.178001C0.69066668 44.029999 1.1593333 43.956001 1.85 43.956001C3.2806666 43.956001 4.3413334 43.696999 5.0320001 43.179001C5.7226667 42.660999 6.1543331 42.019665 6.3270001 41.255001C6.4996667 40.490334 6.6106668 39.491333 6.6599998 38.257999L6.6599998 8.8800001C6.6106668 7.6466665 6.4996667 6.6476665 6.3270001 5.8829999C6.1543331 5.1183333 5.7226667 4.4770002 5.0320001 3.9590001C4.3413334 3.441 3.2806666 3.1819999 1.85 3.1819999L1.406 3.1819999C0.91266668 3.1819999 0.56733334 3.0956666 0.37 2.9230001C0.17266667 2.7503333 0.049333334 2.3186667 0 1.628C0 1.184 0.111 0.80166668 0.333 0.48100001C0.55500001 0.16033334 0.86333334 0 1.258 0C4.5139999 0.148 7.4493332 0.222 10.064 0.222L33.299999 0.222C34.582668 0.222 35.223999 0.81400001 35.223999 1.998L35.445999 12.358C35.445999 12.802 35.223999 13.159667 34.779999 13.431C34.335999 13.702333 33.891998 13.838 33.448002 13.838C32.855999 13.838 32.338001 13.727 31.893999 13.505C31.450001 13.283 31.203333 12.95 31.153999 12.506C30.759333 10.088667 30.327667 8.2510004 29.858999 6.993C29.390333 5.7350001 28.699667 4.7976665 27.787001 4.1810002C26.874332 3.5643334 25.579334 3.2313333 23.902 3.1819999L13.986 3.1819999L13.986 21.978001L27.379999 21.978001C27.725334 22.027334 27.996666 22.212334 28.194 22.533001C28.391333 22.853666 28.49 23.236 28.49 23.68C28.49 24.074667 28.391333 24.42 28.194 24.716C27.996666 25.011999 27.725334 25.16 27.379999 25.16L13.986 25.16L13.986 39.146C14.084666 40.181999 14.208 41.008335 14.356 41.625C14.504 42.241665 14.948 42.796665 15.688 43.290001C16.427999 43.783333 17.587334 44.005333 19.166 43.956001L25.974001 43.956001C27.700666 43.906666 29.007999 43.623001 29.896 43.105C30.784 42.587002 31.487 41.785332 32.005001 40.700001C32.522999 39.614666 33.152 37.838665 33.891998 35.372002C34.237335 34.484001 35.076 34.138668 36.408001 34.335999C36.901333 34.434666 37.333 34.632 37.702999 34.928001C38.073002 35.223999 38.233334 35.594002 38.183998 36.037998L36.703999 45.362C36.556 46.003334 36.334 46.422668 36.037998 46.619999C35.742001 46.817333 35.248665 46.916 34.557999 46.916L10.138 46.916C7.474 46.916 4.5139999 46.990002 1.258 47.138Z"/>
	<defs>
		<linearGradient id="gradient_27" gradientUnits="userSpaceOnUse" x1="23.125" y1="0" x2="23.125" y2="49.653999">
			<stop offset="0" stop-color="#FBE6BE"/>
			<stop offset="1" stop-color="#F5C889"/>
		</linearGradient>
	</defs>
	<path fill="url(#gradient_27)" transform="translate(497.502 84)" d="M22.940001 49.653999C18.648001 49.653999 14.763 48.753666 11.285 46.952999C7.8070002 45.152332 5.0566669 42.414333 3.0339999 38.738998C1.0113333 35.063667 0 30.537333 0 25.16C0 20.177334 1.0976666 15.786667 3.293 11.988C5.4883332 8.189333 8.534667 5.2416668 12.432 3.145C16.329334 1.0483333 20.794001 0 25.826 0C28.292667 0 30.734667 0.37 33.152 1.11C35.569332 1.85 37.567333 3.0093334 39.146 4.5879998C40.724667 6.1666665 41.514 8.1153336 41.514 10.434C41.514 12.604667 40.872665 14.479333 39.59 16.058001C38.307335 17.636667 36.605335 18.426001 34.484001 18.426001C33.448002 18.426001 32.449001 18.179333 31.487 17.686001C30.525 17.192667 30.019333 16.551332 29.969999 15.762C29.969999 15.712667 30.302999 15.441334 30.969 14.948C31.635 14.454667 32.251667 13.788667 32.819 12.95C33.386333 12.111333 33.669998 11.1 33.669998 9.9160004C33.669998 7.8439999 32.855999 6.1666665 31.228001 4.8839998C29.6 3.6013334 27.503334 2.96 24.938 2.96C21.879333 2.96 19.116667 3.8110001 16.65 5.513C14.183333 7.2150002 12.234667 9.7063332 10.804 12.987C9.373333 16.267666 8.658 20.177334 8.658 24.716C8.658 29.106667 9.3610001 32.905334 10.767 36.112C12.173 39.318668 14.146334 41.772999 16.687 43.474998C19.227667 45.176998 22.175333 46.028 25.530001 46.028C27.108667 46.028 28.49 45.941666 29.674 45.769001C30.858 45.596333 32.140667 45.287998 33.521999 44.844002L33.521999 37.296001C33.521999 35.569332 33.460335 34.360668 33.337002 33.669998C33.213665 32.979332 32.819 32.461334 32.153 32.116001C31.487 31.770666 30.364666 31.598 28.785999 31.598C28.243334 31.598 27.848667 31.511667 27.601999 31.339001C27.355333 31.166334 27.207333 30.734667 27.158001 30.044001C27.158001 29.6 27.293667 29.217667 27.565001 28.896999C27.836334 28.576334 28.218666 28.416 28.712 28.416C31.82 28.563999 34.533333 28.638 36.852001 28.638C39.071999 28.638 41.736 28.563999 44.844002 28.416C45.287998 28.416 45.633335 28.576334 45.880001 28.896999C46.126667 29.217667 46.25 29.6 46.25 30.044001C46.200668 30.734667 46.052666 31.166334 45.806 31.339001C45.559334 31.511667 45.164665 31.598 44.622002 31.598C43.141998 31.598 42.081333 31.795334 41.439999 32.189999C40.798668 32.584667 40.403999 33.139668 40.256001 33.855C40.108002 34.570332 40.034 35.717335 40.034 37.296001L40.034 46.028C37.123333 47.409332 34.459332 48.359001 32.042 48.876999C29.624666 49.395 26.590666 49.653999 22.940001 49.653999Z"/>
	<defs>
		<linearGradient id="gradient_28" gradientUnits="userSpaceOnUse" x1="24.827" y1="0" x2="24.827" y2="47.360001">
			<stop offset="0" stop-color="#FBE6BE"/>
			<stop offset="1" stop-color="#F5C889"/>
		</linearGradient>
	</defs>
	<path fill="url(#gradient_28)" transform="translate(544.196 85.036)" d="M1.332 47.360001C0.88800001 47.360001 0.55500001 47.199665 0.333 46.879002C0.111 46.558334 0 46.175999 0 45.731998C0.049333334 44.992001 0.19733334 44.548 0.44400001 44.400002C0.69066668 44.251999 0.98666668 44.178001 1.332 44.178001C1.6773334 44.178001 1.8993334 44.178001 1.998 44.178001C3.4779999 44.178001 4.5633335 43.795666 5.2540002 43.030998C5.9446669 42.266335 6.4996667 41.403 6.9190001 40.441002C7.3383331 39.479 7.6220002 38.825333 7.77 38.48L20.719999 7.8439999C21.016001 7.1040001 21.164 6.5120001 21.164 6.0679998C21.164 5.1799998 20.818666 4.5386667 20.128 4.1440001C19.437334 3.7493334 18.475334 3.4286666 17.242001 3.1819999C16.403334 3.0339999 15.885333 2.8859999 15.688 2.7379999C15.490666 2.5899999 15.392 2.1706667 15.392 1.48C15.392 0.88800001 15.552333 0.49333334 15.873 0.296C16.193666 0.098666668 16.699333 0 17.389999 0C19.856667 0 21.817667 0.185 23.273001 0.55500001C24.728333 0.92500001 25.998667 1.665 27.084 2.7750001C28.169333 3.885 29.180666 5.5746665 30.118 7.8439999L42.549999 38.48C43.290001 40.354668 44.005333 41.760666 44.695999 42.698002C45.386665 43.635334 46.422668 44.128666 47.804001 44.178001L48.248001 44.178001C48.741333 44.178001 49.086666 44.264332 49.284 44.437C49.481335 44.609665 49.604668 45.041332 49.653999 45.731998C49.653999 46.175999 49.542999 46.558334 49.320999 46.879002C49.098999 47.199665 48.765999 47.360001 48.321999 47.360001C45.164665 47.212002 42.451332 47.138 40.181999 47.138C37.222 47.138 34.163334 47.212002 31.006001 47.360001C30.562 47.360001 30.229 47.199665 30.007 46.879002C29.785 46.558334 29.674 46.175999 29.674 45.731998C29.723333 45.041332 29.846666 44.609665 30.044001 44.437C30.241333 44.264332 30.586666 44.178001 31.08 44.178001C32.757332 44.178001 33.941334 44.017666 34.632 43.696999C35.322666 43.376335 35.667999 42.796665 35.667999 41.958C35.667999 41.316666 35.372002 40.157333 34.779999 38.48L32.264 32.338001L13.986 32.338001C12.752666 35.396667 12.049666 37.172668 11.877 37.666C11.704333 38.159332 11.618 38.430668 11.618 38.48C11.026 40.354668 10.73 41.563332 10.73 42.105999C10.73 42.944668 11.1 43.499668 11.84 43.771C12.58 44.042332 13.986 44.178001 16.058001 44.178001L16.502001 44.178001C16.995333 44.178001 17.340666 44.264332 17.538 44.437C17.735332 44.609665 17.858667 45.041332 17.908001 45.731998C17.908001 46.175999 17.797001 46.558334 17.575001 46.879002C17.353001 47.199665 17.02 47.360001 16.576 47.360001C13.418667 47.212002 10.73 47.138 8.5100002 47.138C6.9313335 47.138 4.5386667 47.212002 1.332 47.360001ZM15.392 29.156L30.931999 29.156L23.458 10.138L23.236 10.138L15.392 29.156Z"/>
	<defs>
		<linearGradient id="gradient_29" gradientUnits="userSpaceOnUse" x1="19.022112" y1="0" x2="19.022112" y2="47.138">
			<stop offset="0" stop-color="#FBE6BE"/>
			<stop offset="1" stop-color="#F5C889"/>
		</linearGradient>
	</defs>
	<path fill="url(#gradient_29)" transform="translate(596.588 85.258)" d="M1.258 47.138C0.86333334 47.138 0.55500001 46.977665 0.333 46.657001C0.111 46.336334 0 45.953999 0 45.509998C0.049333334 44.77 0.19733334 44.326 0.44400001 44.178001C0.69066668 44.029999 1.1593333 43.956001 1.85 43.956001C3.2806666 43.956001 4.3413334 43.696999 5.0320001 43.179001C5.7226667 42.660999 6.1543331 42.019665 6.3270001 41.255001C6.4996667 40.490334 6.6106668 39.491333 6.6599998 38.257999L6.6599998 8.8800001C6.6106668 7.6466665 6.4996667 6.6476665 6.3270001 5.8829999C6.1543331 5.1183333 5.7226667 4.4770002 5.0320001 3.9590001C4.3413334 3.441 3.2806666 3.1819999 1.85 3.1819999L1.406 3.1819999C0.91266668 3.1819999 0.56733334 3.0956666 0.37 2.9230001C0.17266667 2.7503333 0.049333334 2.3186667 0 1.628C0 1.184 0.111 0.80166668 0.333 0.48100001C0.55500001 0.16033334 0.86333334 0 1.258 0C4.5139999 0.148 7.4493332 0.222 10.064 0.222C13.024 0.222 16.107334 0.148 19.313999 0C19.757999 0 20.091 0.16033334 20.313 0.48100001C20.535 0.80166668 20.646 1.184 20.646 1.628C20.596666 2.368 20.436333 2.812 20.165001 2.96C19.893667 3.108 19.437334 3.1819999 18.796 3.1819999C17.365334 3.1819999 16.304667 3.441 15.614 3.9590001C14.923333 4.4770002 14.491667 5.1183333 14.319 5.8829999C14.146334 6.6476665 14.035334 7.6466665 13.986 8.8800001L13.986 39.368C14.084666 40.403999 14.208 41.205666 14.356 41.772999C14.504 42.340332 14.948 42.858334 15.688 43.327C16.427999 43.795666 17.587334 44.005333 19.166 43.956001L25.826 43.956001C27.552668 43.906666 28.860001 43.623001 29.747999 43.105C30.636 42.587002 31.339001 41.785332 31.857 40.700001C32.375 39.614666 33.004002 37.838665 33.743999 35.372002C34.089333 34.484001 34.928001 34.138668 36.259998 34.335999C36.703999 34.434666 37.123333 34.632 37.518002 34.928001C37.912666 35.223999 38.085335 35.594002 38.035999 36.037998L36.556 45.362C36.408001 46.003334 36.186001 46.422668 35.889999 46.619999C35.594002 46.817333 35.100666 46.916 34.41 46.916L10.138 46.916C7.474 46.916 4.5139999 46.990002 1.258 47.138Z"/>
	<defs>
		<linearGradient id="gradient_30" gradientUnits="userSpaceOnUse" x1="10.36" y1="0" x2="10.36" y2="47.138">
			<stop offset="0" stop-color="#FBE6BE"/>
			<stop offset="1" stop-color="#F5C889"/>
		</linearGradient>
	</defs>
	<path fill="url(#gradient_30)" transform="translate(638.768 85.258)" d="M1.332 47.138C0.88800001 47.138 0.55500001 46.977665 0.333 46.657001C0.111 46.336334 0 45.953999 0 45.509998C0.049333334 44.77 0.20966667 44.326 0.48100001 44.178001C0.75233334 44.029999 1.2086667 43.956001 1.85 43.956001C3.2806666 43.956001 4.3413334 43.696999 5.0320001 43.179001C5.7226667 42.660999 6.1666665 42.032001 6.3639998 41.292C6.5613332 40.551998 6.6846666 39.540668 6.7340002 38.257999L6.7340002 8.8800001C6.6846666 7.5973334 6.5613332 6.586 6.3639998 5.8460002C6.1666665 5.1059999 5.7226667 4.4770002 5.0320001 3.9590001C4.3413334 3.441 3.2806666 3.1819999 1.85 3.1819999L1.406 3.1819999C0.96200001 3.1819999 0.62900001 3.0956666 0.40700001 2.9230001C0.185 2.7503333 0.049333334 2.3186667 0 1.628C0 1.184 0.111 0.80166668 0.333 0.48100001C0.55500001 0.16033334 0.88800001 0 1.332 0C4.5386667 0.148 7.474 0.222 10.138 0.222C13.098 0.222 16.181334 0.148 19.388 0C19.832001 0 20.165001 0.16033334 20.386999 0.48100001C20.608999 0.80166668 20.719999 1.184 20.719999 1.628C20.670666 2.368 20.510334 2.812 20.239 2.96C19.967667 3.108 19.486666 3.1819999 18.796 3.1819999C17.365334 3.1819999 16.304667 3.441 15.614 3.9590001C14.923333 4.4770002 14.491667 5.1183333 14.319 5.8829999C14.146334 6.6476665 14.035334 7.6466665 13.986 8.8800001L13.986 38.257999C14.035334 39.491333 14.146334 40.490334 14.319 41.255001C14.491667 42.019665 14.923333 42.660999 15.614 43.179001C16.304667 43.696999 17.365334 43.956001 18.796 43.956001L19.24 43.956001C19.733334 43.956001 20.091 44.042332 20.313 44.215C20.535 44.387665 20.670666 44.819332 20.719999 45.509998C20.719999 45.953999 20.608999 46.336334 20.386999 46.657001C20.165001 46.977665 19.832001 47.138 19.388 47.138C16.230667 46.990002 13.172 46.916 10.212 46.916C7.4986668 46.916 4.5386667 46.990002 1.332 47.138Z"/>
	<defs>
		<linearGradient id="gradient_31" gradientUnits="userSpaceOnUse" x1="20.535" y1="0" x2="20.535" y2="49.653999">
			<stop offset="0" stop-color="#FBE6BE"/>
			<stop offset="1" stop-color="#F5C889"/>
		</linearGradient>
	</defs>
	<path fill="url(#gradient_31)" transform="translate(666.222 84)" d="M22.865999 49.653999C18.672667 49.653999 14.837 48.654999 11.359 46.657001C7.881 44.659 5.1183333 41.810001 3.0710001 38.110001C1.0236666 34.41 0 30.093334 0 25.16C0 20.177334 0.98666668 15.786667 2.96 11.988C4.9333334 8.189333 7.7453332 5.2416668 11.396 3.145C15.046667 1.0483333 19.313999 0 24.198 0C28.440666 0 32.214668 0.85100001 35.52 2.553C38.825333 4.2550001 40.478001 6.882 40.478001 10.434C40.527332 12.654 39.861332 14.541 38.48 16.094999C37.098667 17.649 35.248665 18.426001 32.93 18.426001C32.042 18.426001 31.289667 18.265667 30.673 17.945C30.056334 17.624332 29.6 17.242001 29.304001 16.798C29.007999 16.354 28.884666 16.008667 28.934 15.762C28.934 15.663333 29.279333 15.392 29.969999 14.948C30.660667 14.504 31.277334 13.887333 31.82 13.098C32.362667 12.308666 32.633999 11.346666 32.633999 10.212C32.633999 7.9920001 31.881666 6.2283335 30.377001 4.921C28.872334 3.6136668 26.788 2.96 24.124001 2.96C21.114666 2.96 18.438334 3.8110001 16.094999 5.513C13.751667 7.2150002 11.926333 9.7063332 10.619 12.987C9.3116665 16.267666 8.658 20.177334 8.658 24.716C8.658 28.662666 9.3610001 32.251667 10.767 35.483002C12.173 38.714333 14.158667 41.279667 16.724001 43.179001C19.289333 45.078335 22.224667 46.028 25.530001 46.028C28.194 46.028 30.475666 45.473 32.375 44.362999C34.274334 43.252998 35.988667 41.464668 37.518002 38.998001C37.764668 38.554001 38.110001 38.332001 38.554001 38.332001C38.948666 38.332001 39.392666 38.48 39.886002 38.776001C40.675335 39.318668 41.07 39.861332 41.07 40.403999C41.07 40.700001 40.971333 40.946667 40.773998 41.144001C38.899334 43.512001 37.135666 45.300335 35.483002 46.508999C33.830334 47.717667 32.042 48.543999 30.118 48.987999C28.194 49.431999 25.776667 49.653999 22.865999 49.653999Z"/>
	<defs>
		<linearGradient id="gradient_32" gradientUnits="userSpaceOnUse" x1="10.36" y1="0" x2="10.36" y2="47.138">
			<stop offset="0" stop-color="#FBE6BE"/>
			<stop offset="1" stop-color="#F5C889"/>
		</linearGradient>
	</defs>
	<path fill="url(#gradient_32)" transform="translate(712.99 85.258)" d="M1.332 47.138C0.88800001 47.138 0.55500001 46.977665 0.333 46.657001C0.111 46.336334 0 45.953999 0 45.509998C0.049333334 44.77 0.20966667 44.326 0.48100001 44.178001C0.75233334 44.029999 1.2086667 43.956001 1.85 43.956001C3.2806666 43.956001 4.3413334 43.696999 5.0320001 43.179001C5.7226667 42.660999 6.1666665 42.032001 6.3639998 41.292C6.5613332 40.551998 6.6846666 39.540668 6.7340002 38.257999L6.7340002 8.8800001C6.6846666 7.5973334 6.5613332 6.586 6.3639998 5.8460002C6.1666665 5.1059999 5.7226667 4.4770002 5.0320001 3.9590001C4.3413334 3.441 3.2806666 3.1819999 1.85 3.1819999L1.406 3.1819999C0.96200001 3.1819999 0.62900001 3.0956666 0.40700001 2.9230001C0.185 2.7503333 0.049333334 2.3186667 0 1.628C0 1.184 0.111 0.80166668 0.333 0.48100001C0.55500001 0.16033334 0.88800001 0 1.332 0C4.5386667 0.148 7.474 0.222 10.138 0.222C13.098 0.222 16.181334 0.148 19.388 0C19.832001 0 20.165001 0.16033334 20.386999 0.48100001C20.608999 0.80166668 20.719999 1.184 20.719999 1.628C20.670666 2.368 20.510334 2.812 20.239 2.96C19.967667 3.108 19.486666 3.1819999 18.796 3.1819999C17.365334 3.1819999 16.304667 3.441 15.614 3.9590001C14.923333 4.4770002 14.491667 5.1183333 14.319 5.8829999C14.146334 6.6476665 14.035334 7.6466665 13.986 8.8800001L13.986 38.257999C14.035334 39.491333 14.146334 40.490334 14.319 41.255001C14.491667 42.019665 14.923333 42.660999 15.614 43.179001C16.304667 43.696999 17.365334 43.956001 18.796 43.956001L19.24 43.956001C19.733334 43.956001 20.091 44.042332 20.313 44.215C20.535 44.387665 20.670666 44.819332 20.719999 45.509998C20.719999 45.953999 20.608999 46.336334 20.386999 46.657001C20.165001 46.977665 19.832001 47.138 19.388 47.138C16.230667 46.990002 13.172 46.916 10.212 46.916C7.4986668 46.916 4.5386667 46.990002 1.332 47.138Z"/>
	<defs>
		<linearGradient id="gradient_33" gradientUnits="userSpaceOnUse" x1="24.827" y1="0" x2="24.827" y2="47.360001">
			<stop offset="0" stop-color="#FBE6BE"/>
			<stop offset="1" stop-color="#F5C889"/>
		</linearGradient>
	</defs>
	<path fill="url(#gradient_33)" transform="translate(735.93 85.036)" d="M1.332 47.360001C0.88800001 47.360001 0.55500001 47.199665 0.333 46.879002C0.111 46.558334 0 46.175999 0 45.731998C0.049333334 44.992001 0.19733334 44.548 0.44400001 44.400002C0.69066668 44.251999 0.98666668 44.178001 1.332 44.178001C1.6773334 44.178001 1.8993334 44.178001 1.998 44.178001C3.4779999 44.178001 4.5633335 43.795666 5.2540002 43.030998C5.9446669 42.266335 6.4996667 41.403 6.9190001 40.441002C7.3383331 39.479 7.6220002 38.825333 7.77 38.48L20.719999 7.8439999C21.016001 7.1040001 21.164 6.5120001 21.164 6.0679998C21.164 5.1799998 20.818666 4.5386667 20.128 4.1440001C19.437334 3.7493334 18.475334 3.4286666 17.242001 3.1819999C16.403334 3.0339999 15.885333 2.8859999 15.688 2.7379999C15.490666 2.5899999 15.392 2.1706667 15.392 1.48C15.392 0.88800001 15.552333 0.49333334 15.873 0.296C16.193666 0.098666668 16.699333 0 17.389999 0C19.856667 0 21.817667 0.185 23.273001 0.55500001C24.728333 0.92500001 25.998667 1.665 27.084 2.7750001C28.169333 3.885 29.180666 5.5746665 30.118 7.8439999L42.549999 38.48C43.290001 40.354668 44.005333 41.760666 44.695999 42.698002C45.386665 43.635334 46.422668 44.128666 47.804001 44.178001L48.248001 44.178001C48.741333 44.178001 49.086666 44.264332 49.284 44.437C49.481335 44.609665 49.604668 45.041332 49.653999 45.731998C49.653999 46.175999 49.542999 46.558334 49.320999 46.879002C49.098999 47.199665 48.765999 47.360001 48.321999 47.360001C45.164665 47.212002 42.451332 47.138 40.181999 47.138C37.222 47.138 34.163334 47.212002 31.006001 47.360001C30.562 47.360001 30.229 47.199665 30.007 46.879002C29.785 46.558334 29.674 46.175999 29.674 45.731998C29.723333 45.041332 29.846666 44.609665 30.044001 44.437C30.241333 44.264332 30.586666 44.178001 31.08 44.178001C32.757332 44.178001 33.941334 44.017666 34.632 43.696999C35.322666 43.376335 35.667999 42.796665 35.667999 41.958C35.667999 41.316666 35.372002 40.157333 34.779999 38.48L32.264 32.338001L13.986 32.338001C12.752666 35.396667 12.049666 37.172668 11.877 37.666C11.704333 38.159332 11.618 38.430668 11.618 38.48C11.026 40.354668 10.73 41.563332 10.73 42.105999C10.73 42.944668 11.1 43.499668 11.84 43.771C12.58 44.042332 13.986 44.178001 16.058001 44.178001L16.502001 44.178001C16.995333 44.178001 17.340666 44.264332 17.538 44.437C17.735332 44.609665 17.858667 45.041332 17.908001 45.731998C17.908001 46.175999 17.797001 46.558334 17.575001 46.879002C17.353001 47.199665 17.02 47.360001 16.576 47.360001C13.418667 47.212002 10.73 47.138 8.5100002 47.138C6.9313335 47.138 4.5386667 47.212002 1.332 47.360001ZM15.392 29.156L30.931999 29.156L23.458 10.138L23.236 10.138L15.392 29.156Z"/>
</svg>
