<?xml version="1.0" encoding="utf-8" ?>
<svg xmlns="http://www.w3.org/2000/svg" xmlns:xlink="http://www.w3.org/1999/xlink" width="705" height="111">
	<defs>
		<linearGradient id="gradient_0" gradientUnits="userSpaceOnUse" x1="20.25" y1="0" x2="20.25" y2="39.240002">
			<stop offset="0" stop-color="#F7F3EA"/>
			<stop offset="1" stop-color="#F5C889"/>
		</linearGradient>
	</defs>
	<path fill="url(#gradient_0)" transform="translate(0 1.02006)" d="M19.92 39.240002C16.84 39.240002 14.21 38.700001 12.03 37.619999C9.8500004 36.540001 8.1999998 35.119999 7.0799999 33.360001C5.96 31.6 5.4000001 29.700001 5.4000001 27.66L5.4000001 7.1999998C5.3600001 6.1999998 5.27 5.3899999 5.1300001 4.77C4.9899998 4.1500001 4.6399999 3.6300001 4.0799999 3.21C3.52 2.79 2.6600001 2.5799999 1.5 2.5799999L1.14 2.5799999C0.74000001 2.5799999 0.46000001 2.51 0.30000001 2.3699999C0.14 2.23 0.039999999 1.88 0 1.3200001C0 0.95999998 0.090000004 0.64999998 0.27000001 0.38999999C0.44999999 0.13 0.72000003 0 1.08 0C3.6400001 0.12 6 0.18000001 8.1599998 0.18000001C10.6 0.18000001 13.1 0.12 15.66 0C16.02 0 16.290001 0.13 16.469999 0.38999999C16.65 0.64999998 16.74 0.95999998 16.74 1.3200001C16.700001 1.88 16.59 2.23 16.41 2.3699999C16.23 2.51 15.94 2.5799999 15.54 2.5799999C14.26 2.5799999 13.32 2.78 12.72 3.1800001C12.12 3.5799999 11.75 4.0799999 11.61 4.6799998C11.47 5.2800002 11.38 6.1199999 11.34 7.1999998L11.34 25.92C11.34 28.68 11.99 31 13.29 32.880001C14.59 34.759998 17.120001 35.700001 20.879999 35.700001C24.559999 35.700001 27.17 34.849998 28.709999 33.150002C30.25 31.450001 31.02 29.32 31.02 26.76L31.02 10.98C31.02 8.2600002 30.92 6.3400002 30.719999 5.2199998C30.52 4.0999999 30.120001 3.3800001 29.52 3.0599999C28.92 2.74 27.879999 2.5799999 26.4 2.5799999L26.040001 2.5799999C25.68 2.5799999 25.41 2.51 25.23 2.3699999C25.049999 2.23 24.940001 1.88 24.9 1.3200001C24.9 0.95999998 24.99 0.64999998 25.17 0.38999999C25.35 0.13 25.620001 0 25.98 0C28.58 0.12 30.82 0.18000001 32.700001 0.18000001C34.619999 0.18000001 36.860001 0.12 39.419998 0C39.779999 0 40.049999 0.13 40.23 0.38999999C40.41 0.64999998 40.5 0.95999998 40.5 1.3200001C40.459999 1.88 40.349998 2.23 40.169998 2.3699999C39.990002 2.51 39.700001 2.5799999 39.299999 2.5799999C37.700001 2.5799999 36.59 2.72 35.970001 3C35.349998 3.28 34.93 3.95 34.709999 5.0100002C34.490002 6.0700002 34.380001 7.9400001 34.380001 10.62L34.380001 27.360001C34.380001 30.040001 33.639999 32.27 32.16 34.049999C30.68 35.830002 28.83 37.139999 26.610001 37.98C24.389999 38.82 22.16 39.240002 19.92 39.240002Z"/>
	<defs>
		<linearGradient id="gradient_1" gradientUnits="userSpaceOnUse" x1="19.83" y1="0" x2="19.83" y2="38.400002">
			<stop offset="0" stop-color="#F7F3EA"/>
			<stop offset="1" stop-color="#F5C889"/>
		</linearGradient>
	</defs>
	<path fill="url(#gradient_1)" transform="translate(44.1 0.840061)" d="M1.2 38.400002C0.83999997 38.400002 0.56999999 38.27 0.38999999 38.009998C0.20999999 37.75 0.12 37.439999 0.12 37.080002C0.16 36.48 0.28 36.119999 0.47999999 36C0.68000001 35.880001 1.0599999 35.82 1.62 35.82C2.78 35.82 3.6300001 35.610001 4.1700001 35.189999C4.71 34.77 5.04 34.27 5.1599998 33.689999C5.2800002 33.110001 5.3600001 32.279999 5.4000001 31.200001L5.52 7.3800001C5.52 6.1799998 5.3899999 5.27 5.1300001 4.6500001C4.8699999 4.0300002 4.46 3.5799999 3.9000001 3.3C3.3399999 3.02 2.54 2.78 1.5 2.5799999C0.81999999 2.46 0.40000001 2.3399999 0.23999999 2.22C0.079999998 2.0999999 0 1.76 0 1.2C0 0.72000003 0.13 0.40000001 0.38999999 0.23999999C0.64999998 0.079999998 1.0599999 0 1.62 0C4.0999999 0 6.0599999 0.17 7.5 0.50999999C8.9399996 0.85000002 10.21 1.46 11.31 2.3399999C12.41 3.22 13.62 4.5599999 14.94 6.3600001L31.379999 27.959999L31.559999 27.959999L31.440001 7.3800001C31.4 6.3000002 31.32 5.4699998 31.200001 4.8899999C31.08 4.3099999 30.75 3.8099999 30.209999 3.3900001C29.67 2.97 28.82 2.76 27.66 2.76L27.299999 2.76C26.9 2.76 26.610001 2.6900001 26.43 2.55C26.25 2.4100001 26.139999 2.0599999 26.1 1.5C26.1 1.14 26.200001 0.82999998 26.4 0.56999999C26.6 0.31 26.860001 0.18000001 27.18 0.18000001C29.74 0.30000001 31.66 0.36000001 32.939999 0.36000001C33.700001 0.36000001 35.16 0.31999999 37.32 0.23999999L38.580002 0.18000001C38.939999 0.18000001 39.209999 0.31 39.389999 0.56999999C39.57 0.82999998 39.66 1.14 39.66 1.5C39.619999 2.0999999 39.5 2.46 39.299999 2.5799999C39.099998 2.7 38.720001 2.76 38.16 2.76C37 2.76 36.150002 2.97 35.610001 3.3900001C35.07 3.8099999 34.740002 4.3099999 34.619999 4.8899999C34.5 5.4699998 34.419998 6.3000002 34.380001 7.3800001L34.259998 37.619999C34.220001 38.139999 33.720001 38.400002 32.759998 38.400002C32 38.400002 31.42 38.139999 31.02 37.619999L8.3999996 7.3800001L8.2200003 7.3800001L8.3400002 31.200001C8.3800001 32.279999 8.46 33.110001 8.5799999 33.689999C8.6999998 34.27 9.0299997 34.77 9.5699997 35.189999C10.11 35.610001 10.96 35.82 12.12 35.82L12.48 35.82C12.88 35.82 13.17 35.889999 13.35 36.029999C13.53 36.169998 13.64 36.52 13.68 37.080002C13.68 37.439999 13.59 37.75 13.41 38.009998C13.23 38.27 12.96 38.400002 12.6 38.400002C10.04 38.279999 8.1000004 38.220001 6.7800002 38.220001C5.98 38.220001 4.5799999 38.259998 2.5799999 38.34L1.2 38.400002Z"/>
	<defs>
		<linearGradient id="gradient_2" gradientUnits="userSpaceOnUse" x1="20.76" y1="0" x2="20.76" y2="38.220001">
			<stop offset="0" stop-color="#F7F3EA"/>
			<stop offset="1" stop-color="#F5C889"/>
		</linearGradient>
	</defs>
	<path fill="url(#gradient_2)" transform="translate(88.38 1.02006)" d="M1.08 38.220001C0.72000003 38.220001 0.44999999 38.09 0.27000001 37.830002C0.090000004 37.57 0 37.259998 0 36.900002C0.039999999 36.299999 0.16 35.939999 0.36000001 35.82C0.56 35.700001 0.94 35.639999 1.5 35.639999C2.6600001 35.639999 3.52 35.43 4.0799999 35.009998C4.6399999 34.59 4.9899998 34.07 5.1300001 33.450001C5.27 32.830002 5.3600001 32.02 5.4000001 31.02L5.4000001 7.1999998C5.3600001 6.1999998 5.27 5.3899999 5.1300001 4.77C4.9899998 4.1500001 4.6399999 3.6300001 4.0799999 3.21C3.52 2.79 2.6600001 2.5799999 1.5 2.5799999L1.14 2.5799999C0.74000001 2.5799999 0.46000001 2.51 0.30000001 2.3699999C0.14 2.23 0.039999999 1.88 0 1.3200001C0 0.95999998 0.090000004 0.64999998 0.27000001 0.38999999C0.44999999 0.13 0.72000003 0 1.08 0C3.6800001 0.12 6.04 0.18000001 8.1599998 0.18000001C10.56 0.18000001 13.06 0.12 15.66 0C16.02 0 16.290001 0.13 16.469999 0.38999999C16.65 0.64999998 16.74 0.95999998 16.74 1.3200001C16.700001 1.92 16.58 2.28 16.379999 2.4000001C16.18 2.52 15.8 2.5799999 15.24 2.5799999C14.08 2.5799999 13.22 2.79 12.66 3.21C12.1 3.6300001 11.75 4.1500001 11.61 4.77C11.47 5.3899999 11.38 6.1999998 11.34 7.1999998L11.34 17.82L30.18 17.82L30.18 7.1999998C30.139999 6.1999998 30.049999 5.3899999 29.91 4.77C29.77 4.1500001 29.42 3.6300001 28.860001 3.21C28.299999 2.79 27.440001 2.5799999 26.280001 2.5799999L25.92 2.5799999C25.52 2.5799999 25.23 2.51 25.049999 2.3699999C24.870001 2.23 24.76 1.88 24.719999 1.3200001C24.719999 0.95999998 24.82 0.64999998 25.02 0.38999999C25.219999 0.13 25.48 0 25.799999 0C28.4 0.12 30.9 0.18000001 33.299999 0.18000001C35.5 0.18000001 37.880001 0.12 40.439999 0C40.799999 0 41.07 0.13 41.25 0.38999999C41.43 0.64999998 41.52 0.95999998 41.52 1.3200001C41.48 1.92 41.349998 2.28 41.130001 2.4000001C40.91 2.52 40.540001 2.5799999 40.02 2.5799999C38.860001 2.5799999 37.990002 2.79 37.41 3.21C36.830002 3.6300001 36.470001 4.1500001 36.330002 4.77C36.189999 5.3899999 36.099998 6.1999998 36.060001 7.1999998L36.060001 31.02C36.099998 32.02 36.189999 32.830002 36.330002 33.450001C36.470001 34.07 36.830002 34.59 37.41 35.009998C37.990002 35.43 38.860001 35.639999 40.02 35.639999L40.380001 35.639999C40.740002 35.639999 41.009998 35.709999 41.189999 35.849998C41.369999 35.990002 41.48 36.34 41.52 36.900002C41.52 37.259998 41.43 37.57 41.25 37.830002C41.07 38.09 40.799999 38.220001 40.439999 38.220001C37.880001 38.099998 35.48 38.040001 33.240002 38.040001C30.879999 38.040001 28.4 38.099998 25.799999 38.220001C25.48 38.220001 25.219999 38.09 25.02 37.830002C24.82 37.57 24.719999 37.259998 24.719999 36.900002C24.76 36.299999 24.889999 35.939999 25.110001 35.82C25.33 35.700001 25.719999 35.639999 26.280001 35.639999C27.440001 35.639999 28.299999 35.43 28.860001 35.009998C29.42 34.59 29.77 34.07 29.91 33.450001C30.049999 32.830002 30.139999 32.02 30.18 31.02L30.18 20.4L11.34 20.4L11.34 31.02C11.38 32.02 11.47 32.830002 11.61 33.450001C11.75 34.07 12.1 34.59 12.66 35.009998C13.22 35.43 14.08 35.639999 15.24 35.639999L15.6 35.639999C16 35.639999 16.280001 35.709999 16.440001 35.849998C16.6 35.990002 16.700001 36.34 16.74 36.900002C16.74 37.259998 16.65 37.57 16.469999 37.830002C16.290001 38.09 16.02 38.220001 15.66 38.220001C13.1 38.099998 10.62 38.040001 8.2200003 38.040001C6.0599999 38.040001 3.6800001 38.099998 1.08 38.220001Z"/>
	<defs>
		<linearGradient id="gradient_3" gradientUnits="userSpaceOnUse" x1="20.129999" y1="0" x2="20.129999" y2="38.400002">
			<stop offset="0" stop-color="#F7F3EA"/>
			<stop offset="1" stop-color="#F5C889"/>
		</linearGradient>
	</defs>
	<path fill="url(#gradient_3)" transform="translate(131.7 0.840061)" d="M1.08 38.400002C0.72000003 38.400002 0.44999999 38.27 0.27000001 38.009998C0.090000004 37.75 0 37.439999 0 37.080002C0.039999999 36.48 0.16 36.119999 0.36000001 36C0.56 35.880001 0.80000001 35.82 1.08 35.82C1.36 35.82 1.54 35.82 1.62 35.82C2.8199999 35.82 3.7 35.509998 4.2600002 34.889999C4.8200002 34.27 5.27 33.57 5.6100001 32.790001C5.9499998 32.009998 6.1799998 31.48 6.3000002 31.200001L16.799999 6.3600001C17.040001 5.7600002 17.16 5.2800002 17.16 4.9200001C17.16 4.1999998 16.879999 3.6800001 16.32 3.3599999C15.76 3.04 14.98 2.78 13.98 2.5799999C13.3 2.46 12.88 2.3399999 12.72 2.22C12.56 2.0999999 12.48 1.76 12.48 1.2C12.48 0.72000003 12.61 0.40000001 12.87 0.23999999C13.13 0.079999998 13.54 0 14.1 0C16.1 0 17.690001 0.15000001 18.870001 0.44999999C20.049999 0.75 21.08 1.35 21.959999 2.25C22.84 3.1500001 23.66 4.52 24.42 6.3600001L34.5 31.200001C35.099998 32.720001 35.68 33.860001 36.240002 34.619999C36.799999 35.380001 37.639999 35.779999 38.759998 35.82L39.119999 35.82C39.52 35.82 39.799999 35.889999 39.959999 36.029999C40.119999 36.169998 40.220001 36.52 40.259998 37.080002C40.259998 37.439999 40.169998 37.75 39.990002 38.009998C39.810001 38.27 39.540001 38.400002 39.18 38.400002C36.619999 38.279999 34.419998 38.220001 32.580002 38.220001C30.18 38.220001 27.700001 38.279999 25.139999 38.400002C24.780001 38.400002 24.51 38.27 24.33 38.009998C24.15 37.75 24.059999 37.439999 24.059999 37.080002C24.1 36.52 24.200001 36.169998 24.360001 36.029999C24.52 35.889999 24.799999 35.82 25.200001 35.82C26.559999 35.82 27.52 35.689999 28.08 35.43C28.639999 35.169998 28.92 34.700001 28.92 34.02C28.92 33.5 28.68 32.560001 28.200001 31.200001L26.16 26.219999L11.34 26.219999C10.34 28.700001 9.7700005 30.139999 9.6300001 30.540001C9.4899998 30.940001 9.4200001 31.16 9.4200001 31.200001C8.9399996 32.720001 8.6999998 33.700001 8.6999998 34.139999C8.6999998 34.82 9 35.27 9.6000004 35.490002C10.2 35.709999 11.34 35.82 13.02 35.82L13.38 35.82C13.78 35.82 14.06 35.889999 14.22 36.029999C14.38 36.169998 14.48 36.52 14.52 37.080002C14.52 37.439999 14.43 37.75 14.25 38.009998C14.07 38.27 13.8 38.400002 13.44 38.400002C10.88 38.279999 8.6999998 38.220001 6.9000001 38.220001C5.6199999 38.220001 3.6800001 38.279999 1.08 38.400002ZM12.48 23.639999L25.08 23.639999L19.02 8.2200003L18.84 8.2200003L12.48 23.639999Z"/>
	<defs>
		<linearGradient id="gradient_4" gradientUnits="userSpaceOnUse" x1="19.74" y1="0" x2="19.74" y2="38.759998">
			<stop offset="0" stop-color="#F7F3EA"/>
			<stop offset="1" stop-color="#F5C889"/>
		</linearGradient>
	</defs>
	<path fill="url(#gradient_4)" transform="translate(185.52 0.900061)" d="M17.700001 38.759998C16.5 35.48 14.6 30.26 12 23.1C9.3999996 15.94 7.5 10.76 6.3000002 7.5599999C5.6199999 5.8400002 4.96 4.6399999 4.3200002 3.96C3.6800001 3.28 2.74 2.8199999 1.5 2.5799999C1.34 2.54 1.1 2.49 0.77999997 2.4300001C0.46000001 2.3699999 0.25 2.25 0.15000001 2.0699999C0.050000001 1.89 0 1.6 0 1.2C0 0.72000003 0.13 0.40000001 0.38999999 0.23999999C0.64999998 0.079999998 1.0599999 0 1.62 0C4.6199999 0 6.9000001 0.46000001 8.46 1.38C10.02 2.3 11.26 3.9400001 12.18 6.3000002L20.879999 29.700001L21.059999 29.700001L29.34 5.6399999C29.58 4.96 29.700001 4.4400001 29.700001 4.0799999C29.700001 3.52 29.469999 3.1500001 29.01 2.97C28.549999 2.79 27.780001 2.7 26.700001 2.7L26.34 2.7C25.940001 2.7 25.66 2.6300001 25.5 2.49C25.34 2.3499999 25.24 2 25.200001 1.4400001C25.200001 1.08 25.290001 0.76999998 25.469999 0.50999999C25.65 0.25 25.9 0.12 26.219999 0.12C28.82 0.23999999 31 0.30000001 32.759998 0.30000001C33.52 0.30000001 34.98 0.25999999 37.139999 0.18000001L38.400002 0.12C38.759998 0.12 39.029999 0.25 39.209999 0.50999999C39.389999 0.76999998 39.48 1.08 39.48 1.4400001C39.439999 2 39.34 2.3499999 39.18 2.49C39.02 2.6300001 38.740002 2.7 38.34 2.7C36.619999 2.7 35.310001 2.98 34.41 3.54C33.509998 4.0999999 32.740002 5.1799998 32.099998 6.7800002C30.9 10.06 28.969999 15.37 26.309999 22.709999C23.65 30.049999 21.719999 35.400002 20.52 38.759998L17.700001 38.759998Z"/>
	<defs>
		<linearGradient id="gradient_5" gradientUnits="userSpaceOnUse" x1="8.3999996" y1="0" x2="8.3999996" y2="38.220001">
			<stop offset="0" stop-color="#F7F3EA"/>
			<stop offset="1" stop-color="#F5C889"/>
		</linearGradient>
	</defs>
	<path fill="url(#gradient_5)" transform="translate(226.38 1.02006)" d="M1.08 38.220001C0.72000003 38.220001 0.44999999 38.09 0.27000001 37.830002C0.090000004 37.57 0 37.259998 0 36.900002C0.039999999 36.299999 0.17 35.939999 0.38999999 35.82C0.61000001 35.700001 0.98000002 35.639999 1.5 35.639999C2.6600001 35.639999 3.52 35.43 4.0799999 35.009998C4.6399999 34.59 5 34.080002 5.1599998 33.48C5.3200002 32.880001 5.4200001 32.060001 5.46 31.02L5.46 7.1999998C5.4200001 6.1599998 5.3200002 5.3400002 5.1599998 4.7399998C5 4.1399999 4.6399999 3.6300001 4.0799999 3.21C3.52 2.79 2.6600001 2.5799999 1.5 2.5799999L1.14 2.5799999C0.77999997 2.5799999 0.50999999 2.51 0.33000001 2.3699999C0.15000001 2.23 0.039999999 1.88 0 1.3200001C0 0.95999998 0.090000004 0.64999998 0.27000001 0.38999999C0.44999999 0.13 0.72000003 0 1.08 0C3.6800001 0.12 6.0599999 0.18000001 8.2200003 0.18000001C10.62 0.18000001 13.12 0.12 15.72 0C16.08 0 16.35 0.13 16.530001 0.38999999C16.709999 0.64999998 16.799999 0.95999998 16.799999 1.3200001C16.76 1.92 16.629999 2.28 16.41 2.4000001C16.190001 2.52 15.8 2.5799999 15.24 2.5799999C14.08 2.5799999 13.22 2.79 12.66 3.21C12.1 3.6300001 11.75 4.1500001 11.61 4.77C11.47 5.3899999 11.38 6.1999998 11.34 7.1999998L11.34 31.02C11.38 32.02 11.47 32.830002 11.61 33.450001C11.75 34.07 12.1 34.59 12.66 35.009998C13.22 35.43 14.08 35.639999 15.24 35.639999L15.6 35.639999C16 35.639999 16.290001 35.709999 16.469999 35.849998C16.65 35.990002 16.76 36.34 16.799999 36.900002C16.799999 37.259998 16.709999 37.57 16.530001 37.830002C16.35 38.09 16.08 38.220001 15.72 38.220001C13.16 38.099998 10.68 38.040001 8.2799997 38.040001C6.0799999 38.040001 3.6800001 38.099998 1.08 38.220001Z"/>
	<defs>
		<linearGradient id="gradient_6" gradientUnits="userSpaceOnUse" x1="20.129999" y1="0" x2="20.129999" y2="38.400002">
			<stop offset="0" stop-color="#F7F3EA"/>
			<stop offset="1" stop-color="#F5C889"/>
		</linearGradient>
	</defs>
	<path fill="url(#gradient_6)" transform="translate(244.98 0.840061)" d="M1.08 38.400002C0.72000003 38.400002 0.44999999 38.27 0.27000001 38.009998C0.090000004 37.75 0 37.439999 0 37.080002C0.039999999 36.48 0.16 36.119999 0.36000001 36C0.56 35.880001 0.80000001 35.82 1.08 35.82C1.36 35.82 1.54 35.82 1.62 35.82C2.8199999 35.82 3.7 35.509998 4.2600002 34.889999C4.8200002 34.27 5.27 33.57 5.6100001 32.790001C5.9499998 32.009998 6.1799998 31.48 6.3000002 31.200001L16.799999 6.3600001C17.040001 5.7600002 17.16 5.2800002 17.16 4.9200001C17.16 4.1999998 16.879999 3.6800001 16.32 3.3599999C15.76 3.04 14.98 2.78 13.98 2.5799999C13.3 2.46 12.88 2.3399999 12.72 2.22C12.56 2.0999999 12.48 1.76 12.48 1.2C12.48 0.72000003 12.61 0.40000001 12.87 0.23999999C13.13 0.079999998 13.54 0 14.1 0C16.1 0 17.690001 0.15000001 18.870001 0.44999999C20.049999 0.75 21.08 1.35 21.959999 2.25C22.84 3.1500001 23.66 4.52 24.42 6.3600001L34.5 31.200001C35.099998 32.720001 35.68 33.860001 36.240002 34.619999C36.799999 35.380001 37.639999 35.779999 38.759998 35.82L39.119999 35.82C39.52 35.82 39.799999 35.889999 39.959999 36.029999C40.119999 36.169998 40.220001 36.52 40.259998 37.080002C40.259998 37.439999 40.169998 37.75 39.990002 38.009998C39.810001 38.27 39.540001 38.400002 39.18 38.400002C36.619999 38.279999 34.419998 38.220001 32.580002 38.220001C30.18 38.220001 27.700001 38.279999 25.139999 38.400002C24.780001 38.400002 24.51 38.27 24.33 38.009998C24.15 37.75 24.059999 37.439999 24.059999 37.080002C24.1 36.52 24.200001 36.169998 24.360001 36.029999C24.52 35.889999 24.799999 35.82 25.200001 35.82C26.559999 35.82 27.52 35.689999 28.08 35.43C28.639999 35.169998 28.92 34.700001 28.92 34.02C28.92 33.5 28.68 32.560001 28.200001 31.200001L26.16 26.219999L11.34 26.219999C10.34 28.700001 9.7700005 30.139999 9.6300001 30.540001C9.4899998 30.940001 9.4200001 31.16 9.4200001 31.200001C8.9399996 32.720001 8.6999998 33.700001 8.6999998 34.139999C8.6999998 34.82 9 35.27 9.6000004 35.490002C10.2 35.709999 11.34 35.82 13.02 35.82L13.38 35.82C13.78 35.82 14.06 35.889999 14.22 36.029999C14.38 36.169998 14.48 36.52 14.52 37.080002C14.52 37.439999 14.43 37.75 14.25 38.009998C14.07 38.27 13.8 38.400002 13.44 38.400002C10.88 38.279999 8.6999998 38.220001 6.9000001 38.220001C5.6199999 38.220001 3.6800001 38.279999 1.08 38.400002ZM12.48 23.639999L25.08 23.639999L19.02 8.2200003L18.84 8.2200003L12.48 23.639999Z"/>
	<defs>
		<linearGradient id="gradient_7" gradientUnits="userSpaceOnUse" x1="19.559999" y1="0" x2="19.559999" y2="38.34">
			<stop offset="0" stop-color="#F7F3EA"/>
			<stop offset="1" stop-color="#F5C889"/>
		</linearGradient>
	</defs>
	<path fill="url(#gradient_7)" transform="translate(285.3 0.900061)" d="M1.08 38.34C0.72000003 38.34 0.44999999 38.209999 0.27000001 37.950001C0.090000004 37.689999 0 37.380001 0 37.02C0.039999999 36.459999 0.14 36.110001 0.30000001 35.970001C0.46000001 35.830002 0.74000001 35.759998 1.14 35.759998C2.78 35.759998 4.0100002 35.5 4.8299999 34.98C5.6500001 34.459999 6.6399999 33.360001 7.8000002 31.68L16.5 19.32L8.8199997 7.2600002C7.8600001 5.7800002 6.9200001 4.6999998 6 4.02C5.0799999 3.3399999 3.96 2.8599999 2.6400001 2.5799999C2.48 2.54 2.24 2.49 1.92 2.4300001C1.6 2.3699999 1.39 2.25 1.29 2.0699999C1.1900001 1.89 1.14 1.6 1.14 1.2C1.14 0.63999999 1.29 0.30000001 1.59 0.18000001C1.89 0.059999999 2.26 0 2.7 0C3.1400001 0 3.4200001 0 3.54 0C6.3400002 0 8.5699997 0.46000001 10.23 1.38C11.89 2.3 13.52 3.9200001 15.12 6.2399998L20.040001 14.28L25.98 5.6399999C26.459999 4.8400002 26.700001 4.2600002 26.700001 3.9000001C26.700001 3.4200001 26.42 3.0999999 25.860001 2.9400001C25.299999 2.78 24.459999 2.7 23.34 2.7L22.98 2.7C22.58 2.7 22.299999 2.6300001 22.139999 2.49C21.98 2.3499999 21.879999 2 21.84 1.4400001C21.84 1.08 21.93 0.76999998 22.110001 0.50999999C22.290001 0.25 22.540001 0.12 22.860001 0.12C25.42 0.23999999 27.6 0.30000001 29.4 0.30000001C30.879999 0.30000001 32.900002 0.23999999 35.459999 0.12C35.82 0.12 36.09 0.25 36.27 0.50999999C36.450001 0.76999998 36.540001 1.08 36.540001 1.4400001C36.5 2 36.400002 2.3499999 36.240002 2.49C36.080002 2.6300001 35.799999 2.7 35.400002 2.7C33.759998 2.7 32.529999 2.96 31.709999 3.48C30.889999 4 29.9 5.0999999 28.74 6.7800002L21.719999 16.74L32.16 31.620001C33.040001 32.939999 33.880001 33.959999 34.68 34.68C35.48 35.400002 36.459999 35.759998 37.619999 35.759998L37.98 35.759998C38.380001 35.759998 38.66 35.830002 38.82 35.970001C38.98 36.110001 39.080002 36.459999 39.119999 37.02C39.119999 37.380001 39.029999 37.689999 38.849998 37.950001C38.669998 38.209999 38.419998 38.34 38.099998 38.34C35.540001 38.220001 33.139999 38.16 30.9 38.16C28.620001 38.16 26.18 38.220001 23.58 38.34C23.219999 38.34 22.950001 38.209999 22.77 37.950001C22.59 37.689999 22.5 37.380001 22.5 37.02C22.540001 36.419998 22.67 36.060001 22.889999 35.939999C23.110001 35.82 23.48 35.759998 24 35.759998C24.799999 35.759998 25.41 35.619999 25.83 35.34C26.25 35.060001 26.459999 34.68 26.459999 34.200001C26.459999 33.759998 26.280001 33.299999 25.92 32.82L18.24 21.84L10.56 32.82C10.08 33.459999 9.8400002 34.040001 9.8400002 34.560001C9.8400002 35.040001 10.12 35.360001 10.68 35.52C11.24 35.68 12.08 35.759998 13.2 35.759998L13.56 35.759998C13.96 35.759998 14.24 35.830002 14.4 35.970001C14.56 36.110001 14.66 36.459999 14.7 37.02C14.7 37.380001 14.61 37.689999 14.43 37.950001C14.25 38.209999 14 38.34 13.68 38.34C11.12 38.220001 8.9399996 38.16 7.1399999 38.16C5.6999998 38.16 3.6800001 38.220001 1.08 38.34Z"/>
	<defs>
		<linearGradient id="gradient_8" gradientUnits="userSpaceOnUse" x1="15.483529" y1="0" x2="15.483529" y2="38.220001">
			<stop offset="0" stop-color="#F7F3EA"/>
			<stop offset="1" stop-color="#F5C889"/>
		</linearGradient>
	</defs>
	<path fill="url(#gradient_8)" transform="translate(326.64 1.02006)" d="M1.02 38.220001C0.69999999 38.220001 0.44999999 38.09 0.27000001 37.830002C0.090000004 37.57 0 37.259998 0 36.900002C0.039999999 36.299999 0.16 35.939999 0.36000001 35.82C0.56 35.700001 0.94 35.639999 1.5 35.639999C2.6600001 35.639999 3.52 35.43 4.0799999 35.009998C4.6399999 34.59 4.9899998 34.07 5.1300001 33.450001C5.27 32.830002 5.3600001 32.02 5.4000001 31.02L5.4000001 7.1999998C5.3600001 6.1999998 5.27 5.3899999 5.1300001 4.77C4.9899998 4.1500001 4.6399999 3.6300001 4.0799999 3.21C3.52 2.79 2.6600001 2.5799999 1.5 2.5799999L1.14 2.5799999C0.74000001 2.5799999 0.46000001 2.51 0.30000001 2.3699999C0.14 2.23 0.039999999 1.88 0 1.3200001C0 0.95999998 0.090000004 0.64999998 0.27000001 0.38999999C0.44999999 0.13 0.69999999 0 1.02 0C3.6600001 0.12 6.04 0.18000001 8.1599998 0.18000001L27 0.18000001C28.040001 0.18000001 28.559999 0.66000003 28.559999 1.62L28.74 10.02C28.74 10.38 28.559999 10.67 28.200001 10.89C27.84 11.11 27.48 11.22 27.120001 11.22C26.639999 11.22 26.219999 11.13 25.860001 10.95C25.5 10.77 25.299999 10.5 25.26 10.14C24.940001 8.1800003 24.59 6.6900001 24.209999 5.6700001C23.83 4.6500001 23.27 3.8900001 22.530001 3.3900001C21.790001 2.8900001 20.74 2.6199999 19.379999 2.5799999L11.34 2.5799999L11.34 17.82L22.200001 17.82C22.48 17.860001 22.700001 18.01 22.860001 18.27C23.02 18.530001 23.1 18.84 23.1 19.200001C23.1 19.52 23.02 19.799999 22.860001 20.040001C22.700001 20.280001 22.48 20.4 22.200001 20.4L11.34 20.4L11.34 31.74C11.42 32.580002 11.52 33.25 11.64 33.75C11.76 34.25 12.12 34.700001 12.72 35.099998C13.32 35.5 14.26 35.68 15.54 35.639999L21.059999 35.639999C22.459999 35.599998 23.52 35.369999 24.24 34.950001C24.959999 34.529999 25.530001 33.880001 25.950001 33C26.370001 32.119999 26.879999 30.68 27.48 28.68C27.76 27.959999 28.440001 27.68 29.52 27.84C29.92 27.92 30.27 28.08 30.57 28.32C30.870001 28.559999 31 28.860001 30.959999 29.219999L29.76 36.779999C29.639999 37.299999 29.459999 37.639999 29.219999 37.799999C28.98 37.959999 28.58 38.040001 28.02 38.040001L8.2200003 38.040001C6.0599999 38.040001 3.6600001 38.099998 1.02 38.220001Z"/>
	<defs>
		<linearGradient id="gradient_9" gradientUnits="userSpaceOnUse" x1="8.3999996" y1="0" x2="8.3999996" y2="38.220001">
			<stop offset="0" stop-color="#F7F3EA"/>
			<stop offset="1" stop-color="#F5C889"/>
		</linearGradient>
	</defs>
	<path fill="url(#gradient_9)" transform="translate(375.6 1.02006)" d="M1.08 38.220001C0.72000003 38.220001 0.44999999 38.09 0.27000001 37.830002C0.090000004 37.57 0 37.259998 0 36.900002C0.039999999 36.299999 0.17 35.939999 0.38999999 35.82C0.61000001 35.700001 0.98000002 35.639999 1.5 35.639999C2.6600001 35.639999 3.52 35.43 4.0799999 35.009998C4.6399999 34.59 5 34.080002 5.1599998 33.48C5.3200002 32.880001 5.4200001 32.060001 5.46 31.02L5.46 7.1999998C5.4200001 6.1599998 5.3200002 5.3400002 5.1599998 4.7399998C5 4.1399999 4.6399999 3.6300001 4.0799999 3.21C3.52 2.79 2.6600001 2.5799999 1.5 2.5799999L1.14 2.5799999C0.77999997 2.5799999 0.50999999 2.51 0.33000001 2.3699999C0.15000001 2.23 0.039999999 1.88 0 1.3200001C0 0.95999998 0.090000004 0.64999998 0.27000001 0.38999999C0.44999999 0.13 0.72000003 0 1.08 0C3.6800001 0.12 6.0599999 0.18000001 8.2200003 0.18000001C10.62 0.18000001 13.12 0.12 15.72 0C16.08 0 16.35 0.13 16.530001 0.38999999C16.709999 0.64999998 16.799999 0.95999998 16.799999 1.3200001C16.76 1.92 16.629999 2.28 16.41 2.4000001C16.190001 2.52 15.8 2.5799999 15.24 2.5799999C14.08 2.5799999 13.22 2.79 12.66 3.21C12.1 3.6300001 11.75 4.1500001 11.61 4.77C11.47 5.3899999 11.38 6.1999998 11.34 7.1999998L11.34 31.02C11.38 32.02 11.47 32.830002 11.61 33.450001C11.75 34.07 12.1 34.59 12.66 35.009998C13.22 35.43 14.08 35.639999 15.24 35.639999L15.6 35.639999C16 35.639999 16.290001 35.709999 16.469999 35.849998C16.65 35.990002 16.76 36.34 16.799999 36.900002C16.799999 37.259998 16.709999 37.57 16.530001 37.830002C16.35 38.09 16.08 38.220001 15.72 38.220001C13.16 38.099998 10.68 38.040001 8.2799997 38.040001C6.0799999 38.040001 3.6800001 38.099998 1.08 38.220001Z"/>
	<defs>
		<linearGradient id="gradient_10" gradientUnits="userSpaceOnUse" x1="15.423333" y1="0" x2="15.423333" y2="38.220001">
			<stop offset="0" stop-color="#F7F3EA"/>
			<stop offset="1" stop-color="#F5C889"/>
		</linearGradient>
	</defs>
	<path fill="url(#gradient_10)" transform="translate(397.5 1.02006)" d="M1.02 38.220001C0.69999999 38.220001 0.44999999 38.09 0.27000001 37.830002C0.090000004 37.57 0 37.259998 0 36.900002C0.039999999 36.299999 0.16 35.939999 0.36000001 35.82C0.56 35.700001 0.94 35.639999 1.5 35.639999C2.6600001 35.639999 3.52 35.43 4.0799999 35.009998C4.6399999 34.59 4.9899998 34.07 5.1300001 33.450001C5.27 32.830002 5.3600001 32.02 5.4000001 31.02L5.4000001 7.1999998C5.3600001 6.1999998 5.27 5.3899999 5.1300001 4.77C4.9899998 4.1500001 4.6399999 3.6300001 4.0799999 3.21C3.52 2.79 2.6600001 2.5799999 1.5 2.5799999L1.14 2.5799999C0.74000001 2.5799999 0.46000001 2.51 0.30000001 2.3699999C0.14 2.23 0.039999999 1.88 0 1.3200001C0 0.95999998 0.090000004 0.64999998 0.27000001 0.38999999C0.44999999 0.13 0.69999999 0 1.02 0C3.6600001 0.12 6.04 0.18000001 8.1599998 0.18000001C10.56 0.18000001 13.06 0.12 15.66 0C16.02 0 16.290001 0.13 16.469999 0.38999999C16.65 0.64999998 16.74 0.95999998 16.74 1.3200001C16.700001 1.92 16.57 2.28 16.35 2.4000001C16.129999 2.52 15.76 2.5799999 15.24 2.5799999C14.08 2.5799999 13.22 2.79 12.66 3.21C12.1 3.6300001 11.75 4.1500001 11.61 4.77C11.47 5.3899999 11.38 6.1999998 11.34 7.1999998L11.34 31.92C11.42 32.759998 11.52 33.41 11.64 33.869999C11.76 34.330002 12.12 34.75 12.72 35.130001C13.32 35.509998 14.26 35.68 15.54 35.639999L20.940001 35.639999C22.34 35.599998 23.4 35.369999 24.120001 34.950001C24.84 34.529999 25.41 33.880001 25.83 33C26.25 32.119999 26.76 30.68 27.360001 28.68C27.639999 27.959999 28.32 27.68 29.4 27.84C29.76 27.92 30.1 28.08 30.42 28.32C30.74 28.559999 30.879999 28.860001 30.84 29.219999L29.639999 36.779999C29.52 37.299999 29.34 37.639999 29.1 37.799999C28.860001 37.959999 28.459999 38.040001 27.9 38.040001L8.2200003 38.040001C6.0599999 38.040001 3.6600001 38.099998 1.02 38.220001Z"/>
	<defs>
		<linearGradient id="gradient_11" gradientUnits="userSpaceOnUse" x1="20.25" y1="0" x2="20.25" y2="39.240002">
			<stop offset="0" stop-color="#F7F3EA"/>
			<stop offset="1" stop-color="#F5C889"/>
		</linearGradient>
	</defs>
	<path fill="url(#gradient_11)" transform="translate(430.8 1.02006)" d="M19.92 39.240002C16.84 39.240002 14.21 38.700001 12.03 37.619999C9.8500004 36.540001 8.1999998 35.119999 7.0799999 33.360001C5.96 31.6 5.4000001 29.700001 5.4000001 27.66L5.4000001 7.1999998C5.3600001 6.1999998 5.27 5.3899999 5.1300001 4.77C4.9899998 4.1500001 4.6399999 3.6300001 4.0799999 3.21C3.52 2.79 2.6600001 2.5799999 1.5 2.5799999L1.14 2.5799999C0.74000001 2.5799999 0.46000001 2.51 0.30000001 2.3699999C0.14 2.23 0.039999999 1.88 0 1.3200001C0 0.95999998 0.090000004 0.64999998 0.27000001 0.38999999C0.44999999 0.13 0.72000003 0 1.08 0C3.6400001 0.12 6 0.18000001 8.1599998 0.18000001C10.6 0.18000001 13.1 0.12 15.66 0C16.02 0 16.290001 0.13 16.469999 0.38999999C16.65 0.64999998 16.74 0.95999998 16.74 1.3200001C16.700001 1.88 16.59 2.23 16.41 2.3699999C16.23 2.51 15.94 2.5799999 15.54 2.5799999C14.26 2.5799999 13.32 2.78 12.72 3.1800001C12.12 3.5799999 11.75 4.0799999 11.61 4.6799998C11.47 5.2800002 11.38 6.1199999 11.34 7.1999998L11.34 25.92C11.34 28.68 11.99 31 13.29 32.880001C14.59 34.759998 17.120001 35.700001 20.879999 35.700001C24.559999 35.700001 27.17 34.849998 28.709999 33.150002C30.25 31.450001 31.02 29.32 31.02 26.76L31.02 10.98C31.02 8.2600002 30.92 6.3400002 30.719999 5.2199998C30.52 4.0999999 30.120001 3.3800001 29.52 3.0599999C28.92 2.74 27.879999 2.5799999 26.4 2.5799999L26.040001 2.5799999C25.68 2.5799999 25.41 2.51 25.23 2.3699999C25.049999 2.23 24.940001 1.88 24.9 1.3200001C24.9 0.95999998 24.99 0.64999998 25.17 0.38999999C25.35 0.13 25.620001 0 25.98 0C28.58 0.12 30.82 0.18000001 32.700001 0.18000001C34.619999 0.18000001 36.860001 0.12 39.419998 0C39.779999 0 40.049999 0.13 40.23 0.38999999C40.41 0.64999998 40.5 0.95999998 40.5 1.3200001C40.459999 1.88 40.349998 2.23 40.169998 2.3699999C39.990002 2.51 39.700001 2.5799999 39.299999 2.5799999C37.700001 2.5799999 36.59 2.72 35.970001 3C35.349998 3.28 34.93 3.95 34.709999 5.0100002C34.490002 6.0700002 34.380001 7.9400001 34.380001 10.62L34.380001 27.360001C34.380001 30.040001 33.639999 32.27 32.16 34.049999C30.68 35.830002 28.83 37.139999 26.610001 37.98C24.389999 38.82 22.16 39.240002 19.92 39.240002Z"/>
	<defs>
		<linearGradient id="gradient_12" gradientUnits="userSpaceOnUse" x1="13.5" y1="0" x2="13.5" y2="40.259998">
			<stop offset="0" stop-color="#F7F3EA"/>
			<stop offset="1" stop-color="#F5C889"/>
		</linearGradient>
	</defs>
	<path fill="url(#gradient_12)" transform="translate(475.32 6.10352e-05)" d="M12.96 40.259998C8.7600002 40.259998 5.5500002 39.529999 3.3299999 38.07C1.11 36.610001 0 34.459999 0 31.620001C0 30.18 0.49000001 28.99 1.47 28.049999C2.45 27.110001 3.72 26.639999 5.2800002 26.639999C6.1999998 26.68 6.9000001 26.91 7.3800001 27.33C7.8600001 27.75 8.1000004 28.139999 8.1000004 28.5C8.1000004 28.540001 7.9000001 28.68 7.5 28.92C7.0999999 29.16 6.7399998 29.52 6.4200001 30C6.0999999 30.48 5.9400001 31.139999 5.9400001 31.98C5.9400001 33.860001 6.5100002 35.310001 7.6500001 36.330002C8.79 37.349998 10.56 37.860001 12.96 37.860001C14.6 37.860001 16.040001 37.540001 17.280001 36.900002C18.52 36.259998 19.469999 35.41 20.129999 34.349998C20.790001 33.290001 21.120001 32.18 21.120001 31.02C21.120001 29.58 20.709999 28.34 19.889999 27.299999C19.07 26.26 18.059999 25.389999 16.860001 24.690001C15.66 23.99 14.02 23.18 11.94 22.26C9.54 21.18 7.5999999 20.200001 6.1199999 19.32C4.6399999 18.440001 3.3800001 17.27 2.3399999 15.81C1.3 14.35 0.77999997 12.54 0.77999997 10.38C0.77999997 6.9000001 1.97 4.3000002 4.3499999 2.5799999C6.73 0.86000001 9.8599997 0 13.74 0C16.780001 0 19.43 0.63999999 21.690001 1.92C23.950001 3.2 25.08 5.0799999 25.08 7.5599999C25.08 9 24.59 10.19 23.610001 11.13C22.629999 12.07 21.360001 12.54 19.799999 12.54C18.879999 12.5 18.18 12.27 17.700001 11.85C17.219999 11.43 16.98 11.04 16.98 10.68C16.98 10.64 17.25 10.5 17.790001 10.26C18.33 10.02 18.809999 9.6599998 19.23 9.1800003C19.65 8.6999998 19.860001 8.04 19.860001 7.1999998C19.860001 5.7199998 19.290001 4.5599999 18.15 3.72C17.01 2.8800001 15.56 2.46 13.8 2.46C11.36 2.46 9.5100002 3.03 8.25 4.1700001C6.9899998 5.3099999 6.3600001 6.7199998 6.3600001 8.3999996C6.3600001 9.8000002 6.7399998 10.97 7.5 11.91C8.2600002 12.85 9.4799995 13.78 11.16 14.7C12.52 15.42 14 16.139999 15.6 16.860001C18.16 18.02 20.190001 19.08 21.690001 20.040001C23.190001 21 24.450001 22.26 25.469999 23.82C26.49 25.379999 27 27.32 27 29.639999C27 31.639999 26.370001 33.450001 25.110001 35.07C23.85 36.689999 22.15 37.959999 20.01 38.880001C17.870001 39.799999 15.52 40.259998 12.96 40.259998Z"/>
	<defs>
		<linearGradient id="gradient_13" gradientUnits="userSpaceOnUse" x1="16.469999" y1="0" x2="16.469999" y2="38.040001">
			<stop offset="0" stop-color="#F7F3EA"/>
			<stop offset="1" stop-color="#F5C889"/>
		</linearGradient>
	</defs>
	<path fill="url(#gradient_13)" transform="translate(506.64 1.20006)" d="M9.1800003 38.040001C8.8199997 38.040001 8.5500002 37.91 8.3699999 37.650002C8.1899996 37.389999 8.1000004 37.080002 8.1000004 36.720001C8.1400003 36.119999 8.2600002 35.759998 8.46 35.639999C8.6599998 35.52 9.04 35.459999 9.6000004 35.459999C10.76 35.459999 11.62 35.25 12.18 34.830002C12.74 34.41 13.09 33.889999 13.23 33.27C13.37 32.650002 13.46 31.84 13.5 30.84L13.5 2.22L9.3599997 2.22C8 2.26 6.9499998 2.55 6.21 3.0899999C5.4699998 3.6300001 4.9099998 4.4299998 4.5300002 5.4899998C4.1500001 6.5500002 3.8199999 8.0600004 3.54 10.02C3.5 10.34 3.26 10.6 2.8199999 10.8C2.3800001 11 1.92 11.1 1.4400001 11.1C1.08 11.1 0.75 10.99 0.44999999 10.77C0.15000001 10.55 0 10.26 0 9.8999996L0.18000001 1.4400001C0.18000001 0.47999999 0.72000003 0 1.8 0L31.139999 0C32.18 0 32.700001 0.47999999 32.700001 1.4400001L32.939999 9.8999996C32.939999 10.26 32.779999 10.55 32.459999 10.77C32.139999 10.99 31.799999 11.1 31.440001 11.1C30.959999 11.1 30.51 11 30.09 10.8C29.67 10.6 29.440001 10.34 29.4 10.02C29.08 8.0200005 28.74 6.5 28.379999 5.46C28.02 4.4200001 27.459999 3.6300001 26.700001 3.0899999C25.940001 2.55 24.879999 2.26 23.52 2.22L19.440001 2.22L19.440001 30.84C19.48 31.84 19.57 32.650002 19.709999 33.27C19.85 33.889999 20.200001 34.41 20.76 34.830002C21.32 35.25 22.18 35.459999 23.34 35.459999L23.700001 35.459999C24.059999 35.459999 24.33 35.529999 24.51 35.669998C24.690001 35.810001 24.799999 36.16 24.84 36.720001C24.84 37.080002 24.75 37.389999 24.57 37.650002C24.389999 37.91 24.120001 38.040001 23.76 38.040001C21.200001 37.919998 18.84 37.860001 16.68 37.860001C14.28 37.860001 11.78 37.919998 9.1800003 38.040001Z"/>
	<defs>
		<linearGradient id="gradient_14" gradientUnits="userSpaceOnUse" x1="18.809999" y1="0" x2="18.809999" y2="38.220001">
			<stop offset="0" stop-color="#F7F3EA"/>
			<stop offset="1" stop-color="#F5C889"/>
		</linearGradient>
	</defs>
	<path fill="url(#gradient_14)" transform="translate(543.66 1.02006)" d="M1.08 38.220001C0.72000003 38.220001 0.44999999 38.09 0.27000001 37.830002C0.090000004 37.57 0 37.259998 0 36.900002C0.039999999 36.299999 0.16 35.939999 0.36000001 35.82C0.56 35.700001 0.94 35.639999 1.5 35.639999C2.6600001 35.639999 3.52 35.43 4.0799999 35.009998C4.6399999 34.59 4.9899998 34.07 5.1300001 33.450001C5.27 32.830002 5.3600001 32.02 5.4000001 31.02L5.4000001 7.2600002C5.3600001 6.2199998 5.27 5.4000001 5.1300001 4.8000002C4.9899998 4.1999998 4.6399999 3.6800001 4.0799999 3.24C3.52 2.8 2.6600001 2.5799999 1.5 2.5799999L1.14 2.5799999C0.74000001 2.5799999 0.46000001 2.51 0.30000001 2.3699999C0.14 2.23 0.039999999 1.88 0 1.3200001C0 0.95999998 0.090000004 0.64999998 0.27000001 0.38999999C0.44999999 0.13 0.72000003 0 1.08 0C3.6800001 0.12 6.0599999 0.18000001 8.2200003 0.18000001L18.540001 0.18000001C21.620001 0.22 24.190001 0.70999998 26.25 1.65C28.309999 2.5899999 29.82 3.79 30.780001 5.25C31.74 6.71 32.220001 8.2799997 32.220001 9.96C32.220001 12.16 31.35 14.18 29.610001 16.02C27.870001 17.860001 25.5 19.18 22.5 19.98L23.52 21.6C25.200001 24.32 26.719999 26.65 28.08 28.59C29.440001 30.530001 30.92 32.34 32.52 34.02C33.639999 34.939999 34.84 35.48 36.119999 35.639999C36.200001 35.639999 36.380001 35.650002 36.66 35.669998C36.939999 35.689999 37.169998 35.799999 37.349998 36C37.529999 36.200001 37.619999 36.5 37.619999 36.900002C37.619999 37.259998 37.529999 37.57 37.349998 37.830002C37.169998 38.09 36.900002 38.220001 36.540001 38.220001L34.98 38.16C33.220001 38.080002 31.940001 38.040001 31.139999 38.040001C29.540001 37.720001 28.17 37.150002 27.030001 36.330002C25.889999 35.509998 24.76 34.34 23.639999 32.82C22.48 31.299999 20.860001 28.82 18.780001 25.379999L17.700001 23.639999C17.1 22.719999 16.52 22.09 15.96 21.75C15.4 21.41 14.44 21.24 13.08 21.24L11.34 21.24L11.34 31.02C11.38 32.02 11.47 32.830002 11.61 33.450001C11.75 34.07 12.1 34.59 12.66 35.009998C13.22 35.43 14.08 35.639999 15.24 35.639999L15.6 35.639999C15.96 35.639999 16.23 35.709999 16.41 35.849998C16.59 35.990002 16.700001 36.34 16.74 36.900002C16.74 37.259998 16.65 37.57 16.469999 37.830002C16.290001 38.09 16.02 38.220001 15.66 38.220001C13.1 38.099998 10.6 38.040001 8.1599998 38.040001C6.04 38.040001 3.6800001 38.099998 1.08 38.220001ZM16.620001 18.9C22.58 18.9 25.559999 16.1 25.559999 10.5C25.559999 8.2200003 24.780001 6.3000002 23.219999 4.7399998C21.66 3.1800001 19.1 2.4000001 15.54 2.4000001C14.38 2.4000001 13.5 2.54 12.9 2.8199999C12.3 3.0999999 11.89 3.5799999 11.67 4.2600002C11.45 4.9400001 11.34 5.98 11.34 7.3800001L11.34 18.9L16.620001 18.9Z"/>
	<defs>
		<linearGradient id="gradient_15" gradientUnits="userSpaceOnUse" x1="20.129999" y1="0" x2="20.129999" y2="38.400002">
			<stop offset="0" stop-color="#F7F3EA"/>
			<stop offset="1" stop-color="#F5C889"/>
		</linearGradient>
	</defs>
	<path fill="url(#gradient_15)" transform="translate(580.62 0.840061)" d="M1.08 38.400002C0.72000003 38.400002 0.44999999 38.27 0.27000001 38.009998C0.090000004 37.75 0 37.439999 0 37.080002C0.039999999 36.48 0.16 36.119999 0.36000001 36C0.56 35.880001 0.80000001 35.82 1.08 35.82C1.36 35.82 1.54 35.82 1.62 35.82C2.8199999 35.82 3.7 35.509998 4.2600002 34.889999C4.8200002 34.27 5.27 33.57 5.6100001 32.790001C5.9499998 32.009998 6.1799998 31.48 6.3000002 31.200001L16.799999 6.3600001C17.040001 5.7600002 17.16 5.2800002 17.16 4.9200001C17.16 4.1999998 16.879999 3.6800001 16.32 3.3599999C15.76 3.04 14.98 2.78 13.98 2.5799999C13.3 2.46 12.88 2.3399999 12.72 2.22C12.56 2.0999999 12.48 1.76 12.48 1.2C12.48 0.72000003 12.61 0.40000001 12.87 0.23999999C13.13 0.079999998 13.54 0 14.1 0C16.1 0 17.690001 0.15000001 18.870001 0.44999999C20.049999 0.75 21.08 1.35 21.959999 2.25C22.84 3.1500001 23.66 4.52 24.42 6.3600001L34.5 31.200001C35.099998 32.720001 35.68 33.860001 36.240002 34.619999C36.799999 35.380001 37.639999 35.779999 38.759998 35.82L39.119999 35.82C39.52 35.82 39.799999 35.889999 39.959999 36.029999C40.119999 36.169998 40.220001 36.52 40.259998 37.080002C40.259998 37.439999 40.169998 37.75 39.990002 38.009998C39.810001 38.27 39.540001 38.400002 39.18 38.400002C36.619999 38.279999 34.419998 38.220001 32.580002 38.220001C30.18 38.220001 27.700001 38.279999 25.139999 38.400002C24.780001 38.400002 24.51 38.27 24.33 38.009998C24.15 37.75 24.059999 37.439999 24.059999 37.080002C24.1 36.52 24.200001 36.169998 24.360001 36.029999C24.52 35.889999 24.799999 35.82 25.200001 35.82C26.559999 35.82 27.52 35.689999 28.08 35.43C28.639999 35.169998 28.92 34.700001 28.92 34.02C28.92 33.5 28.68 32.560001 28.200001 31.200001L26.16 26.219999L11.34 26.219999C10.34 28.700001 9.7700005 30.139999 9.6300001 30.540001C9.4899998 30.940001 9.4200001 31.16 9.4200001 31.200001C8.9399996 32.720001 8.6999998 33.700001 8.6999998 34.139999C8.6999998 34.82 9 35.27 9.6000004 35.490002C10.2 35.709999 11.34 35.82 13.02 35.82L13.38 35.82C13.78 35.82 14.06 35.889999 14.22 36.029999C14.38 36.169998 14.48 36.52 14.52 37.080002C14.52 37.439999 14.43 37.75 14.25 38.009998C14.07 38.27 13.8 38.400002 13.44 38.400002C10.88 38.279999 8.6999998 38.220001 6.9000001 38.220001C5.6199999 38.220001 3.6800001 38.279999 1.08 38.400002ZM12.48 23.639999L25.08 23.639999L19.02 8.2200003L18.84 8.2200003L12.48 23.639999Z"/>
	<defs>
		<linearGradient id="gradient_16" gradientUnits="userSpaceOnUse" x1="19.08" y1="0" x2="19.08" y2="38.220001">
			<stop offset="0" stop-color="#F7F3EA"/>
			<stop offset="1" stop-color="#F5C889"/>
		</linearGradient>
	</defs>
	<path fill="url(#gradient_16)" transform="translate(623.1 1.02006)" d="M1.02 38.220001C0.69999999 38.220001 0.44999999 38.09 0.27000001 37.830002C0.090000004 37.57 0 37.259998 0 36.900002C0.039999999 36.299999 0.16 35.939999 0.36000001 35.82C0.56 35.700001 0.94 35.639999 1.5 35.639999C2.6600001 35.639999 3.52 35.43 4.0799999 35.009998C4.6399999 34.59 4.9899998 34.07 5.1300001 33.450001C5.27 32.830002 5.3600001 32.02 5.4000001 31.02L5.4000001 7.1999998C5.3600001 6.1999998 5.27 5.3899999 5.1300001 4.77C4.9899998 4.1500001 4.6399999 3.6300001 4.0799999 3.21C3.52 2.79 2.6600001 2.5799999 1.5 2.5799999L1.14 2.5799999C0.74000001 2.5799999 0.46000001 2.51 0.30000001 2.3699999C0.14 2.23 0.039999999 1.88 0 1.3200001C0 0.95999998 0.090000004 0.64999998 0.27000001 0.38999999C0.44999999 0.13 0.69999999 0 1.02 0C3.6600001 0.12 6.04 0.18000001 8.1599998 0.18000001L17.52 0.18000001C21.360001 0.18000001 24.85 0.94999999 27.99 2.49C31.129999 4.0300002 33.610001 6.2399998 35.43 9.1199999C37.25 12 38.16 15.4 38.16 19.32C38.16 23.4 37.130001 26.85 35.07 29.67C33.009998 32.490002 30.33 34.59 27.030001 35.970001C23.73 37.349998 20.200001 38.040001 16.440001 38.040001L8.1599998 38.040001C6.04 38.040001 3.6600001 38.099998 1.02 38.220001ZM17.34 35.82C22.02 35.82 25.450001 34.369999 27.629999 31.469999C29.809999 28.57 30.9 24.52 30.9 19.32C30.9 16.040001 30.309999 13.11 29.129999 10.53C27.950001 7.9499998 26.24 5.9400001 24 4.5C21.76 3.0599999 19.1 2.3399999 16.02 2.3399999L11.34 2.4000001L11.34 31.74C11.34 33.299999 11.81 34.369999 12.75 34.950001C13.69 35.529999 15.22 35.82 17.34 35.82Z"/>
	<defs>
		<linearGradient id="gradient_17" gradientUnits="userSpaceOnUse" x1="20.129999" y1="0" x2="20.129999" y2="38.400002">
			<stop offset="0" stop-color="#F7F3EA"/>
			<stop offset="1" stop-color="#F5C889"/>
		</linearGradient>
	</defs>
	<path fill="url(#gradient_17)" transform="translate(663.48 0.840061)" d="M1.08 38.400002C0.72000003 38.400002 0.44999999 38.27 0.27000001 38.009998C0.090000004 37.75 0 37.439999 0 37.080002C0.039999999 36.48 0.16 36.119999 0.36000001 36C0.56 35.880001 0.80000001 35.82 1.08 35.82C1.36 35.82 1.54 35.82 1.62 35.82C2.8199999 35.82 3.7 35.509998 4.2600002 34.889999C4.8200002 34.27 5.27 33.57 5.6100001 32.790001C5.9499998 32.009998 6.1799998 31.48 6.3000002 31.200001L16.799999 6.3600001C17.040001 5.7600002 17.16 5.2800002 17.16 4.9200001C17.16 4.1999998 16.879999 3.6800001 16.32 3.3599999C15.76 3.04 14.98 2.78 13.98 2.5799999C13.3 2.46 12.88 2.3399999 12.72 2.22C12.56 2.0999999 12.48 1.76 12.48 1.2C12.48 0.72000003 12.61 0.40000001 12.87 0.23999999C13.13 0.079999998 13.54 0 14.1 0C16.1 0 17.690001 0.15000001 18.870001 0.44999999C20.049999 0.75 21.08 1.35 21.959999 2.25C22.84 3.1500001 23.66 4.52 24.42 6.3600001L34.5 31.200001C35.099998 32.720001 35.68 33.860001 36.240002 34.619999C36.799999 35.380001 37.639999 35.779999 38.759998 35.82L39.119999 35.82C39.52 35.82 39.799999 35.889999 39.959999 36.029999C40.119999 36.169998 40.220001 36.52 40.259998 37.080002C40.259998 37.439999 40.169998 37.75 39.990002 38.009998C39.810001 38.27 39.540001 38.400002 39.18 38.400002C36.619999 38.279999 34.419998 38.220001 32.580002 38.220001C30.18 38.220001 27.700001 38.279999 25.139999 38.400002C24.780001 38.400002 24.51 38.27 24.33 38.009998C24.15 37.75 24.059999 37.439999 24.059999 37.080002C24.1 36.52 24.200001 36.169998 24.360001 36.029999C24.52 35.889999 24.799999 35.82 25.200001 35.82C26.559999 35.82 27.52 35.689999 28.08 35.43C28.639999 35.169998 28.92 34.700001 28.92 34.02C28.92 33.5 28.68 32.560001 28.200001 31.200001L26.16 26.219999L11.34 26.219999C10.34 28.700001 9.7700005 30.139999 9.6300001 30.540001C9.4899998 30.940001 9.4200001 31.16 9.4200001 31.200001C8.9399996 32.720001 8.6999998 33.700001 8.6999998 34.139999C8.6999998 34.82 9 35.27 9.6000004 35.490002C10.2 35.709999 11.34 35.82 13.02 35.82L13.38 35.82C13.78 35.82 14.06 35.889999 14.22 36.029999C14.38 36.169998 14.48 36.52 14.52 37.080002C14.52 37.439999 14.43 37.75 14.25 38.009998C14.07 38.27 13.8 38.400002 13.44 38.400002C10.88 38.279999 8.6999998 38.220001 6.9000001 38.220001C5.6199999 38.220001 3.6800001 38.279999 1.08 38.400002ZM12.48 23.639999L25.08 23.639999L19.02 8.2200003L18.84 8.2200003L12.48 23.639999Z"/>
	<defs>
		<linearGradient id="gradient_18" gradientUnits="userSpaceOnUse" x1="19.83" y1="0" x2="19.83" y2="38.400002">
			<stop offset="0" stop-color="#F7F3EA"/>
			<stop offset="1" stop-color="#F5C889"/>
		</linearGradient>
	</defs>
	<path fill="url(#gradient_18)" transform="translate(0.9 69.8401)" d="M1.2 38.400002C0.83999997 38.400002 0.56999999 38.27 0.38999999 38.009998C0.20999999 37.75 0.12 37.439999 0.12 37.080002C0.16 36.48 0.28 36.119999 0.47999999 36C0.68000001 35.880001 1.0599999 35.82 1.62 35.82C2.78 35.82 3.6300001 35.610001 4.1700001 35.189999C4.71 34.77 5.04 34.27 5.1599998 33.689999C5.2800002 33.110001 5.3600001 32.279999 5.4000001 31.200001L5.52 7.3800001C5.52 6.1799998 5.3899999 5.27 5.1300001 4.6500001C4.8699999 4.0300002 4.46 3.5799999 3.9000001 3.3C3.3399999 3.02 2.54 2.78 1.5 2.5799999C0.81999999 2.46 0.40000001 2.3399999 0.23999999 2.22C0.079999998 2.0999999 0 1.76 0 1.2C0 0.72000003 0.13 0.40000001 0.38999999 0.23999999C0.64999998 0.079999998 1.0599999 0 1.62 0C4.0999999 0 6.0599999 0.17 7.5 0.50999999C8.9399996 0.85000002 10.21 1.46 11.31 2.3399999C12.41 3.22 13.62 4.5599999 14.94 6.3600001L31.379999 27.959999L31.559999 27.959999L31.440001 7.3800001C31.4 6.3000002 31.32 5.4699998 31.200001 4.8899999C31.08 4.3099999 30.75 3.8099999 30.209999 3.3900001C29.67 2.97 28.82 2.76 27.66 2.76L27.299999 2.76C26.9 2.76 26.610001 2.6900001 26.43 2.55C26.25 2.4100001 26.139999 2.0599999 26.1 1.5C26.1 1.14 26.200001 0.82999998 26.4 0.56999999C26.6 0.31 26.860001 0.18000001 27.18 0.18000001C29.74 0.30000001 31.66 0.36000001 32.939999 0.36000001C33.700001 0.36000001 35.16 0.31999999 37.32 0.23999999L38.580002 0.18000001C38.939999 0.18000001 39.209999 0.31 39.389999 0.56999999C39.57 0.82999998 39.66 1.14 39.66 1.5C39.619999 2.0999999 39.5 2.46 39.299999 2.5799999C39.099998 2.7 38.720001 2.76 38.16 2.76C37 2.76 36.150002 2.97 35.610001 3.3900001C35.07 3.8099999 34.740002 4.3099999 34.619999 4.8899999C34.5 5.4699998 34.419998 6.3000002 34.380001 7.3800001L34.259998 37.619999C34.220001 38.139999 33.720001 38.400002 32.759998 38.400002C32 38.400002 31.42 38.139999 31.02 37.619999L8.3999996 7.3800001L8.2200003 7.3800001L8.3400002 31.200001C8.3800001 32.279999 8.46 33.110001 8.5799999 33.689999C8.6999998 34.27 9.0299997 34.77 9.5699997 35.189999C10.11 35.610001 10.96 35.82 12.12 35.82L12.48 35.82C12.88 35.82 13.17 35.889999 13.35 36.029999C13.53 36.169998 13.64 36.52 13.68 37.080002C13.68 37.439999 13.59 37.75 13.41 38.009998C13.23 38.27 12.96 38.400002 12.6 38.400002C10.04 38.279999 8.1000004 38.220001 6.7800002 38.220001C5.98 38.220001 4.5799999 38.259998 2.5799999 38.34L1.2 38.400002Z"/>
	<defs>
		<linearGradient id="gradient_19" gradientUnits="userSpaceOnUse" x1="19.23" y1="0" x2="19.23" y2="40.259998">
			<stop offset="0" stop-color="#F7F3EA"/>
			<stop offset="1" stop-color="#F5C889"/>
		</linearGradient>
	</defs>
	<path fill="url(#gradient_19)" transform="translate(45.42 69.0001)" d="M19.139999 40.259998C15.34 40.259998 11.99 39.349998 9.0900002 37.529999C6.1900001 35.709999 3.95 33.299999 2.3699999 30.299999C0.79000002 27.299999 0 24.08 0 20.639999C0 16.440001 0.94999999 12.78 2.8499999 9.6599998C4.75 6.54 7.1799998 4.1500001 10.14 2.49C13.1 0.82999998 16.1 0 19.139999 0C22.98 0 26.370001 0.91000003 29.309999 2.73C32.25 4.5500002 34.509998 6.9499998 36.09 9.9300003C37.669998 12.91 38.459999 16.120001 38.459999 19.559999C38.459999 23.76 37.5 27.43 35.580002 30.57C33.66 33.709999 31.200001 36.110001 28.200001 37.77C25.200001 39.43 22.18 40.259998 19.139999 40.259998ZM19.08 37.619999C21.799999 37.619999 24.07 36.810001 25.889999 35.189999C27.709999 33.57 29.07 31.389999 29.969999 28.65C30.870001 25.91 31.32 22.879999 31.32 19.559999C31.32 16.48 30.860001 13.65 29.940001 11.07C29.02 8.4899998 27.639999 6.4299998 25.799999 4.8899999C23.959999 3.3499999 21.719999 2.5799999 19.08 2.5799999C15.08 2.5799999 12.07 4.27 10.05 7.6500001C8.0299997 11.03 7.02 15.3 7.02 20.459999C7.02 23.58 7.4699998 26.440001 8.3699999 29.040001C9.2700005 31.639999 10.62 33.720001 12.42 35.279999C14.22 36.84 16.440001 37.619999 19.08 37.619999Z"/>
	<defs>
		<linearGradient id="gradient_20" gradientUnits="userSpaceOnUse" x1="16.469999" y1="0" x2="16.469999" y2="38.040001">
			<stop offset="0" stop-color="#F7F3EA"/>
			<stop offset="1" stop-color="#F5C889"/>
		</linearGradient>
	</defs>
	<path fill="url(#gradient_20)" transform="translate(101.64 70.2001)" d="M9.1800003 38.040001C8.8199997 38.040001 8.5500002 37.91 8.3699999 37.650002C8.1899996 37.389999 8.1000004 37.080002 8.1000004 36.720001C8.1400003 36.119999 8.2600002 35.759998 8.46 35.639999C8.6599998 35.52 9.04 35.459999 9.6000004 35.459999C10.76 35.459999 11.62 35.25 12.18 34.830002C12.74 34.41 13.09 33.889999 13.23 33.27C13.37 32.650002 13.46 31.84 13.5 30.84L13.5 2.22L9.3599997 2.22C8 2.26 6.9499998 2.55 6.21 3.0899999C5.4699998 3.6300001 4.9099998 4.4299998 4.5300002 5.4899998C4.1500001 6.5500002 3.8199999 8.0600004 3.54 10.02C3.5 10.34 3.26 10.6 2.8199999 10.8C2.3800001 11 1.92 11.1 1.4400001 11.1C1.08 11.1 0.75 10.99 0.44999999 10.77C0.15000001 10.55 0 10.26 0 9.8999996L0.18000001 1.4400001C0.18000001 0.47999999 0.72000003 0 1.8 0L31.139999 0C32.18 0 32.700001 0.47999999 32.700001 1.4400001L32.939999 9.8999996C32.939999 10.26 32.779999 10.55 32.459999 10.77C32.139999 10.99 31.799999 11.1 31.440001 11.1C30.959999 11.1 30.51 11 30.09 10.8C29.67 10.6 29.440001 10.34 29.4 10.02C29.08 8.0200005 28.74 6.5 28.379999 5.46C28.02 4.4200001 27.459999 3.6300001 26.700001 3.0899999C25.940001 2.55 24.879999 2.26 23.52 2.22L19.440001 2.22L19.440001 30.84C19.48 31.84 19.57 32.650002 19.709999 33.27C19.85 33.889999 20.200001 34.41 20.76 34.830002C21.32 35.25 22.18 35.459999 23.34 35.459999L23.700001 35.459999C24.059999 35.459999 24.33 35.529999 24.51 35.669998C24.690001 35.810001 24.799999 36.16 24.84 36.720001C24.84 37.080002 24.75 37.389999 24.57 37.650002C24.389999 37.91 24.120001 38.040001 23.76 38.040001C21.200001 37.919998 18.84 37.860001 16.68 37.860001C14.28 37.860001 11.78 37.919998 9.1800003 38.040001Z"/>
	<defs>
		<linearGradient id="gradient_21" gradientUnits="userSpaceOnUse" x1="15.483529" y1="0" x2="15.483529" y2="38.220001">
			<stop offset="0" stop-color="#F7F3EA"/>
			<stop offset="1" stop-color="#F5C889"/>
		</linearGradient>
	</defs>
	<path fill="url(#gradient_21)" transform="translate(138.66 70.0201)" d="M1.02 38.220001C0.69999999 38.220001 0.44999999 38.09 0.27000001 37.830002C0.090000004 37.57 0 37.259998 0 36.900002C0.039999999 36.299999 0.16 35.939999 0.36000001 35.82C0.56 35.700001 0.94 35.639999 1.5 35.639999C2.6600001 35.639999 3.52 35.43 4.0799999 35.009998C4.6399999 34.59 4.9899998 34.07 5.1300001 33.450001C5.27 32.830002 5.3600001 32.02 5.4000001 31.02L5.4000001 7.1999998C5.3600001 6.1999998 5.27 5.3899999 5.1300001 4.77C4.9899998 4.1500001 4.6399999 3.6300001 4.0799999 3.21C3.52 2.79 2.6600001 2.5799999 1.5 2.5799999L1.14 2.5799999C0.74000001 2.5799999 0.46000001 2.51 0.30000001 2.3699999C0.14 2.23 0.039999999 1.88 0 1.3200001C0 0.95999998 0.090000004 0.64999998 0.27000001 0.38999999C0.44999999 0.13 0.69999999 0 1.02 0C3.6600001 0.12 6.04 0.18000001 8.1599998 0.18000001L27 0.18000001C28.040001 0.18000001 28.559999 0.66000003 28.559999 1.62L28.74 10.02C28.74 10.38 28.559999 10.67 28.200001 10.89C27.84 11.11 27.48 11.22 27.120001 11.22C26.639999 11.22 26.219999 11.13 25.860001 10.95C25.5 10.77 25.299999 10.5 25.26 10.14C24.940001 8.1800003 24.59 6.6900001 24.209999 5.6700001C23.83 4.6500001 23.27 3.8900001 22.530001 3.3900001C21.790001 2.8900001 20.74 2.6199999 19.379999 2.5799999L11.34 2.5799999L11.34 17.82L22.200001 17.82C22.48 17.860001 22.700001 18.01 22.860001 18.27C23.02 18.530001 23.1 18.84 23.1 19.200001C23.1 19.52 23.02 19.799999 22.860001 20.040001C22.700001 20.280001 22.48 20.4 22.200001 20.4L11.34 20.4L11.34 31.74C11.42 32.580002 11.52 33.25 11.64 33.75C11.76 34.25 12.12 34.700001 12.72 35.099998C13.32 35.5 14.26 35.68 15.54 35.639999L21.059999 35.639999C22.459999 35.599998 23.52 35.369999 24.24 34.950001C24.959999 34.529999 25.530001 33.880001 25.950001 33C26.370001 32.119999 26.879999 30.68 27.48 28.68C27.76 27.959999 28.440001 27.68 29.52 27.84C29.92 27.92 30.27 28.08 30.57 28.32C30.870001 28.559999 31 28.860001 30.959999 29.219999L29.76 36.779999C29.639999 37.299999 29.459999 37.639999 29.219999 37.799999C28.98 37.959999 28.58 38.040001 28.02 38.040001L8.2200003 38.040001C6.0599999 38.040001 3.6600001 38.099998 1.02 38.220001Z"/>
	<defs>
		<linearGradient id="gradient_22" gradientUnits="userSpaceOnUse" x1="24.120001" y1="0" x2="24.120001" y2="38.52">
			<stop offset="0" stop-color="#F7F3EA"/>
			<stop offset="1" stop-color="#F5C889"/>
		</linearGradient>
	</defs>
	<path fill="url(#gradient_22)" transform="translate(174.24 69.8401)" d="M23.16 38.52C22.559999 38.52 22.139999 38.32 21.9 37.919998L8.3999996 7.3800001L8.2200003 7.3800001L8.3400002 31.200001C8.3800001 32.279999 8.46 33.110001 8.5799999 33.689999C8.6999998 34.27 9.0299997 34.77 9.5699997 35.189999C10.11 35.610001 10.96 35.82 12.12 35.82L12.48 35.82C12.88 35.82 13.17 35.889999 13.35 36.029999C13.53 36.169998 13.64 36.52 13.68 37.080002C13.68 37.439999 13.59 37.75 13.41 38.009998C13.23 38.27 12.96 38.400002 12.6 38.400002L11.1 38.34C9.2600002 38.259998 7.9400001 38.220001 7.1399999 38.220001C5.7800002 38.220001 3.8 38.279999 1.2 38.400002C0.83999997 38.400002 0.56999999 38.27 0.38999999 38.009998C0.20999999 37.75 0.12 37.439999 0.12 37.080002C0.16 36.48 0.28 36.119999 0.47999999 36C0.68000001 35.880001 1.0599999 35.82 1.62 35.82C2.78 35.82 3.6300001 35.610001 4.1700001 35.189999C4.71 34.77 5.04 34.27 5.1599998 33.689999C5.2800002 33.110001 5.3600001 32.279999 5.4000001 31.200001L5.52 7.3800001C5.52 6.1399999 5.3800001 5.21 5.0999999 4.5900002C4.8200002 3.97 4.4099998 3.53 3.8699999 3.27C3.3299999 3.01 2.54 2.78 1.5 2.5799999C1.34 2.54 1.1 2.49 0.77999997 2.4300001C0.46000001 2.3699999 0.25 2.25 0.15000001 2.0699999C0.050000001 1.89 0 1.6 0 1.2C0 0.72000003 0.13 0.40000001 0.38999999 0.23999999C0.64999998 0.079999998 1.0599999 0 1.62 0C3.98 0 5.9200001 0.15000001 7.4400001 0.44999999C8.96 0.75 10.29 1.36 11.43 2.28C12.57 3.2 13.52 4.5599999 14.28 6.3600001L24.6 29.52L24.780001 29.52L36.599998 0.36000001L40.02 0.36000001C42.220001 0.36000001 44.599998 0.30000001 47.16 0.18000001C47.52 0.18000001 47.790001 0.31 47.970001 0.56999999C48.150002 0.82999998 48.240002 1.14 48.240002 1.5C48.200001 2.0999999 48.07 2.46 47.849998 2.5799999C47.630001 2.7 47.259998 2.76 46.740002 2.76C45.580002 2.76 44.720001 2.97 44.16 3.3900001C43.599998 3.8099999 43.25 4.3299999 43.110001 4.9499998C42.970001 5.5700002 42.880001 6.3800001 42.84 7.3800001L42.84 31.200001C42.880001 32.200001 42.970001 33.009998 43.110001 33.630001C43.25 34.25 43.599998 34.77 44.16 35.189999C44.720001 35.610001 45.580002 35.82 46.740002 35.82L47.099998 35.82C47.459999 35.82 47.73 35.889999 47.91 36.029999C48.09 36.169998 48.200001 36.52 48.240002 37.080002C48.240002 37.439999 48.150002 37.75 47.970001 38.009998C47.790001 38.27 47.52 38.400002 47.16 38.400002C44.599998 38.279999 42.200001 38.220001 39.959999 38.220001C37.639999 38.220001 35.18 38.279999 32.580002 38.400002C32.220001 38.400002 31.950001 38.27 31.77 38.009998C31.59 37.75 31.5 37.439999 31.5 37.080002C31.540001 36.48 31.66 36.119999 31.860001 36C32.060001 35.880001 32.439999 35.82 33 35.82C34.16 35.82 35.02 35.610001 35.580002 35.189999C36.139999 34.77 36.490002 34.25 36.630001 33.630001C36.77 33.009998 36.860001 32.200001 36.900002 31.200001L36.900002 7.3800001L36.720001 7.3800001L24.360001 37.919998C24.200001 38.32 23.799999 38.52 23.16 38.52Z"/>
	<defs>
		<linearGradient id="gradient_23" gradientUnits="userSpaceOnUse" x1="16.139999" y1="0" x2="16.139999" y2="38.220001">
			<stop offset="0" stop-color="#F7F3EA"/>
			<stop offset="1" stop-color="#F5C889"/>
		</linearGradient>
	</defs>
	<path fill="url(#gradient_23)" transform="translate(227.58 70.0201)" d="M1.08 38.220001C0.75999999 38.220001 0.5 38.09 0.30000001 37.830002C0.1 37.57 0 37.259998 0 36.900002C0.039999999 36.299999 0.17 35.939999 0.38999999 35.82C0.61000001 35.700001 1 35.639999 1.5599999 35.639999C2.72 35.639999 3.5799999 35.43 4.1399999 35.009998C4.6999998 34.59 5.0500002 34.07 5.1900001 33.450001C5.3299999 32.830002 5.4200001 32.02 5.46 31.02L5.46 7.1999998C5.4200001 6.1999998 5.3299999 5.3899999 5.1900001 4.77C5.0500002 4.1500001 4.6999998 3.6300001 4.1399999 3.21C3.5799999 2.79 2.72 2.5799999 1.5599999 2.5799999L1.2 2.5799999C0.80000001 2.5799999 0.50999999 2.51 0.33000001 2.3699999C0.15000001 2.23 0.039999999 1.88 0 1.3200001C0 0.95999998 0.1 0.64999998 0.30000001 0.38999999C0.5 0.13 0.75999999 0 1.08 0C3.6800001 0.12 6.0799999 0.18000001 8.2799997 0.18000001L17.280001 0.18000001C20.76 0.18000001 24.129999 0.89999998 27.389999 2.3399999C30.65 3.78 32.279999 6.6599998 32.279999 10.98C32.279999 13.38 31.559999 15.52 30.120001 17.4C28.68 19.280001 26.809999 20.74 24.51 21.780001C22.209999 22.82 19.82 23.34 17.34 23.34C15.06 23.34 13.06 23.02 11.34 22.379999L11.34 31.02C11.38 32.02 11.47 32.830002 11.61 33.450001C11.75 34.07 12.1 34.59 12.66 35.009998C13.22 35.43 14.08 35.639999 15.24 35.639999L15.6 35.639999C16 35.639999 16.290001 35.709999 16.469999 35.849998C16.65 35.990002 16.76 36.34 16.799999 36.900002C16.799999 37.259998 16.709999 37.57 16.530001 37.830002C16.35 38.09 16.08 38.220001 15.72 38.220001C13.16 38.099998 10.66 38.040001 8.2200003 38.040001C6.0599999 38.040001 3.6800001 38.099998 1.08 38.220001ZM15.6 20.639999C17.040001 20.639999 18.530001 20.35 20.07 19.77C21.610001 19.190001 22.92 18.190001 24 16.77C25.08 15.35 25.620001 13.48 25.620001 11.16C25.620001 7.6399999 24.5 5.3000002 22.26 4.1399999C20.02 2.98 17.639999 2.4000001 15.12 2.4000001C14.08 2.4000001 13.3 2.51 12.78 2.73C12.26 2.95 11.89 3.3800001 11.67 4.02C11.45 4.6599998 11.34 5.6599998 11.34 7.02L11.34 19.98C12.3 20.42 13.72 20.639999 15.6 20.639999Z"/>
	<defs>
		<linearGradient id="gradient_24" gradientUnits="userSpaceOnUse" x1="19.23" y1="0" x2="19.23" y2="40.259998">
			<stop offset="0" stop-color="#F7F3EA"/>
			<stop offset="1" stop-color="#F5C889"/>
		</linearGradient>
	</defs>
	<path fill="url(#gradient_24)" transform="translate(264.12 69.0001)" d="M19.139999 40.259998C15.34 40.259998 11.99 39.349998 9.0900002 37.529999C6.1900001 35.709999 3.95 33.299999 2.3699999 30.299999C0.79000002 27.299999 0 24.08 0 20.639999C0 16.440001 0.94999999 12.78 2.8499999 9.6599998C4.75 6.54 7.1799998 4.1500001 10.14 2.49C13.1 0.82999998 16.1 0 19.139999 0C22.98 0 26.370001 0.91000003 29.309999 2.73C32.25 4.5500002 34.509998 6.9499998 36.09 9.9300003C37.669998 12.91 38.459999 16.120001 38.459999 19.559999C38.459999 23.76 37.5 27.43 35.580002 30.57C33.66 33.709999 31.200001 36.110001 28.200001 37.77C25.200001 39.43 22.18 40.259998 19.139999 40.259998ZM19.08 37.619999C21.799999 37.619999 24.07 36.810001 25.889999 35.189999C27.709999 33.57 29.07 31.389999 29.969999 28.65C30.870001 25.91 31.32 22.879999 31.32 19.559999C31.32 16.48 30.860001 13.65 29.940001 11.07C29.02 8.4899998 27.639999 6.4299998 25.799999 4.8899999C23.959999 3.3499999 21.719999 2.5799999 19.08 2.5799999C15.08 2.5799999 12.07 4.27 10.05 7.6500001C8.0299997 11.03 7.02 15.3 7.02 20.459999C7.02 23.58 7.4699998 26.440001 8.3699999 29.040001C9.2700005 31.639999 10.62 33.720001 12.42 35.279999C14.22 36.84 16.440001 37.619999 19.08 37.619999Z"/>
</svg>
