<?xml version="1.0" encoding="utf-8" ?>
<svg xmlns="http://www.w3.org/2000/svg" xmlns:xlink="http://www.w3.org/1999/xlink" width="28" height="31">
	<path fill="#F5C889" transform="translate(0 2.89325)" d="M27.89068 9.0237684L26.204172 9.0237684C25.761913 5.0415344 22.155657 2.049964 18.045618 2.5072062C12.01736 -2.893239 2.3436875 0.95878434 1.6750782 9.0237684L0 9.0237684L0 13.945643L1.6971172 13.945643L2.2997735 22.382504C2.4218359 24.091377 3.8594608 25.430019 5.572711 25.430019L5.8460393 25.430019C6.2111874 26.843691 7.4973283 27.890957 9.0234375 27.890957C10.549547 27.890957 11.835688 26.843691 12.200836 25.430019L15.689734 25.430019C16.054937 26.843691 17.341022 27.890957 18.867188 27.890957C20.393297 27.890957 21.679438 26.843691 22.044641 25.430019L22.317968 25.430019C24.031164 25.430019 25.468788 24.091377 25.590906 22.382504L26.193562 13.945643L27.89068 13.945643L27.89068 9.0237684L27.89068 9.0237684ZM24.550531 9.0237684L13.183844 9.0237684C13.583117 6.2447143 15.979414 4.1018939 18.867188 4.1018939C21.754961 4.1018939 24.151258 6.2447143 24.550531 9.0237684L24.550531 9.0237684ZM16.042906 3.0232921C13.610734 4.0341358 11.831696 6.3091359 11.530203 9.0238237L3.3221562 9.0238237C3.9377189 2.8523936 10.94986 -0.39336407 16.042906 3.0232921ZM1.640625 10.664393L26.25 10.664393L26.25 12.305018L1.640625 12.305018L1.640625 10.664393ZM9.0234375 26.250332C8.1187973 26.250332 7.3828125 25.514347 7.3828125 24.609707C7.3828125 23.705065 8.1187973 22.969082 9.0234375 22.969082C9.9280777 22.969082 10.664062 23.705065 10.664062 24.609707C10.664062 25.514347 9.9280777 26.250332 9.0234375 26.250332ZM18.867188 26.250332C17.962547 26.250332 17.226562 25.514347 17.226562 24.609707C17.226562 23.705065 17.962547 22.969082 18.867188 22.969082C19.771828 22.969082 20.507812 23.705065 20.507812 24.609707C20.507812 25.514347 19.771828 26.250332 18.867188 26.250332ZM22.317968 23.789394L22.044641 23.789394C21.679438 22.375721 20.393353 21.328457 18.867188 21.328457C17.341078 21.328457 16.054937 22.375721 15.689734 23.789394L12.200836 23.789394C11.357282 20.52384 6.6915627 20.516129 5.8460393 23.789394L5.572711 23.789394C4.7160859 23.789394 3.9972734 23.120129 3.9362421 22.26569L3.6935391 18.867519L24.197195 18.867519L23.954437 22.265636C23.893353 23.120073 23.17454 23.789394 22.317968 23.789394L22.317968 23.789394ZM24.314337 17.226894L3.5763438 17.226894L3.341953 13.945643L24.548727 13.945643L24.314337 17.226894Z"/>
</svg>
