<?xml version="1.0" encoding="utf-8" ?>
<svg xmlns="http://www.w3.org/2000/svg" xmlns:xlink="http://www.w3.org/1999/xlink" width="51" height="51">
	<path fill="#F5C889" transform="translate(8.704 7.98163)" d="M9.4545965 34.016548C9.3594646 33.443756 9.2940331 32.865959 9.1640968 32.303173C8.8244057 30.833654 8.0735598 29.565229 7.1259527 28.395529C6.1713848 27.217186 5.0548606 26.191708 3.9712846 25.134382C3.0742602 24.259043 2.1609936 23.39189 1.463514 22.351398C-0.21544866 19.846849 -0.4660401 17.177149 0.79573423 14.458769C1.9206114 12.034747 3.9016759 10.617095 6.6094556 10.21946C7.4572902 10.094802 8.3046608 10.122099 9.1506386 10.243573C9.2327766 10.255403 9.3163071 10.258587 9.4360342 10.269051C9.4007664 10.180789 9.3803473 10.120279 9.3534317 10.062955C8.660593 8.5788784 7.7993011 7.1885233 6.9045968 5.8163667C6.3059616 4.8987145 5.7272811 3.9687781 5.127254 3.0524905C5.0632138 2.9546742 4.923068 2.8686872 4.8051972 2.846849C3.9216304 2.6839738 3.1833138 3.0142739 2.51507 3.5411165C2.2876813 3.7203703 2.0797834 3.9232821 1.8199108 4.1539464C1.8765259 3.8441193 1.9131864 3.5743287 1.9758344 3.3104522C2.1623857 2.5270128 2.4654157 1.7954386 3.0199654 1.1853386C3.9053884 0.21081626 5.0200562 -0.13995716 6.3189554 0.049305804C7.2480001 0.18488361 8.0684547 0.57387358 8.8086281 1.1334733C8.9306755 1.22583 9.0564346 1.3122722 9.1808023 1.4014441C9.8281641 1.0443013 10.501513 0.84457421 11.248182 0.92328215C12.462623 1.0506706 13.358254 1.8791511 13.573113 3.0802431C13.699801 3.7867944 13.64133 4.4837918 13.505362 5.180789C13.48912 5.2640467 13.480302 5.3718719 13.519283 5.4396605C14.074297 6.3973494 14.681748 7.3172765 15.559747 8.030652C15.582486 8.0493059 15.609865 8.0629549 15.669729 8.1002617C15.698964 7.8500338 15.723096 7.6225543 15.752795 7.3959846C15.936563 5.9974403 16.41083 4.7226453 17.408091 3.6707799C18.220657 2.8140919 19.197035 2.2585869 20.376207 2.0183685C21.890894 1.7094514 23.375879 1.7740556 24.825134 2.2940738C26.95377 3.0574951 28.427155 4.5270128 29.391466 6.5060849C29.640202 7.0165486 29.812368 7.5624995 30.03001 8.0879774C30.18083 8.4519444 30.366453 8.8022633 30.507526 9.1698704C30.853251 10.070689 30.973442 11.020643 31.10709 11.966503C31.297354 13.316367 31.644934 14.604811 32.487663 15.72765C33.221802 16.705812 34.139709 17.478333 35.168064 18.137114C35.483158 18.338659 35.795933 18.543846 36.106388 18.744938C35.529564 18.981518 34.499355 18.968323 33.864525 18.603901C33.313221 18.287249 32.888145 17.84412 32.489056 17.368233C31.659782 16.379606 30.807772 15.398714 30.338146 14.185339C29.911676 13.082518 29.530684 11.961498 29.16547 10.837295C28.745033 9.5433912 28.312067 8.2572222 27.615051 7.0752387C26.957945 5.9605889 26.173687 4.9387507 25.150902 4.1220994C23.526699 2.8254659 21.176243 2.7080865 19.405397 3.8054478C17.876789 4.7526727 17.112486 6.160316 16.815025 7.869597C16.578819 9.2253752 16.145853 10.514729 15.283632 11.629833C14.344843 12.844574 13.092813 13.185794 11.603187 12.930106C10.986453 12.824101 10.501976 12.476967 9.9710932 12.209907C8.6517763 11.547486 7.271203 11.198987 5.7866807 11.482882C5.5254159 11.532928 5.2752886 11.685794 5.0427952 11.827741C3.7647789 12.60754 2.7721581 13.643937 2.1609936 15.00381C1.4927497 16.491072 1.4690827 18.016094 1.9517033 19.554766C2.0876722 19.987431 2.2700472 20.406904 2.4459252 20.826376C2.6793466 21.382336 3.1058161 21.809998 3.4891281 22.261316C4.5105205 23.465137 5.5569715 24.648941 6.5746512 25.855494C7.4113483 26.847303 8.214633 27.867323 8.854105 28.995621C9.4527407 30.052036 9.8977728 31.16077 9.8569355 32.401443C9.8397655 32.928741 9.7256069 33.437386 9.5167809 33.924648C9.5005388 33.96241 9.4703751 33.993801 9.4545965 34.016548ZM6.0140691 2.9055388C6.0479455 2.9669583 6.0641875 2.9983504 6.0822854 3.0283778C7.0452065 4.6139102 8.0085917 6.1989875 8.9710484 7.7849746C9.2805748 8.294529 9.2791824 8.2981682 9.8754978 8.2103615C10.027245 8.1880684 10.1776 8.148942 10.326098 8.1089058C11.23194 7.8636827 11.921531 7.301353 12.5378 6.6389327C12.580957 6.5925269 12.586061 6.4701428 12.556362 6.4064488C12.411576 6.0970764 12.241731 5.7990785 12.098336 5.489706C12.065389 5.4182777 12.076062 5.3063579 12.108546 5.2299247C12.223632 4.957859 12.38002 4.701262 12.479328 4.4246469C12.943387 3.1316533 12.27375 1.9273767 10.956754 1.6439372C10.257881 1.4933459 9.6077356 1.6220993 8.9826498 1.9287417C8.865243 1.9865215 8.7849607 1.970143 8.6680183 1.9082685C8.1802931 1.6493968 7.6967444 1.3718718 7.1821036 1.1748745C6.1699924 0.78724939 5.1504569 0.73128945 4.1661892 1.292254C3.7183731 1.5474859 3.3461983 1.880061 3.0195012 2.3486688C5.14396 1.4887962 6.913414 2.0374768 8.4772902 3.4687781C8.5728865 3.356858 8.6522398 3.2549472 8.7408752 3.1612258C9.3473997 2.5165486 10.266699 2.5784233 10.708018 3.292254C11.041212 3.8304706 10.960465 4.669415 10.531212 5.1416626C10.040238 5.6812439 9.3079548 5.7267399 8.7900658 5.2226453C8.6076908 5.0452113 8.4861069 4.8077226 8.3394651 4.5961666C8.2833138 4.5156388 8.2489738 4.414638 8.1784363 4.3500338C7.8470993 4.0447564 7.5208664 3.7312894 7.1653976 3.4546742C6.8373084 3.1994424 6.4771991 2.981972 6.0136051 2.9059937L6.0140691 2.9055388ZM15.407536 9.198987C15.125388 8.9510345 14.851594 8.7180958 14.587545 8.4746923C14.472459 8.3686867 14.404242 8.380971 14.280803 8.480607C13.631585 9.0047197 12.992577 9.5447559 12.305306 10.017459C11.779529 10.379151 11.188318 10.648942 10.616135 10.964684C10.682031 11.033837 10.764633 11.132564 10.859302 11.217641C11.322895 11.634383 11.864451 11.88461 12.486753 11.698987C12.88306 11.580698 13.268228 11.370962 13.605597 11.131199C14.330921 10.61573 14.863195 9.9132729 15.407536 9.198987ZM13.09699 7.1844287C12.243587 8.2121811 11.161867 8.8436642 9.8764257 9.176239C10.005434 9.480607 10.122376 9.7576771 10.249529 10.058405C11.555853 9.4938011 12.779574 8.8459387 13.790293 7.8973494C13.553623 7.6539464 13.336444 7.4310164 13.09699 7.1848836L13.09699 7.1844287ZM9.5307026 3.4815168C9.1900835 3.4824269 8.9288187 3.7790601 8.9348516 4.1571312C8.9408846 4.5215535 9.2012215 4.8068128 9.5307026 4.8091002C9.8578634 4.8113623 10.131194 4.5129089 10.127945 4.1566763C10.124233 3.770416 9.867609 3.480607 9.5307026 3.481972L9.5307026 3.4815168Z"/>
	<path fill="#F5C889" transform="translate(23.9176 24.0298)" d="M1.8334941 14.657142C2.4799273 14.443311 3.0948043 14.244493 3.7041128 14.031118C3.7584076 14.01201 3.8210554 13.891445 3.808526 13.831846C3.5073521 12.355049 3.2419109 10.868697 2.8748407 9.4073687C2.461365 7.7617822 1.9546133 6.1384883 1.4886988 4.5051851C1.4724568 4.4478602 1.4603913 4.3891706 1.4395087 4.3013635C1.7244405 4.242219 1.9986988 4.1753402 2.2771337 4.1366682C2.3226116 4.1302991 2.4107826 4.2390342 2.4372339 4.310008C2.8075523 5.2977238 3.1760147 6.2863498 3.5351956 7.2781606C4.2461329 9.2426739 4.8610101 11.23494 5.3000093 13.27634C5.3190355 13.365058 5.3385258 13.45332 5.3603368 13.541582C5.363585 13.554321 5.3793631 13.56433 5.4002457 13.587988C6.0550318 13.347315 6.6838307 13.049771 7.2490535 12.631209C7.3757415 12.537487 7.3061328 12.44513 7.2564788 12.354139C6.8314013 11.572064 6.4040036 10.790899 5.9779983 10.00928C4.8795724 7.9938111 3.7816105 5.9783425 2.6669426 3.9323919C3.0363331 3.6735201 3.4020109 3.4169233 3.7890356 3.1457677C5.4870248 6.0211086 7.17202 8.873702 8.8718653 11.751318C9.602293 11.421473 10.18747 10.940126 10.674731 10.303184C8.5052595 7.7335749 6.3408918 5.1703353 4.1626024 2.5902627C4.3565788 2.4428558 4.5496268 2.295449 4.6962695 2.1839843C4.9821291 2.4351215 5.2679892 2.6557767 5.5167241 2.9105537C6.7014651 4.1234746 7.8759966 5.3459496 9.0551682 6.5643301C9.9688988 7.5083699 10.883557 8.4514999 11.802393 9.3909903C11.850191 9.4401264 11.962493 9.4947214 12.004258 9.4728832C12.818681 9.0456762 13.551892 8.5097351 14.222457 7.8445849C14.139854 7.8068233 14.077207 7.7695165 14.00899 7.7481332C11.851119 7.0779786 9.9452324 5.9742479 8.2031574 4.5679698C7.2161055 3.7708814 6.3158326 2.8923554 5.4545407 1.9710634C5.3287807 1.8363955 5.2600999 1.6999078 5.2661328 1.50746C5.2809825 1.0165592 5.2712374 0.52520347 5.2712374 0.0024555051C5.6299543 0.0024555051 5.9687171 -0.0066436762 6.3056235 0.010189809C6.3761601 0.013829482 6.45505 0.10391138 6.5079527 0.17079036C7.0727115 0.88917071 7.6035943 1.6357585 8.2008371 2.3268414C9.4013557 3.7158313 10.792138 4.9050941 12.393139 5.8291159C13.281811 6.341855 14.234522 6.7481332 15.158926 7.2012725C15.227143 7.2349396 15.299536 7.2613273 15.409054 7.3077331C14.184404 9.133029 12.748608 10.740399 10.984259 12.063875C7.8834214 14.389626 4.3343039 15.438762 0.45756143 15.67807C0.67381257 11.882801 0.45941764 8.1293888 0 4.3632379C0.28678799 4.3632379 0.54805279 4.3555036 0.8079254 4.3700624C0.85665148 4.3727922 0.92718834 4.4578695 0.94203824 4.5161042C1.3100364 5.9333019 1.6093539 7.3636928 1.7968335 8.8159227C1.9792084 10.225841 2.0599544 11.638488 1.9736397 13.057961C1.9420837 13.578434 1.8836124 14.097087 1.8339581 14.656232L1.8334941 14.657142Z" fill-rule="evenodd"/>
	<path fill="#F5C889" transform="translate(11.8457 12.6643)" d="M30.006369 14.777934C28.62394 14.704686 27.405321 14.248362 26.410845 13.276569C25.540735 12.426706 24.95927 11.391219 24.512383 10.288854C23.876623 8.7206097 23.299335 7.1296177 22.676569 5.5559144C22.262629 4.5108733 21.777224 3.4958596 21.120581 2.5722928C20.039789 1.0518197 17.931108 0.95809805 16.694859 2.3643765C16.038216 3.1114192 15.655368 3.9858506 15.437724 4.9380798C15.162538 6.1414466 14.795004 7.3120561 14.120727 8.3652868C13.05757 10.025887 11.533603 10.867561 9.5200539 10.749727C8.8532019 10.7106 8.1877422 10.586396 7.5329561 10.448089C7.1760955 10.372566 6.8484702 10.173749 6.4994984 10.05273C5.6066504 9.7424479 4.6924558 9.5845766 3.7443848 9.7483616C2.1879334 10.017242 1.3911455 11.059554 1.2356859 12.496315C1.0918279 13.829345 1.5234021 14.976296 2.343857 16.026342C3.1049125 16.999954 4.0112181 17.834349 4.8864322 18.700136C5.6094351 19.415333 6.3315096 20.129162 6.8888435 20.984486C7.7622008 22.325251 8.0652313 23.786123 7.8508363 25.353003C7.7905087 25.794767 7.6823831 26.230619 7.5942121 26.668745C7.5858588 26.7106 7.5626559 26.749271 7.5640483 26.745176C7.3979154 26.03635 7.2670507 25.283394 7.0419827 24.558643C6.4990344 22.812965 5.5658135 21.287489 4.2404633 19.995859C3.4970417 19.271564 2.749908 18.549089 2.0422192 17.791584C1.4324467 17.139172 0.81571329 16.466742 0.48066324 15.635532C0.25698715 15.080937 0.14190072 14.472201 0.061618648 13.87666C-0.088272162 12.764741 0.032847036 11.671474 0.45189163 10.615514C1.020363 9.1833029 2.3958316 8.2260685 3.9615641 8.1655598C4.9314456 8.1277981 5.8363595 8.3448133 6.7287431 8.7037764C7.7283249 9.105505 8.7715273 9.3498182 9.865777 9.3179703C11.282083 9.2765694 12.328534 8.6309824 13.060818 7.4594631C13.551791 6.6737485 13.806095 5.8025022 14.040445 4.9212465C14.374567 3.6660144 14.845121 2.4662874 15.701309 1.4535484C16.835932 0.11141928 18.307461 -0.32033685 20.04211 0.2378979C21.287642 0.63871682 22.129444 1.4753865 22.83342 2.5035939C23.751328 3.8448133 24.298916 5.3489079 24.853003 6.8511829C25.254877 7.9403548 25.642365 9.0349865 26.070227 10.114149C26.355621 10.833895 26.827105 11.454458 27.357525 12.016333C28.179834 12.887124 29.036951 13.726524 29.882 14.576842C29.933512 14.628708 30.007761 14.658735 30.071337 14.699226C30.049526 14.725159 30.028179 14.751092 30.006369 14.777024L30.006369 14.777934Z" fill-rule="evenodd"/>
	<path fill="#F5C889" transform="translate(27.934 15.6141)" d="M0.00046405825 2.076545C0.39305732 1.420949 0.81859875 0.84633565 1.4283712 0.41412455C2.2882712 -0.19506562 3.2600091 -0.10134405 4.0632939 0.49374238C4.73525 0.9914676 5.1403732 1.6784557 5.4243765 2.430958C5.9357691 3.7862811 6.4146771 5.1534328 6.9112191 6.5142155C7.2666879 7.489193 7.7316742 8.4082098 8.3790359 9.2321405C8.4068794 9.2680826 8.4291534 9.3081188 8.4518929 9.3477001C8.4616375 9.3645344 8.467207 9.3840971 8.4848404 9.4282284C7.8829575 9.2080278 7.3891993 8.8681736 6.9455595 8.4559813C6.1650138 7.7312312 5.6090717 6.8499751 5.164968 5.9032054C4.7681985 5.0578918 4.4206185 4.1907396 4.0465879 3.3349617C3.7959964 2.7621682 3.5003912 2.2148526 3.0154505 1.7935604C2.4135668 1.2703575 1.7341856 1.2371455 1.0274249 1.5392383C0.68448591 1.6857351 0.36474976 1.8836423 0 2.076545L0.00046405825 2.076545Z" fill-rule="evenodd"/>
	<path fill="#F5C889" transform="translate(14.43 23.6194)" d="M3.1467092 0.13130996C2.930922 0.32421258 2.7044616 0.50665116 2.5016682 0.71183771C1.7252988 1.498462 1.6092843 2.4029205 2.0306492 3.3938212C2.3211496 4.0771699 2.7517955 4.6772609 3.1986837 5.2673426C3.8423324 6.1167512 4.5040793 6.9543309 5.1157084 7.8255773C5.5468183 8.4397726 5.8554173 9.1203909 5.902751 9.8860874C5.9059997 9.9388618 5.9069276 9.9920921 5.9059997 10.044868C5.9050713 10.089454 5.8995028 10.134495 5.8953261 10.189545C5.8670187 10.17726 5.8373189 10.174076 5.831286 10.160882C5.3625875 9.1122017 4.5908585 8.29282 3.7620504 7.5134754C3.1058722 6.8965511 2.4199939 6.3037395 1.8204308 5.6367693C0.94892937 4.6677065 0.27975738 3.565341 0.041695513 2.2709825C-0.19636635 0.97707886 0.60413408 0.040318146 1.9536154 0.0016466264C2.349457 -0.0097273504 2.746691 0.040773105 3.1434608 0.06261114C3.1443889 0.085359089 3.1448529 0.10856201 3.145781 0.13130996L3.1467092 0.13130996Z" fill-rule="evenodd"/>
	<path fill="#F5C889" transform="translate(17.5462 23.8847)" d="M3.0074081 7.3009291C2.623168 6.2563429 1.9850878 5.3641682 1.3595374 4.4628944C1.0175264 3.9701738 0.66948271 3.4760883 0.3864072 2.9506106C0.040219743 2.3082082 -0.11895223 1.6125759 0.10101137 0.88646132C0.3283999 0.13577886 1.1567439 -0.21499456 1.7850788 0.13805366C1.6667439 0.46789896 1.5117484 0.78591537 1.4398193 1.1207652C1.2555883 1.9801829 1.5846056 2.7008381 2.113632 3.3714476C2.6278086 4.0234041 3.0152972 4.744514 3.1772535 5.5657153C3.2937319 6.1571617 3.2691369 6.7358699 3.0069439 7.3004742L3.0074081 7.3009291Z" fill-rule="evenodd"/>
	<path fill="#F5C889" transform="translate(27.1938 18.3518)" d="M0.0009281165 1.7642204C0.32948133 1.1873323 0.63251138 0.67004383 1.1169882 0.2851485C1.6344131 -0.12567954 2.0989354 -0.090192728 2.5685623 0.3761403C3.0734577 0.87705022 3.3611739 1.5085334 3.6748772 2.1236379C4.023849 2.8074415 4.3510098 3.501709 4.7069426 4.1814179C4.9278345 4.6027098 5.1816745 5.0085335 5.6081438 5.2828736C5.1232028 5.2919731 4.6842036 5.1600347 4.2878981 4.9025278C3.7588718 4.5581241 3.4089718 4.0599437 3.1026933 3.5285516C2.9087169 3.1923368 2.7221656 2.8520274 2.5207644 2.5203624C1.9810646 1.6322823 1.2627025 1.3729556 0.25476798 1.6932467C0.19072793 1.71372 0.12529573 1.7296435 0 1.7646754L0.0009281165 1.7642204Z" fill-rule="evenodd"/>
	<path fill="#F5C889" transform="translate(20.9829 21.0496)" d="M0.00046405825 3.0063694C2.6984987 3.2779801 4.7784076 2.4121928 6.0870519 0C6.350173 0.48180163 6.3469243 0.93676066 6.1858964 1.3944495C5.9167423 2.1606007 5.3756504 2.7242949 4.7264333 3.1933577C3.8219836 3.8471339 2.8307552 4.2752504 1.6761783 4.1997271C0.97962695 4.1542311 0.45060053 3.822566 0.095131941 3.2315741C0.061255686 3.1751592 0.042693358 3.1091902 0 3.0068245L0.00046405825 3.0063694Z" fill-rule="evenodd"/>
	<path fill="#F5C889" transform="translate(22.5319 23.2188)" d="M0 3.1487715C2.3170428 2.8630574 4.1110921 1.7584168 5.5343585 0C5.8011918 1.1696997 5.220191 2.7202003 3.9250045 3.5186534C2.5875888 4.343039 1.0190719 3.9654231 0 3.1492267L0 3.1487715Z" fill-rule="evenodd"/>
	<path fill="#F5C889" transform="translate(21.0312 27.0055)" d="M1.2556279 0.68152869C0.56557328 1.4585987 0.65792084 2.4467697 0.64771158 3.4199271C-0.21218833 2.7247498 -0.22007734 0.81710649 0.64910376 0C0.84864879 0.22474977 1.049122 0.44995451 1.2556279 0.68198365L1.2556279 0.68152869Z" fill-rule="evenodd"/>
	<path fill="#F5C889" transform="translate(22.2745 27.9345)" d="M0.4606396 3.1542311C-0.1649109 2.3880801 -0.13428305 1.0459509 0.43697262 0C0.65693623 0.15013649 0.87968421 0.29390356 1.0903666 0.45313922C1.13306 0.4854413 1.1641519 0.59417653 1.141413 0.63876253C0.74139482 1.4258417 0.5186469 2.2588718 0.46017554 3.1542311L0.4606396 3.1542311Z" fill-rule="evenodd"/>
</svg>
