<?xml version="1.0" encoding="UTF-8"?>
<svg width="30px" height="30px" viewBox="0 0 30 30" version="1.1" xmlns="http://www.w3.org/2000/svg" xmlns:xlink="http://www.w3.org/1999/xlink">
    <title>Menu</title>
    <defs>
        <path d="M0,0 L30,0 L30,30 L0,30 L0,0 Z" id="path-1"></path>
    </defs>
    <g id="Menu" stroke="none" fill="none" fill-rule="nonzero" xlink:href="#path-1">
        <path d="M26.2499995,8.74999952 L9.99999952,8.74999952 C9.6684789,8.74999952 9.35053675,8.61830323 9.11611629,8.38388276 C8.88169582,8.14946229 8.74999952,7.83152015 8.74999952,7.49999952 C8.74999952,7.1684789 8.88169582,6.85053675 9.11611629,6.61611629 C9.35053675,6.38169582 9.6684789,6.24999952 9.99999952,6.24999952 L26.2499995,6.24999952 C26.5815201,6.24999952 26.8994635,6.38169582 27.133884,6.61611629 C27.3683044,6.85053675 27.4999995,7.1684789 27.4999995,7.49999952 C27.4999995,7.83152015 27.3683044,8.14946229 27.133884,8.38388276 C26.8994635,8.61830323 26.5815201,8.74999952 26.2499995,8.74999952 Z M27.4999995,14.9999995 C27.4999995,14.6684789 27.3683044,14.3505368 27.133884,14.1161163 C26.8994635,13.8816958 26.5815201,13.7499995 26.2499995,13.7499995 L3.74999952,13.7499995 C3.4184789,13.7499995 3.10053645,13.8816958 2.86611599,14.1161163 C2.63169552,14.3505368 2.49999952,14.6684789 2.49999952,14.9999995 C2.49999952,15.3315201 2.63169552,15.6494623 2.86611599,15.8838828 C3.10053645,16.1183032 3.4184789,16.2499995 3.74999952,16.2499995 L26.2499995,16.2499995 C26.5815201,16.2499995 26.8994635,16.1183032 27.133884,15.8838828 C27.3683044,15.6494623 27.4999995,15.3315201 27.4999995,14.9999995 Z M27.4999995,22.4999995 C27.4999995,22.1684789 27.3683044,21.8505356 27.133884,21.6161151 C26.8994635,21.3816946 26.5815201,21.2499995 26.2499995,21.2499995 L14.9999995,21.2499995 C14.6684789,21.2499995 14.3505368,21.3816946 14.1161163,21.6161151 C13.8816958,21.8505356 13.7499995,22.1684789 13.7499995,22.4999995 C13.7499995,22.8315201 13.8816958,23.1494635 14.1161163,23.383884 C14.3505368,23.6183044 14.6684789,23.7499995 14.9999995,23.7499995 L26.2499995,23.7499995 C26.5815201,23.7499995 26.8994635,23.6183044 27.133884,23.383884 C27.3683044,23.1494635 27.4999995,22.8315201 27.4999995,22.4999995 Z" id="Icon" fill="#F2F2F2"></path>
    </g>
</svg>