<?xml version="1.0" encoding="utf-8" ?>
<svg xmlns="http://www.w3.org/2000/svg" xmlns:xlink="http://www.w3.org/1999/xlink" width="16" height="20">
	<path fill="#F5C889" transform="translate(0.182373 0)" d="M14.236337 3.4024472L14.236337 3.9590878C14.236337 4.5729513 13.736918 5.0723691 13.123055 5.0723691L12.769736 5.0723691C13.170184 4.3151894 13.118825 3.4443808 13.123055 3.4024472L12.009774 3.4024472C11.979492 3.5352247 12.13409 5.0723691 10.877344 5.0723691L10.800714 5.0723691C10.642219 4.6254978 10.298735 4.2656112 9.8626251 4.0852599L10.543545 0L8.1842422 1.5728809L7.0000453 0.38868359L5.8158479 1.5728809L3.4565082 0L4.1373911 4.0852599C2.8649848 4.6114707 2.7368832 6.3664103 3.9285393 7.0685568L0.5454632 12.707029C-0.16443916 13.890224 -0.18240009 15.313443 0.49740654 16.514191C1.1772503 17.714865 2.4068694 18.431744 3.7867074 18.431744L10.213346 18.431744C13.151369 18.431744 14.967391 15.228463 13.454627 12.707029L10.071551 7.0685568C10.407651 6.8705039 10.668604 6.558414 10.800787 6.1856503L13.123092 6.1856503C14.350819 6.1856503 15.349654 5.1868143 15.349654 3.9590878L15.349654 3.4024472L14.236337 3.4024472ZM4.7734456 5.0723319L9.2265711 5.0723319C9.5335026 5.0723319 9.7832117 5.322041 9.7832117 5.6289725C9.7832117 5.9359045 9.5335026 6.1856132 9.2265711 6.1856132L4.7734456 6.1856132C4.4665141 6.1856132 4.216805 5.9359045 4.216805 5.6289725C4.216805 5.322041 4.4665141 5.0723319 4.7734456 5.0723319ZM5.9576802 3.005414L7.0000453 1.9630488L8.0424109 3.005414L9.0229511 2.3517325L8.7550592 3.9590509L5.2450314 3.9590509L4.977139 2.3517325L5.9576802 3.005414ZM10.213309 17.318426L3.7867074 17.318426C1.7140745 17.318426 0.43279913 15.058613 1.5001019 13.279813L5.0886526 7.2988944L8.911438 7.2988944L12.499989 13.279813C13.566326 15.057092 12.287797 17.318426 10.213309 17.318426Z"/>
</svg>
