<?xml version="1.0" encoding="UTF-8"?>
<svg id="Capa_1" xmlns="http://www.w3.org/2000/svg" version="1.1" viewBox="0 0 128 128">
  <!-- Generator: Adobe Illustrator 30.2.1, SVG Export Plug-In . SVG Version: 2.1.1 Build 1)  -->
  <path d="M41.87,108.34c-.24-1.46-.41-2.94-.74-4.38-.87-3.76-2.79-7-5.21-9.99-2.44-3.01-5.29-5.63-8.06-8.34-2.29-2.24-4.63-4.45-6.41-7.11-4.29-6.4-4.93-13.23-1.71-20.18,2.88-6.2,7.94-9.82,14.86-10.84,2.17-.32,4.33-.25,6.5.06.21.03.42.04.73.07-.09-.23-.14-.38-.21-.53-1.77-3.79-3.97-7.35-6.26-10.86-1.53-2.35-3.01-4.72-4.54-7.07-.16-.25-.52-.47-.82-.53-2.26-.42-4.15.43-5.85,1.77-.58.46-1.11.98-1.78,1.57.14-.79.24-1.48.4-2.16.48-2,1.25-3.87,2.67-5.43,2.26-2.49,5.11-3.39,8.43-2.9,2.37.35,4.47,1.34,6.36,2.77.31.24.63.46.95.69,1.65-.91,3.38-1.42,5.28-1.22,3.1.33,5.39,2.44,5.94,5.51.32,1.81.17,3.59-.17,5.37-.04.21-.06.49.04.66,1.42,2.45,2.97,4.8,5.22,6.62.06.05.13.08.28.18.07-.64.14-1.22.21-1.8.47-3.58,1.68-6.83,4.23-9.52,2.08-2.19,4.57-3.61,7.59-4.22,3.87-.79,7.67-.62,11.37.7,5.44,1.95,9.21,5.71,11.67,10.77.64,1.3,1.08,2.7,1.63,4.04.39.93.86,1.83,1.22,2.77.88,2.3,1.19,4.73,1.53,7.15.49,3.45,1.37,6.74,3.53,9.61,1.88,2.5,4.22,4.48,6.85,6.16.81.52,1.61,1.04,2.4,1.55-1.47.6-4.11.57-5.73-.36-1.41-.81-2.5-1.94-3.52-3.16-2.12-2.53-4.3-5.03-5.5-8.14-1.09-2.82-2.06-5.68-3-8.56-1.07-3.31-2.18-6.6-3.96-9.62-1.68-2.85-3.68-5.46-6.3-7.55-4.15-3.31-10.16-3.61-14.69-.81-3.91,2.42-5.86,6.02-6.62,10.39-.6,3.47-1.71,6.76-3.91,9.61-2.4,3.11-5.6,3.98-9.41,3.32-1.58-.27-2.82-1.16-4.17-1.84-3.37-1.69-6.9-2.58-10.7-1.86-.67.13-1.31.52-1.9.88-3.27,1.99-5.8,4.64-7.37,8.12-1.71,3.8-1.77,7.7-.54,11.63.35,1.11.81,2.18,1.26,3.25.6,1.42,1.69,2.51,2.67,3.67,2.61,3.08,5.29,6.1,7.89,9.19,2.14,2.54,4.19,5.14,5.83,8.03,1.53,2.7,2.67,5.53,2.56,8.71-.04,1.35-.34,2.65-.87,3.89-.04.1-.12.18-.16.23ZM33.08,28.82c.09.16.13.24.17.31,2.46,4.05,4.92,8.11,7.38,12.16.79,1.3.79,1.31,2.31,1.09.39-.06.77-.16,1.15-.26,2.32-.63,4.08-2.06,5.65-3.76.11-.12.12-.43.05-.59-.37-.79-.8-1.55-1.17-2.34-.08-.18-.06-.47.03-.66.29-.7.69-1.35.95-2.06,1.19-3.31-.53-6.38-3.89-7.11-1.79-.38-3.45-.06-5.05.73-.3.15-.51.11-.8-.05-1.25-.66-2.48-1.37-3.8-1.87-2.59-.99-5.19-1.13-7.71.3-1.14.65-2.1,1.5-2.93,2.7,5.43-2.2,9.95-.8,13.95,2.86.24-.29.45-.55.67-.79,1.55-1.65,3.9-1.49,5.03.33.85,1.38.65,3.52-.45,4.73-1.26,1.38-3.13,1.5-4.45.21-.47-.45-.78-1.06-1.15-1.6-.14-.21-.23-.46-.41-.63-.85-.78-1.68-1.58-2.59-2.29-.84-.65-1.76-1.21-2.94-1.4h0ZM57.09,44.9c-.72-.63-1.42-1.23-2.1-1.85-.29-.27-.47-.24-.78.02-1.66,1.34-3.29,2.72-5.05,3.93-1.34.92-2.86,1.61-4.32,2.42.17.18.38.43.62.65,1.19,1.07,2.57,1.7,4.16,1.23,1.01-.3,2-.84,2.86-1.45,1.85-1.32,3.21-3.11,4.61-4.94ZM51.18,39.75c-2.18,2.63-4.95,4.24-8.23,5.09.33.78.63,1.49.95,2.26,3.34-1.44,6.47-3.1,9.05-5.52-.6-.62-1.16-1.19-1.77-1.82h0ZM42.06,30.29c-.87,0-1.54.76-1.52,1.73.02.93.68,1.66,1.52,1.67.84,0,1.54-.76,1.53-1.67,0-.99-.67-1.73-1.53-1.72h0Z" style="fill: #f6c889;"/>
  <path d="M61.28,99.88c1.65-.55,3.22-1.05,4.78-1.6.14-.05.3-.36.27-.51-.77-3.78-1.45-7.57-2.39-11.31-1.06-4.21-2.35-8.36-3.54-12.53-.04-.15-.07-.3-.13-.52.73-.15,1.43-.32,2.14-.42.12-.02.34.26.41.44.95,2.52,1.89,5.05,2.81,7.59,1.82,5.02,3.39,10.11,4.51,15.33.05.23.1.45.15.68,0,.03.05.06.1.12,1.67-.62,3.28-1.38,4.73-2.45.32-.24.15-.48.02-.71-1.09-2-2.18-4-3.27-5.99-2.81-5.15-5.61-10.3-8.46-15.53.94-.66,1.88-1.32,2.87-2.01,4.34,7.35,8.65,14.64,12.99,22,1.87-.84,3.36-2.07,4.61-3.7-5.55-6.57-11.08-13.12-16.65-19.72.5-.38.99-.75,1.36-1.04.73.64,1.46,1.21,2.1,1.86,3.03,3.1,6.03,6.23,9.05,9.34,2.34,2.41,4.67,4.82,7.02,7.23.12.13.41.27.52.21,2.08-1.09,3.96-2.46,5.67-4.16-.21-.1-.37-.19-.55-.25-5.52-1.71-10.39-4.53-14.84-8.13-2.52-2.04-4.82-4.28-7.03-6.64-.32-.34-.5-.69-.48-1.19.04-1.25.01-2.51.01-3.85.92,0,1.78-.02,2.64.02.18,0,.38.24.52.41,1.44,1.84,2.8,3.74,4.33,5.51,3.07,3.55,6.62,6.59,10.72,8.95,2.27,1.31,4.71,2.35,7.07,3.51.17.09.36.15.64.27-3.13,4.67-6.8,8.77-11.31,12.16-7.93,5.95-17,8.63-26.91,9.24.55-9.7,0-19.3-1.17-28.92.73,0,1.4-.02,2.07.02.12,0,.3.22.34.37.94,3.62,1.71,7.28,2.19,10.99.47,3.6.67,7.22.45,10.84-.08,1.33-.23,2.66-.36,4.09h0Z" style="fill: #f6c889; fill-rule: evenodd;"/>
  <path d="M102.44,71.13c-3.53-.19-6.65-1.35-9.19-3.84-2.22-2.17-3.71-4.82-4.85-7.64-1.63-4.01-3.1-8.08-4.69-12.1-1.06-2.67-2.3-5.27-3.98-7.63-2.76-3.89-8.15-4.13-11.31-.53-1.68,1.91-2.66,4.14-3.21,6.58-.7,3.08-1.64,6.07-3.37,8.76-2.72,4.24-6.61,6.4-11.76,6.1-1.7-.1-3.41-.42-5.08-.77-.91-.19-1.75-.7-2.64-1.01-2.28-.79-4.62-1.2-7.04-.78-3.98.69-6.02,3.35-6.41,7.02-.37,3.41.74,6.34,2.83,9.02,1.95,2.49,4.26,4.62,6.5,6.84,1.85,1.83,3.69,3.65,5.12,5.84,2.23,3.43,3.01,7.16,2.46,11.17-.15,1.13-.43,2.24-.66,3.36-.02.11-.08.21-.08.2-.42-1.81-.76-3.74-1.33-5.59-1.39-4.46-3.77-8.36-7.16-11.66-1.9-1.85-3.81-3.7-5.62-5.63-1.56-1.67-3.14-3.39-3.99-5.51-.57-1.42-.87-2.97-1.07-4.5-.38-2.84-.07-5.64,1-8.34,1.45-3.66,4.97-6.11,8.97-6.26,2.48-.1,4.79.46,7.07,1.38,2.56,1.03,5.22,1.65,8.02,1.57,3.62-.11,6.3-1.76,8.17-4.75,1.26-2.01,1.91-4.24,2.5-6.49.85-3.21,2.06-6.28,4.25-8.86,2.9-3.43,6.66-4.53,11.1-3.11,3.18,1.02,5.34,3.16,7.14,5.79,2.35,3.43,3.75,7.27,5.16,11.11,1.03,2.78,2.02,5.58,3.11,8.34.73,1.84,1.93,3.43,3.29,4.86,2.1,2.23,4.29,4.37,6.45,6.55.13.13.32.21.48.31-.06.07-.11.13-.17.2h0Z" style="fill: #f6c889; fill-rule: evenodd;"/>
  <path d="M66.86,46.21c1-1.68,2.09-3.14,3.65-4.25,2.2-1.56,4.68-1.32,6.74.2,1.72,1.27,2.75,3.03,3.48,4.95,1.31,3.46,2.53,6.96,3.8,10.44.91,2.49,2.1,4.84,3.75,6.95.07.09.13.19.19.3.02.04.04.09.08.21-1.54-.56-2.8-1.43-3.93-2.49-2-1.85-3.42-4.11-4.55-6.53-1.01-2.16-1.9-4.38-2.86-6.57-.64-1.46-1.4-2.86-2.64-3.94-1.54-1.34-3.28-1.42-5.08-.65-.88.37-1.69.88-2.63,1.37h0Z" style="fill: #f6c889; fill-rule: evenodd;"/>
  <path d="M40.38,61.7c-.55.49-1.13.96-1.65,1.48-1.98,2.01-2.28,4.32-1.2,6.86.74,1.75,1.84,3.28,2.99,4.79,1.65,2.17,3.34,4.31,4.9,6.54,1.1,1.57,1.89,3.31,2.01,5.27,0,.13.01.27,0,.41,0,.11-.02.23-.03.37-.07-.03-.15-.04-.16-.07-1.2-2.68-3.17-4.78-5.29-6.77-1.68-1.58-3.43-3.09-4.96-4.8-2.23-2.48-3.94-5.3-4.55-8.6-.61-3.31,1.44-5.7,4.89-5.8,1.01-.03,2.03.1,3.04.16,0,.06,0,.12,0,.18h0Z" style="fill: #f6c889; fill-rule: evenodd;"/>
  <path d="M47.99,80.7c-.98-2.67-2.61-4.95-4.21-7.25-.87-1.26-1.76-2.52-2.49-3.87-.88-1.64-1.29-3.42-.73-5.28.58-1.92,2.7-2.82,4.3-1.91-.3.84-.7,1.66-.88,2.51-.47,2.2.37,4.04,1.72,5.75,1.31,1.67,2.3,3.51,2.72,5.61.3,1.51.23,2.99-.44,4.43h0Z" style="fill: #f6c889; fill-rule: evenodd;"/>
  <path d="M64.97,52.41c.84-1.47,1.61-2.8,2.85-3.78,1.32-1.05,2.51-.96,3.71.23,1.29,1.28,2.03,2.89,2.83,4.47.89,1.75,1.73,3.52,2.64,5.26.56,1.08,1.21,2.11,2.3,2.82-1.24.02-2.36-.31-3.37-.97-1.35-.88-2.25-2.15-3.03-3.51-.5-.86-.97-1.73-1.49-2.58-1.38-2.27-3.22-2.93-5.79-2.11-.16.05-.33.09-.65.18h0Z" style="fill: #f6c889; fill-rule: evenodd;"/>
  <path d="M49.09,62.48c6.9.69,12.21-1.52,15.56-7.69.67,1.23.66,2.39.25,3.56-.69,1.96-2.07,3.4-3.73,4.6-2.31,1.67-4.85,2.77-7.8,2.57-1.78-.12-3.13-.96-4.04-2.47-.09-.14-.13-.31-.24-.57h0Z" style="fill: #f6c889; fill-rule: evenodd;"/>
  <path d="M53.05,68.39c5.92-.73,10.51-3.55,14.15-8.05.68,2.99-.8,6.95-4.11,8.99-3.42,2.11-7.43,1.14-10.03-.94h0Z" style="fill: #f6c889; fill-rule: evenodd;"/>
  <path d="M52.42,71.76c-1.76,1.99-1.53,4.51-1.55,7-2.2-1.78-2.22-6.65,0-8.74.51.57,1.02,1.15,1.55,1.74h0Z" style="fill: #f6c889; fill-rule: evenodd;"/>
  <path d="M53.57,80.46c-1.6-1.96-1.52-5.39-.06-8.06.56.38,1.13.75,1.67,1.16.11.08.19.36.13.47-1.02,2.01-1.59,4.14-1.74,6.43h0Z" style="fill: #f6c889; fill-rule: evenodd;"/>
  <metadata>
    <sfw xmlns="http://ns.adobe.com/SaveForWeb/1.0/">
      <slices/>
      <sliceSourceBounds x="17.7" y="19.66" width="92.3" height="86.96" bottomLeftOrigin="true"/>
    </sfw>
  </metadata>
  <metadata><?xpacket begin="﻿" id="W5M0MpCehiHzreSzNTczkc9d"?>
<x:xmpmeta xmlns:x="adobe:ns:meta/" x:xmptk="Adobe XMP Core 10.0-c000 1.000000, 0000/00/00-00:00:00        ">
   <rdf:RDF xmlns:rdf="http://www.w3.org/1999/02/22-rdf-syntax-ns#">
      <rdf:Description rdf:about=""
            xmlns:xmp="http://ns.adobe.com/xap/1.0/"
            xmlns:xmpGImg="http://ns.adobe.com/xap/1.0/g/img/"
            xmlns:xmpTPg="http://ns.adobe.com/xap/1.0/t/pg/"
            xmlns:stDim="http://ns.adobe.com/xap/1.0/sType/Dimensions#"
            xmlns:xmpG="http://ns.adobe.com/xap/1.0/g/"
            xmlns:dc="http://purl.org/dc/elements/1.1/">
         <xmp:CreatorTool>Adobe Illustrator 30.2 (Macintosh)</xmp:CreatorTool>
         <xmp:CreateDate>2026-02-19T13:06:21+01:00</xmp:CreateDate>
         <xmp:Thumbnails>
            <rdf:Alt>
               <rdf:li rdf:parseType="Resource">
                  <xmpGImg:width>256</xmpGImg:width>
                  <xmpGImg:height>244</xmpGImg:height>
                  <xmpGImg:format>JPEG</xmpGImg:format>
                  <xmpGImg:image>/9j/4AAQSkZJRgABAgEAAAAAAAD/7QAsUGhvdG9zaG9wIDMuMAA4QklNA+0AAAAAABAAAAAAAAEA&#xA;AQAAAAAAAQAB/+4ADkFkb2JlAGTAAAAAAf/bAIQABgQEBAUEBgUFBgkGBQYJCwgGBggLDAoKCwoK&#xA;DBAMDAwMDAwQDA4PEA8ODBMTFBQTExwbGxscHx8fHx8fHx8fHwEHBwcNDA0YEBAYGhURFRofHx8f&#xA;Hx8fHx8fHx8fHx8fHx8fHx8fHx8fHx8fHx8fHx8fHx8fHx8fHx8fHx8fHx8f/8AAEQgA9AEAAwER&#xA;AAIRAQMRAf/EAaIAAAAHAQEBAQEAAAAAAAAAAAQFAwIGAQAHCAkKCwEAAgIDAQEBAQEAAAAAAAAA&#xA;AQACAwQFBgcICQoLEAACAQMDAgQCBgcDBAIGAnMBAgMRBAAFIRIxQVEGE2EicYEUMpGhBxWxQiPB&#xA;UtHhMxZi8CRygvElQzRTkqKyY3PCNUQnk6OzNhdUZHTD0uIIJoMJChgZhJRFRqS0VtNVKBry4/PE&#xA;1OT0ZXWFlaW1xdXl9WZ2hpamtsbW5vY3R1dnd4eXp7fH1+f3OEhYaHiImKi4yNjo+Ck5SVlpeYmZ&#xA;qbnJ2en5KjpKWmp6ipqqusra6voRAAICAQIDBQUEBQYECAMDbQEAAhEDBCESMUEFURNhIgZxgZEy&#xA;obHwFMHR4SNCFVJicvEzJDRDghaSUyWiY7LCB3PSNeJEgxdUkwgJChgZJjZFGidkdFU38qOzwygp&#xA;0+PzhJSktMTU5PRldYWVpbXF1eX1RlZmdoaWprbG1ub2R1dnd4eXp7fH1+f3OEhYaHiImKi4yNjo&#xA;+DlJWWl5iZmpucnZ6fkqOkpaanqKmqq6ytrq+v/aAAwDAQACEQMRAD8A9U4q7FVk00UMTSysEjQV&#xA;ZjkZSERZSBbGNQ8y3MzFLX9zF/N+2f6Zqs2tkdo7By4YAOaBWz1S7+MRyy16O1SD9JzHGLJPeiWz&#xA;ijFttN1W3+L0ZVp+0lT/AMRwnBkj0K8cT1VrXX9Ttm4s/qqOqSbn7+uThq8kfP3sZYYlkOm61aXt&#xA;FB9OfvE3f/VPfNlh1UcnkXGniMUdJJHGvKRgijqzEAfjmQSBzawLQja1pSmhuVr7VI+8DKTqcY6s&#xA;/Cl3IiC8tbj+5lSQ9wpBP3ZZDJGXI2xMSOark2LsVdirsVdirsVdirsVdirsVdirsVdirsVdirsV&#xA;dirsVdirsVdirsVdirE9cv5b28+qwfFFG3FQP2n7n6M0+qynJLhHIObihwiyirKHQ9PAe5nSa570&#xA;q6qfAAA/ecuxRxY95EGTCZnLkNkePMek1p6jD34t/TL/AM7j72vwJIq31KwuCBDOrMei1o33Ghy6&#xA;GeEuRYShIcw6806zu1pPGGbs42YfSMcmGM+YWMzHkkN35Yu4pA1o/qLWoqQrL9PTNfk0MgfTu5Ed&#xA;QDzRA8u3tzR767JYDZRVqfSafqyz8nKW85MfGA+kNyeUoSP3dwwb/KUEfhTE9njoVGpPck19pt7p&#xA;8is+wr8EyE0r8+oOYWXBPGd/m3wmJJ5oOtvcN9VuTWan7t/5qdQffM/Saoy9Mubj5sVbhO8z3Hdi&#xA;rsVdirsVUZ7y0t/76VY/ZiK/d1yE8kY8zTIRJ5IGTzLpaH4XaT/VU/8AG1Mx5a3GPNsGCSifNdhU&#xA;Uilp32X/AJqyH8oQ7in8vJUTzRpjdfUT/WUfwJyQ12M96nTyRtvqdhcGkU6Mx6KTQ/caHL4Z4S5F&#xA;rOOQ5hE5awdirsVdirsVdirsVdirsVdirsVQ2p3JtrCaYGjKtFP+Udh+JyrPPhgSzxxuQDC7Wzub&#xA;qThAhdu57D5nNHjxymaAc+UgOacReU5ytZbhUPgqlv1lczY9nnqWg6gdAgdU0W4sAHLCSFjQOBSh&#xA;9xmPn00se/MNmPKJKFpp9xdo7W9HaP7UdaNTxFcrx4ZTBroylMDmjLHXb6yf0p6yxrsyP9tfkT/H&#xA;L8WrnA0dw1zwiW4ZC2sWC2X1sPyj6BR9rl/LTxzZHUw4eK9nG8KV0kz+bLnnVIECeBJJ+8U/VmCe&#xA;0JXsG8acd6daZqkF/EWQcJF+3GdyK/wzOwZxkG3NoyYzEoi4t4riF4ZRyRxQj+OWzgJCiwiSDYYM&#xA;3q2d4QDSSCSgPupzQG4S8wXY7SHvZ4jh0Vx0YAj6d86AGxbrSG8KuxVZPPDBE0szBI16scjOYiLK&#xA;QCTQYxqPmS5mJjtawxfz/tn6e30Zqs2tlLaOwcuGADmkzMzEsxJY9SdzmETbeiYNNv5wDFA7KejU&#xA;oPvNBlkME5cgxOSI5lE/4d1elfRFfDmlf15b+TydzDx496Hn0nUYQTJbuAOpA5D71rlctPOPMMhk&#xA;ieqFylmjrLWr+1ICyepGP91vuPo7jMjFqpw67NcsUSyXTdbtL2if3U/++27/AOqe+bTDqoz25FxZ&#xA;4jH3JhmS1OxV2KuxV2KuxV2KuxV2KoPVLF72BIA3BC4Mjd+IB6e9coz4jMV5tmOfCbV7a1gtohFC&#xA;gRB95PiTlkMYiKDGUiTZVcmxU7m3juIHhkFUcUP9cjOAkKKYmjbD42uNI1PfcxmjDsyH+ozSAyw5&#xA;Pc5xqcWQ6hplrqlus8RCystY5R3Hg2bPNgjljY5uLDIYGmKS20sNz9XnHpsGAavavfNPKBjLhLmi&#xA;Viwy250fTvqDxiJUCISJafECB1Ldc3M9NDgqnCjllaSeV2YakQOjRty/A5gaE/vPg5Go+llmbhwm&#xA;CalIsl/cOv2Wkah9q5z+aVzJ83YwFRDNbL/eK3/4xp/xEZvcX0j3OBLmVbJsWpJEjRnc8UUEsx7A&#xA;YCQBZSBbC9X1WS/nqKrAh/dp/E++aPUZzkPk52PHwjzUrDTrm+l4Qj4R9tz9lRkcOGWQ0GU5iI3Z&#xA;VYaJZWgB4iWYdZHFd/Yds22HSwh5lw55TJMMyWp2KuxVBX2kWV4CZE4yHpKuzfT4/TlGXTwnzG7Z&#xA;DIYsV1LSrmwkpIOUTfYlHQ/0OajNgljO/JzIZBJBgkEEGhG4IyhmybQ9eMpW1uz+8O0cp/a9j75t&#xA;dLq79Mubi5cNbhPc2DjOxV2KuxV2KuxV2KuxV2KuxV2KuxVKfMOmfWrb14xWeEV26svcfxzD1mDj&#xA;jY5huw5KNdEF5Y1KhNjIdjVoSfHqV/jlGhzfwH4NmeHVG69pBvIxLCB9YjFKfzL4f0y/V6fjFj6g&#xA;14cnDseSQyT600X1J/VKjb0+JrTwrSpGa8zykcJtyQIc088v6TJaI084pNIKBf5V67+5zP0enMBZ&#xA;5lx82Ti2CL1m5kttOmlj+3QKD4cjSv45dqZmMCQwxRuTCM0LnvQogojQIaqAOJ9qbZ0keWzrSuwo&#xA;SDzTfFESzQ0L/HL/AKo6D7812vy0OEOTp4dUisbOW8uUgj6t9puwA6nNfixmcqDkTlwi2bWlpDaQ&#xA;LDCtFXqe5Pic32PGICg4EpEmygdT1+3syYox6s46qPsr8z/DMfPq4w2G5bMeEy36JBPr+qTGvrem&#xA;vZYxx/Hr+Oa6eryS605IwxCiuqakpqLqX6WJ/XkBnn/OLLw49yMtvM2oREerxnXvUcT94/pl8NdM&#xA;c92uWCJ5J/p+s2d78KHhN3ibr9Hjmww6mOTlzcaeIxRc8EU8TRSqGjYUIOXTgJCiwBINhhmraXJY&#xA;XHHdoX3ifxHgfcZpNRgOM+Tn48nEEFmOzZdoGq/XIPSlP+kRDc/zL2b+ubrSZ+MUeYcLNj4TY5Jr&#xA;mW0uxV2KuxV2KuxV2KuxV2KuxV2KuxVieuWD2N4tzB8MTtyQj9lxvT+IzT6rEccuIcnNxT4hRZFp&#xA;l8l7aJMNm6SL4MOubLBlE424uSHCaRWXMHYqsngjnheGQVSQFT9ORnESBBSDRtgMqcJXSobixXkO&#xA;hoaVGc7IUadkCyTy1qfqRfU5T+8jH7onuvh9GbTRZ7HCeYcTPjrcJ7mwcdg2rXBuNRnkrUciq/Jd&#xA;h+rNBqJ8UyXYY41EMg8s2QiszcMP3k529lGw+85sdDiqPF3uNnnZp3mDVzap9WgNJ3HxMP2F/qcO&#xA;r1HAOEc1w473PJioDM1BUsTsOpJOahzE6svLF1Moe4f0FPRaVb6fDM3FoZHeWzRPOByR/wDhSx4/&#xA;3svLxqtPupmR/J8O8tf5gpdfeWbqBS8Deug6qBR/u75j5dDKO43bIZweeyUKzIwZSVZTUEbEEZhA&#xA;03sq0LWvra/V5zS4UfC384H8c2+l1PH6T9Th5sXDuOSY31lFeWzQSdDurd1bsRmTlxCcaLVCRibY&#xA;PcW8tvO8Moo6Gh/rmgnAxNF2ETYtfY3clpdRzp1Q7jxHcZLFkMJAhE48QpnUUiSxrIhqjgMp9jvn&#xA;QRkCLDryKXYUOxV2KuxV2KuxV2KuxV2KuxV2KqF9aR3ds8EnRhsfAjocry4xOJBZQlwm2MaTdyaZ&#xA;qLQT/DGx4SjsCOjf59s1WnyHFOjycvJHjjYZdm5cJbLLHEheRgiDqzGgwSkALKQLY1rHmEzAwWhK&#xA;xHZ5ehb2HgM1ep1nFtHk5WLDW5ULTy7dz2bTn4HO8Mbbch7+HtlePRylG/kylmANJarTW84IrHNG&#xA;3yIIzFBMT3ENuxDLtP1mK7s5H2W4iQtInyHUe2bnDqROJPUOFPEQfJh6qzuFG7MaD5nNKBZc5nUs&#xA;kVhYFj9iBAAPGgoB9Ob+RGOHuDrwDKXvYPPPJPM80hq7mrHNDORkbLngUKZJ5e0hYo1vJ1rK4rEp&#xA;/ZU9/mc2mj09DiPNxc2S9gnE9zBAnOaRY17FjSvyzNlMRFk00CJPJCDXtJLcRcCvurAfeRTKRq8f&#xA;ez8GXcjY5Y5EDxsHQ9GU1H4ZeJAiwwIpIPMmlLxN7CtCP79R/wAS/rmu1un/AIx8XJwZOhY/HI8U&#xA;iyRni6GqsOxGa2MiDYcki2b6Zfpe2izDZ/syL4MM32DKJxt1+SHCaSzzPp/qQi8jHxx7Se69j9GY&#xA;uuw2OIdG3BOjTGM1Tlsr8r3fq2bW7H4oD8P+q24/GubfQ5LjXc4eojRtOczmh2KuxV2KuxV2KuxV&#xA;2KuxV2KuxV2KpB5o0/kq3sY3X4ZqeHY/wzXa7D/GPi5Onn0SqPXtUjhWJJqKooDxUmnzIzEGryAV&#xA;bccMSbWJFqepSbepOR+0xPEfSdhkRHJlPUpJjFPdN8uw21JrsiSRdwv7C/f1zYYNGI7y3Lj5M5Ow&#xA;U9V8yIgMNkeUnRpv2R/q+OR1GtA2h8048HUpdYaFeXytO7emjbq71JYnv/bmLi0ssm52bZ5RHZA3&#xA;Ntc2c7RSgo4BFR0IO2x7g5ROEoGi2RkJC1bRofW1O3TsG5n5L8X8Mnpo8WQBjlNRKb+a7uiRWqn7&#xA;X7x/kNl/jmbr8mwi0aePVJ9Js/rd/HERVK8pP9Vdz9/TMLT4+OYDfklwxtlWq6nFp9vWgaVtoo/4&#xA;n2GbbUZxjj5uHjx8RYfcXNzdStLMxdu/gB7eAzSznKZsudGIAoKOQSirHULmyl5wtsftofssPcZb&#xA;izSgbDGcBIbsxs7u3v7T1FFUcFZEPY91ObvHkjkjbgyiYlh+p2TWd5JD+yN4ye6npmlz4uCRDnY5&#xA;cQtFeXr/AOrXwjY0inojezfsn+GW6PLwzroWGaFhlskaSRtG4qjgqw8Qds3JFii4QNMEvLZra6lg&#xA;brGxAPiOx+kZz+SHDIjudjGVi0Rot79Uv0djSN/gk+R7/Qcs02XgmD0YZYcUWa5vXAdirsVdirsV&#xA;dirsVdirsVdirsVaLoDQsAfc4LC0tkSKaJ42oyOCrD2OAgSFJBphMkRsNR4SKHELglWAIZevQ+Iz&#xA;RGPhzo9C54PFFkl15h063QLD++anwomyj5nNnk1kIjbdxY4ZHmkF7q1/qDiMkhGNFhjrQ/xOa7Lq&#xA;J5NvscmOOMU10ny4F4z3oBbqsPUD/W/pmZp9FW8/k05M/QJ/sB7ZsXGYl5h1NLucQxUMUJPx92bv&#xA;Q+GabWZxM0OQc3Dj4RZRPlS1JeW6I2A9NPmdz/DLuz8e5kw1EuiXa3cevqczA1VDwX5Lt+vMXVT4&#xA;shbcUaiE08pwbT3BHhGp/E/wzL7PhzLVqTyCYHRoprprq8PrOfsR/sKo6D3zJ/LCUuKW7V4pAoJg&#xA;kccahUUIo6KooPwzIAA5NZNpfqeiW15GWRRHcfsyAUqfBqZjZ9LGY22LZjymPuYfLFJFI0Ug4uho&#xA;wPiM00okGi5wNpn5dvjb3wiY/up/hI/yv2T/AAzK0eXhnXQtOeFi+5NPM9l6totyo+OA/F/qt/Q5&#xA;l67FceLuacEqNMWzUOYzjSbz63YRSk1enGT/AFl2P39c3+nyccAXX5I8JpJfNdpxliulGzjg/wAx&#xA;uPwzB1+PcScjTy2pIM1zkM40i5Nxp0MhNW48WPuu2b7Tz4oAuBkjUijMva3Yq7FXYq7FXYq7FUDf&#xA;61Y2dVduco/3Wm5+nsMx8uphDnzbIYjJIrrzRfSVEKrAvY/ab7zt+GYGTXTPLZyI6cDml0t9ezf3&#xA;s7t7FjT7sxZZZHmS2iAHRQytk4Eg1BofEYq2zu5q7Fj4k1wkk81pGaVphv5iglWMLu1d2I/yRl+n&#xA;weIaumGTJwhldjpVnZD9ylX7yNux+n+mbfFgjDk4U8hlzRbMqgsxAUbknYAZcSwY1reviRWtbQ/A&#xA;dpJR39l9vfNXqtXfpi5eLDW5SOKN5ZFjQcncgKB3JzXxiSaDkE0zNUj0vSTSn7lCSf5nP9WzeADF&#xA;j9zgfXJhRJJJJqTuTmjc9meiwra6VGZCFqDLITsBXff/AGObvTR4MYv3uDlNySXUfMlzLIUtG9KE&#xA;dGp8Te+/TMHNrZE1HYN8MAHNfpXmOdJRHeNzibb1D1X506jDg1pBqXJGTAK2ZOCCKjcHoc2ziMd8&#xA;02P2LxB1+CX/AI1P8M1mvxfxBytPPox5WKsGU0YGoPuM1wNOSzq2ljvtPV2FVnSjj3Iow+/N/CQy&#xA;QvvDr5Dhkwm5geCeSF/tRsVP0ZoZxMSQejnxNi058q3fGeS1Y7SDmn+svX7x+rM7QZKJj3tGojta&#xA;ca1bfWNNmWlWQc1+a7/qzN1UOLGWjFKpBhOaJz2UeVJeVrNF/I4b/gh/zbm27Pl6SPNxNQNwU8zP&#xA;cd2KuxV2KuxVxIAqdgOpxVjWseYndmgsm4oNmmHU/wCr4D3zV6nWE7R+bl4sPUpEqvI4VQWdjQAb&#xA;kk5rwCS5HJkGneWBQSXx+UKn/iRH8M2WHQ9Z/Jxp6juTiPS9OQUW2j27lQT95rmaMEB0DQcku9t9&#xA;N0968raLfvwUH7wMTggegUTl3oO48tabKD6YaFvFTUfc1conooHlszjnkEmvfLl9bgtGPXjHdPtf&#xA;8D/TMLLopx5bhvhnB8ksR5IpA6MUdTsw2IOYgJBsNxFptF5o1FE4ssch7MwIP00IGZkdfMDoWk6e&#xA;KCvdVvrzaaT4P99rsv3d/pyjLqJz5lnHGI8kIASaDcnoMpZsp0DRmth9auFpOw/dof2QfH3ObbSa&#xA;bh9UubiZst7BDeaNQDMtlGdl+Kanj2H8cr12b+AfFlp4dUo02za7vI4B9kmrnwUbnMLDj45AN85c&#xA;Itk+s2t9dRJa2oCxHeSRjQUHRaCp/DNtqcc5jhjycPFIA2Unl8ragickaOQj9kEg/iAMwpaCYG1F&#xA;vGoilMkckbmORSjrsynYjMIxINFvBtlHlq/M9qbdzWSD7Punb7umbbRZuKPCeYcPPCjaZ3lstzay&#xA;QN0kUivgex+g5l5IcUSO9qjKjbA5I3jkaNxR0JVh4EbZzxFGi7EG2SeVLvlFLasd0PNPkdj+ObPQ&#xA;ZNjFxdRHe0L5ptOFylyo+GUcX/1l/syrX46kJd7LTy2pKbS4a2uop16xsDTxHcfSMw8c+GQPc3yj&#xA;YpnqsroGU1VhUHxBzoQbDrWC6jam1vZoOyseP+qd1/DNBmhwTIdjCVi008pyUup4/wCZA3/Amn/G&#xA;2ZfZ8vUR5NOoGwZPm1cR2KuxV2KuxVjnmPViWNlA3wj+/Ydz/L/XNZrdR/APi5WDH1KQxRSTSLFG&#xA;vJ3NFUeOa+MSTQckmmYaRo8VjGGaj3LD438PZc3Wn0wxj+k4OTKZe5FXd9a2ic55Atfsr1Y/IZbk&#xA;yxgLJYRgZckluPNm9LeDbs0h/gP65gz7Q/mhyBp+8ob/ABXqP++4fub/AJqyr8/PuH4+LL8vFXh8&#xA;2yV/fW4I8Uan4GuWR7QPUMTpu4pnaa9ptwQvqek5/Zk+H8en45lY9XCXWmqWGQX3ukWF78UiUkP+&#xA;7U2P9DksunhPmiGSUUrfylv8Fzt4Mn8QcxD2f3FuGp8mk8pGvx3Pw+ATf8TgHZ/eVOp8k0sdGsbM&#xA;ho05yj/dj7n6OwzLxaaEOXNpnlMlDV9ditFaKEh7k7eIT3Pv7ZXqNUIbD6mWPEZbnkxJ3Z2LsSzM&#xA;asT1JOacm93NZV5c0021ubiQUmmGwPUJ1H39c2+iwcMeI8y4eedmkxtb2C69X0jUROUJ8SO49syc&#xA;eUTuujVKJHNXyxik3mPTBPb/AFqNf30I+Kn7Sd/uzB1uDijxDmG/Bko0x7TbxrO8jnH2QaOPFT1z&#xA;W4cnBIFypx4hTOVZWUMpqrCoI7g5vwbdcxbzPZeldi4UfBOPi/1x1+8ZqddiqXF3uZglYpBaPdfV&#xA;tQhkJohPB/8AVbb8OuUabJwTBbMsbiynWrT61p0qAVdBzT5r/UbZttTj44EOHilUmE5onPZh5cu/&#xA;X05UJ+OA8D8uq/htm60WTihXc4WeNSS/zXa0eG6UbMPTf5jdf45j9oY9xJs08uiA0Cb0tVhqaB6o&#xA;f9kNvxpmNpJVkDbmFxZnm8cB2KuxV2KoTVb0WdlJN+39mMf5R6fd1ynUZeCBLPHDiNMHZmZizGrE&#xA;1JPcnNCTbsGU+W9MEMH1uQfvZR8Ff2U/tzbaLBwjiPMuJnyWaRmranHYW/LZpn2iT38T7DLtRnGO&#xA;Pm148fEWHXFxNcStLMxd26k5pJzMjZc4RAFBqGCeZuMMbSN4KCf1YxgZchakgc0YugauwqLc/Syj&#xA;9Zy8aTIejDxo96yXRtUiFWtnoP5aN/xGuRlpsg6JGWJ6oNlZSVYEEdQdjlJFM1e3vry3/uJmQfyg&#xA;7fcdsnDLKPIsZQB5o+PzPqaD4iknuy/80lcyBrsg7i1nBFUPmu/ptFED3NG/5qyX5+fcEfl4oO51&#xA;zUrgFWlKIeqp8P4jfKZ6rJLqzjiiEDmO2J9oegs7LdXa0jG8cR6t7sPDNjpdJfqlycfLm6BGa/rC&#xA;28bWsDf6Q4o5H7AP8Tl2r1PCOEc2vDivc8lPynGwt55D9lnAH+xG/wCvI9nj0kp1B3Ce5sHHcQCK&#xA;HpirC9a002V2Qo/cSfFEfDxX6M0epw8EvIufinxDzTvyzf8ArWptnP7yD7Puh/pmdocvFHhPMOPn&#xA;hRtHapYi9snh/b+1GfBh0/pmRnxccSGvHPhNsIZWVirCjKaEHsRmhIp2DNtIu/rWnxSE1cDjJ/rL&#xA;sfv65vdPk44AuvyRqTFNXtPquoSxgUQnnH/qtv8Ah0zUajHwTIc3HK4ory1d+jf+kxok44/7Ibr/&#xA;AEy3RZOGdd7DPG433Mi1W0+t2EsIFXpyj/1l3H9M2eox8cCHFxyqVsIR2jkV1NHQgg+BBrmhBo27&#xA;Ai2e2twlxbxzp9mRQfl4j6M6HHMSiCOrrZCjSrk0OxV2KsX803Re6S2B+GJeTD/Kb+zNTr8lyEe5&#xA;zNPHa0t0y0+t30UJ+yTV/wDVG5zGwY+OYDbklQtnQAAoNgOgzfuuYTrF4bu/ketY1PCP/VX+vXND&#xA;qcvHMno7DFGoojRNG+usZpqi2Q0oNix8B7ZbpdNx7n6WGXLw7DmyuGGGFBHEgRB0VRQZt4xERQcM&#xA;knmpy39jE3GS4jVh1UsK/dkZZoDmQkQJ6Oj1CwkYKlxGzMaKodak/KuIzQPIhTAjo3c2drcrxniW&#xA;QeJG4+R6jDPHGXMLGRHJKJ/KlsxJgmaP/JYBh/DMKfZ8TyNNw1B6hByeVb5fsSRuPckH9WUS0E+h&#xA;DYNQFL/DOqfyp/wWR/I5E+PFVh8q3rH97KkY9qsfu2H45OOgkeZAQdQOia22j6Xpw9aVgzr/ALsl&#xA;IoD7DpmXDTY8e5+1plllLYILUvMy8TFYipOxmI/4iD/HKM+u6Q+bOGDvSO3t7i8uRGlXlkNSx3+b&#xA;E5gQhKcqHNyZSEQzSGO306xCluMUK1Zz3Pc/Sc3kRHFDyDgEmRX2d0t1bJOqlVepAPXYkZLFPjiC&#xA;iUaNK2TYqN5ZwXcBhmFVO4I6g+IyvJjExRZRkYmwx0aTqmmXa3Fsvrop/Z6le4K9c1v5fJilxR3c&#xA;rxIzFHZklvMJolk4MleqOpVgfkc2kJcQtxCKKQ+Y9JNTewLX/f6j/iX9c1+t0/8AGPi5ODJ0Kj5Y&#xA;vhFcNauaJNuns4/qMr0OWpcJ6stRCxaM802fqW6XSj4ojxf/AFW/ocv1+K48Xc16eVGmMo7I6upo&#xA;ykFT4Eb5qgaNuWQzrT7xLy0SdepFHXwYdRm/w5BOILrpx4TTGvMWnG2ujOg/czmu3QN3H09c1esw&#xA;8MrHIuXhnYpE+WNSCsbKU0DHlCT491+nLdDmr0H4MM8OrJM2jiuxV2KsE1GYzX9xJ1DO1PkDQfhn&#xA;P5pcUyfN2MBUQmvlOEG4nm/kUKP9ka/8a5l9nx3JadQdgE/v5jDZTyjYojFfnTb8c2OWXDAnycaA&#xA;sgMDVSzBQKkmgGc+A7Fn1pbJbW0cC9I1A+Z7n6TnQ44CMQHXSlZtjvmDWJWne0gYrGm0jDqzdx8h&#xA;mt1mpJPCOTk4cQqykYBJoOua9yGVaRo8VlD9bugDOFLb9EAFfvzb6fTDGOKXP7nDyZeI0Elv9bvb&#xA;qUlZGiir8EaEjb3p1OYOXVTmedByIYgAyHy+tx+jlknkZ2lJZeRJovQdfvzZaMHgsnm4uauLZMXV&#xA;mRlVuLEEBhvQ+O+ZJGzUGK3Wr67aTNDNIOS9CUWhHiNumajJqM0DRLmRxQkLCFfXdWcUNww/1Qq/&#xA;qAyo6rIerMYo9yDklllblI7O38zEk/jlMpE82wABGafo95ekFF4Q95W6fR45dh00p8uTXPKIsmgt&#xA;tP0i1LEhR+3K32mPh/Zm1hCGGLiGUpljeravLfyUFUt1PwR+Pu3vmr1GoOQ+Tl48Qj72UaRE0WmW&#xA;6N14A/8ABb/xzbaeNYwHDyG5Fjt/rGpxX1xGk5CJIwUUXYV2HTNZm1OQTIB6uVDFEgbJroOsm7Uw&#xA;XB/0hd1bpyX+ozM0mp49j9TTmxcO45Jxma0OxVxAIodweoxVjuqeXpI5PrOnjoeRiHUEb1X+mazP&#xA;oyDxQ+TlY817STPT7uPUbJklWklPTuIzsQSKdPfMvDkGSFHn1aZx4TsxO/s5LO6eB/2d0bxU9Dmn&#xA;zYzCVFzYS4havo+qPYXHxVaB9pF/42HuMs02c4z5McuPiHmyyaK2v7QqSHhlFVYfgR8s3EoxyRro&#xA;XCBMSwy9s57G6MT1DKao42qOxGaPLjOOVFz4yEgybRNZS8jEUxC3Kj/gwO49/HNppdTxij9TiZcX&#xA;DuOSa5mNLsVeeEkmp6nOadmyTylT0rnx5L+o5tOz+RcXU8wmOu/8cm4+Q/4kMydV/dlqxfUGI6eA&#xA;b+2B6GVAf+CGabD9Y94c2f0lnmdC65gN3y+tTcvtc2r86nOdyfUfe7KPIIvQIFl1SINuEq9PdRt+&#xA;OXaSN5AwzGoso1bl+jLnj19Nvupv+GbbUf3Z9zh4/qDBs0DsGe2HH6jb8enpJT/gRnQ4foHuddPm&#xA;VfLGKjc2dtdJwnjEijpXqPkRuMhPHGYoi2UZEckAfLWl1+y49uRzH/JY2zx5KqaVpFoPUMaKB+3K&#xA;a/8AEjTJDT4ob180HJKSFvvM1pCClsPWf+bog/icqy66I2juyhgJ5sdvL65u5PUncsR9kdAPkM1m&#xA;TLKZsuVGAjyVdJ09r27WOn7pfilbwXw+nJ6fDxyrojJPhDNwABQbAdBm+dewbVlddSuQ4oTIxHyJ&#xA;qPwzQagEZDfe7DH9IQ8UskUiyxtxdDVWHiMrjIg2GZFs10vUo762Eg2kXaVPA/0ObzBmGSN9XAyQ&#xA;4SjMva3Yq7FWhGgcuFHMiham9PngoXa2gNZ0pb+3+GguI9428f8AJPzzH1ODxB5tuLJwnyYbJG8b&#xA;sjqVdTRlPUHNIQQaLnA2mWjay9k/pyVa2Y7jup8RmVptSYGj9LVlxcXvZFqNhb6naDiwLU5Qyjfr&#xA;/A5ss2IZY/c4sJmBYfJHcWtwUcGOaM/IgjoQc0somBo7EOcCCGRaT5jjlCw3hCS9Fl6K3z8Dmy0+&#xA;tB2lzcXJgrcJ5mwcd57IhR2Q9VJB+jObIo07MFPfKcoE1xF3ZVYf7E0/42zYdny3IcfUjYFOtXj9&#xA;TTLlf8gt/wADv/DM7UC8Z9zj4zUgwmGQxTJIOqMGH0GuaKJoguwIsPQFZXUMpqrAEH2OdEDbrGHe&#xA;YLYwanIafDL+8X6ev41zS6uHDkPm52GVxWaHcCDU4Wb7LHgf9kKD8cjpZ8OQJyxuJZo6K6MjCqsC&#xA;rD2O2bwixTgAsDvLV7W5kgfqhoD4jsfpGc/kxmEiC7KMrFsk8tX6zWv1Vj+9h6e6E/w6Zs9FluPD&#xA;1DiZ4UbTnM5oW+pH6np8h6lOXCu9OlaYLF11TSA1W21WQcrK4Kim8Oy/8C1P15jaiGQ/Qfg2Y5RH&#xA;MMUvI75ZP9LEnPxkqfuJzUZBMH1W5kSOihlbJMLHQ766YEoYou8jim3sOpzJxaWc/INc8oDK7Gxg&#xA;soBFCPdmPVj4nNxixCAoOFOZkbKTa1qeqWl+tKJAN4wN1cd+WYOpz5IT8nIxY4yiqyx2eu2vqRUj&#xA;vIhSh7ex8V8DkpCOojY2kGIJxnfkxqaGWGVopVKSIaMpzWSiYmi5YNq1hfTWVws0XbZl7MPA5PFl&#xA;MJWGM4CQpmlneQXcAmhNVPUdwfA5vMeQTFhwJRMTRV8sYuxV2KuxVAapo1vfLyP7ucfZlA/Bh3zG&#xA;z6aOTyLbjymPuYte6TfWhPqxkoP92Luv39vpzVZdPOHMOXHIJIjRtZeyf0patbMdx3U+IyzTakwN&#xA;H6WOXFxe9kV9p1lqUKuSKkVjmXrQ/rGbLLhjlF/a4sJmBSCfyzqUbUjCzL2KkKfpDUzXT0OQct3J&#xA;GeJRukxeYLUiNouVv/K7rt/q7kjMjTxzQ2r0teQwPvSrW7cwanOtNnbmvybf9eYeqhw5C3YjcQt0&#xA;e6FtqMMhNEJ4P8m2/Drg02ThmCnLG4s2dVdGRt1YEH5HN6RbrwwCeFoZpIm+1GxU/QaZzs48JIdk&#xA;DYtlPlu/E9n9XY/vYNh7p2P0dM22iy8UeHqHEzwo33rvMOnm6s/UQVmgqwHiv7QyWsw8cbHMIwzo&#xA;sRzSuazPRdRF7Zgsf38fwyj9TfTm80ubjj5hwcsOEofzFphuYPrMQrNCNwP2k6/hleswcQ4hzDLB&#xA;ko0WMW1xLbTpNEaOhqP6HNVCZibDlyiCKLOLS8iubVLlTRGFWHgR1B+Wb7HkEo8Tr5RINMTiur26&#xA;1gTQEieR/gr0C+B9gvXNPHJOeWxzLmmIEaLK/r9qLr6o0gFxQHj0rXsPf2zb+LHi4b3cLgNX0RBA&#xA;IodxlrFaEjXcKB70AwUE2pvdwBZCjiRo1LtGhDNQe1cicg3rekiJYnqGuXd3IKExRKQURT3G4JPf&#xA;NNm1UpnuDmwxCKfwm31rSwJNn6MR1Vx3GbGJjnx7/guMbxyY0frmlX38ssf/AALKf1g5rPVhn5uV&#xA;tMJ7JFZ67aerHSO7jFD4g+DeK+BzPMY6iNjaQccE4zXRjdxbTW8rRTKUdeoP6xmsnAxNFyoyBFhW&#xA;07UZ7GcSRmqnaSM9GGTw5jjNhE4CQZjZX1veQiWFqj9pT1U+BGbvFljMWHAnAxNFEZYxdirsVdir&#xA;sVQ02l6fMayW6EnqQKH7xTKpYIS5gMxkkOq+1s7e1jMcClEJrx5M2/8AsicljxxgKCJSJ5q2TYux&#xA;VIfNNkXhju1G8fwSf6p6fcc1+vxWBLucnTy3pjOapyma6LfC7sUJNZYxwlHeo6H6c3uly8cPMOBl&#xA;hwlKfM+nFZRexj4Hosvs3QH6cw9dho8Yb8E+iT2d3LaXCTxH4l6jsR3BzCx5DCVhvlEEUzayvYby&#xA;3WaI7H7S91Pgc3uLKJiw6+cTE0WN6/pBtpDcwr/o7n4gP2GP8Dms1en4TxDk5WHJex5oDTr6Wyul&#xA;mTcdHT+Ze4zGw5TCVhtnDiFM2t54riFJojyjcVBzfQmJCw68gg0WLeYNL+qT+tEP9HlOwH7Ldx/T&#xA;NRrMHAbHIuZhyWK6qvl+5Y295aV3aNpIx70of4ZPRz9Mo+SM0dwXeVIQ13LKesaUHzY/2Y6CNyJ7&#xA;l1B2pAMsl/qzKD8U0pofBa/wGY5ByZPeWz6Ypx5p9SOO2ZHZaclNCRXpSuZuvsAU0afe1PSne+0a&#xA;7tHYvIm6VNTuKqP+CXI6cnJilEpyDhmClWlXf1W/ilJoleL/AOq2x/rmHp8nBMFuyRuNK2u6f9Uv&#xA;TwFIZfjjp0HiPoyeqw8E9uRRhnxB2h6j9TvAHNIJaLJ7eDfRh0ubglvyK5YcQZJq+lx39vQUWZN4&#xA;n/gfY5s9RgGQebiY8nCWJW891p93yUFJYzxdD38Qc08Jyxy8w5pAkGTgafrlnUjjIux/nRv4jNr6&#xA;M8fP7nE9WMsb1DTLqxk4yisZ+xKPsn+3NXmwSxndyoZBJStLy4tJhLA3Fh1HYjwIyOPJKBsMpREh&#xA;RZZpmt216AjUiuO8Z7/6p75t8GqjPbkXCyYjH3JjmU1OxV2KuxV2KuxV2KuxVbNEksTxSCqOCrD2&#xA;OCUQRRSDTBr+yks7p4H7bq3ip6HNBlxGEqLsIS4ha7TtQlsbgSpup2kTsww4cxxysLOAkKZlHJbX&#xA;1pyWkkMooQfxBzdxlHJHyLgEGJYlq+lSWE/doHP7t/4H3zTajTnGfJzceTiHmp6bqU9jPzTdDtJG&#xA;ejD+uRw5jjNhM4CQZjBPbXttzQiSJxRlP4gjN3CcZxsbhwSDEsY1nRHs2MsNWtm+kofA+3vmq1Ol&#xA;MNx9Ll4svFsebtB1b6pN6Mp/0eU7k/st4/1x0mo4DR+krmx8Qsc2UXlrFdWzwSfZcbHwPYjNtkxi&#xA;cSC4kZUbYzocMkGtiGQUZQ6uPkDmq0sTHLR83Lym4Wm2kac9le3ilT6TcTC3YrU7fMZmafCYTl3d&#xA;GjJPiAS/y3aFdSnZh/vOCnyYmn6gcxtFj/eHybc8vSPNG+akrp8bd1lH3FTl+vHoHva9OfUlvlef&#xA;hqDRnpKhAHuu/wCquYuglU6727UD0oHVbb6vqE8QFFDEr/qtuP15RnhwzIZ45XEFPVjGraCgG9xC&#xA;KKf8tNqf7IZsBHxsPmHHvgn5MYIIND1zUuWyzy7qP1m19CQ1mgFN+6dj9HTNzo83FGjzDh54Ubdr&#xA;2j/W4/XhH+koNwP2wO3z8MGr03GLH1Lhy1seTG7K9nsrgSxGhGzKehHgc1mLKYSsOVOIkKLMLS6t&#xA;NStCQAynaSJt6HwObrHkjli4MomBSbUvLLrWWyPJephPUf6p75g59CRvD5ORDP3pCyvG5VgUdTuD&#xA;sQc15BBcjmnGneZbiCkd0DNH/P8Atj+uZuHWyjtLcNE8APJkVpf2l2vKCQN4r0YfMZs8eaM+RcWU&#xA;DHmiMsYuxV2KuxV2KuxV2KoDWNLW+t/hoJ03jb/jU/PMbU4PEj5tuLJwnyYZJG8bsjqVdTRlPUHN&#xA;IQQaLnA2j9H1V7GejVNu5/eL4f5Q98yNNqDjP9Fry4+IebLZYra8tuLUkhlFQR4HoQc3MoxnHvBc&#xA;IExLDtT0yawm4t8UTf3cnYj+uaTPgOM+TnY8gkGtN1Kexn5puh2kjPRh/XBhzHGbCzgJBmNtc217&#xA;bCSMh43FGU/irDN3CcZxscnBlExLG9b0M2pNxbgm3P2l6lP7M1mq0vB6o/S5WLLex5o/y5qvqp9T&#xA;mP7xB+6Y91Hb6Mv0WoscJ5tefHW4TIWEQ1E3o+2Y+BHvX7X3bZl+EOPj8mrj9NIrLWChDZxQ3E8y&#xA;bGfiXHutd/prlccYjIkdWRlYA7kH5jXlpMp/lKn/AIYD+OU60fuyzwfUxnSpfS1G3foOYBPs2x/X&#xA;mqwSqYPm5mQXEpp5rt+M0NwBs6lG+a7j9eZfaENxJp08tiFvlW74XElsx2lHJP8AWXr+H6sGgyVI&#xA;x711EdrUvMmn/V7v10H7qepPs/f7+uQ1uHhlY5FlgnYruS+wvJLO6SdN+J+JfFT1GY2LIYSBDZOP&#xA;EKZzDLHNEksZqjgMp9jm/jISFh15FGkh8w6P9q9t1950H/Eh/HNfrNN/HH4uThy9Ck1hfz2U4liO&#xA;3R0PRh4HMHDmMDYb5wEhRZlY30F5AJoTt0ZT1U+BzeYsomLDgTgYmi1e6bZ3i0njBYdHGzD6cGXD&#xA;GfMJjMx5JBe+V7mOrWriVf5G+Fv6HNdl0Eh9O7kR1APNKXjurWUc1eGUdCaqfozDMZQO+xbwQQml&#xA;j5muoqJcr66fzdH/AKHMvFrpDaW7TPADyZRG/ONX4leQB4tsRXsc2wNi3EIXYUOxV2KuxV2KuxVK&#xA;ta0VbxTNCAt0o+hwOx9/DMPVabj3H1N2LLw7HkxJ0dHKOCrKaMp2IIzTkVsXNBTfQdZ+quLec/6O&#xA;5+Fj+wT/AAzM0mp4Dwn6WnNivcc2TXNtBdQmKZeUbf51BzazgJii4kZEGww7VdKmsJqH4oW/u5PH&#xA;2Pvmlz4DjPk5uPIJBbpupT2M/NN0O0kZ6MP65HDmOM2EzgJBmdvcQXduJYyHikHQ/iCM3kJicbHJ&#xA;wZAgsa1fTZNNuUu7XaHkCv8AkN4fI5q9RgOKXFHk5WOfEKLJbWdbi3jnXpIoanhXtm0xz4og97iS&#xA;FGlXJodiqC1teWlXI/ya/cQco1Q/dlsxfUGEqxVgw2INQc0QLnsv12IXOkNIoqUCyr8u/wCBzc6q&#xA;PFiv4uFhNSYrZ3DW11FOvWNgaeI7j7s1GOfDIHucyUbFM0v7SO+smir9sco28D1U5vcuMZIU4EJc&#xA;Jtg7o0bsjijKSGHgRmgIo0XYAp/5Y1GhNlIdjVoSfHuv8c2OhzfwH4ONqIdWR5s3FYnr2j/VZDcQ&#xA;D/R3O4H7DH+BzT6vTcB4h9Lm4ct7HmgtO1GexnEkZqp2kjPRhlGHMcZsNk4CQZlZ3kF3AJoTVT1H&#xA;cHwObvHkExYcCUTE0VfLGKTa5rNtDG1uirNOdiGAZV+fv7Zg6rUxiOEblvxYid0B5d0ozSi7mH7q&#xA;M/uwf2mHf5DMfR6fiPEeTbnyVsGUZtnDdirsVdirsVdirsVdiqVazoiXqmWKiXKjr2cDsf65ianS&#xA;ie4+puxZeHY8mJSRvG7I6lXU0ZT1BzTEEGi5oNsg8vaz9myuG9oHP/ET/DNjo9T/AAS+DjZsXUJ9&#xA;c28NxC0My8kYUI/iM2M4CQouNGRBsMK1PTpbG5MT7od438Rmiz4TjlTn458QRGiaobK54uf9HkNJ&#xA;B4H+bLNLn4Jb/SWOXHxDzZbPBFcQPFIOUcgof6jNzOIkKPJwgaNobR7ea3s/q8vWJ3VT4rWoP01y&#xA;rTQMY8J6M8pBNo3L2t2KobUxXTrof8VOfuUnKs/0S9xZ4/qDBM592DOLALPpMKturwhG/wCB4nN9&#xA;h9WMe5wJ7SPvYTIjRyNG32kJU/MGmaKQo054Nsx8v3Pr6ZGCatFWNvo6fhTN1o58WMeWzg5o1JKv&#xA;M+n8JVvIx8Mnwy+zDofpGYmuw0eIdW7Tz2pJI5HjkWRDxdCCpHYjMCJINhyCLZxp16l5aJOuxOzr&#xA;4MOozf4conG3XzhwmleSNJY2jkUMjijKe4OWSiCKLEGmG6vpb2E9BVoH3jf+B9xmj1GA4z5Odjyc&#xA;Q81LTdRmsZ/Uj+JDtJGejD+uRw5jjNhM4CQR+o+ZLidTHbAwRnq1fjP09syM2tlLaOwa4YAOaF0j&#xA;S5L+feogQ1lf+A9zlWnwHIfJnkycI82ZRxpHGscahUUUVR2AzdgACg4JNrsKHYq7FXYq7FXYq7FX&#xA;Yq7FUr1nRkvU9WKi3KjY9mHgcxNTphMWPqbsWXh9zEXSSOQo4KupoQdiCM0xBBouaDbK9B1f63F6&#xA;Ex/0iMbE/tL4/PxzcaTUcYo/U4ebHw7jkjNU09L61aI0Eg3ifwb+3Ls+EZI01458JthDo8bsjji6&#xA;khgexGaEgg0XYA2y3y5em4sfSY1kt6L/ALE/Z/pm40WXihXUOFnhR96a5mNLsVdiqjeAmznA6mN/&#xA;+InIZPpPuZR5hgOc67FmmgNy0i3Psw+5yM3mkP7sODm+osb16D0tUmA6OQ4/2QqfxzWauNZC5WE3&#xA;EI7ypc8bia3J2dea/Nf7Dl/Z8/UYteojtbIbq2jubeSCT7LilfA9j9GbLJASiQXGjKjbBLiCSCd4&#xA;ZBR0NDnPzgYmi7CJsWmPl/Ufqt36bmkE1FbwDdjmTpM3BKjyLXmhYZfm6cFKvMN5aRWTQSgSSyD9&#xA;2ncH+b2pmHrMkRGjuS3YYkm2IZpnNR2maXPfy0X4YlP7yTsPYe+X4MByHyYZMgiGZW1tDbQrDCvF&#xA;F6f1ObuEBEUHAlIk2VTJodirsVdirsVdirsVdirsVdirsVSvW9GW8jMsQAuUGx/mA7H+GYmq03GL&#xA;H1N2LLw7HkxSOSa2nDoSksTfSCOxzTxJibHMOYQCGa6bfx3tqsy7N0kXwbuM32HKJxtwJw4TSR+a&#xA;LEJMl2g+GT4ZP9YdD9IzX6/FR4h1cjTz2pQ8sTmPUvT7TIRT3HxfwyGhlU672WcellubhwnYq7FV&#xA;O5/3nl/1G/VkZ/SUx5vP85x2TMfLn/HJi+bf8SObvRf3YcHP9SW+bIaTwTfzqUP+xNf+Nsxe0I7g&#xA;t2nOxCV6VcehqMElaDmFb5N8J/XmJp58MwW3ILiWc5v3Xsf80afVVvYxutFmp4dj/DNdrsP8Y+Lk&#xA;6efRjeatyk7XzPcJZJEqVuFHEytuKDoaeOZ410hCuve0eALvok8ssksjSSsXdt2Y7nMKUiTZbwKT&#xA;HSdDnvSJJKx2w6v3b2X+uZOn0pnudotWTKI+9lkFvDbxLFCoRF6AZuIQERQcIkk2VTJIdirsVdir&#xA;sVdirsVdirsVdirsVdirsVSDzHpPNTewL8a/3yjuP5vo75rtbp79Y+Lk4MnQpXoeomzvByP7iWiy&#xA;e3g30ZiaXNwS8i3ZYcQZVqVqLqxlh6sy1T/WG4zb58fHAhw8cqNsS0UkarbePOn3gjNPpv7wObl+&#xA;ks2zeuvdirsVU7n/AHnl/wBRv1ZGf0lMebz/ADnHZMy8uimkQnxLn/hyM3ejH7sODm+oqPmiLnpy&#xA;v3jcH6CCMhr43C+4stOfUxTNO5jPbOcTWkMxP20DMfem+dFjlxRB8nXSFGkr1jXbNYJLaKk7upVi&#xA;Psiop17/AEZianVRAMRu3YsJuzsxXNQ5apDDLNII4kLueiqKnJRiZGgpIHNkWmeWkjpLe0d+ohG6&#xA;j/W8c2eDRAbz+Ti5M97BPgAAABQDoM2DjOxV2KuxV2KuxV2KuxV2KuxV2KuxV2KuxV2KuIBBBFQe&#xA;oxVhetaf9SvCqj9zJ8UXy7j6M0epw8EvIufinxBkWgXpubBQxrJD8De4HQ/dmy0mXih5hxc0aklF&#xA;vaen5n9ICiq7OPYFSw/XmHDHWorzb5SvGynNs4bsVdiqnc/7zy/6jfqyM/pKY83n+c47Jm2j8YtJ&#xA;tyxCqE5Ek0G5r/HN7ptsYcDJvIoPWtX057OW2WT1ZHFAE3AIIINemU6rUQMTG7LZixyu2K5qHLVm&#xA;u7poFgMreiv2Y67da9Mmckqq9kcIu1sNvPO/CGNpG8FFcEYGRoC1MgOadWXlaZ6Ndv6a/wC+0oW+&#xA;/oMzsWgJ+rZonqB0ZBa2VrapwgjCDue5+ZzY48UYCgHGlInmrZYxdirsVdirsVdirsVdirsVdirs&#xA;VdirsVdirsVdirsVS3zBZi4092A/eQ/vF+Q+0PuzF1mPih5htwyqSUeVZyl68NfhlStPdTUfhXML&#xA;QTqZHe36gbWngsv9zBu6fCYeNf8AK5f0zYeF+94vJx+L015o3L2t2KuxVRviBZXBPQROf+FOV5fo&#xA;PuZQ5hgOc87FWL3U4VKvKEACJuwAGwAGTuUttyigFeLR9Tl+zbuPdhx/4lTLI6bIejE5YjqjoPKt&#xA;4+80iRDwFWP8B+OZENBI8zTWdQOiZ23lnToqGTlM3+UaD7hmVDQwHPdplnkU0iiiiThEioo/ZUAD&#xA;8My4xAFBqJJXYUOxV2KuxV2KuxV2KuxV2KuxV2KuxV2KuxV2KuxV2KuxV2KuIBBBFQdiMVYlpERg&#xA;8wLD/I0i/QFbNNp48Oave5uQ3C2W5uXCdirsVdirTKrKVYBlYUZTuCD2OAi1Uks7NPsQRr8kUfwy&#xA;IxxHIBkZHvVgABQCg8MmxdirsVdirsVdirsVdirsVdirsVdirsVdirsVdirsVdirsVdirsVdirsV&#xA;dirsVSa3sz/iS4mp8CoGB93AH8DmDDH+/J8m8y/dgJzmc0OxV2KuxV2KuxV2KuxV2KuxV2KuxV2K&#xA;uxV2KuxV2KuxV2KuxV2KuxV2KuxV2KuxV2KuxV2KuxV2KrR6fNqU50HKnWm9K4NrSuwodirsVdir&#xA;sVdirsVdirsVdirsVdirsVdirsVdirsVdirsVdirsVdirsVf/9k=</xmpGImg:image>
               </rdf:li>
            </rdf:Alt>
         </xmp:Thumbnails>
         <xmpTPg:MaxPageSize rdf:parseType="Resource">
            <stDim:w>128.000000</stDim:w>
            <stDim:h>128.000000</stDim:h>
            <stDim:unit>Pixels</stDim:unit>
         </xmpTPg:MaxPageSize>
         <xmpTPg:NPages>1</xmpTPg:NPages>
         <xmpTPg:HasVisibleTransparency>False</xmpTPg:HasVisibleTransparency>
         <xmpTPg:HasVisibleOverprint>False</xmpTPg:HasVisibleOverprint>
         <xmpTPg:PlateNames>
            <rdf:Seq>
               <rdf:li>Cyan</rdf:li>
               <rdf:li>Magenta</rdf:li>
               <rdf:li>Yellow</rdf:li>
            </rdf:Seq>
         </xmpTPg:PlateNames>
         <xmpTPg:SwatchGroups>
            <rdf:Seq>
               <rdf:li rdf:parseType="Resource">
                  <xmpG:groupName>Grupo de muestras por defecto</xmpG:groupName>
                  <xmpG:groupType>0</xmpG:groupType>
               </rdf:li>
            </rdf:Seq>
         </xmpTPg:SwatchGroups>
         <dc:format>image/svg+xml</dc:format>
      </rdf:Description>
   </rdf:RDF>
</x:xmpmeta>
                                                                                                    
                                                                                                    
                                                                                                    
                                                                                                    
                                                                                                    
                                                                                                    
                                                                                                    
                                                                                                    
                                                                                                    
                                                                                                    
                                                                                                    
                                                                                                    
                                                                                                    
                                                                                                    
                                                                                                    
                                                                                                    
                                                                                                    
                                                                                                    
                                                                                                    
                                                                                                    
                           
<?xpacket end="w"?>
  </metadata>
</svg>