<?xml version="1.0" encoding="utf-8" ?>
<svg xmlns="http://www.w3.org/2000/svg" xmlns:xlink="http://www.w3.org/1999/xlink" width="82" height="40">
	<path fill="#F5C889" transform="translate(0.266701 0.389301)" d="M0 19.500698C1.2681237 16.250698 6.9246755 0.4506979 9.8569613 0.020697888C13.477315 -0.049302112 68.190651 0.080697887 71.706993 0.080697887C75.635376 1.6306978 81.071907 17.140697 82 19.800697C73.627182 42.320698 71.911018 38.560699 69.830811 39.290699C68.102646 39.290699 10.737047 39.140697 9.908967 39.070698C7.5767393 37.7407 4.6524539 34.120697 0 19.500698" fill-rule="evenodd"/>
	<path fill="#1A1D26" transform="translate(0.814754 1.17)" d="M0 18.780001C1.1721144 15.8 5.8925748 3.5999999 8.6048393 0.56999999C8.9568739 0.17 9.3409109 0 9.7289495 0C15.837545 0 62.542103 0.51999998 70.48288 0.56999999C71.238953 0.56999999 71.983025 1.1 72.619087 2.1199999C75.379356 6.5700002 77.955605 10.98 80.791885 18.84C72.419067 41.360001 71.042931 37.599998 68.96273 38.330002C67.234558 38.330002 10.985072 37.919998 10.156991 37.18C5.412528 34.799999 0 18.780001 0 18.780001Z" fill-rule="evenodd"/>
	<path fill="#F5C889" transform="translate(27.0002 6)" d="M27.89068 9.0237684L26.204172 9.0237684C25.761913 5.0415344 22.155657 2.049964 18.045618 2.5072062C12.01736 -2.893239 2.3436875 0.95878434 1.6750782 9.0237684L0 9.0237684L0 13.945643L1.6971172 13.945643L2.2997735 22.382504C2.4218359 24.091377 3.8594608 25.430019 5.572711 25.430019L5.8460393 25.430019C6.2111874 26.843691 7.4973283 27.890957 9.0234375 27.890957C10.549547 27.890957 11.835688 26.843691 12.200836 25.430019L15.689734 25.430019C16.054937 26.843691 17.341022 27.890957 18.867188 27.890957C20.393297 27.890957 21.679438 26.843691 22.044641 25.430019L22.317968 25.430019C24.031164 25.430019 25.468788 24.091377 25.590906 22.382504L26.193562 13.945643L27.89068 13.945643L27.89068 9.0237684L27.89068 9.0237684ZM24.550531 9.0237684L13.183844 9.0237684C13.583117 6.2447143 15.979414 4.1018939 18.867188 4.1018939C21.754961 4.1018939 24.151258 6.2447143 24.550531 9.0237684L24.550531 9.0237684ZM16.042906 3.0232921C13.610734 4.0341358 11.831696 6.3091359 11.530203 9.0238237L3.3221562 9.0238237C3.9377189 2.8523936 10.94986 -0.39336407 16.042906 3.0232921ZM1.640625 10.664393L26.25 10.664393L26.25 12.305018L1.640625 12.305018L1.640625 10.664393ZM9.0234375 26.250332C8.1187973 26.250332 7.3828125 25.514347 7.3828125 24.609707C7.3828125 23.705065 8.1187973 22.969082 9.0234375 22.969082C9.9280777 22.969082 10.664062 23.705065 10.664062 24.609707C10.664062 25.514347 9.9280777 26.250332 9.0234375 26.250332ZM18.867188 26.250332C17.962547 26.250332 17.226562 25.514347 17.226562 24.609707C17.226562 23.705065 17.962547 22.969082 18.867188 22.969082C19.771828 22.969082 20.507812 23.705065 20.507812 24.609707C20.507812 25.514347 19.771828 26.250332 18.867188 26.250332ZM22.317968 23.789394L22.044641 23.789394C21.679438 22.375721 20.393353 21.328457 18.867188 21.328457C17.341078 21.328457 16.054937 22.375721 15.689734 23.789394L12.200836 23.789394C11.357282 20.52384 6.6915627 20.516129 5.8460393 23.789394L5.572711 23.789394C4.7160859 23.789394 3.9972734 23.120129 3.9362421 22.26569L3.6935391 18.867519L24.197195 18.867519L23.954437 22.265636C23.893353 23.120073 23.17454 23.789394 22.317968 23.789394L22.317968 23.789394ZM24.314337 17.226894L3.5763438 17.226894L3.341953 13.945643L24.548727 13.945643L24.314337 17.226894Z"/>
</svg>
