<?xml version="1.0" encoding="utf-8" ?>
<svg xmlns="http://www.w3.org/2000/svg" xmlns:xlink="http://www.w3.org/1999/xlink" width="227" height="73">
	<path fill="#9C9C9C" transform="matrix(-4.37114e-08 1 -1 -4.37114e-08 226 -0.000831604)" d="M6.3362765 130.97035C7.0035653 131.65573 6.8514371 131.98111 6.3224468 132.64572C4.8945179 134.4388 3.3836105 136.21455 2.2806826 138.20494C0.50700831 141.40685 0.15434796 145.02414 0.022964681 148.62067C-0.049641863 150.62489 0.057539225 152.64642 0.23732686 154.64374C0.38253996 156.29834 0.65222138 157.95987 1.0394562 159.57295C1.9695115 163.46024 4.3344102 166.51331 6.9032993 169.28946C5.7208495 170.79868 4.4830809 172.23175 3.4112701 173.78252C0.92536032 177.37904 0.17509268 181.52942 0.040251955 185.77324C-0.046184409 188.57709 0.22349705 191.39822 0.43440178 194.20206C0.67296612 197.35898 1.865788 200.21127 3.6290896 202.79704C4.6490388 204.28549 5.8626051 205.63895 6.8064904 206.8228C5.2679234 209.02432 3.6048875 211.06662 2.3152571 213.32355C0.5381254 216.44238 0.18892249 219.99736 0.02987959 223.51775C-0.0081524085 224.34158 0.022964681 225.16888 0.057539225 225.99619L1.6375959 225.99619C1.630681 224.78119 1.6617981 223.56274 1.7344047 222.35121C2.0663202 216.83006 4.2030272 212.04277 8.0615463 208.16933C10.84134 210.95239 13.565814 213.68008 16.335236 216.45276C14.79321 217.96545 13.548527 219.78967 12.825918 221.93929C12.369534 223.29274 12.148257 224.64619 12.162087 225.99619L13.648793 225.99619C13.572729 222.9362 14.827785 219.82774 17.576462 217.67122C20.30785 220.40929 22.980463 223.08852 25.587383 225.70543C25.490574 225.79889 25.390308 225.90273 25.293499 225.99619L27.983398 225.99619C33.909477 220.06659 39.863213 214.10585 45.844608 208.12086C48.57254 210.84509 51.279728 213.552 53.924679 216.19661C50.640099 219.47121 47.379719 222.72505 44.098595 225.99619L46.829983 225.99965L47.023602 225.70197C47.072006 225.62927 47.141155 225.4735 47.255249 225.35927C49.678925 222.92581 52.109516 220.50275 54.526276 218.06583C54.916969 217.66776 55.238514 217.40121 55.739845 217.93776C57.772827 220.1116 59.131607 222.56583 59.131607 225.64311C59.131607 225.76773 59.097031 225.87505 59.093575 225.99619L60.690918 225.99619C60.690918 224.39005 60.331345 222.78389 59.598362 221.23312C58.827351 219.59583 57.797028 217.97929 56.538517 216.68814C50.574406 210.56816 44.492744 204.55896 38.449116 198.51859C38.175976 198.24513 37.844059 198.02705 37.640068 197.86436C40.502842 194.99475 43.248062 192.24631 46.020939 189.46669C52.0784 195.53476 58.35368 201.69974 64.47683 208.0101C67.412209 211.03894 69.559288 214.62854 70.454773 218.83429C70.745193 220.19121 70.880035 221.58621 71.028709 222.96736C71.139343 223.97466 71.246529 224.98889 71.225784 225.99619L72.712486 225.99619C72.695198 224.50081 72.639885 223.00197 72.494667 221.51352C72.311424 219.58891 71.982964 217.65045 71.453972 215.79161C70.458229 212.28508 68.159019 209.54355 65.953163 207.09279C67.484818 204.89818 69.161682 202.86627 70.423653 200.6059C72.155838 197.51474 72.632965 194.02206 72.715942 190.519C72.774719 188.15823 72.632965 185.79056 72.518867 183.42979C72.408234 181.12096 71.893074 178.88135 70.949188 176.76981C69.697586 173.97983 67.975777 171.50137 65.773376 169.43138C66.288536 168.8083 66.724174 168.20946 67.228966 167.67638C71.194664 163.44293 72.636421 158.27487 72.726318 152.63605C72.757431 150.52106 72.612221 148.40605 72.525787 146.29106C72.408234 143.36954 71.830833 140.51724 70.364876 137.99379C69.057961 135.75072 67.429497 133.69803 65.939331 131.55534C66.530556 130.87689 67.263542 130.07034 67.958488 129.23267C70.610359 126.04113 72.114349 122.33383 72.494667 118.23539C72.657166 116.4977 72.715942 114.74963 72.722862 113.00156L71.19812 113.00156C71.19812 113.18156 71.225784 113.35809 71.222328 113.53809C71.080566 118.50885 70.268066 123.32729 67.21859 127.47074C66.395721 128.59227 65.514069 129.67227 64.698105 130.72112C61.880283 127.89305 59.155807 125.15844 56.483196 122.47576C57.451283 121.13961 58.657936 119.86922 59.404747 118.36693C60.296768 116.57039 60.722034 114.77732 60.690918 113.00156L59.086658 113.00156C59.086658 113.1054 59.114319 113.19887 59.110863 113.30271C59.024426 115.84693 58.170433 118.135 56.351814 119.99038C56.127079 120.21884 55.836651 120.40923 55.691441 120.67922C55.338779 121.32653 55.031067 121.2123 54.588512 120.7623C52.071484 118.22154 49.533714 115.69463 47.002857 113.16079L46.829983 113.00156L44.098595 113.00156C38.310814 118.79616 32.796177 124.58729 27.015312 130.37497C24.349615 127.70959 21.625141 124.9819 18.966358 122.31999C22.046949 119.23231 24.882063 116.10654 27.983398 113.00156L25.293499 113.00156C22.610516 115.68771 20.21104 118.34615 17.541887 121.02192C14.966083 119.1423 13.634963 116.12039 13.669538 113.00156L12.148257 113.00156C12.113683 115.79501 13.036823 118.60231 14.990285 120.68269C18.471941 124.40037 22.105726 127.97266 25.663446 131.62111C28.764784 134.80573 31.852291 138.00417 34.836075 141.08147C32.263729 143.65685 29.573828 146.34991 26.593502 149.3372C26.545097 149.24028 26.437918 148.81451 26.171694 148.54797C20.826468 143.16531 15.529648 137.73071 10.070328 132.46573C7.3423958 129.83496 4.9774971 126.99305 3.5633981 123.49345C2.7889283 121.58961 2.3532889 119.53 1.941852 117.50154C1.6445109 116.04078 1.6064788 114.49348 1.6375959 113.00156L0.057539225 113.00156C0.10248613 115.01617 0.24769922 117.03424 0.44477412 119.04192C0.90461558 123.73576 3.0931842 127.64036 6.3362765 130.97035L6.3362765 130.97035ZM26.963449 224.36928C21.324343 218.76506 15.692148 213.00854 9.880167 207.44241C6.1841488 203.90819 3.4596744 199.88936 2.2910547 194.89783C1.9764265 193.54784 1.7966388 192.14938 1.7240323 190.76477C1.6272236 188.95786 1.6272236 187.13362 1.7136599 185.32671C1.9383944 180.74019 3.2245677 176.51019 6.1046271 172.85136C6.4296279 172.43944 6.7719159 172.04483 7.1038313 171.63983C7.4357471 171.22791 7.7676625 170.81598 8.0338869 170.48714C10.889744 173.3429 13.579644 176.03943 16.314489 178.7775C14.841615 180.51518 13.316877 182.36365 12.68762 184.76248C11.608894 188.86784 12.099854 192.72054 15.031775 195.87744C18.952528 200.10397 23.073814 204.14703 27.129408 208.24895C29.767447 210.92123 32.443516 213.55893 35.105755 216.21738C32.294846 219.0316 29.570372 221.75583 26.963449 224.36928L26.963449 224.36928ZM17.811567 179.88173C19.094284 181.26981 20.366627 182.68903 21.687374 184.05634C23.015038 185.43402 24.394562 186.76324 25.64616 188.00594C22.918228 190.744 20.231787 193.44052 17.517685 196.16475C12.092938 192.20822 12.518206 183.84517 17.811567 179.88173L17.811567 179.88173ZM44.1712 206.9924C41.650715 209.51932 38.957359 212.21239 36.340065 214.83276C33.781551 212.27124 31.09165 209.57471 28.467443 206.94394C31.046703 204.35818 33.715858 201.67897 36.284748 199.10706C38.874382 201.69974 41.567738 204.38934 44.1712 206.9924L44.1712 206.9924ZM27.13978 205.48665C24.467169 202.81088 21.725407 200.06589 19.028591 197.36244C27.786324 188.59439 36.748047 179.62212 45.709766 170.64638C48.416954 173.35675 51.14143 176.08789 53.824413 178.77057L27.13978 205.48665ZM36.350437 177.74251C33.574104 174.86252 30.92915 172.11406 28.377548 169.46599C31.095108 166.74869 33.785007 164.05562 36.616665 161.22409C37.460281 162.09985 38.452572 163.14525 39.462147 164.16986C40.979969 165.70677 42.508167 167.23677 44.043274 168.75638C44.416679 169.12331 44.637959 169.42445 44.164288 169.89522C41.588482 172.46713 39.026508 175.0529 36.350437 177.74251L36.350437 177.74251ZM54.588512 195.93629C52.068027 193.39552 49.526798 190.87553 46.992485 188.34171C49.803394 185.52748 52.52787 182.79633 55.276546 180.04095C57.786655 182.20787 59.245701 184.99786 59.114319 188.47324C59.017509 191.01746 58.170433 193.30553 56.351814 195.1609C56.127079 195.38937 55.836651 195.57976 55.691441 195.84975C55.342236 196.49359 55.034523 196.38629 54.588512 195.93629L54.588512 195.93629ZM68.598114 176.16405C69.777107 178.40366 70.603439 180.81288 70.824715 183.37787C70.976845 185.0844 71.263817 186.80132 71.222328 188.50439C71.118599 192.85553 70.599983 197.15475 68.262741 200.96588C67.194389 202.70703 65.92205 204.32356 64.763802 205.96779C61.876827 203.0705 59.152351 200.33589 56.35527 197.52513C57.869637 195.9986 59.332138 194.4236 59.971767 192.32245C61.347836 187.81555 60.618313 183.62711 57.465115 180.13095C54.197819 176.50674 50.691959 173.09367 47.244877 169.63907C44.223064 166.61023 41.135555 163.64371 38.07225 160.65294C37.709217 160.30333 37.432621 160.00218 37.916664 159.51756C40.502842 156.94565 43.071732 154.35643 45.692482 151.72566C46.031311 152.04413 46.314823 152.29681 46.584503 152.56682C51.998878 157.9841 57.357933 163.45677 62.84837 168.79445C65.119919 171.00636 67.135612 173.38098 68.598114 176.16405L68.598114 176.16405ZM47.168816 150.54874C49.817223 147.89722 52.538242 145.17299 55.321491 142.38646C60.466183 147.04913 60.424694 154.09682 55.311119 158.70064C52.572815 155.95911 49.834511 153.22104 47.168816 150.54874L47.168816 150.54874ZM37.636612 122.64191C40.489014 119.79654 43.23423 117.05154 46.007111 114.28233C52.164837 120.45077 58.519638 126.68497 64.711937 133.07841C67.598915 136.05533 69.580032 139.67262 70.51355 143.76414C70.814346 145.08299 70.876579 146.45721 71.039078 147.81067C71.122055 148.5376 71.284561 149.27837 71.232697 150.00182C71.070198 152.37297 70.935356 154.75797 70.589607 157.10834C70.026047 160.94025 67.54705 165.65831 64.504494 168.18176C61.980549 165.64792 59.470436 163.09332 56.911922 160.58717C56.35527 160.04372 56.47974 159.73218 56.911922 159.23026C57.724422 158.2818 58.588787 157.34026 59.2215 156.26718C60.518047 154.06912 60.773899 151.67374 60.466183 149.12259C60.054749 145.6853 58.246498 143.12376 55.888515 140.78378C50.05233 134.98572 44.254181 129.14958 38.435284 123.33076C38.165604 123.0573 37.850975 122.82537 37.636612 122.64191L37.636612 122.64191ZM28.543507 131.77342C31.084736 129.23267 33.778091 126.53959 36.402302 123.91229C38.974648 126.49113 41.664547 129.18765 44.29567 131.82188C41.69912 134.42149 39.026508 137.10071 36.454163 139.67955C33.84724 137.07648 31.153885 134.38341 28.543507 131.77342L28.543507 131.77342ZM45.80312 132.96419C48.513763 135.67456 51.238239 138.39879 54.177074 141.33762C45.097797 150.20952 35.983948 159.11603 26.946163 167.94638C24.373817 165.371 21.632055 162.62256 18.907581 159.8914C27.803612 150.98489 36.817196 141.96069 45.80312 132.96419L45.80312 132.96419ZM25.525148 150.57297C22.921686 153.17258 20.193754 155.8968 17.407045 158.67987C12.217406 154.10719 12.459429 146.55067 17.507313 142.54224C20.207584 145.24915 22.897484 147.94221 25.525148 150.57297L25.525148 150.57297ZM16.335236 141.27531C14.838157 142.78108 13.586558 144.54646 12.877781 146.67183C11.553576 150.64566 12.027246 154.34258 14.530444 157.72102C15.114754 158.50679 15.806245 159.21986 16.501192 159.91563C22.48259 165.92139 28.467443 171.92714 34.479958 177.90173C35.133415 178.54904 35.192192 178.91942 34.504158 179.58749C32.011333 182.01056 29.5842 184.49594 27.039515 187.05055C26.762918 186.78748 26.513981 186.55901 26.275417 186.32016C20.21104 180.24864 14.074059 174.23944 8.106493 168.07446C4.9878693 164.85178 2.84079 160.98871 2.1389267 156.46796C1.8381283 154.53989 1.4785531 152.58066 1.5407872 150.64566C1.6825428 146.1803 2.0317457 141.69762 4.4830809 137.75841C5.547977 136.0484 6.7995753 134.4561 7.9301629 132.8638C10.84134 135.77841 13.565814 138.50609 16.335236 141.27531L16.335236 141.27531ZM10.070328 19.464169C7.3423958 16.836868 4.9774971 13.991493 3.5633981 10.495351C2.7889283 8.5880489 2.3532889 6.5284405 1.941852 4.4999852C1.6445109 3.039221 1.6064788 1.4919182 1.6375959 0L0.057539225 0C0.10248613 2.0146089 0.24769922 4.0361409 0.44477412 6.0403652C0.90461558 10.734196 3.0931842 14.642261 6.3362765 17.968788C7.0035653 18.654171 6.8514371 18.979553 6.3224468 19.644167C4.8945179 21.437239 3.3836105 23.213001 2.2806826 25.203381C0.50700831 28.405293 0.15434796 32.026051 0.022964681 35.619114C-0.049641863 37.623341 0.057539225 39.644871 0.23732686 41.642174C0.38253996 43.300243 0.65222138 44.958317 1.0394562 46.571388C1.9695115 50.458683 4.3344102 53.511749 6.9032993 56.291355C5.7208495 57.797119 4.4830809 59.230194 3.4112701 60.780956C0.92536032 64.377487 0.17509268 68.527855 0.040251955 72.77169C-0.046184409 75.575523 0.22349705 78.396667 0.43440178 81.200508C0.67296612 84.357422 1.865788 87.209717 3.6290896 89.795479C4.6490388 91.283936 5.8626051 92.63739 6.8064904 93.821236C5.2679234 96.022766 3.6048875 98.065071 2.3152571 100.32198C0.5381254 103.44082 0.18892249 106.99581 0.02987959 110.51618C-0.0081524085 111.34003 0.022964681 112.16733 0.057539225 112.99464L1.6375959 112.99464C1.630681 111.77964 1.6617981 110.56118 1.7344047 109.34965C2.0663202 103.82851 4.2030272 99.041222 8.0615463 95.16777C10.84134 97.950836 13.565814 100.67852 16.335236 103.4512C14.79321 104.96389 13.548527 106.78812 12.825918 108.93772C12.369534 110.29118 12.148257 111.64464 12.162087 112.99464L13.648793 112.99464C13.572729 109.93465 14.827785 106.82619 17.576462 104.66966C20.30785 107.40773 22.980463 110.08695 25.587383 112.70387C25.490574 112.79733 25.390308 112.90118 25.293499 112.99464L27.983398 112.99464C33.909477 107.06504 39.863213 101.10429 45.844608 95.119308C48.57254 97.843529 51.279728 100.55045 53.924679 103.19505C50.640099 106.46966 47.379719 109.72349 44.098595 112.99464L46.829983 112.99809L47.023602 112.7004C47.072006 112.62772 47.141155 112.47195 47.255249 112.35771C49.678925 109.92426 52.109516 107.50119 54.526276 105.06428C54.916969 104.6662 55.238514 104.39967 55.739845 104.9362C57.772827 107.11004 59.131607 109.56426 59.131607 112.64156C59.131607 112.76617 59.097031 112.87348 59.093575 112.99464L60.690918 112.99464C60.690918 111.38849 60.331345 109.78234 59.598362 108.23158C58.827351 106.59427 57.797028 104.97774 56.538517 103.68658C50.574406 97.566605 44.492744 91.557396 38.449116 85.517029C38.175976 85.243568 37.844059 85.025497 37.640068 84.862801C40.502842 81.996658 43.248062 79.244743 46.020939 76.465134C52.0784 82.533195 58.35368 88.698174 64.47683 95.008537C67.412209 98.037376 69.559288 101.62698 70.454773 105.83273C70.745193 107.18965 70.880035 108.58465 71.028709 109.9658C71.139343 110.97311 71.246529 111.99079 71.225784 112.99464L72.712486 112.99464C72.695198 111.49925 72.639885 110.00041 72.494667 108.51196C72.311424 106.58735 71.982964 104.6489 71.453972 102.79005C70.458229 99.283524 68.159019 96.541992 65.953163 94.091232C67.484818 91.896629 69.161682 89.864708 70.423653 87.604332C72.155838 84.513191 72.632965 81.020508 72.715942 77.517441C72.774719 75.156677 72.632965 72.788994 72.518867 70.42823C72.408234 68.119392 71.893074 65.879784 70.949188 63.768257C69.697586 60.978264 67.975777 58.499809 65.773376 56.429817C66.288536 55.806744 66.724174 55.207897 67.228966 54.674824C71.194664 50.441376 72.636421 45.273315 72.726318 39.634487C72.757431 37.522957 72.612221 35.404499 72.525787 33.289509C72.408234 30.367979 71.830833 27.51568 70.364876 24.992228C69.057961 22.749157 67.429497 20.696472 65.939331 18.553785C66.530556 17.875326 67.263542 17.06879 67.958488 16.231102C70.610359 13.039574 72.114349 9.3322773 72.494667 5.233829C72.657166 3.4961426 72.715942 1.7480713 72.722862 0L71.19812 0C71.19812 0.17999941 71.225784 0.35999882 71.222328 0.53653675C71.080566 5.5072899 70.268066 10.325736 67.21859 14.472646C66.395721 15.590719 65.514069 16.670715 64.698105 17.719559C61.880283 14.89149 59.155807 12.156884 56.483196 9.4742002C57.451283 8.138051 58.657936 6.8676701 59.404747 5.3653674C60.296768 3.5688345 60.722034 1.7757635 60.690918 0L59.086658 0C59.086658 0.10384582 59.114319 0.19730705 59.110863 0.30115288C59.024426 2.8453753 58.170433 5.1334448 56.351814 6.9888234C56.127079 7.2172842 55.836651 7.4076686 55.691441 7.6776676C55.338779 8.3249731 55.031067 8.210743 54.588512 7.7642055C52.071484 5.2199831 49.533714 2.6930683 47.002857 0.15923025L46.829983 0L44.098595 0C38.310814 5.7945967 32.796177 11.585732 27.015312 17.373405C24.349615 14.70803 21.625141 11.980346 18.966358 9.3184319C22.046949 6.2307491 24.882063 3.10499 27.983398 0L25.293499 0C22.610516 2.6861451 20.21104 5.3445983 17.541887 8.020359C14.966083 6.1442108 13.634963 3.1188362 13.669538 0L12.148257 0C12.113683 2.7934525 13.036823 5.6007509 14.990285 7.681129C18.471941 11.398809 22.105726 14.971106 25.663446 18.619555C28.764784 21.804161 31.852291 25.002611 34.836075 28.079908C32.263729 30.655285 29.573828 33.351814 26.593502 36.335651C26.545097 36.238728 26.437918 35.812962 26.171694 35.546425C20.826468 30.16721 15.529648 24.729151 10.070328 19.464169L10.070328 19.464169ZM8.106493 55.072899C4.9878693 51.850216 2.84079 47.987152 2.1389267 43.46986C1.8381283 41.538326 1.4785531 39.579102 1.5407872 37.644108C1.6825428 33.178738 2.0317457 28.69606 4.4830809 24.756844C5.547977 23.046848 6.7995753 21.454546 7.9301629 19.862244C10.84134 22.77685 13.565814 25.504534 16.335236 28.273754C14.838157 29.77952 13.586558 31.544897 12.877781 33.673737C11.553576 37.644108 12.027246 41.341019 14.530444 44.719471C15.114754 45.505238 15.806245 46.218311 16.501192 46.914078C22.48259 52.91983 28.467443 58.925579 34.479958 64.900177C35.133415 65.547478 35.192192 65.917862 34.504158 66.585938C32.011333 69.00901 29.5842 71.494385 27.039515 74.052452C26.762918 73.785912 26.513981 73.557457 26.275417 73.318611C20.21104 67.247093 14.074059 61.237881 8.106493 55.072899L8.106493 55.072899ZM28.377548 56.464432C31.095108 53.747135 33.785007 51.054066 36.616665 48.222538C37.460281 49.098301 38.452572 50.143684 39.462147 51.168297C40.979969 52.708675 42.508167 54.23521 44.043274 55.754818C44.416679 56.121742 44.637959 56.422894 44.164288 56.893661C41.588482 59.465576 39.026508 62.051338 36.350437 64.740944C33.574104 61.860954 30.92915 59.112503 28.377548 56.464432L28.377548 56.464432ZM25.64616 75.004372C22.918228 77.742439 20.231787 80.438972 17.517685 83.163193C12.092938 79.206665 12.518206 70.84362 17.811567 66.883629C19.094284 68.268242 20.366627 69.687469 21.687374 71.054771C23.015038 72.432457 24.394562 73.761688 25.64616 75.004372L25.64616 75.004372ZM26.963449 111.36771C21.324343 105.7635 15.692148 100.00698 9.880167 94.440849C6.1841488 90.906631 3.4596744 86.887794 2.2910547 81.896271C1.9764265 80.54628 1.7966388 79.14782 1.7240323 77.763206C1.6272236 75.956291 1.6272236 74.135529 1.7136599 72.32515C1.9383944 67.738625 3.2245677 63.50864 6.1046271 59.849808C6.4296279 59.437885 6.7719159 59.04327 7.1038313 58.638271C7.4357471 58.226349 7.7676625 57.81443 8.0338869 57.485584C10.889744 60.341343 13.579644 63.037872 16.314489 65.779404C14.841615 67.513626 13.316877 69.362083 12.68762 71.760925C11.608894 75.866295 12.099854 79.718971 15.031775 82.875885C18.952528 87.102409 23.073814 91.145477 27.129408 95.247383C29.767447 97.919685 32.443516 100.56083 35.105755 103.21582C32.294846 106.03004 29.570372 108.75426 26.963449 111.36771L26.963449 111.36771ZM44.1712 93.990852C41.650715 96.517761 38.957359 99.210831 36.340065 101.83121C33.781551 99.269676 31.09165 96.573151 28.467443 93.94239C31.046703 91.356628 33.715858 88.677406 36.284748 86.105492C38.874382 88.698174 41.567738 91.387779 44.1712 93.990852L44.1712 93.990852ZM27.13978 92.485085C24.467169 89.809326 21.725407 87.064331 19.028591 84.360878C27.786324 75.592834 36.748047 66.620552 45.709766 57.644814C48.416954 60.35519 51.14143 63.086334 53.824413 65.76902C44.952587 74.651299 35.99432 83.623573 27.13978 92.485085L27.13978 92.485085ZM54.588512 82.934731C52.068027 80.393974 49.526798 77.873978 46.992485 75.340141C49.803394 72.525917 52.52787 69.794777 55.276546 67.039398C57.786655 69.206314 59.245701 71.996307 59.114319 75.47168C59.017509 78.0159 58.170433 80.30397 56.351814 82.159348C56.127079 82.38781 55.836651 82.578194 55.691441 82.84819C55.342236 83.492035 55.034523 83.384727 54.588512 82.934731L54.588512 82.934731ZM68.598114 63.162487C69.777107 65.4021 70.603439 67.811317 70.824715 70.376312C70.976845 72.086304 71.263817 73.799759 71.222328 75.506294C71.118599 79.853973 70.599983 84.153191 68.262741 87.964333C67.194389 89.705482 65.92205 91.322014 64.763802 92.96624C61.876827 90.068939 59.152351 87.334335 56.35527 84.523575C57.869637 82.99704 59.332138 81.422043 59.971767 79.3209C61.347836 74.813988 60.618313 70.625542 57.465115 67.129395C54.197819 63.50518 50.691959 60.095573 47.244877 56.637508C44.223064 53.608673 41.135555 50.642143 38.07225 47.654846C37.709217 47.301769 37.432621 47.000618 37.916664 46.516003C40.502842 43.944088 43.071732 41.354866 45.692482 38.727566C46.031311 39.042564 46.314823 39.295258 46.584503 39.565258C51.998878 44.982548 57.357933 50.455223 62.84837 55.792896C65.119919 58.004814 67.135612 60.379421 68.598114 63.162487L68.598114 63.162487ZM47.168816 37.547188C49.817223 34.895657 52.538242 32.171436 55.321491 29.384905C60.466183 34.047581 60.424694 41.095253 55.311119 45.699081C52.572815 42.957554 49.834511 40.219486 47.168816 37.547188L47.168816 37.547188ZM37.636612 9.6403532C40.489014 6.7949781 43.23423 4.0499868 46.007111 1.2807651C52.164837 7.4492068 58.519638 13.683417 64.711937 20.076859C67.598915 23.053772 69.580032 26.671068 70.51355 30.762592C70.814346 32.084896 70.876579 33.459122 71.039078 34.809116C71.122055 35.539501 71.284561 36.276806 71.232697 37.000263C71.070198 39.374874 70.935356 41.756405 70.589607 44.106781C70.026047 47.93869 67.54705 52.656754 64.504494 55.180206C61.980549 52.64637 59.470436 50.091763 56.911922 47.585617C56.35527 47.042156 56.47974 46.734081 56.911922 46.228695C57.724422 45.280239 58.588787 44.338703 59.2215 43.265629C60.518047 41.067558 60.773899 38.672184 60.466183 36.121037C60.054749 32.683739 58.246498 30.12221 55.888515 27.782217C50.05233 21.984159 44.254181 16.148026 38.435284 10.329197C38.165604 10.055737 37.850975 9.8238144 37.636612 9.6403532L37.636612 9.6403532ZM28.543507 18.771862C31.084736 16.231102 33.778091 13.538033 36.402302 10.910734C38.974648 13.489572 41.664547 16.186102 44.29567 18.820324C41.69912 21.423391 39.026508 24.099154 36.454163 26.67799C33.84724 24.074923 31.153885 21.381853 28.543507 18.771862L28.543507 18.771862ZM45.80312 19.962627C48.513763 22.673004 51.238239 25.397226 54.177074 28.336061C45.097797 37.207958 35.983948 46.114468 26.946163 54.944824C24.373817 52.369446 21.632055 49.620995 18.907581 46.889847C27.803612 37.983337 36.817196 28.959137 45.80312 19.962627L45.80312 19.962627ZM25.525148 37.571419C22.921686 40.171024 20.193754 42.895245 17.407045 45.678314C12.217406 41.105637 12.459429 33.549122 17.507313 29.540674C20.207584 32.247589 22.897484 34.940655 25.525148 37.571419L25.525148 37.571419Z" fill-rule="evenodd"/>
</svg>
