<?xml version="1.0" encoding="utf-8" ?>
<svg xmlns="http://www.w3.org/2000/svg" xmlns:xlink="http://www.w3.org/1999/xlink" width="83" height="43">
	<path fill="#F5C889" transform="translate(9.91821e-05 0.049305)" d="M0 19.500698C1.2681237 16.250698 6.9246755 0.4506979 9.8569613 0.020697888C13.477315 -0.049302112 68.190651 0.080697887 71.706993 0.080697887C75.635376 1.6306978 81.071907 17.140697 82 19.800697C73.627182 42.320698 71.911018 38.560699 69.830811 39.290699C68.102646 39.290699 10.737047 39.140697 9.908967 39.070698C7.5767393 37.7407 4.6524539 34.120697 0 19.500698" fill-rule="evenodd"/>
	<path fill="#1A1D26" transform="translate(0.548153 0.830004)" d="M0 18.780001C1.1721144 15.8 5.8925748 3.5999999 8.6048393 0.56999999C8.9568739 0.17 9.3409109 0 9.7289495 0C15.837545 0 62.542103 0.51999998 70.48288 0.56999999C71.238953 0.56999999 71.983025 1.1 72.619087 2.1199999C75.379356 6.5700002 77.955605 10.98 80.791885 18.84C72.419067 41.360001 71.042931 37.599998 68.96273 38.330002C67.234558 38.330002 10.985072 37.919998 10.156991 37.18C5.412528 34.799999 0 18.780001 0 18.780001Z" fill-rule="evenodd"/>
</svg>
