<?xml version="1.0" encoding="utf-8" ?>
<svg xmlns="http://www.w3.org/2000/svg" xmlns:xlink="http://www.w3.org/1999/xlink" width="206" height="43">
	<path fill="#F5C889" transform="translate(-4.57764e-05 0.049305)" d="M0 19.500698C3.1700001 16.250698 17.309999 0.4506979 24.639999 0.020697888C33.689999 -0.049302112 170.46001 0.080697887 179.25 0.080697887C189.07001 1.6306978 202.66 17.140697 204.98 19.800697C184.05 42.320698 179.75999 38.560699 174.56 39.290699C170.24001 39.290699 26.84 39.140697 24.77 39.070698C18.940001 37.7407 11.63 34.120697 0 19.500698" fill-rule="evenodd"/>
	<path fill="#8C2C14" transform="translate(1.36996 0.830004)" d="M0 18.780001C2.9300001 15.8 14.73 3.5999999 21.51 0.56999999C22.389999 0.17 23.35 0 24.32 0C39.59 0 156.34 0.51999998 176.19 0.56999999C178.08 0.56999999 179.94 1.1 181.53 2.1199999C188.42999 6.5700002 194.87 10.98 201.96001 18.84C181.03 41.360001 177.59 37.599998 172.39 38.330002C168.07001 38.330002 27.459999 37.919998 25.389999 37.18C13.53 34.799999 0 18.780001 0 18.780001Z" fill-rule="evenodd"/>
</svg>
