<?xml version="1.0" encoding="UTF-8"?>
<svg width="206px" height="40px" viewBox="0 0 206 40" version="1.1" xmlns="http://www.w3.org/2000/svg" xmlns:xlink="http://www.w3.org/1999/xlink">
    <title>btn_2</title>
    <defs>
        <path d="M0,0 L206,0 L206,40 L0,40 L0,0 Z" id="path-1"></path>
        <path d="M25.98,9.35 L25.98,30.82 C25.98,30.82 13.53,31.75 12.31,31.43 C11.09,31.11 2.04,19.95 2.04,19.95 C2.04,19.95 10.79,10.17 13.86,8.82 C14.67,8.54 25.98,9.34 25.98,9.34 L25.98,9.35 Z" id="path-2"></path>
        <rect id="path-4" x="-40.72" y="9.35" width="66.7" height="21.47"></rect>
        <path d="M14.89,16.88 C14.12,16.11 13.32,15.31 12.5,14.48 C13.85,12.95 16.08,13.02 17.26,14.51 C16.46,15.31 15.67,16.1 14.89,16.88 L14.89,16.88 Z M20.09,22.86 C19.29,23.66 18.49,24.46 17.62,25.33 C15,22.65 12.37,19.96 9.77,17.29 C10.53,16.53 11.34,15.72 12.15,14.92 C14.78,17.55 17.44,20.21 20.1,22.86 L20.09,22.86 Z M20.44,17.77 C21.19,18.52 21.98,19.31 22.76,20.09 C22,20.85 21.2,21.64 20.43,22.42 C19.66,21.65 18.87,20.86 18.11,20.11 C18.88,19.34 19.67,18.55 20.44,17.78 L20.44,17.77 Z M23.13,20.45 C23.97,21.29 24.78,22.1 25.6,22.92 C23.78,24.74 21.94,26.61 20.05,28.44 C19.17,29.29 18.1,29.88 16.9,30.15 C16.51,30.24 16.1,30.26 15.71,30.31 C15.49,30.33 15.28,30.38 15.06,30.37 C14.36,30.32 13.66,30.28 12.96,30.18 C11.83,30.01 10.44,29.28 9.69,28.38 C10.44,27.64 11.19,26.89 11.93,26.14 C12.09,25.98 12.18,26.01 12.33,26.14 C12.61,26.38 12.89,26.63 13.2,26.82 C13.85,27.2 14.56,27.28 15.31,27.19 C16.32,27.07 17.08,26.53 17.77,25.84 C19.48,24.12 21.2,22.41 22.92,20.69 C23,20.61 23.07,20.52 23.12,20.45 L23.13,20.45 Z M14.9,23.27 C15.68,24.05 16.49,24.85 17.31,25.68 C15.93,27.2 13.85,27.19 12.5,25.68 C13.31,24.87 14.12,24.06 14.91,23.28 L14.9,23.27 Z M7.34,29.59 C6.68,29.94 5.97,30.18 5.21,30.25 C4.71,30.29 4.2,30.38 3.7,30.37 C2.42,30.34 1.15,30.19 0.02,29.5 C-0.49,29.18 -0.97,28.81 -1.46,28.47 C-0.6,27.62 0.2,26.81 1.03,25.99 C1.48,26.44 1.95,26.87 2.57,27.06 C3.9,27.47 5.14,27.25 6.17,26.32 C7.24,25.36 8.25,24.32 9.27,23.3 C10.16,22.41 11.04,21.5 11.92,20.59 C12.02,20.48 12.11,20.4 12.26,20.54 C13.02,21.3 13.78,22.06 14.56,22.83 C14.47,22.93 14.39,23.01 14.31,23.09 C12.71,24.69 11.1,26.27 9.52,27.89 C8.87,28.56 8.17,29.16 7.34,29.59 Z M1.5,25.46 C2.25,24.72 2.99,23.97 3.74,23.22 C4.57,24.05 5.38,24.85 6.19,25.66 C5.55,26.4 4.73,26.83 3.7,26.79 C2.95,26.76 2.27,26.51 1.73,25.97 C1.66,25.9 1.61,25.82 1.53,25.78 C1.34,25.68 1.37,25.59 1.5,25.45 L1.5,25.46 Z M-1.32,17.35 C-0.53,16.56 0.28,15.75 1.08,14.96 C3.67,17.54 6.32,20.19 8.96,22.83 C8.16,23.63 7.35,24.43 6.56,25.22 C3.94,22.6 1.29,19.96 -1.32,17.34 L-1.32,17.35 Z M-1.76,22.38 C-2.51,21.64 -3.3,20.84 -4.07,20.07 C-3.31,19.31 -2.52,18.52 -1.74,17.75 C-0.98,18.51 -0.19,19.3 0.57,20.06 C-0.2,20.82 -0.99,21.62 -1.76,22.39 L-1.76,22.38 Z M-6.89,17.3 C-5.24,15.64 -3.54,13.97 -1.89,12.26 C-0.85,11.17 0.34,10.37 1.81,10.02 C2.21,9.93 2.62,9.87 3.03,9.85 C3.56,9.82 4.1,9.82 4.64,9.85 C5.99,9.92 7.24,10.3 8.32,11.15 C8.44,11.25 8.56,11.35 8.68,11.44 C8.8,11.54 8.92,11.64 9.02,11.71 C8.18,12.55 7.38,13.35 6.57,14.15 C6.06,13.72 5.51,13.27 4.8,13.08 C3.59,12.76 2.45,12.91 1.52,13.77 C0.27,14.93 -0.92,16.14 -2.13,17.34 C-2.92,18.12 -3.7,18.91 -4.48,19.69 C-5.31,18.86 -6.11,18.06 -6.89,17.29 L-6.89,17.3 Z M3.84,16.91 C3.03,16.1 2.24,15.31 1.43,14.51 C2.6,12.91 5.07,13.03 6.23,14.6 C5.82,14.98 5.4,15.35 5,15.74 C4.59,16.13 4.2,16.54 3.83,16.91 L3.84,16.91 Z M9.31,17.72 C10.11,18.52 10.91,19.32 11.74,20.15 C11.48,20.4 11.17,20.69 10.87,20.99 C10.42,21.44 9.96,21.89 9.52,22.34 C9.41,22.45 9.32,22.52 9.18,22.38 C8.42,21.62 7.66,20.86 6.86,20.07 C7.71,19.25 8.52,18.47 9.3,17.72 L9.31,17.72 Z M9.72,11.74 C10.67,10.82 11.81,10.19 13.14,9.98 C13.71,9.89 14.29,9.79 14.86,9.8 C16.18,9.84 17.5,9.94 18.66,10.67 C19.16,10.98 19.63,11.35 20.1,11.69 C19.24,12.55 18.43,13.35 17.62,14.17 C17.18,13.73 16.65,13.36 16.03,13.15 C14.86,12.76 13.77,12.9 12.77,13.64 C12.54,13.81 12.33,14.02 12.12,14.22 C10.35,15.99 8.57,17.75 6.81,19.53 C6.62,19.72 6.51,19.74 6.31,19.53 C5.59,18.79 4.86,18.08 4.11,17.33 C4.19,17.25 4.26,17.17 4.33,17.1 C6.12,15.31 7.9,13.5 9.72,11.74 Z M20.23,12.32 C21.01,11.51 21.85,10.82 22.88,10.4 C23.44,10.17 24.05,10.04 24.65,9.92 C25.08,9.83 25.54,9.82 25.98,9.83 L25.98,9.36 C25.39,9.37 24.79,9.42 24.2,9.47 C22.81,9.61 21.66,10.25 20.68,11.21 C20.48,11.41 20.38,11.36 20.19,11.21 C19.66,10.79 19.14,10.34 18.55,10.02 C17.6,9.5 16.54,9.39 15.48,9.35 C14.89,9.33 14.29,9.36 13.7,9.41 C13.21,9.45 12.72,9.53 12.25,9.65 C11.1,9.92 10.2,10.62 9.38,11.38 C8.94,11.03 8.51,10.67 8.05,10.35 C6.99,9.62 5.76,9.39 4.51,9.36 C3.68,9.33 2.85,9.41 2.02,9.48 C1.09,9.55 0.25,9.9 -0.52,10.42 C-0.96,10.72 -1.36,11.08 -1.71,11.36 C-2.36,10.91 -2.96,10.42 -3.63,10.03 C-4.55,9.51 -5.6,9.4 -6.64,9.36 C-6.88,9.35 -7.13,9.36 -7.37,9.36 L-7.37,9.83 C-7.01,9.83 -6.65,9.83 -6.29,9.86 C-4.66,9.96 -3.25,10.59 -2.1,11.73 C-2.92,12.55 -3.73,13.35 -4.54,14.17 C-4.99,13.71 -5.52,13.35 -6.16,13.13 C-6.56,13 -6.96,12.93 -7.36,12.93 L-7.36,13.37 C-6.46,13.35 -5.54,13.72 -4.9,14.53 C-5.71,15.34 -6.5,16.12 -7.27,16.89 C-7.3,16.86 -7.33,16.83 -7.36,16.8 L-7.36,17.59 C-5.61,19.34 -3.85,21.1 -2.08,22.86 C-2.88,23.67 -3.68,24.46 -4.46,25.24 C-5.43,24.27 -6.39,23.31 -7.35,22.34 L-7.35,23.15 C-7.35,23.15 -7.26,23.21 -7.26,23.21 C-7.24,23.22 -7.19,23.24 -7.16,23.28 C-6.44,24 -5.73,24.71 -5.01,25.43 C-4.89,25.55 -4.81,25.64 -4.97,25.79 C-5.61,26.39 -6.34,26.79 -7.24,26.79 C-7.28,26.79 -7.31,26.78 -7.34,26.78 L-7.34,27.25 C-6.87,27.25 -6.39,27.14 -5.93,26.93 C-5.45,26.7 -4.97,26.4 -4.59,26.03 C-2.78,24.27 -1.01,22.47 0.77,20.69 C0.85,20.61 0.92,20.51 0.96,20.45 C1.81,21.29 2.62,22.11 3.44,22.92 C1.65,24.71 -0.17,26.56 -2.03,28.37 C-2.92,29.24 -3.98,29.87 -5.22,30.13 C-5.62,30.22 -6.03,30.26 -6.44,30.3 C-6.74,30.33 -7.04,30.36 -7.33,30.36 L-7.33,30.8 C-6.89,30.8 -6.45,30.78 -6.01,30.74 C-5.44,30.69 -4.87,30.59 -4.32,30.43 C-3.29,30.14 -2.48,29.46 -1.75,28.81 C-1.1,29.26 -0.5,29.76 0.16,30.13 C1.07,30.64 2.1,30.78 3.14,30.81 C3.84,30.83 4.54,30.79 5.23,30.75 C5.91,30.72 6.57,30.57 7.2,30.29 C8.02,29.92 8.75,29.41 9.37,28.76 C9.55,28.91 9.73,29.04 9.89,29.19 C11.14,30.36 12.66,30.79 14.33,30.81 C14.95,30.81 15.58,30.78 16.2,30.75 C17.06,30.72 17.9,30.54 18.65,30.11 C19.31,29.72 19.92,29.24 20.55,28.8 C20.75,28.97 20.99,29.19 21.24,29.4 C22.18,30.18 23.28,30.63 24.49,30.74 C25,30.79 25.52,30.81 26.03,30.81 L26.03,30.36 C25.98,30.36 25.92,30.36 25.87,30.36 C24.4,30.32 22.98,30.08 21.76,29.18 C21.43,28.94 21.11,28.68 20.8,28.44 C21.63,27.61 22.44,26.8 23.23,26.02 C23.62,26.31 24,26.66 24.44,26.88 C24.97,27.14 25.5,27.27 26.02,27.26 L26.02,26.79 C26.02,26.79 25.96,26.79 25.93,26.79 C25.18,26.76 24.5,26.51 23.96,25.98 C23.89,25.91 23.84,25.83 23.76,25.79 C23.57,25.69 23.6,25.6 23.73,25.46 C24.48,24.72 25.23,23.97 25.97,23.22 L26.02,23.17 L26.02,22.36 C24.31,20.65 22.6,19.02 20.89,17.32 C21.68,16.53 22.48,15.73 23.27,14.94 C24.18,15.85 25.1,16.69 26.02,17.6 L26.02,16.81 C25.23,16.02 24.44,15.31 23.65,14.52 C24.2,13.76 25.1,13.37 26.02,13.38 L26.02,12.93 C25.2,12.92 24.37,13.19 23.75,13.77 C22.65,14.8 21.6,15.87 20.52,16.92 C19.58,17.84 18.64,18.75 17.73,19.63 C16.97,18.87 16.17,18.08 15.29,17.2 C15.32,17.19 15.44,17.15 15.52,17.08 C17.11,15.5 18.71,13.94 20.27,12.33 L20.23,12.32 Z M-15.72,14.17 C-16.16,13.73 -16.69,13.36 -17.31,13.15 C-18.48,12.76 -19.57,12.9 -20.57,13.64 C-20.8,13.81 -21.01,14.02 -21.22,14.22 C-22.99,15.99 -24.77,17.75 -26.53,19.53 C-26.72,19.72 -26.83,19.74 -27.03,19.53 C-27.75,18.79 -28.48,18.08 -29.23,17.33 C-29.15,17.25 -29.08,17.17 -29.01,17.1 C-27.22,15.31 -25.44,13.5 -23.62,11.74 C-22.67,10.82 -21.53,10.19 -20.19,9.98 C-19.62,9.89 -19.04,9.79 -18.47,9.8 C-17.15,9.84 -15.83,9.94 -14.67,10.67 C-14.17,10.98 -13.7,11.35 -13.23,11.69 C-14.09,12.55 -14.9,13.35 -15.71,14.17 L-15.72,14.17 Z M-18.46,16.88 C-19.23,16.11 -20.03,15.31 -20.85,14.48 C-19.5,12.95 -17.27,13.02 -16.09,14.51 C-16.89,15.31 -17.68,16.1 -18.46,16.88 L-18.46,16.88 Z M-13.27,22.86 C-14.07,23.66 -14.87,24.46 -15.74,25.33 C-18.36,22.65 -20.99,19.96 -23.59,17.29 C-22.83,16.53 -22.02,15.72 -21.21,14.92 C-18.58,17.55 -15.92,20.21 -13.26,22.86 L-13.27,22.86 Z M-12.91,17.77 C-12.16,18.52 -11.37,19.31 -10.59,20.09 C-11.35,20.85 -12.15,21.64 -12.92,22.42 C-13.69,21.65 -14.48,20.86 -15.24,20.11 C-14.47,19.34 -13.68,18.55 -12.91,17.78 L-12.91,17.77 Z M-10.22,20.45 C-9.38,21.29 -8.57,22.1 -7.75,22.92 C-9.57,24.74 -11.41,26.61 -13.3,28.44 C-14.18,29.29 -15.25,29.88 -16.45,30.15 C-16.84,30.24 -17.24,30.26 -17.64,30.31 C-17.85,30.33 -18.07,30.38 -18.29,30.37 C-18.99,30.32 -19.69,30.28 -20.39,30.18 C-21.52,30.01 -22.91,29.28 -23.66,28.38 C-22.91,27.64 -22.16,26.89 -21.42,26.14 C-21.26,25.98 -21.17,26.01 -21.02,26.14 C-20.74,26.38 -20.46,26.63 -20.15,26.82 C-19.5,27.2 -18.79,27.28 -18.04,27.19 C-17.03,27.07 -16.27,26.53 -15.58,25.84 C-13.87,24.12 -12.15,22.41 -10.43,20.69 C-10.35,20.61 -10.28,20.52 -10.23,20.45 L-10.22,20.45 Z M-18.46,23.27 C-17.68,24.05 -16.87,24.85 -16.05,25.68 C-17.43,27.2 -19.51,27.19 -20.86,25.68 C-20.05,24.87 -19.24,24.06 -18.45,23.28 L-18.46,23.27 Z M-26.02,29.59 C-26.68,29.94 -27.39,30.18 -28.15,30.25 C-28.65,30.29 -29.16,30.38 -29.66,30.37 C-30.94,30.34 -32.21,30.19 -33.34,29.5 C-33.85,29.18 -34.33,28.81 -34.82,28.47 C-33.96,27.62 -33.16,26.81 -32.33,25.99 C-31.88,26.44 -31.41,26.87 -30.79,27.06 C-29.46,27.47 -28.22,27.25 -27.19,26.32 C-26.12,25.36 -25.11,24.32 -24.09,23.3 C-23.2,22.41 -22.32,21.5 -21.44,20.59 C-21.34,20.48 -21.25,20.4 -21.1,20.54 C-20.34,21.3 -19.58,22.06 -18.8,22.83 C-18.89,22.93 -18.97,23.01 -19.05,23.09 C-20.65,24.69 -22.26,26.27 -23.84,27.89 C-24.49,28.56 -25.19,29.16 -26.02,29.59 L-26.02,29.59 Z M-31.85,25.46 C-31.1,24.72 -30.36,23.97 -29.61,23.22 C-28.78,24.05 -27.97,24.85 -27.16,25.66 C-27.8,26.4 -28.62,26.83 -29.65,26.79 C-30.4,26.76 -31.08,26.51 -31.62,25.97 C-31.69,25.9 -31.74,25.82 -31.82,25.78 C-32.01,25.68 -31.98,25.59 -31.85,25.45 L-31.85,25.46 Z M-26.48,20.07 C-25.63,19.25 -24.82,18.47 -24.04,17.72 C-23.24,18.52 -22.44,19.32 -21.61,20.15 C-21.87,20.4 -22.18,20.69 -22.48,20.99 C-22.93,21.44 -23.39,21.89 -23.83,22.34 C-23.94,22.45 -24.03,22.52 -24.17,22.38 C-24.93,21.62 -25.69,20.86 -26.49,20.07 L-26.48,20.07 Z M-34.67,17.35 C-33.88,16.56 -33.07,15.75 -32.27,14.96 C-29.68,17.54 -27.03,20.19 -24.38,22.83 C-25.18,23.63 -25.99,24.43 -26.78,25.22 L-34.67,17.34 L-34.67,17.35 Z M-35.12,22.38 C-35.87,21.64 -36.66,20.84 -37.43,20.07 C-36.67,19.31 -35.88,18.52 -35.1,17.75 C-34.34,18.51 -33.55,19.3 -32.79,20.06 C-33.56,20.82 -34.35,21.62 -35.12,22.39 L-35.12,22.38 Z M-27.11,14.6 C-27.52,14.98 -27.94,15.35 -28.34,15.74 C-28.75,16.13 -29.14,16.54 -29.51,16.91 C-30.32,16.1 -31.11,15.31 -31.92,14.51 C-30.75,12.91 -28.28,13.03 -27.11,14.6 Z M-40.24,17.3 C-38.59,15.64 -36.89,13.97 -35.24,12.26 C-34.2,11.17 -33.01,10.37 -31.54,10.02 C-31.14,9.93 -30.73,9.87 -30.32,9.85 C-29.79,9.82 -29.25,9.82 -28.72,9.85 C-27.37,9.92 -26.12,10.3 -25.04,11.15 C-24.92,11.25 -24.8,11.35 -24.68,11.44 C-24.56,11.54 -24.44,11.64 -24.34,11.71 C-25.18,12.55 -25.98,13.35 -26.79,14.15 C-27.3,13.72 -27.85,13.27 -28.56,13.08 C-29.77,12.76 -30.91,12.91 -31.84,13.77 C-33.09,14.93 -34.28,16.14 -35.49,17.34 C-36.28,18.12 -37.06,18.91 -37.84,19.69 C-38.67,18.86 -39.47,18.06 -40.25,17.29 L-40.24,17.3 Z M-12.68,11.21 C-12.88,11.41 -12.98,11.36 -13.17,11.21 C-13.7,10.79 -14.22,10.34 -14.81,10.02 C-15.76,9.5 -16.82,9.39 -17.88,9.35 C-18.47,9.33 -19.07,9.36 -19.66,9.41 C-20.15,9.45 -20.64,9.53 -21.11,9.65 C-22.26,9.92 -23.16,10.62 -23.98,11.38 C-24.43,11.03 -24.85,10.67 -25.31,10.35 C-26.37,9.62 -27.6,9.39 -28.85,9.36 C-29.68,9.33 -30.51,9.41 -31.34,9.48 C-32.27,9.55 -33.11,9.9 -33.88,10.42 C-34.32,10.72 -34.72,11.08 -35.07,11.36 C-35.72,10.91 -36.32,10.42 -36.99,10.03 C-37.91,9.51 -38.96,9.4 -40,9.36 C-40.24,9.35 -40.49,9.36 -40.73,9.36 L-40.73,9.83 C-40.37,9.83 -40.01,9.83 -39.65,9.86 C-38.02,9.96 -36.61,10.59 -35.46,11.73 C-36.28,12.55 -37.09,13.35 -37.9,14.17 C-38.35,13.71 -38.88,13.35 -39.52,13.13 C-39.92,13 -40.32,12.93 -40.72,12.93 L-40.72,13.37 C-39.82,13.35 -38.9,13.72 -38.26,14.53 C-39.07,15.34 -39.86,16.12 -40.63,16.89 C-40.66,16.86 -40.69,16.83 -40.72,16.8 L-40.72,17.59 C-38.97,19.34 -37.21,21.1 -35.44,22.86 C-36.24,23.67 -37.04,24.46 -37.82,25.24 C-38.79,24.27 -39.75,23.31 -40.71,22.34 L-40.71,23.15 C-40.71,23.15 -40.62,23.21 -40.62,23.21 C-40.6,23.22 -40.55,23.24 -40.52,23.28 C-39.8,24 -39.09,24.71 -38.37,25.43 C-38.25,25.55 -38.17,25.64 -38.33,25.79 C-38.97,26.39 -39.7,26.79 -40.6,26.79 C-40.64,26.79 -40.67,26.78 -40.7,26.78 L-40.7,27.25 C-40.23,27.25 -39.75,27.14 -39.29,26.93 C-38.81,26.7 -38.33,26.4 -37.95,26.03 C-36.14,24.27 -34.37,22.47 -32.59,20.69 C-32.51,20.61 -32.44,20.51 -32.4,20.45 C-31.55,21.29 -30.74,22.11 -29.92,22.92 C-31.71,24.71 -33.53,26.56 -35.39,28.37 C-36.28,29.24 -37.34,29.87 -38.58,30.13 C-38.98,30.22 -39.39,30.26 -39.8,30.3 C-40.1,30.33 -40.4,30.36 -40.69,30.36 L-40.69,30.8 C-40.25,30.8 -39.81,30.78 -39.37,30.74 C-38.8,30.69 -38.23,30.59 -37.68,30.43 C-36.65,30.14 -35.84,29.46 -35.11,28.81 C-34.46,29.26 -33.86,29.76 -33.2,30.13 C-32.29,30.64 -31.26,30.78 -30.22,30.81 C-29.52,30.83 -28.82,30.79 -28.13,30.75 C-27.45,30.72 -26.79,30.57 -26.16,30.29 C-25.34,29.92 -24.61,29.41 -23.99,28.76 C-23.81,28.91 -23.63,29.04 -23.47,29.19 C-22.22,30.36 -20.7,30.79 -19.03,30.81 C-18.41,30.81 -17.78,30.78 -17.16,30.75 C-16.3,30.72 -15.46,30.54 -14.71,30.11 C-14.05,29.72 -13.44,29.24 -12.81,28.8 C-12.61,28.97 -12.37,29.19 -12.12,29.4 C-11.18,30.18 -10.08,30.63 -8.87,30.74 C-8.36,30.79 -7.84,30.81 -7.33,30.81 L-7.33,30.36 C-7.38,30.36 -7.44,30.36 -7.49,30.36 C-8.96,30.32 -10.38,30.08 -11.6,29.18 C-11.93,28.94 -12.25,28.68 -12.56,28.44 C-11.73,27.61 -10.92,26.8 -10.13,26.02 C-9.74,26.31 -9.36,26.66 -8.92,26.88 C-8.39,27.14 -7.86,27.27 -7.34,27.26 L-7.34,26.79 C-7.34,26.79 -7.4,26.79 -7.43,26.79 C-8.18,26.76 -8.86,26.51 -9.4,25.98 C-9.47,25.91 -9.52,25.83 -9.6,25.79 C-9.79,25.69 -9.76,25.6 -9.62,25.46 C-8.87,24.72 -8.12,23.97 -7.38,23.22 L-7.33,23.17 L-7.33,22.36 C-9.04,20.65 -10.75,19.02 -12.46,17.32 C-11.67,16.53 -10.87,15.73 -10.08,14.94 C-9.17,15.85 -8.25,16.69 -7.33,17.6 L-7.33,16.81 C-8.12,16.02 -8.91,15.31 -9.7,14.52 C-9.15,13.76 -8.25,13.37 -7.33,13.38 L-7.33,12.93 C-8.15,12.92 -8.98,13.19 -9.6,13.77 C-10.7,14.8 -11.75,15.87 -12.83,16.92 C-13.77,17.84 -14.71,18.75 -15.62,19.63 C-16.38,18.87 -17.17,18.08 -18.06,17.2 C-18.03,17.19 -17.91,17.15 -17.83,17.08 C-16.24,15.5 -14.64,13.94 -13.08,12.33 C-12.3,11.52 -11.46,10.83 -10.43,10.41 C-9.87,10.18 -9.26,10.05 -8.66,9.93 C-8.23,9.84 -7.77,9.83 -7.33,9.84 L-7.33,9.37 C-7.92,9.38 -8.52,9.43 -9.11,9.48 C-10.5,9.62 -11.65,10.26 -12.63,11.22 L-12.68,11.21 Z" id="path-6"></path>
        <polygon id="path-8" points="194.92 8.96 205.65 20.19 200.82 25.13 194.55 31.26 179.52 30.81 179.52 9.35"></polygon>
        <rect id="path-10" x="179.52" y="9.35" width="66.7" height="21.47"></rect>
        <path d="M235.13,16.88 C234.36,16.11 233.56,15.31 232.74,14.48 C234.09,12.95 236.32,13.02 237.5,14.51 C236.7,15.31 235.91,16.1 235.13,16.88 Z M240.33,22.86 C239.53,23.66 238.73,24.46 237.86,25.33 C235.24,22.65 232.61,19.96 230.01,17.29 C230.77,16.53 231.58,15.72 232.39,14.92 C235.02,17.55 237.68,20.21 240.34,22.86 L240.33,22.86 Z M240.68,17.77 C241.43,18.52 242.22,19.31 243,20.09 C242.24,20.85 241.44,21.64 240.67,22.42 C239.9,21.65 239.11,20.86 238.35,20.11 C239.12,19.34 239.91,18.55 240.68,17.78 L240.68,17.77 Z M243.37,20.45 C244.21,21.29 245.02,22.1 245.84,22.92 C244.02,24.74 242.18,26.61 240.29,28.44 C239.41,29.29 238.34,29.88 237.14,30.15 C236.75,30.24 236.34,30.26 235.95,30.31 C235.73,30.33 235.52,30.38 235.3,30.37 C234.6,30.32 233.9,30.28 233.2,30.18 C232.07,30.01 230.68,29.28 229.93,28.38 C230.68,27.64 231.43,26.89 232.17,26.14 C232.33,25.98 232.42,26.01 232.57,26.14 C232.85,26.38 233.13,26.63 233.44,26.82 C234.09,27.2 234.8,27.28 235.55,27.19 C236.56,27.07 237.32,26.53 238.01,25.84 C239.72,24.12 241.44,22.41 243.16,20.69 C243.24,20.61 243.31,20.52 243.36,20.45 L243.37,20.45 Z M235.14,23.27 C235.92,24.05 236.73,24.85 237.55,25.68 C236.17,27.2 234.09,27.19 232.74,25.68 C233.55,24.87 234.36,24.06 235.15,23.28 L235.14,23.27 Z M227.58,29.59 C226.92,29.94 226.21,30.18 225.45,30.25 C224.95,30.29 224.44,30.38 223.94,30.37 C222.66,30.34 221.39,30.19 220.26,29.5 C219.75,29.18 219.27,28.81 218.78,28.47 C219.64,27.62 220.44,26.81 221.27,25.99 C221.72,26.44 222.19,26.87 222.81,27.06 C224.14,27.47 225.38,27.25 226.41,26.32 C227.48,25.36 228.49,24.32 229.51,23.3 C230.4,22.41 231.28,21.5 232.16,20.59 C232.26,20.48 232.35,20.4 232.5,20.54 C233.26,21.3 234.02,22.06 234.8,22.83 C234.71,22.93 234.63,23.01 234.55,23.09 C232.95,24.69 231.34,26.27 229.76,27.89 C229.11,28.56 228.41,29.16 227.58,29.59 L227.58,29.59 Z M221.74,25.46 C222.49,24.72 223.23,23.97 223.98,23.22 C224.81,24.05 225.62,24.85 226.43,25.66 C225.79,26.4 224.97,26.83 223.94,26.79 C223.19,26.76 222.51,26.51 221.97,25.97 C221.9,25.9 221.85,25.82 221.77,25.78 C221.58,25.68 221.61,25.59 221.74,25.45 L221.74,25.46 Z M218.92,17.35 C219.71,16.56 220.52,15.75 221.32,14.96 C223.91,17.54 226.56,20.19 229.2,22.83 C228.4,23.63 227.59,24.43 226.8,25.22 C224.18,22.6 221.53,19.96 218.92,17.34 L218.92,17.35 Z M218.48,22.38 C217.73,21.64 216.94,20.84 216.17,20.07 C216.93,19.31 217.72,18.52 218.5,17.75 C219.26,18.51 220.05,19.3 220.81,20.06 C220.04,20.82 219.25,21.62 218.48,22.39 L218.48,22.38 Z M213.35,17.3 C215,15.64 216.7,13.97 218.35,12.26 C219.39,11.17 220.58,10.37 222.05,10.02 C222.45,9.93 222.86,9.87 223.27,9.85 C223.8,9.82 224.34,9.82 224.88,9.85 C226.23,9.92 227.48,10.3 228.56,11.15 C228.68,11.25 228.8,11.35 228.92,11.44 C229.04,11.54 229.16,11.64 229.26,11.71 C228.42,12.55 227.62,13.35 226.81,14.15 C226.3,13.72 225.75,13.27 225.04,13.08 C223.83,12.76 222.69,12.91 221.76,13.77 C220.51,14.93 219.32,16.14 218.11,17.34 C217.32,18.12 216.54,18.91 215.76,19.69 C214.93,18.86 214.13,18.06 213.35,17.29 L213.35,17.3 Z M224.08,16.91 C223.27,16.1 222.48,15.31 221.67,14.51 C222.84,12.91 225.31,13.03 226.47,14.6 C226.06,14.98 225.64,15.35 225.24,15.74 C224.83,16.13 224.44,16.54 224.07,16.91 L224.08,16.91 Z M229.55,17.72 C230.35,18.52 231.15,19.32 231.98,20.15 C231.72,20.4 231.41,20.69 231.11,20.99 C230.66,21.44 230.2,21.89 229.76,22.34 C229.65,22.45 229.56,22.52 229.42,22.38 C228.66,21.62 227.9,20.86 227.1,20.07 C227.95,19.25 228.76,18.47 229.54,17.72 L229.55,17.72 Z M229.96,11.74 C230.91,10.82 232.05,10.19 233.38,9.98 C233.95,9.89 234.53,9.79 235.1,9.8 C236.42,9.84 237.74,9.94 238.9,10.67 C239.4,10.98 239.87,11.35 240.34,11.69 C239.48,12.55 238.67,13.35 237.86,14.17 C237.42,13.73 236.89,13.36 236.27,13.15 C235.1,12.76 234.01,12.9 233.01,13.64 C232.78,13.81 232.57,14.02 232.36,14.22 C230.59,15.99 228.81,17.75 227.05,19.53 C226.86,19.72 226.75,19.74 226.55,19.53 C225.83,18.79 225.1,18.08 224.35,17.33 C224.43,17.25 224.5,17.17 224.57,17.1 C226.36,15.31 228.14,13.5 229.96,11.74 Z M240.47,12.32 C241.25,11.51 242.09,10.82 243.12,10.4 C243.68,10.17 244.29,10.04 244.89,9.92 C245.32,9.83 245.78,9.82 246.22,9.83 L246.22,9.36 C245.63,9.37 245.03,9.42 244.44,9.47 C243.05,9.61 241.9,10.25 240.92,11.21 C240.72,11.41 240.62,11.36 240.43,11.21 C239.9,10.79 239.38,10.34 238.79,10.02 C237.84,9.5 236.78,9.39 235.72,9.35 C235.13,9.33 234.53,9.36 233.94,9.41 C233.45,9.45 232.96,9.53 232.49,9.65 C231.34,9.92 230.44,10.62 229.62,11.38 C229.18,11.03 228.75,10.67 228.29,10.35 C227.23,9.62 226,9.39 224.75,9.36 C223.92,9.33 223.09,9.41 222.26,9.48 C221.33,9.55 220.49,9.9 219.72,10.42 C219.28,10.72 218.88,11.08 218.53,11.36 C217.88,10.91 217.28,10.42 216.61,10.03 C215.69,9.51 214.64,9.4 213.6,9.36 C213.36,9.35 213.11,9.36 212.87,9.36 L212.87,9.83 C213.23,9.83 213.59,9.83 213.95,9.86 C215.58,9.96 216.99,10.59 218.14,11.73 C217.32,12.55 216.51,13.35 215.7,14.17 C215.25,13.71 214.72,13.35 214.08,13.13 C213.68,13 213.28,12.93 212.88,12.93 L212.88,13.37 C213.78,13.35 214.7,13.72 215.34,14.53 C214.53,15.34 213.74,16.12 212.97,16.89 C212.94,16.86 212.91,16.83 212.88,16.8 L212.88,17.59 C214.63,19.34 216.39,21.1 218.16,22.86 C217.36,23.67 216.56,24.46 215.78,25.24 C214.81,24.27 213.85,23.31 212.89,22.34 L212.89,23.15 C212.89,23.15 212.98,23.21 212.98,23.21 C213,23.22 213.05,23.24 213.08,23.28 C213.8,24 214.51,24.71 215.23,25.43 C215.35,25.55 215.43,25.64 215.27,25.79 C214.63,26.39 213.9,26.79 213,26.79 C212.96,26.79 212.93,26.78 212.9,26.78 L212.9,27.25 C213.37,27.25 213.85,27.14 214.31,26.93 C214.79,26.7 215.27,26.4 215.65,26.03 C217.46,24.27 219.23,22.47 221.01,20.69 C221.09,20.61 221.16,20.51 221.2,20.45 C222.05,21.29 222.86,22.11 223.68,22.92 C221.89,24.71 220.07,26.56 218.21,28.37 C217.32,29.24 216.26,29.87 215.02,30.13 C214.62,30.22 214.21,30.26 213.8,30.3 C213.5,30.33 213.2,30.36 212.91,30.36 L212.91,30.8 C213.35,30.8 213.79,30.78 214.23,30.74 C214.8,30.69 215.37,30.59 215.92,30.43 C216.95,30.14 217.76,29.46 218.49,28.81 C219.14,29.26 219.74,29.76 220.4,30.13 C221.31,30.64 222.34,30.78 223.38,30.81 C224.08,30.83 224.78,30.79 225.47,30.75 C226.15,30.72 226.81,30.57 227.44,30.29 C228.26,29.92 228.99,29.41 229.61,28.76 C229.79,28.91 229.97,29.04 230.13,29.19 C231.38,30.36 232.9,30.79 234.57,30.81 C235.19,30.81 235.82,30.78 236.44,30.75 C237.3,30.72 238.14,30.54 238.89,30.11 C239.55,29.72 240.16,29.24 240.79,28.8 C240.99,28.97 241.23,29.19 241.48,29.4 C242.42,30.18 243.52,30.63 244.73,30.74 C245.24,30.79 245.76,30.81 246.27,30.81 L246.27,30.36 C246.22,30.36 246.16,30.36 246.11,30.36 C244.64,30.32 243.22,30.08 242,29.18 C241.67,28.94 241.35,28.68 241.04,28.44 C241.87,27.61 242.68,26.8 243.47,26.02 C243.86,26.31 244.24,26.66 244.68,26.88 C245.21,27.14 245.74,27.27 246.26,27.26 L246.26,26.79 C246.26,26.79 246.2,26.79 246.17,26.79 C245.42,26.76 244.74,26.51 244.2,25.98 C244.13,25.91 244.08,25.83 244,25.79 C243.81,25.69 243.84,25.6 243.97,25.46 C244.72,24.72 245.47,23.97 246.21,23.22 L246.26,23.17 L246.26,22.36 C244.55,20.65 242.84,19.02 241.13,17.32 C241.92,16.53 242.72,15.73 243.51,14.94 C244.42,15.85 245.34,16.69 246.26,17.6 L246.26,16.81 C245.47,16.02 244.68,15.31 243.89,14.52 C244.44,13.76 245.34,13.37 246.26,13.38 L246.26,12.93 C245.44,12.92 244.61,13.19 243.99,13.77 C242.89,14.8 241.84,15.87 240.76,16.92 C239.82,17.84 238.88,18.75 237.97,19.63 C237.21,18.87 236.41,18.08 235.53,17.2 C235.56,17.19 235.68,17.15 235.76,17.08 C237.35,15.5 238.95,13.94 240.51,12.33 L240.47,12.32 Z M204.52,14.17 C204.08,13.73 203.55,13.36 202.93,13.15 C201.76,12.76 200.67,12.9 199.67,13.64 C199.44,13.81 199.23,14.02 199.02,14.22 C197.25,15.99 195.47,17.75 193.71,19.53 C193.52,19.72 193.41,19.74 193.21,19.53 C192.49,18.79 191.76,18.08 191.01,17.33 C191.09,17.25 191.16,17.17 191.23,17.1 C193.02,15.31 194.8,13.5 196.62,11.74 C197.57,10.82 198.71,10.19 200.05,9.98 C200.62,9.89 201.2,9.79 201.77,9.8 C203.09,9.84 204.41,9.94 205.57,10.67 C206.07,10.98 206.54,11.35 207.01,11.69 C206.15,12.55 205.34,13.35 204.53,14.17 L204.52,14.17 Z M201.78,16.88 C201.01,16.11 200.21,15.31 199.39,14.48 C200.74,12.95 202.97,13.02 204.15,14.51 C203.35,15.31 202.56,16.1 201.78,16.88 Z M206.98,22.86 C206.18,23.66 205.38,24.46 204.51,25.33 C201.89,22.65 199.26,19.96 196.66,17.29 C197.42,16.53 198.23,15.72 199.04,14.92 C201.67,17.55 204.33,20.21 206.99,22.86 L206.98,22.86 Z M207.33,17.77 C208.08,18.52 208.87,19.31 209.65,20.09 C208.89,20.85 208.09,21.64 207.32,22.42 C206.55,21.65 205.76,20.86 205,20.11 C205.77,19.34 206.56,18.55 207.33,17.78 L207.33,17.77 Z M210.02,20.45 C210.86,21.29 211.67,22.1 212.49,22.92 C210.67,24.74 208.83,26.61 206.94,28.44 C206.06,29.29 204.99,29.88 203.79,30.15 C203.4,30.24 203,30.26 202.6,30.31 C202.39,30.33 202.17,30.38 201.95,30.37 C201.25,30.32 200.55,30.28 199.85,30.18 C198.72,30.01 197.33,29.28 196.58,28.38 C197.33,27.64 198.08,26.89 198.82,26.14 C198.98,25.98 199.07,26.01 199.22,26.14 C199.5,26.38 199.78,26.63 200.09,26.82 C200.74,27.2 201.45,27.28 202.2,27.19 C203.21,27.07 203.97,26.53 204.66,25.84 C206.37,24.12 208.09,22.41 209.81,20.69 C209.89,20.61 209.96,20.52 210.01,20.45 L210.02,20.45 Z M201.79,23.27 C202.57,24.05 203.38,24.85 204.2,25.68 C202.82,27.2 200.74,27.19 199.39,25.68 C200.2,24.87 201.01,24.06 201.8,23.28 L201.79,23.27 Z M194.22,29.59 C193.56,29.94 192.85,30.18 192.09,30.25 C191.59,30.29 191.08,30.38 190.58,30.37 C189.3,30.34 188.03,30.19 186.9,29.5 C186.39,29.18 185.91,28.81 185.42,28.47 C186.28,27.62 187.08,26.81 187.91,25.99 C188.36,26.44 188.83,26.87 189.45,27.06 C190.78,27.47 192.02,27.25 193.05,26.32 C194.12,25.36 195.13,24.32 196.15,23.3 C197.04,22.41 197.92,21.5 198.8,20.59 C198.9,20.48 198.99,20.4 199.14,20.54 C199.9,21.3 200.66,22.06 201.44,22.83 C201.35,22.93 201.27,23.01 201.19,23.09 C199.59,24.69 197.98,26.27 196.4,27.89 C195.75,28.56 195.05,29.16 194.22,29.59 L194.22,29.59 Z M188.39,25.46 C189.14,24.72 189.88,23.97 190.63,23.22 C191.46,24.05 192.27,24.85 193.08,25.66 C192.44,26.4 191.62,26.83 190.59,26.79 C189.84,26.76 189.16,26.51 188.62,25.97 C188.55,25.9 188.5,25.82 188.42,25.78 C188.23,25.68 188.26,25.59 188.39,25.45 L188.39,25.46 Z M193.76,20.07 C194.61,19.25 195.42,18.47 196.2,17.72 C197,18.52 197.8,19.32 198.63,20.15 C198.37,20.4 198.06,20.69 197.76,20.99 C197.31,21.44 196.85,21.89 196.41,22.34 C196.3,22.45 196.21,22.52 196.07,22.38 C195.31,21.62 194.55,20.86 193.75,20.07 L193.76,20.07 Z M185.57,17.35 C186.36,16.56 187.17,15.75 187.97,14.96 C190.56,17.54 193.21,20.19 195.86,22.83 C195.06,23.63 194.25,24.43 193.46,25.22 L185.57,17.34 L185.57,17.35 Z M185.13,22.38 C184.38,21.64 183.59,20.84 182.82,20.07 C183.58,19.31 184.37,18.52 185.15,17.75 C185.91,18.51 186.7,19.3 187.46,20.06 C186.69,20.82 185.9,21.62 185.13,22.39 L185.13,22.38 Z M193.13,14.6 C192.72,14.98 192.3,15.35 191.9,15.74 C191.49,16.13 191.1,16.54 190.73,16.91 C189.92,16.1 189.13,15.31 188.32,14.51 C189.49,12.91 191.96,13.03 193.13,14.6 L193.13,14.6 Z M180,17.3 C181.65,15.64 183.35,13.97 185,12.26 C186.04,11.17 187.23,10.37 188.7,10.02 C189.1,9.93 189.51,9.87 189.92,9.85 C190.45,9.82 190.99,9.82 191.52,9.85 C192.87,9.92 194.12,10.3 195.2,11.15 C195.32,11.25 195.44,11.35 195.56,11.44 C195.68,11.54 195.8,11.64 195.9,11.71 C195.06,12.55 194.26,13.35 193.45,14.15 C192.94,13.72 192.39,13.27 191.68,13.08 C190.47,12.76 189.33,12.91 188.4,13.77 C187.15,14.93 185.96,16.14 184.75,17.34 C183.96,18.12 183.18,18.91 182.4,19.69 C181.57,18.86 180.77,18.06 179.99,17.29 L180,17.3 Z M207.56,11.21 C207.36,11.41 207.26,11.36 207.07,11.21 C206.54,10.79 206.02,10.34 205.43,10.02 C204.48,9.5 203.42,9.39 202.36,9.35 C201.77,9.33 201.17,9.36 200.58,9.41 C200.09,9.45 199.6,9.53 199.13,9.65 C197.98,9.92 197.08,10.62 196.26,11.38 C195.81,11.03 195.39,10.67 194.93,10.35 C193.87,9.62 192.64,9.39 191.39,9.36 C190.56,9.33 189.73,9.41 188.9,9.48 C187.97,9.55 187.13,9.9 186.36,10.42 C185.92,10.72 185.52,11.08 185.17,11.36 C184.52,10.91 183.92,10.42 183.25,10.03 C182.33,9.51 181.28,9.4 180.24,9.36 C180,9.35 179.75,9.36 179.51,9.36 L179.51,9.83 C179.87,9.83 180.23,9.83 180.59,9.86 C182.22,9.96 183.63,10.59 184.78,11.73 C183.96,12.55 183.15,13.35 182.34,14.17 C181.89,13.71 181.36,13.35 180.72,13.13 C180.32,13 179.92,12.93 179.52,12.93 L179.52,13.37 C180.42,13.35 181.34,13.72 181.98,14.53 C181.17,15.34 180.38,16.12 179.61,16.89 C179.58,16.86 179.55,16.83 179.52,16.8 L179.52,17.59 C181.27,19.34 183.03,21.1 184.8,22.86 C184,23.67 183.2,24.46 182.42,25.24 C181.45,24.27 180.49,23.31 179.53,22.34 L179.53,23.15 C179.53,23.15 179.62,23.21 179.62,23.21 C179.64,23.22 179.69,23.24 179.72,23.28 C180.44,24 181.15,24.71 181.87,25.43 C181.99,25.55 182.07,25.64 181.91,25.79 C181.27,26.39 180.54,26.79 179.64,26.79 C179.6,26.79 179.57,26.78 179.54,26.78 L179.54,27.25 C180.01,27.25 180.49,27.14 180.95,26.93 C181.43,26.7 181.91,26.4 182.29,26.03 C184.1,24.27 185.87,22.47 187.65,20.69 C187.73,20.61 187.8,20.51 187.84,20.45 C188.69,21.29 189.5,22.11 190.32,22.92 C188.53,24.71 186.71,26.56 184.85,28.37 C183.96,29.24 182.9,29.87 181.66,30.13 C181.26,30.22 180.85,30.26 180.44,30.3 C180.14,30.33 179.84,30.36 179.55,30.36 L179.55,30.8 C179.99,30.8 180.43,30.78 180.87,30.74 C181.44,30.69 182.01,30.59 182.56,30.43 C183.59,30.14 184.4,29.46 185.13,28.81 C185.78,29.26 186.38,29.76 187.04,30.13 C187.95,30.64 188.98,30.78 190.02,30.81 C190.72,30.83 191.42,30.79 192.11,30.75 C192.79,30.72 193.45,30.57 194.08,30.29 C194.9,29.92 195.63,29.41 196.25,28.76 C196.43,28.91 196.61,29.04 196.77,29.19 C198.02,30.36 199.54,30.79 201.21,30.81 C201.83,30.81 202.46,30.78 203.08,30.75 C203.94,30.72 204.78,30.54 205.53,30.11 C206.19,29.72 206.8,29.24 207.43,28.8 C207.63,28.97 207.87,29.19 208.12,29.4 C209.06,30.18 210.16,30.63 211.37,30.74 C211.88,30.79 212.4,30.81 212.91,30.81 L212.91,30.36 C212.86,30.36 212.8,30.36 212.75,30.36 C211.28,30.32 209.86,30.08 208.64,29.18 C208.31,28.94 207.99,28.68 207.68,28.44 C208.51,27.61 209.32,26.8 210.11,26.02 C210.5,26.31 210.88,26.66 211.32,26.88 C211.85,27.14 212.38,27.27 212.9,27.26 L212.9,26.79 C212.9,26.79 212.84,26.79 212.81,26.79 C212.06,26.76 211.38,26.51 210.84,25.98 C210.77,25.91 210.72,25.83 210.64,25.79 C210.45,25.69 210.48,25.6 210.62,25.46 C211.37,24.72 212.12,23.97 212.86,23.22 L212.91,23.17 L212.91,22.36 C211.2,20.65 209.49,19.02 207.78,17.32 C208.57,16.53 209.37,15.73 210.16,14.94 C211.07,15.85 211.99,16.69 212.91,17.6 L212.91,16.81 C212.12,16.02 211.33,15.31 210.54,14.52 C211.09,13.76 211.99,13.37 212.91,13.38 L212.91,12.93 C212.09,12.92 211.26,13.19 210.64,13.77 C209.54,14.8 208.49,15.87 207.41,16.92 C206.47,17.84 205.53,18.75 204.62,19.63 C203.86,18.87 203.07,18.08 202.18,17.2 C202.21,17.19 202.33,17.15 202.41,17.08 C204,15.5 205.6,13.94 207.16,12.33 C207.94,11.52 208.78,10.83 209.81,10.41 C210.37,10.18 210.98,10.05 211.58,9.93 C212.01,9.84 212.47,9.83 212.91,9.84 L212.91,9.37 C212.32,9.38 211.72,9.43 211.13,9.48 C209.74,9.62 208.59,10.26 207.61,11.22 L207.56,11.21 Z" id="path-12"></path>
    </defs>
    <g id="btn_2" stroke="none" fill="none" fill-rule="nonzero" xlink:href="#path-1" stroke-width="1">
        <g id="btn2" fill-rule="evenodd">
            <g id="topbar-comprar-btn_xA0_Imagen">
                <path d="M0.67,19.89 C3.84,16.64 19.31,0.1 26.44,0.36 C35.49,0.29 171.13,0.47 179.92,0.47 C189.74,2.02 203.33,17.53 205.65,20.19 C184.72,42.71 180.43,38.95 175.23,39.68 C170.91,39.68 27.51,39.53 25.44,39.46 C19.61,38.13 12.3,34.51 0.67,19.89" id="Trazado" fill="#F5C889"></path>
                <path d="M2.04,19.95 C5.22,16.71 21.43,0.65 28.55,0.91 C37.1,0.84 157.71,0.7 178.23,0.74 C180.12,0.74 181.98,1.27 183.57,2.29 C190.47,6.74 196.91,12.15 204,20.01 C183.07,42.53 179.63,38.77 174.43,39.5 C170.11,39.5 29.63,39.08 27.56,39 C15.71,36.62 2.04,19.95 2.04,19.95 Z" id="Trazado" fill="#1A1D26"></path>
                <g id="Clipped">
                    <mask id="mask-3" fill="white">
                        <use xlink:href="#path-2"></use>
                    </mask>
                    <g id="Trazado"></g>
                    <g mask="url(#mask-3)">
                        <mask id="mask-5" fill="white">
                            <use xlink:href="#path-4"></use>
                        </mask>
                        <g id="Rectángulo"></g>
                        <g id="Grupo" mask="url(#mask-5)">
                            <path d="M14.89,16.88 C14.12,16.11 13.32,15.31 12.5,14.48 C13.85,12.95 16.08,13.02 17.26,14.51 C16.46,15.31 15.67,16.1 14.89,16.88 L14.89,16.88 Z M20.09,22.86 C19.29,23.66 18.49,24.46 17.62,25.33 C15,22.65 12.37,19.96 9.77,17.29 C10.53,16.53 11.34,15.72 12.15,14.92 C14.78,17.55 17.44,20.21 20.1,22.86 L20.09,22.86 Z M20.44,17.77 C21.19,18.52 21.98,19.31 22.76,20.09 C22,20.85 21.2,21.64 20.43,22.42 C19.66,21.65 18.87,20.86 18.11,20.11 C18.88,19.34 19.67,18.55 20.44,17.78 L20.44,17.77 Z M23.13,20.45 C23.97,21.29 24.78,22.1 25.6,22.92 C23.78,24.74 21.94,26.61 20.05,28.44 C19.17,29.29 18.1,29.88 16.9,30.15 C16.51,30.24 16.1,30.26 15.71,30.31 C15.49,30.33 15.28,30.38 15.06,30.37 C14.36,30.32 13.66,30.28 12.96,30.18 C11.83,30.01 10.44,29.28 9.69,28.38 C10.44,27.64 11.19,26.89 11.93,26.14 C12.09,25.98 12.18,26.01 12.33,26.14 C12.61,26.38 12.89,26.63 13.2,26.82 C13.85,27.2 14.56,27.28 15.31,27.19 C16.32,27.07 17.08,26.53 17.77,25.84 C19.48,24.12 21.2,22.41 22.92,20.69 C23,20.61 23.07,20.52 23.12,20.45 L23.13,20.45 Z M14.9,23.27 C15.68,24.05 16.49,24.85 17.31,25.68 C15.93,27.2 13.85,27.19 12.5,25.68 C13.31,24.87 14.12,24.06 14.91,23.28 L14.9,23.27 Z M7.34,29.59 C6.68,29.94 5.97,30.18 5.21,30.25 C4.71,30.29 4.2,30.38 3.7,30.37 C2.42,30.34 1.15,30.19 0.02,29.5 C-0.49,29.18 -0.97,28.81 -1.46,28.47 C-0.6,27.62 0.2,26.81 1.03,25.99 C1.48,26.44 1.95,26.87 2.57,27.06 C3.9,27.47 5.14,27.25 6.17,26.32 C7.24,25.36 8.25,24.32 9.27,23.3 C10.16,22.41 11.04,21.5 11.92,20.59 C12.02,20.48 12.11,20.4 12.26,20.54 C13.02,21.3 13.78,22.06 14.56,22.83 C14.47,22.93 14.39,23.01 14.31,23.09 C12.71,24.69 11.1,26.27 9.52,27.89 C8.87,28.56 8.17,29.16 7.34,29.59 Z M1.5,25.46 C2.25,24.72 2.99,23.97 3.74,23.22 C4.57,24.05 5.38,24.85 6.19,25.66 C5.55,26.4 4.73,26.83 3.7,26.79 C2.95,26.76 2.27,26.51 1.73,25.97 C1.66,25.9 1.61,25.82 1.53,25.78 C1.34,25.68 1.37,25.59 1.5,25.45 L1.5,25.46 Z M-1.32,17.35 C-0.53,16.56 0.28,15.75 1.08,14.96 C3.67,17.54 6.32,20.19 8.96,22.83 C8.16,23.63 7.35,24.43 6.56,25.22 C3.94,22.6 1.29,19.96 -1.32,17.34 L-1.32,17.35 Z M-1.76,22.38 C-2.51,21.64 -3.3,20.84 -4.07,20.07 C-3.31,19.31 -2.52,18.52 -1.74,17.75 C-0.98,18.51 -0.19,19.3 0.57,20.06 C-0.2,20.82 -0.99,21.62 -1.76,22.39 L-1.76,22.38 Z M-6.89,17.3 C-5.24,15.64 -3.54,13.97 -1.89,12.26 C-0.85,11.17 0.34,10.37 1.81,10.02 C2.21,9.93 2.62,9.87 3.03,9.85 C3.56,9.82 4.1,9.82 4.64,9.85 C5.99,9.92 7.24,10.3 8.32,11.15 C8.44,11.25 8.56,11.35 8.68,11.44 C8.8,11.54 8.92,11.64 9.02,11.71 C8.18,12.55 7.38,13.35 6.57,14.15 C6.06,13.72 5.51,13.27 4.8,13.08 C3.59,12.76 2.45,12.91 1.52,13.77 C0.27,14.93 -0.92,16.14 -2.13,17.34 C-2.92,18.12 -3.7,18.91 -4.48,19.69 C-5.31,18.86 -6.11,18.06 -6.89,17.29 L-6.89,17.3 Z M3.84,16.91 C3.03,16.1 2.24,15.31 1.43,14.51 C2.6,12.91 5.07,13.03 6.23,14.6 C5.82,14.98 5.4,15.35 5,15.74 C4.59,16.13 4.2,16.54 3.83,16.91 L3.84,16.91 Z M9.31,17.72 C10.11,18.52 10.91,19.32 11.74,20.15 C11.48,20.4 11.17,20.69 10.87,20.99 C10.42,21.44 9.96,21.89 9.52,22.34 C9.41,22.45 9.32,22.52 9.18,22.38 C8.42,21.62 7.66,20.86 6.86,20.07 C7.71,19.25 8.52,18.47 9.3,17.72 L9.31,17.72 Z M9.72,11.74 C10.67,10.82 11.81,10.19 13.14,9.98 C13.71,9.89 14.29,9.79 14.86,9.8 C16.18,9.84 17.5,9.94 18.66,10.67 C19.16,10.98 19.63,11.35 20.1,11.69 C19.24,12.55 18.43,13.35 17.62,14.17 C17.18,13.73 16.65,13.36 16.03,13.15 C14.86,12.76 13.77,12.9 12.77,13.64 C12.54,13.81 12.33,14.02 12.12,14.22 C10.35,15.99 8.57,17.75 6.81,19.53 C6.62,19.72 6.51,19.74 6.31,19.53 C5.59,18.79 4.86,18.08 4.11,17.33 C4.19,17.25 4.26,17.17 4.33,17.1 C6.12,15.31 7.9,13.5 9.72,11.74 Z M20.23,12.32 C21.01,11.51 21.85,10.82 22.88,10.4 C23.44,10.17 24.05,10.04 24.65,9.92 C25.08,9.83 25.54,9.82 25.98,9.83 L25.98,9.36 C25.39,9.37 24.79,9.42 24.2,9.47 C22.81,9.61 21.66,10.25 20.68,11.21 C20.48,11.41 20.38,11.36 20.19,11.21 C19.66,10.79 19.14,10.34 18.55,10.02 C17.6,9.5 16.54,9.39 15.48,9.35 C14.89,9.33 14.29,9.36 13.7,9.41 C13.21,9.45 12.72,9.53 12.25,9.65 C11.1,9.92 10.2,10.62 9.38,11.38 C8.94,11.03 8.51,10.67 8.05,10.35 C6.99,9.62 5.76,9.39 4.51,9.36 C3.68,9.33 2.85,9.41 2.02,9.48 C1.09,9.55 0.25,9.9 -0.52,10.42 C-0.96,10.72 -1.36,11.08 -1.71,11.36 C-2.36,10.91 -2.96,10.42 -3.63,10.03 C-4.55,9.51 -5.6,9.4 -6.64,9.36 C-6.88,9.35 -7.13,9.36 -7.37,9.36 L-7.37,9.83 C-7.01,9.83 -6.65,9.83 -6.29,9.86 C-4.66,9.96 -3.25,10.59 -2.1,11.73 C-2.92,12.55 -3.73,13.35 -4.54,14.17 C-4.99,13.71 -5.52,13.35 -6.16,13.13 C-6.56,13 -6.96,12.93 -7.36,12.93 L-7.36,13.37 C-6.46,13.35 -5.54,13.72 -4.9,14.53 C-5.71,15.34 -6.5,16.12 -7.27,16.89 C-7.3,16.86 -7.33,16.83 -7.36,16.8 L-7.36,17.59 C-5.61,19.34 -3.85,21.1 -2.08,22.86 C-2.88,23.67 -3.68,24.46 -4.46,25.24 C-5.43,24.27 -6.39,23.31 -7.35,22.34 L-7.35,23.15 C-7.35,23.15 -7.26,23.21 -7.26,23.21 C-7.24,23.22 -7.19,23.24 -7.16,23.28 C-6.44,24 -5.73,24.71 -5.01,25.43 C-4.89,25.55 -4.81,25.64 -4.97,25.79 C-5.61,26.39 -6.34,26.79 -7.24,26.79 C-7.28,26.79 -7.31,26.78 -7.34,26.78 L-7.34,27.25 C-6.87,27.25 -6.39,27.14 -5.93,26.93 C-5.45,26.7 -4.97,26.4 -4.59,26.03 C-2.78,24.27 -1.01,22.47 0.77,20.69 C0.85,20.61 0.92,20.51 0.96,20.45 C1.81,21.29 2.62,22.11 3.44,22.92 C1.65,24.71 -0.17,26.56 -2.03,28.37 C-2.92,29.24 -3.98,29.87 -5.22,30.13 C-5.62,30.22 -6.03,30.26 -6.44,30.3 C-6.74,30.33 -7.04,30.36 -7.33,30.36 L-7.33,30.8 C-6.89,30.8 -6.45,30.78 -6.01,30.74 C-5.44,30.69 -4.87,30.59 -4.32,30.43 C-3.29,30.14 -2.48,29.46 -1.75,28.81 C-1.1,29.26 -0.5,29.76 0.16,30.13 C1.07,30.64 2.1,30.78 3.14,30.81 C3.84,30.83 4.54,30.79 5.23,30.75 C5.91,30.72 6.57,30.57 7.2,30.29 C8.02,29.92 8.75,29.41 9.37,28.76 C9.55,28.91 9.73,29.04 9.89,29.19 C11.14,30.36 12.66,30.79 14.33,30.81 C14.95,30.81 15.58,30.78 16.2,30.75 C17.06,30.72 17.9,30.54 18.65,30.11 C19.31,29.72 19.92,29.24 20.55,28.8 C20.75,28.97 20.99,29.19 21.24,29.4 C22.18,30.18 23.28,30.63 24.49,30.74 C25,30.79 25.52,30.81 26.03,30.81 L26.03,30.36 C25.98,30.36 25.92,30.36 25.87,30.36 C24.4,30.32 22.98,30.08 21.76,29.18 C21.43,28.94 21.11,28.68 20.8,28.44 C21.63,27.61 22.44,26.8 23.23,26.02 C23.62,26.31 24,26.66 24.44,26.88 C24.97,27.14 25.5,27.27 26.02,27.26 L26.02,26.79 C26.02,26.79 25.96,26.79 25.93,26.79 C25.18,26.76 24.5,26.51 23.96,25.98 C23.89,25.91 23.84,25.83 23.76,25.79 C23.57,25.69 23.6,25.6 23.73,25.46 C24.48,24.72 25.23,23.97 25.97,23.22 L26.02,23.17 L26.02,22.36 C24.31,20.65 22.6,19.02 20.89,17.32 C21.68,16.53 22.48,15.73 23.27,14.94 C24.18,15.85 25.1,16.69 26.02,17.6 L26.02,16.81 C25.23,16.02 24.44,15.31 23.65,14.52 C24.2,13.76 25.1,13.37 26.02,13.38 L26.02,12.93 C25.2,12.92 24.37,13.19 23.75,13.77 C22.65,14.8 21.6,15.87 20.52,16.92 C19.58,17.84 18.64,18.75 17.73,19.63 C16.97,18.87 16.17,18.08 15.29,17.2 C15.32,17.19 15.44,17.15 15.52,17.08 C17.11,15.5 18.71,13.94 20.27,12.33 L20.23,12.32 Z M-15.72,14.17 C-16.16,13.73 -16.69,13.36 -17.31,13.15 C-18.48,12.76 -19.57,12.9 -20.57,13.64 C-20.8,13.81 -21.01,14.02 -21.22,14.22 C-22.99,15.99 -24.77,17.75 -26.53,19.53 C-26.72,19.72 -26.83,19.74 -27.03,19.53 C-27.75,18.79 -28.48,18.08 -29.23,17.33 C-29.15,17.25 -29.08,17.17 -29.01,17.1 C-27.22,15.31 -25.44,13.5 -23.62,11.74 C-22.67,10.82 -21.53,10.19 -20.19,9.98 C-19.62,9.89 -19.04,9.79 -18.47,9.8 C-17.15,9.84 -15.83,9.94 -14.67,10.67 C-14.17,10.98 -13.7,11.35 -13.23,11.69 C-14.09,12.55 -14.9,13.35 -15.71,14.17 L-15.72,14.17 Z M-18.46,16.88 C-19.23,16.11 -20.03,15.31 -20.85,14.48 C-19.5,12.95 -17.27,13.02 -16.09,14.51 C-16.89,15.31 -17.68,16.1 -18.46,16.88 L-18.46,16.88 Z M-13.27,22.86 C-14.07,23.66 -14.87,24.46 -15.74,25.33 C-18.36,22.65 -20.99,19.96 -23.59,17.29 C-22.83,16.53 -22.02,15.72 -21.21,14.92 C-18.58,17.55 -15.92,20.21 -13.26,22.86 L-13.27,22.86 Z M-12.91,17.77 C-12.16,18.52 -11.37,19.31 -10.59,20.09 C-11.35,20.85 -12.15,21.64 -12.92,22.42 C-13.69,21.65 -14.48,20.86 -15.24,20.11 C-14.47,19.34 -13.68,18.55 -12.91,17.78 L-12.91,17.77 Z M-10.22,20.45 C-9.38,21.29 -8.57,22.1 -7.75,22.92 C-9.57,24.74 -11.41,26.61 -13.3,28.44 C-14.18,29.29 -15.25,29.88 -16.45,30.15 C-16.84,30.24 -17.24,30.26 -17.64,30.31 C-17.85,30.33 -18.07,30.38 -18.29,30.37 C-18.99,30.32 -19.69,30.28 -20.39,30.18 C-21.52,30.01 -22.91,29.28 -23.66,28.38 C-22.91,27.64 -22.16,26.89 -21.42,26.14 C-21.26,25.98 -21.17,26.01 -21.02,26.14 C-20.74,26.38 -20.46,26.63 -20.15,26.82 C-19.5,27.2 -18.79,27.28 -18.04,27.19 C-17.03,27.07 -16.27,26.53 -15.58,25.84 C-13.87,24.12 -12.15,22.41 -10.43,20.69 C-10.35,20.61 -10.28,20.52 -10.23,20.45 L-10.22,20.45 Z M-18.46,23.27 C-17.68,24.05 -16.87,24.85 -16.05,25.68 C-17.43,27.2 -19.51,27.19 -20.86,25.68 C-20.05,24.87 -19.24,24.06 -18.45,23.28 L-18.46,23.27 Z M-26.02,29.59 C-26.68,29.94 -27.39,30.18 -28.15,30.25 C-28.65,30.29 -29.16,30.38 -29.66,30.37 C-30.94,30.34 -32.21,30.19 -33.34,29.5 C-33.85,29.18 -34.33,28.81 -34.82,28.47 C-33.96,27.62 -33.16,26.81 -32.33,25.99 C-31.88,26.44 -31.41,26.87 -30.79,27.06 C-29.46,27.47 -28.22,27.25 -27.19,26.32 C-26.12,25.36 -25.11,24.32 -24.09,23.3 C-23.2,22.41 -22.32,21.5 -21.44,20.59 C-21.34,20.48 -21.25,20.4 -21.1,20.54 C-20.34,21.3 -19.58,22.06 -18.8,22.83 C-18.89,22.93 -18.97,23.01 -19.05,23.09 C-20.65,24.69 -22.26,26.27 -23.84,27.89 C-24.49,28.56 -25.19,29.16 -26.02,29.59 L-26.02,29.59 Z M-31.85,25.46 C-31.1,24.72 -30.36,23.97 -29.61,23.22 C-28.78,24.05 -27.97,24.85 -27.16,25.66 C-27.8,26.4 -28.62,26.83 -29.65,26.79 C-30.4,26.76 -31.08,26.51 -31.62,25.97 C-31.69,25.9 -31.74,25.82 -31.82,25.78 C-32.01,25.68 -31.98,25.59 -31.85,25.45 L-31.85,25.46 Z M-26.48,20.07 C-25.63,19.25 -24.82,18.47 -24.04,17.72 C-23.24,18.52 -22.44,19.32 -21.61,20.15 C-21.87,20.4 -22.18,20.69 -22.48,20.99 C-22.93,21.44 -23.39,21.89 -23.83,22.34 C-23.94,22.45 -24.03,22.52 -24.17,22.38 C-24.93,21.62 -25.69,20.86 -26.49,20.07 L-26.48,20.07 Z M-34.67,17.35 C-33.88,16.56 -33.07,15.75 -32.27,14.96 C-29.68,17.54 -27.03,20.19 -24.38,22.83 C-25.18,23.63 -25.99,24.43 -26.78,25.22 L-34.67,17.34 L-34.67,17.35 Z M-35.12,22.38 C-35.87,21.64 -36.66,20.84 -37.43,20.07 C-36.67,19.31 -35.88,18.52 -35.1,17.75 C-34.34,18.51 -33.55,19.3 -32.79,20.06 C-33.56,20.82 -34.35,21.62 -35.12,22.39 L-35.12,22.38 Z M-27.11,14.6 C-27.52,14.98 -27.94,15.35 -28.34,15.74 C-28.75,16.13 -29.14,16.54 -29.51,16.91 C-30.32,16.1 -31.11,15.31 -31.92,14.51 C-30.75,12.91 -28.28,13.03 -27.11,14.6 Z M-40.24,17.3 C-38.59,15.64 -36.89,13.97 -35.24,12.26 C-34.2,11.17 -33.01,10.37 -31.54,10.02 C-31.14,9.93 -30.73,9.87 -30.32,9.85 C-29.79,9.82 -29.25,9.82 -28.72,9.85 C-27.37,9.92 -26.12,10.3 -25.04,11.15 C-24.92,11.25 -24.8,11.35 -24.68,11.44 C-24.56,11.54 -24.44,11.64 -24.34,11.71 C-25.18,12.55 -25.98,13.35 -26.79,14.15 C-27.3,13.72 -27.85,13.27 -28.56,13.08 C-29.77,12.76 -30.91,12.91 -31.84,13.77 C-33.09,14.93 -34.28,16.14 -35.49,17.34 C-36.28,18.12 -37.06,18.91 -37.84,19.69 C-38.67,18.86 -39.47,18.06 -40.25,17.29 L-40.24,17.3 Z M-12.68,11.21 C-12.88,11.41 -12.98,11.36 -13.17,11.21 C-13.7,10.79 -14.22,10.34 -14.81,10.02 C-15.76,9.5 -16.82,9.39 -17.88,9.35 C-18.47,9.33 -19.07,9.36 -19.66,9.41 C-20.15,9.45 -20.64,9.53 -21.11,9.65 C-22.26,9.92 -23.16,10.62 -23.98,11.38 C-24.43,11.03 -24.85,10.67 -25.31,10.35 C-26.37,9.62 -27.6,9.39 -28.85,9.36 C-29.68,9.33 -30.51,9.41 -31.34,9.48 C-32.27,9.55 -33.11,9.9 -33.88,10.42 C-34.32,10.72 -34.72,11.08 -35.07,11.36 C-35.72,10.91 -36.32,10.42 -36.99,10.03 C-37.91,9.51 -38.96,9.4 -40,9.36 C-40.24,9.35 -40.49,9.36 -40.73,9.36 L-40.73,9.83 C-40.37,9.83 -40.01,9.83 -39.65,9.86 C-38.02,9.96 -36.61,10.59 -35.46,11.73 C-36.28,12.55 -37.09,13.35 -37.9,14.17 C-38.35,13.71 -38.88,13.35 -39.52,13.13 C-39.92,13 -40.32,12.93 -40.72,12.93 L-40.72,13.37 C-39.82,13.35 -38.9,13.72 -38.26,14.53 C-39.07,15.34 -39.86,16.12 -40.63,16.89 C-40.66,16.86 -40.69,16.83 -40.72,16.8 L-40.72,17.59 C-38.97,19.34 -37.21,21.1 -35.44,22.86 C-36.24,23.67 -37.04,24.46 -37.82,25.24 C-38.79,24.27 -39.75,23.31 -40.71,22.34 L-40.71,23.15 C-40.71,23.15 -40.62,23.21 -40.62,23.21 C-40.6,23.22 -40.55,23.24 -40.52,23.28 C-39.8,24 -39.09,24.71 -38.37,25.43 C-38.25,25.55 -38.17,25.64 -38.33,25.79 C-38.97,26.39 -39.7,26.79 -40.6,26.79 C-40.64,26.79 -40.67,26.78 -40.7,26.78 L-40.7,27.25 C-40.23,27.25 -39.75,27.14 -39.29,26.93 C-38.81,26.7 -38.33,26.4 -37.95,26.03 C-36.14,24.27 -34.37,22.47 -32.59,20.69 C-32.51,20.61 -32.44,20.51 -32.4,20.45 C-31.55,21.29 -30.74,22.11 -29.92,22.92 C-31.71,24.71 -33.53,26.56 -35.39,28.37 C-36.28,29.24 -37.34,29.87 -38.58,30.13 C-38.98,30.22 -39.39,30.26 -39.8,30.3 C-40.1,30.33 -40.4,30.36 -40.69,30.36 L-40.69,30.8 C-40.25,30.8 -39.81,30.78 -39.37,30.74 C-38.8,30.69 -38.23,30.59 -37.68,30.43 C-36.65,30.14 -35.84,29.46 -35.11,28.81 C-34.46,29.26 -33.86,29.76 -33.2,30.13 C-32.29,30.64 -31.26,30.78 -30.22,30.81 C-29.52,30.83 -28.82,30.79 -28.13,30.75 C-27.45,30.72 -26.79,30.57 -26.16,30.29 C-25.34,29.92 -24.61,29.41 -23.99,28.76 C-23.81,28.91 -23.63,29.04 -23.47,29.19 C-22.22,30.36 -20.7,30.79 -19.03,30.81 C-18.41,30.81 -17.78,30.78 -17.16,30.75 C-16.3,30.72 -15.46,30.54 -14.71,30.11 C-14.05,29.72 -13.44,29.24 -12.81,28.8 C-12.61,28.97 -12.37,29.19 -12.12,29.4 C-11.18,30.18 -10.08,30.63 -8.87,30.74 C-8.36,30.79 -7.84,30.81 -7.33,30.81 L-7.33,30.36 C-7.38,30.36 -7.44,30.36 -7.49,30.36 C-8.96,30.32 -10.38,30.08 -11.6,29.18 C-11.93,28.94 -12.25,28.68 -12.56,28.44 C-11.73,27.61 -10.92,26.8 -10.13,26.02 C-9.74,26.31 -9.36,26.66 -8.92,26.88 C-8.39,27.14 -7.86,27.27 -7.34,27.26 L-7.34,26.79 C-7.34,26.79 -7.4,26.79 -7.43,26.79 C-8.18,26.76 -8.86,26.51 -9.4,25.98 C-9.47,25.91 -9.52,25.83 -9.6,25.79 C-9.79,25.69 -9.76,25.6 -9.62,25.46 C-8.87,24.72 -8.12,23.97 -7.38,23.22 L-7.33,23.17 L-7.33,22.36 C-9.04,20.65 -10.75,19.02 -12.46,17.32 C-11.67,16.53 -10.87,15.73 -10.08,14.94 C-9.17,15.85 -8.25,16.69 -7.33,17.6 L-7.33,16.81 C-8.12,16.02 -8.91,15.31 -9.7,14.52 C-9.15,13.76 -8.25,13.37 -7.33,13.38 L-7.33,12.93 C-8.15,12.92 -8.98,13.19 -9.6,13.77 C-10.7,14.8 -11.75,15.87 -12.83,16.92 C-13.77,17.84 -14.71,18.75 -15.62,19.63 C-16.38,18.87 -17.17,18.08 -18.06,17.2 C-18.03,17.19 -17.91,17.15 -17.83,17.08 C-16.24,15.5 -14.64,13.94 -13.08,12.33 C-12.3,11.52 -11.46,10.83 -10.43,10.41 C-9.87,10.18 -9.26,10.05 -8.66,9.93 C-8.23,9.84 -7.77,9.83 -7.33,9.84 L-7.33,9.37 C-7.92,9.38 -8.52,9.43 -9.11,9.48 C-10.5,9.62 -11.65,10.26 -12.63,11.22 L-12.68,11.21 Z" id="Forma" fill="#F5C889"></path>
                            <g id="Clipped">
                                <mask id="mask-7" fill="white">
                                    <use xlink:href="#path-6"></use>
                                </mask>
                                <g id="Forma"></g>
                                <rect id="Rectángulo" fill="#F5C889" mask="url(#mask-7)" x="-41.02" y="9.05" width="67.29" height="22.06"></rect>
                            </g>
                        </g>
                    </g>
                </g>
                <g id="Clipped">
                    <mask id="mask-9" fill="white">
                        <use xlink:href="#path-8"></use>
                    </mask>
                    <g id="Trazado"></g>
                    <g mask="url(#mask-9)">
                        <mask id="mask-11" fill="white">
                            <use xlink:href="#path-10"></use>
                        </mask>
                        <g id="Rectángulo"></g>
                        <g id="Grupo" mask="url(#mask-11)">
                            <path d="M235.13,16.88 C234.36,16.11 233.56,15.31 232.74,14.48 C234.09,12.95 236.32,13.02 237.5,14.51 C236.7,15.31 235.91,16.1 235.13,16.88 Z M240.33,22.86 C239.53,23.66 238.73,24.46 237.86,25.33 C235.24,22.65 232.61,19.96 230.01,17.29 C230.77,16.53 231.58,15.72 232.39,14.92 C235.02,17.55 237.68,20.21 240.34,22.86 L240.33,22.86 Z M240.68,17.77 C241.43,18.52 242.22,19.31 243,20.09 C242.24,20.85 241.44,21.64 240.67,22.42 C239.9,21.65 239.11,20.86 238.35,20.11 C239.12,19.34 239.91,18.55 240.68,17.78 L240.68,17.77 Z M243.37,20.45 C244.21,21.29 245.02,22.1 245.84,22.92 C244.02,24.74 242.18,26.61 240.29,28.44 C239.41,29.29 238.34,29.88 237.14,30.15 C236.75,30.24 236.34,30.26 235.95,30.31 C235.73,30.33 235.52,30.38 235.3,30.37 C234.6,30.32 233.9,30.28 233.2,30.18 C232.07,30.01 230.68,29.28 229.93,28.38 C230.68,27.64 231.43,26.89 232.17,26.14 C232.33,25.98 232.42,26.01 232.57,26.14 C232.85,26.38 233.13,26.63 233.44,26.82 C234.09,27.2 234.8,27.28 235.55,27.19 C236.56,27.07 237.32,26.53 238.01,25.84 C239.72,24.12 241.44,22.41 243.16,20.69 C243.24,20.61 243.31,20.52 243.36,20.45 L243.37,20.45 Z M235.14,23.27 C235.92,24.05 236.73,24.85 237.55,25.68 C236.17,27.2 234.09,27.19 232.74,25.68 C233.55,24.87 234.36,24.06 235.15,23.28 L235.14,23.27 Z M227.58,29.59 C226.92,29.94 226.21,30.18 225.45,30.25 C224.95,30.29 224.44,30.38 223.94,30.37 C222.66,30.34 221.39,30.19 220.26,29.5 C219.75,29.18 219.27,28.81 218.78,28.47 C219.64,27.62 220.44,26.81 221.27,25.99 C221.72,26.44 222.19,26.87 222.81,27.06 C224.14,27.47 225.38,27.25 226.41,26.32 C227.48,25.36 228.49,24.32 229.51,23.3 C230.4,22.41 231.28,21.5 232.16,20.59 C232.26,20.48 232.35,20.4 232.5,20.54 C233.26,21.3 234.02,22.06 234.8,22.83 C234.71,22.93 234.63,23.01 234.55,23.09 C232.95,24.69 231.34,26.27 229.76,27.89 C229.11,28.56 228.41,29.16 227.58,29.59 L227.58,29.59 Z M221.74,25.46 C222.49,24.72 223.23,23.97 223.98,23.22 C224.81,24.05 225.62,24.85 226.43,25.66 C225.79,26.4 224.97,26.83 223.94,26.79 C223.19,26.76 222.51,26.51 221.97,25.97 C221.9,25.9 221.85,25.82 221.77,25.78 C221.58,25.68 221.61,25.59 221.74,25.45 L221.74,25.46 Z M218.92,17.35 C219.71,16.56 220.52,15.75 221.32,14.96 C223.91,17.54 226.56,20.19 229.2,22.83 C228.4,23.63 227.59,24.43 226.8,25.22 C224.18,22.6 221.53,19.96 218.92,17.34 L218.92,17.35 Z M218.48,22.38 C217.73,21.64 216.94,20.84 216.17,20.07 C216.93,19.31 217.72,18.52 218.5,17.75 C219.26,18.51 220.05,19.3 220.81,20.06 C220.04,20.82 219.25,21.62 218.48,22.39 L218.48,22.38 Z M213.35,17.3 C215,15.64 216.7,13.97 218.35,12.26 C219.39,11.17 220.58,10.37 222.05,10.02 C222.45,9.93 222.86,9.87 223.27,9.85 C223.8,9.82 224.34,9.82 224.88,9.85 C226.23,9.92 227.48,10.3 228.56,11.15 C228.68,11.25 228.8,11.35 228.92,11.44 C229.04,11.54 229.16,11.64 229.26,11.71 C228.42,12.55 227.62,13.35 226.81,14.15 C226.3,13.72 225.75,13.27 225.04,13.08 C223.83,12.76 222.69,12.91 221.76,13.77 C220.51,14.93 219.32,16.14 218.11,17.34 C217.32,18.12 216.54,18.91 215.76,19.69 C214.93,18.86 214.13,18.06 213.35,17.29 L213.35,17.3 Z M224.08,16.91 C223.27,16.1 222.48,15.31 221.67,14.51 C222.84,12.91 225.31,13.03 226.47,14.6 C226.06,14.98 225.64,15.35 225.24,15.74 C224.83,16.13 224.44,16.54 224.07,16.91 L224.08,16.91 Z M229.55,17.72 C230.35,18.52 231.15,19.32 231.98,20.15 C231.72,20.4 231.41,20.69 231.11,20.99 C230.66,21.44 230.2,21.89 229.76,22.34 C229.65,22.45 229.56,22.52 229.42,22.38 C228.66,21.62 227.9,20.86 227.1,20.07 C227.95,19.25 228.76,18.47 229.54,17.72 L229.55,17.72 Z M229.96,11.74 C230.91,10.82 232.05,10.19 233.38,9.98 C233.95,9.89 234.53,9.79 235.1,9.8 C236.42,9.84 237.74,9.94 238.9,10.67 C239.4,10.98 239.87,11.35 240.34,11.69 C239.48,12.55 238.67,13.35 237.86,14.17 C237.42,13.73 236.89,13.36 236.27,13.15 C235.1,12.76 234.01,12.9 233.01,13.64 C232.78,13.81 232.57,14.02 232.36,14.22 C230.59,15.99 228.81,17.75 227.05,19.53 C226.86,19.72 226.75,19.74 226.55,19.53 C225.83,18.79 225.1,18.08 224.35,17.33 C224.43,17.25 224.5,17.17 224.57,17.1 C226.36,15.31 228.14,13.5 229.96,11.74 Z M240.47,12.32 C241.25,11.51 242.09,10.82 243.12,10.4 C243.68,10.17 244.29,10.04 244.89,9.92 C245.32,9.83 245.78,9.82 246.22,9.83 L246.22,9.36 C245.63,9.37 245.03,9.42 244.44,9.47 C243.05,9.61 241.9,10.25 240.92,11.21 C240.72,11.41 240.62,11.36 240.43,11.21 C239.9,10.79 239.38,10.34 238.79,10.02 C237.84,9.5 236.78,9.39 235.72,9.35 C235.13,9.33 234.53,9.36 233.94,9.41 C233.45,9.45 232.96,9.53 232.49,9.65 C231.34,9.92 230.44,10.62 229.62,11.38 C229.18,11.03 228.75,10.67 228.29,10.35 C227.23,9.62 226,9.39 224.75,9.36 C223.92,9.33 223.09,9.41 222.26,9.48 C221.33,9.55 220.49,9.9 219.72,10.42 C219.28,10.72 218.88,11.08 218.53,11.36 C217.88,10.91 217.28,10.42 216.61,10.03 C215.69,9.51 214.64,9.4 213.6,9.36 C213.36,9.35 213.11,9.36 212.87,9.36 L212.87,9.83 C213.23,9.83 213.59,9.83 213.95,9.86 C215.58,9.96 216.99,10.59 218.14,11.73 C217.32,12.55 216.51,13.35 215.7,14.17 C215.25,13.71 214.72,13.35 214.08,13.13 C213.68,13 213.28,12.93 212.88,12.93 L212.88,13.37 C213.78,13.35 214.7,13.72 215.34,14.53 C214.53,15.34 213.74,16.12 212.97,16.89 C212.94,16.86 212.91,16.83 212.88,16.8 L212.88,17.59 C214.63,19.34 216.39,21.1 218.16,22.86 C217.36,23.67 216.56,24.46 215.78,25.24 C214.81,24.27 213.85,23.31 212.89,22.34 L212.89,23.15 C212.89,23.15 212.98,23.21 212.98,23.21 C213,23.22 213.05,23.24 213.08,23.28 C213.8,24 214.51,24.71 215.23,25.43 C215.35,25.55 215.43,25.64 215.27,25.79 C214.63,26.39 213.9,26.79 213,26.79 C212.96,26.79 212.93,26.78 212.9,26.78 L212.9,27.25 C213.37,27.25 213.85,27.14 214.31,26.93 C214.79,26.7 215.27,26.4 215.65,26.03 C217.46,24.27 219.23,22.47 221.01,20.69 C221.09,20.61 221.16,20.51 221.2,20.45 C222.05,21.29 222.86,22.11 223.68,22.92 C221.89,24.71 220.07,26.56 218.21,28.37 C217.32,29.24 216.26,29.87 215.02,30.13 C214.62,30.22 214.21,30.26 213.8,30.3 C213.5,30.33 213.2,30.36 212.91,30.36 L212.91,30.8 C213.35,30.8 213.79,30.78 214.23,30.74 C214.8,30.69 215.37,30.59 215.92,30.43 C216.95,30.14 217.76,29.46 218.49,28.81 C219.14,29.26 219.74,29.76 220.4,30.13 C221.31,30.64 222.34,30.78 223.38,30.81 C224.08,30.83 224.78,30.79 225.47,30.75 C226.15,30.72 226.81,30.57 227.44,30.29 C228.26,29.92 228.99,29.41 229.61,28.76 C229.79,28.91 229.97,29.04 230.13,29.19 C231.38,30.36 232.9,30.79 234.57,30.81 C235.19,30.81 235.82,30.78 236.44,30.75 C237.3,30.72 238.14,30.54 238.89,30.11 C239.55,29.72 240.16,29.24 240.79,28.8 C240.99,28.97 241.23,29.19 241.48,29.4 C242.42,30.18 243.52,30.63 244.73,30.74 C245.24,30.79 245.76,30.81 246.27,30.81 L246.27,30.36 C246.22,30.36 246.16,30.36 246.11,30.36 C244.64,30.32 243.22,30.08 242,29.18 C241.67,28.94 241.35,28.68 241.04,28.44 C241.87,27.61 242.68,26.8 243.47,26.02 C243.86,26.31 244.24,26.66 244.68,26.88 C245.21,27.14 245.74,27.27 246.26,27.26 L246.26,26.79 C246.26,26.79 246.2,26.79 246.17,26.79 C245.42,26.76 244.74,26.51 244.2,25.98 C244.13,25.91 244.08,25.83 244,25.79 C243.81,25.69 243.84,25.6 243.97,25.46 C244.72,24.72 245.47,23.97 246.21,23.22 L246.26,23.17 L246.26,22.36 C244.55,20.65 242.84,19.02 241.13,17.32 C241.92,16.53 242.72,15.73 243.51,14.94 C244.42,15.85 245.34,16.69 246.26,17.6 L246.26,16.81 C245.47,16.02 244.68,15.31 243.89,14.52 C244.44,13.76 245.34,13.37 246.26,13.38 L246.26,12.93 C245.44,12.92 244.61,13.19 243.99,13.77 C242.89,14.8 241.84,15.87 240.76,16.92 C239.82,17.84 238.88,18.75 237.97,19.63 C237.21,18.87 236.41,18.08 235.53,17.2 C235.56,17.19 235.68,17.15 235.76,17.08 C237.35,15.5 238.95,13.94 240.51,12.33 L240.47,12.32 Z M204.52,14.17 C204.08,13.73 203.55,13.36 202.93,13.15 C201.76,12.76 200.67,12.9 199.67,13.64 C199.44,13.81 199.23,14.02 199.02,14.22 C197.25,15.99 195.47,17.75 193.71,19.53 C193.52,19.72 193.41,19.74 193.21,19.53 C192.49,18.79 191.76,18.08 191.01,17.33 C191.09,17.25 191.16,17.17 191.23,17.1 C193.02,15.31 194.8,13.5 196.62,11.74 C197.57,10.82 198.71,10.19 200.05,9.98 C200.62,9.89 201.2,9.79 201.77,9.8 C203.09,9.84 204.41,9.94 205.57,10.67 C206.07,10.98 206.54,11.35 207.01,11.69 C206.15,12.55 205.34,13.35 204.53,14.17 L204.52,14.17 Z M201.78,16.88 C201.01,16.11 200.21,15.31 199.39,14.48 C200.74,12.95 202.97,13.02 204.15,14.51 C203.35,15.31 202.56,16.1 201.78,16.88 Z M206.98,22.86 C206.18,23.66 205.38,24.46 204.51,25.33 C201.89,22.65 199.26,19.96 196.66,17.29 C197.42,16.53 198.23,15.72 199.04,14.92 C201.67,17.55 204.33,20.21 206.99,22.86 L206.98,22.86 Z M207.33,17.77 C208.08,18.52 208.87,19.31 209.65,20.09 C208.89,20.85 208.09,21.64 207.32,22.42 C206.55,21.65 205.76,20.86 205,20.11 C205.77,19.34 206.56,18.55 207.33,17.78 L207.33,17.77 Z M210.02,20.45 C210.86,21.29 211.67,22.1 212.49,22.92 C210.67,24.74 208.83,26.61 206.94,28.44 C206.06,29.29 204.99,29.88 203.79,30.15 C203.4,30.24 203,30.26 202.6,30.31 C202.39,30.33 202.17,30.38 201.95,30.37 C201.25,30.32 200.55,30.28 199.85,30.18 C198.72,30.01 197.33,29.28 196.58,28.38 C197.33,27.64 198.08,26.89 198.82,26.14 C198.98,25.98 199.07,26.01 199.22,26.14 C199.5,26.38 199.78,26.63 200.09,26.82 C200.74,27.2 201.45,27.28 202.2,27.19 C203.21,27.07 203.97,26.53 204.66,25.84 C206.37,24.12 208.09,22.41 209.81,20.69 C209.89,20.61 209.96,20.52 210.01,20.45 L210.02,20.45 Z M201.79,23.27 C202.57,24.05 203.38,24.85 204.2,25.68 C202.82,27.2 200.74,27.19 199.39,25.68 C200.2,24.87 201.01,24.06 201.8,23.28 L201.79,23.27 Z M194.22,29.59 C193.56,29.94 192.85,30.18 192.09,30.25 C191.59,30.29 191.08,30.38 190.58,30.37 C189.3,30.34 188.03,30.19 186.9,29.5 C186.39,29.18 185.91,28.81 185.42,28.47 C186.28,27.62 187.08,26.81 187.91,25.99 C188.36,26.44 188.83,26.87 189.45,27.06 C190.78,27.47 192.02,27.25 193.05,26.32 C194.12,25.36 195.13,24.32 196.15,23.3 C197.04,22.41 197.92,21.5 198.8,20.59 C198.9,20.48 198.99,20.4 199.14,20.54 C199.9,21.3 200.66,22.06 201.44,22.83 C201.35,22.93 201.27,23.01 201.19,23.09 C199.59,24.69 197.98,26.27 196.4,27.89 C195.75,28.56 195.05,29.16 194.22,29.59 L194.22,29.59 Z M188.39,25.46 C189.14,24.72 189.88,23.97 190.63,23.22 C191.46,24.05 192.27,24.85 193.08,25.66 C192.44,26.4 191.62,26.83 190.59,26.79 C189.84,26.76 189.16,26.51 188.62,25.97 C188.55,25.9 188.5,25.82 188.42,25.78 C188.23,25.68 188.26,25.59 188.39,25.45 L188.39,25.46 Z M193.76,20.07 C194.61,19.25 195.42,18.47 196.2,17.72 C197,18.52 197.8,19.32 198.63,20.15 C198.37,20.4 198.06,20.69 197.76,20.99 C197.31,21.44 196.85,21.89 196.41,22.34 C196.3,22.45 196.21,22.52 196.07,22.38 C195.31,21.62 194.55,20.86 193.75,20.07 L193.76,20.07 Z M185.57,17.35 C186.36,16.56 187.17,15.75 187.97,14.96 C190.56,17.54 193.21,20.19 195.86,22.83 C195.06,23.63 194.25,24.43 193.46,25.22 L185.57,17.34 L185.57,17.35 Z M185.13,22.38 C184.38,21.64 183.59,20.84 182.82,20.07 C183.58,19.31 184.37,18.52 185.15,17.75 C185.91,18.51 186.7,19.3 187.46,20.06 C186.69,20.82 185.9,21.62 185.13,22.39 L185.13,22.38 Z M193.13,14.6 C192.72,14.98 192.3,15.35 191.9,15.74 C191.49,16.13 191.1,16.54 190.73,16.91 C189.92,16.1 189.13,15.31 188.32,14.51 C189.49,12.91 191.96,13.03 193.13,14.6 L193.13,14.6 Z M180,17.3 C181.65,15.64 183.35,13.97 185,12.26 C186.04,11.17 187.23,10.37 188.7,10.02 C189.1,9.93 189.51,9.87 189.92,9.85 C190.45,9.82 190.99,9.82 191.52,9.85 C192.87,9.92 194.12,10.3 195.2,11.15 C195.32,11.25 195.44,11.35 195.56,11.44 C195.68,11.54 195.8,11.64 195.9,11.71 C195.06,12.55 194.26,13.35 193.45,14.15 C192.94,13.72 192.39,13.27 191.68,13.08 C190.47,12.76 189.33,12.91 188.4,13.77 C187.15,14.93 185.96,16.14 184.75,17.34 C183.96,18.12 183.18,18.91 182.4,19.69 C181.57,18.86 180.77,18.06 179.99,17.29 L180,17.3 Z M207.56,11.21 C207.36,11.41 207.26,11.36 207.07,11.21 C206.54,10.79 206.02,10.34 205.43,10.02 C204.48,9.5 203.42,9.39 202.36,9.35 C201.77,9.33 201.17,9.36 200.58,9.41 C200.09,9.45 199.6,9.53 199.13,9.65 C197.98,9.92 197.08,10.62 196.26,11.38 C195.81,11.03 195.39,10.67 194.93,10.35 C193.87,9.62 192.64,9.39 191.39,9.36 C190.56,9.33 189.73,9.41 188.9,9.48 C187.97,9.55 187.13,9.9 186.36,10.42 C185.92,10.72 185.52,11.08 185.17,11.36 C184.52,10.91 183.92,10.42 183.25,10.03 C182.33,9.51 181.28,9.4 180.24,9.36 C180,9.35 179.75,9.36 179.51,9.36 L179.51,9.83 C179.87,9.83 180.23,9.83 180.59,9.86 C182.22,9.96 183.63,10.59 184.78,11.73 C183.96,12.55 183.15,13.35 182.34,14.17 C181.89,13.71 181.36,13.35 180.72,13.13 C180.32,13 179.92,12.93 179.52,12.93 L179.52,13.37 C180.42,13.35 181.34,13.72 181.98,14.53 C181.17,15.34 180.38,16.12 179.61,16.89 C179.58,16.86 179.55,16.83 179.52,16.8 L179.52,17.59 C181.27,19.34 183.03,21.1 184.8,22.86 C184,23.67 183.2,24.46 182.42,25.24 C181.45,24.27 180.49,23.31 179.53,22.34 L179.53,23.15 C179.53,23.15 179.62,23.21 179.62,23.21 C179.64,23.22 179.69,23.24 179.72,23.28 C180.44,24 181.15,24.71 181.87,25.43 C181.99,25.55 182.07,25.64 181.91,25.79 C181.27,26.39 180.54,26.79 179.64,26.79 C179.6,26.79 179.57,26.78 179.54,26.78 L179.54,27.25 C180.01,27.25 180.49,27.14 180.95,26.93 C181.43,26.7 181.91,26.4 182.29,26.03 C184.1,24.27 185.87,22.47 187.65,20.69 C187.73,20.61 187.8,20.51 187.84,20.45 C188.69,21.29 189.5,22.11 190.32,22.92 C188.53,24.71 186.71,26.56 184.85,28.37 C183.96,29.24 182.9,29.87 181.66,30.13 C181.26,30.22 180.85,30.26 180.44,30.3 C180.14,30.33 179.84,30.36 179.55,30.36 L179.55,30.8 C179.99,30.8 180.43,30.78 180.87,30.74 C181.44,30.69 182.01,30.59 182.56,30.43 C183.59,30.14 184.4,29.46 185.13,28.81 C185.78,29.26 186.38,29.76 187.04,30.13 C187.95,30.64 188.98,30.78 190.02,30.81 C190.72,30.83 191.42,30.79 192.11,30.75 C192.79,30.72 193.45,30.57 194.08,30.29 C194.9,29.92 195.63,29.41 196.25,28.76 C196.43,28.91 196.61,29.04 196.77,29.19 C198.02,30.36 199.54,30.79 201.21,30.81 C201.83,30.81 202.46,30.78 203.08,30.75 C203.94,30.72 204.78,30.54 205.53,30.11 C206.19,29.72 206.8,29.24 207.43,28.8 C207.63,28.97 207.87,29.19 208.12,29.4 C209.06,30.18 210.16,30.63 211.37,30.74 C211.88,30.79 212.4,30.81 212.91,30.81 L212.91,30.36 C212.86,30.36 212.8,30.36 212.75,30.36 C211.28,30.32 209.86,30.08 208.64,29.18 C208.31,28.94 207.99,28.68 207.68,28.44 C208.51,27.61 209.32,26.8 210.11,26.02 C210.5,26.31 210.88,26.66 211.32,26.88 C211.85,27.14 212.38,27.27 212.9,27.26 L212.9,26.79 C212.9,26.79 212.84,26.79 212.81,26.79 C212.06,26.76 211.38,26.51 210.84,25.98 C210.77,25.91 210.72,25.83 210.64,25.79 C210.45,25.69 210.48,25.6 210.62,25.46 C211.37,24.72 212.12,23.97 212.86,23.22 L212.91,23.17 L212.91,22.36 C211.2,20.65 209.49,19.02 207.78,17.32 C208.57,16.53 209.37,15.73 210.16,14.94 C211.07,15.85 211.99,16.69 212.91,17.6 L212.91,16.81 C212.12,16.02 211.33,15.31 210.54,14.52 C211.09,13.76 211.99,13.37 212.91,13.38 L212.91,12.93 C212.09,12.92 211.26,13.19 210.64,13.77 C209.54,14.8 208.49,15.87 207.41,16.92 C206.47,17.84 205.53,18.75 204.62,19.63 C203.86,18.87 203.07,18.08 202.18,17.2 C202.21,17.19 202.33,17.15 202.41,17.08 C204,15.5 205.6,13.94 207.16,12.33 C207.94,11.52 208.78,10.83 209.81,10.41 C210.37,10.18 210.98,10.05 211.58,9.93 C212.01,9.84 212.47,9.83 212.91,9.84 L212.91,9.37 C212.32,9.38 211.72,9.43 211.13,9.48 C209.74,9.62 208.59,10.26 207.61,11.22 L207.56,11.21 Z" id="Forma" fill="#F5C889"></path>
                            <g id="Clipped">
                                <mask id="mask-13" fill="white">
                                    <use xlink:href="#path-12"></use>
                                </mask>
                                <g id="Forma"></g>
                                <rect id="Rectángulo" fill="#F5C889" mask="url(#mask-13)" x="179.22" y="9.05" width="67.29" height="22.06"></rect>
                            </g>
                        </g>
                    </g>
                </g>
            </g>
        </g>
    </g>
</svg>